<svg xmlns="http://www.w3.org/2000/svg" viewBox="0 0 411 230"><style>.st0{fill:#ffefed}.st1{fill:#ffe1d6}.st2{fill:#f9cbc7}.st3{fill:#fffaf0}.st4{fill:#fff}.st5{fill:#231f20}.st6{fill:#fa9269}.st7{fill:#993f21}.st10{fill:#06c167}.st12{fill:#453473}.st13{fill:#33150b}.st14{fill:#7356bf}.st20{fill:#ffcf70}</style><path class="st0" d="M0 0h411v230H0z"/><path class="st1" d="M293.1 114.8h20.2v71.4h-20.2z"/><path class="st2" d="M303.348 229.946h-10.3v-82.6h10.3z"/><path class="st3" d="M325.5 147.4h20V230h-20z"/><path class="st2" d="M100.294 230h-23.2v-61.2h23.2z"/><path class="st1" d="M394.268 230.006h-23.7v-146.5h23.7z"/><path class="st1" d="M345.5 125.6V230h25.1V109.2l-19.4 12.6zM223.1 230H280v-88.7h-19.8v-.1h-37.1z"/><path class="st2" d="M252.75 229.946h-87.3v-43.8h87.3z"/><path class="st1" d="M303.4 114.9h7.1l-7.1-12.6z"/><path class="st2" d="M303.4 114.9h-7.1l7.1-12.6zm90.9-10.6-11.9-20.9h-11.8V230h23.7zM322.9 230H348v-32.1l-25.1-11.8zm-81.328-.048h-22.3v-88.4h22.3zm61.776-77.622h-10.3v-37.4h10.3z"/><path class="st1" d="M370.536 137.926h-10.3v-2.6h10.3zm0 4.718h-10.3v-2.6h10.3z"/><path class="st0" d="M208.248 194.574h-2.6v-2.6h2.6zm3.826 4.61h-2.6v-2.6h2.6zm-7.944 0h-2.6v-2.6h2.6z"/><path class="st2" d="M325.466 149.466h-2.2v-8h2.2zm-3.992 0h-2.2v-8h2.2z"/><path class="st1" d="M293.1 170.8V230H280v-72.8z"/><path class="st2" d="M223.5 186.2h50V230h-50z"/><path class="st2" d="M223.5 186h61.3v5h-61.3z"/><path class="st1" d="M84.95 229.96h-31.7V98.86h31.7z"/><path class="st1" d="M54.124 206.31h-35.5v-83.4h35.5zM69.1 88.8c4.7 0 8.4 3.8 8.4 8.4H60.7c0-4.6 3.8-8.4 8.4-8.4z"/><path class="st1" d="M77.572 100.394h-16.9v-3.2h16.9z"/><path class="st0" d="M26.24 136.876h-2.6v-2.6h2.6zm5.3-5.296h-2.6v-2.6h2.6zm5.268 5.296h-2.6v-2.6h2.6zm5.268-5.296h-2.6v-2.6h2.6zm0 5.296h-2.6v-2.6h2.6zm-15.836 5.37h-2.6v-2.6h2.6zm5.3 0h-2.6v-2.6h2.6zm5.268 0h-2.6v-2.6h2.6z"/><path class="st1" d="M332.036 162.08h-2.6v-2.6h2.6zm5.298-5.294h-2.6v-2.6h2.6zm0 10.566h-2.6v-2.6h2.6zm5.266 0H340v-2.6h2.6z"/><path class="st3" d="M139.086 229.984h-26.4v-97.3h26.4z"/><path class="st1" d="M100.2 132.6h12.4V169h-12.4zm0 39.6h12.4v3.2h-12.4zm0 6.2h12.4v51.5h-12.4z"/><path class="st2" d="M100.2 169.1h12.4v3.1h-12.4z"/><path class="st1" d="M112.6 169.1H139v3.1h-26.4z"/><path class="st2" d="M100.2 175.4h12.4v3.1h-12.4z"/><path class="st1" d="M112.6 175.4H139v3.1h-26.4z"/><path class="st2" d="M139.1 180.6h28.7V230h-28.7z"/><path class="st2" d="m139.1 169.1 11.5 12.3v33.4h-11.5zm-91.746 60.824h-28.7v-35h28.7z"/><path class="st3" d="M84.92 230.016h-23.5v-24.1h23.5z"/><path class="st1" d="M61.474 229.924h-14.1v-35h14.1z"/><path class="st0" d="m47.5 195 13.9 11h23.5l-13.8-11z"/><path class="st1" d="M276.4 144.784h-5.8v-11.6h5.8z"/><path class="st2" d="M74.4 215.8c2.4 0 4.3 1.9 4.3 4.3v10h-8.5v-10c0-2.4 1.9-4.3 4.2-4.3zm19.6-2.1h36.3V230H94zM0 178.2h18.6v51.7H0zm18.7-7c0-10.3-8.4-18.7-18.7-18.7v18.7h18.7zm-18.7 0h18.7v7H0zm386.1-14.5h25v73h-25zm-40.6 41.8H386v31.1h-40.5zm-42.1-51.1h22.1v82.3h-22.1z"/><path class="st2" d="M273.5 208.9h72v20.8h-72z"/><circle class="st4" cx="60.7" cy="46" r="11.3"/><path class="st4" d="M243.7 230c9.1-3.3 17.6-8.1 25-14.2 2.2-1.8 4.3-3.7 7-4.7 2.4-.9 5.2-.8 7.2.7.8.6 1.5 1.6 1.7 2.6.2.9-.2 2.1.3 2.8 2.6-1.4 5.3-3.8 7.7-5.6 3-2.2 6.2-4.3 9.5-6.2 6.4-3.6 13.2-6.4 20.4-8.1 3.1-.7 8.1-1.6 10.2 1.5 3.1 4.6-5.5 10.7-8.5 13.1-3.6 2.8-7.3 5.5-11.2 7.9 5.5-3.4 11.4-7 17.5-9.4 6-2.4 12.6-3.9 19-3.5 2 .1 4.4.6 5.4 2.4 1.1 1.9.3 4.2-.8 6.1-2.4 4.1-5.9 7.4-9.4 10.7-2.2 2-4.5 3.2-7.3 4h-93.7z"/><path class="st5" d="m233.5 205 1-.2c6.9-1.6 12.4-6.8 14.4-13.6v-.1l-13.5-1.4-1.9 15.3z"/><path class="st6" d="m231.7 199.8 11.1 11.6 6.1-8.7-10.6-11.7z"/><path class="st7" d="m240.4 208.9 1.9-2c.3-.3.8-.5 1.2-.5h2.8l2.5-3.6h.1c2 0 3.9.8 5.2 2.3l3.6 3.9-14.2 18.2-13 .5.2-3.3c.5-1.4 1.5-2.4 2.9-2.9l2.6-.9c1.7-.6 2.9-2.3 2.8-4.1l-.1-4.3c.2-1.3.7-2.4 1.5-3.3z"/><path class="st5" d="M230.7 227.6v2.3h14.8l13.7-18.5c.4-.5.3-1.2-.2-1.6l-1.1-1-14.2 18.2-13 .6z"/><path d="m189.7 151.7 15.5 24.7c.7 1.2 1.6 2.3 2.5 3.3l25.8 25.4 1.8-4.2c1.9-4.6 6-8 10.9-9.1l2.8-.6-28.7-22.4c-2-1.5-3.5-3.6-4.3-5.9l-12.7-34.1-13.6 22.9z" fill="#757575"/><path class="st5" d="m149.3 208.3 4.3 2.3c5.9 3.1 13 3 18.9-.3l-2-11.4-21.2 9.4z"/><path class="st6" d="m153.4 202.9-7.7 16.2 11.4 4.3 9.2-21.2z"/><path class="st7" d="m146.4 215.7 3.7 1.4c.6.2 1.1.7 1.4 1.3l1.2 2.7h5.3c1.3 1.4 2 3.2 2 5.1v1.5h-35.4v-.8c.7-2.5 2.7-4.3 5.2-4.7l13.3-3.7 2-2.4c.4-.4.9-.6 1.3-.4z"/><path class="st5" d="M124.7 227.7h35.4v2.3h-35.4z"/><path d="m183 110-16.7 48c-.6 1.7-1.1 3.4-1.7 5.1-1.4 4-2.7 8.1-4.1 12.1-1.6 4.9-3.3 9.8-4.9 14.6l-4.2 12.6c-.5 1.4-.9 2.7-1.4 4.1-.1.2-.8 1.7-.6 1.9-.1-.4 5.4.4 5.8.4 1.7 0 3.3-.7 4.8-1.5 1.2-.6 2.6-.9 3.9-.9 2.2 0 4.8 1.1 6.5 2.4l2.1 1.6 11.6-44.8c.5-1.8 1.3-3.6 2.3-5.2l19.6-29.6c2.4-3.7 3.6-8 3.6-12.4 0-3-.6-5.9-1.7-8.7l-1.6-3.9L183 110z" fill="#afafaf"/><path class="st10" d="m224.6 105.8-31.7.1-.1-39.6 39.2-.1.1 32.1c0 4.1-3.3 7.5-7.5 7.5z"/><path d="m235 63.2-45.1.1v6.4l36.3-.2c.9 0 1.8.4 2.3 1.1l3.5 4.5c1.7 0 3.1-1.4 3.1-3.1l-.1-8.8z" fill="#0f462d"/><path class="st6" d="m173.2 37.3-1.4 2.1c-1.1 1.6-1.5 3.5-1.1 5.4l.2 1.1c.1.3 0 .6-.2.9l-2 3.1c-.3.4-.1.9.3 1.1l1.4.6c.1 0 .1.1.1.2v.1c0 .2-.1.5-.3.7l-.1.1c-.2.3-.3.6-.1 1 .1.3.4.5.7.6h.2l-.3.3c-.2.2-.3.5-.2.7.1.3.5.3.7.4.3.2.3.7.2 1.1-.1.4-.2.7-.2 1.1.1.7.6 1.4 1.3 1.6.4.2.8.2 1.2.1l2.7-.6c.9-.2 1.9.1 2.4.8.3.4.5.9.6 1.4l.7 4.7 9.7-7.9-.5-1.7c-.4-1.4-.5-2.9-.1-4.4l.6-2.6-.3-12.1h-16.2z"/><path d="m167.5 90 1.8 5.8 4.9 4.3 3.7.2-2.1-6.3-5.8-5.7zM140 82.1c-.1 0-.1 0 0 0h-.7c-.1-.5-.4-.8-.8-.9h-.1l-1.2-.1v-.6c-.1-.4-.4-.7-.8-.8H135l-4.3-4.2c-.2-.2-.2-.5 0-.7l.7-.7c.2-.2.5-.2.6 0l8 8z"/><path class="st6" d="M131.9 78c-.1 0-.2.1-.2.2-.2.5 0 .8.3 1.1 1 1 1.8 2.2 2.8 3.3l1.5-1.6-3-2.8-.3-.2c-.1-.1-.3-.1-.4-.1-.3 0-.5 0-.7.1z"/><path class="st6" d="m170.9 87.6-5.3 7.3c-.5.7-1.5 1-2.3.6l-5.6-2.5c-2.3-1-4.5-2.3-6.5-3.9l-5.1-3.9-.1-.4c-.9-2.8-3-5.1-5.7-6.3l-2.9-1.4c-.1-.1-.3 0-.3.1-.1.5 0 1 .4 1.4l2.9 2.3c.3.2.4.6.3 1-.1.5-.6.8-1.2.7h-.1c-.1-.5-.4-.8-.9-.9l-1.2-.1v-.4c0-.6-.5-1-1.1-1H135c-.1 0-.3.1-.3.2l-1.2 1.7c-.1.1-.1.3 0 .5l.1.1c.2.4.6.7 1 .9l.2.1c-.1.3-.1.7.1 1 .2.3.5.5.8.5l.4.1c-.1.7.2 1.4.8 1.9l1.9 1.5c.7.5 1.5.9 2.3 1.2l2.9.8c.1 0 .3.1.4.2l5.8 6.3c3.1 3.3 6.8 5.9 11 7.6l3.5 1.4c1.1.5 2.4.3 3.3-.5l9.4-7.9-6.5-10.2z"/><path d="M140.2 82.4c-.2.1-.4.1-.6.1l-.6.5c0-.2-.1-.8-.2-.9-.2-.3.1-.5-.2-.5l-1.2-.1v-.4c0-.6-.5-1-1.1-1h-1.2l-4.3-4.1c-.2-.2-.2-.5 0-.6l.7-.7c.2-.2.5-.2.6 0l8.1 7.7z"/><path d="M141 83.8c.2-.2.2-.5 0-.6l-.8-.8c-.2.1-.4.1-.6.1h-.1c-.2.4-.6.7-1.1.9l1.3 1.2c.2.2.5.2.6 0l.7-.8z"/><path class="st6" d="M139.4 82.4v-.3c-.1-.3-.5-.5-.8-.6l-1.2-.1V81c0-.6-.5-1-1.1-1h-1.2l3.4 3.2s.3-.1.3-.2c.1-.1.2-.2.3-.2.2 0 .3-.2.3-.4z"/><path class="st6" d="M140 84.1v-.3c-.1-.3-.5-.5-.8-.6l-1.2-.1v-.4c0-.6-.5-1-1.1-1h-1.2l3.4 3.2s.3-.1.3-.2c.1-.1.2-.2.3-.2.1-.1.3-.2.3-.4z"/><path class="st12" d="M167.5 90c3.3 1.4 6.1 3.8 8.1 6.7l2.4 3.5 9.2-10.7-13.1-11.2-6.6 11.7z"/><path d="M171.4 45.7c.3-.3.7-.5 1.1-.5.4 0 .9.2 1.2.5.2.2.5.4.8.5h.2l-.7.1c-.2 0-.3 0-.5-.2l-.1-.1c-.3-.3-.7-.5-1.2-.6-.3 0-.5 0-.8.1v.2z"/><path d="m172 45.3.3 1.1c0 .2.2.3.4.3.1 0 .2-.2.3-.3l.1-.8-1.1-.3zm-.8-1.6.9-.6c.3-.2.7-.2 1-.1l1.7.8-1.7-.2c-.3 0-.5 0-.7.2l-.7.6c-.3.2-.7.1-.7-.3-.1-.1 0-.3.2-.4z"/><path class="st13" d="M182.8 32c-4.1 0-7.6 2.1-9.6 5.3.5 1.1 1.2 2.1 1.9 3.1.6.9 1.3 1.7 2 2.5.8.9 1.8 1.5 2.6 2.3l.3.3c.5.7.4 2.1.1 2.9-.2.5-.4.9-.8 1.2-.1.1-1.1.9-1.3.8.4.3.8.4 1.3.4.2 0 .4-.1.6-.1.4.2.8.2 1.2.1 1.2-.4 2.1-1.5 2.2-2.8.1-.7 0-1.1.2-1.8.2-.5.6-.9 1-1.1.5-.3 1.1-.3 1.7-.1.7.3 1.2 1 1.2 1.8v.4c0 .4-.1.7-.3 1l-1.5 2.3s1.6 3.6 3.3 4.2c3.2-2 5.9-6 6.3-10 .9-8.9-6.1-12.7-12.4-12.7z"/><path class="st13" d="M191.1 35.6c1.1-.8 2.3-1.6 3.4-2.5 3.2-2.8 6.9-2.3 9.2-1L207 34c7.8 4.6 15.8 3.2 21.2-4l6.7-8.9c1.4-1.9 3.6-3 6-3h.7c.9 0 1.6.7 1.6 1.6v19.8c0 .4-.4.7-.8.5l-1.8-.7c-1.7-.7-3.7-.1-4.9 1.4l-5.7 5.7c-5.4 7.4-16.4 7.6-22 .3-2.3-3-5.3-6.9-9.1-8.1-2.3-.7-3.3.1-5.5.6-2 .4-1.6-1.5-2.3-3.6z"/><path class="st14" d="M173.2 87c.1 1.3.5 2.6 1 3.9 0 0 2.1 4.9 2.1 5 1.3 3.1-1.2 18 6.1 16.9 0 0 9.4-1.4 10.8-1.7l13.4-3c.6-.1 1-.6 1-1.2 0-2.2 0-3.7-.7-5.8-.7-2-1.6-4-1.6-6.2.1-2.6.9-5.5.4-8l-4.6-23.8-8.8-3.6-2.5-4-12.2 7.5 1.6 3.9s-1.6 3.5-3.1 6.8c-2.5 5.9-3.5 8-2.9 13.3z"/><path class="st12" d="M205.2 94.9c0 .4 0 .8.1 1.2l-.6.2c-7.1-2-8.5-6.9-9.4-9.3l-3.6-12.2 12.7 5.8c.7 3.7 1.3 6.5 1.3 6.5.4 2.4-.4 5.3-.5 7.8z"/><path d="m170.9 54.5-.2-.1c-.3-.1-.6-.3-.7-.6-.1-.1-.1-.3-.1-.4 0 0 1.4 1 2.3.8-.3.1-.8.2-1.3.3z" fill="#bc6e4f"/><path d="M198.5 70.1c-3.1 2.7-3.7 7.9-1.5 11.3l5 8.6c.4.6 1.3.8 1.9.4l5.2-3.5-5.8-18.9c-1.7.2-3.4.9-4.8 2.1z" fill="#156a41"/><path class="st10" d="M204.9 65.3c-1.4-1.3-3.1-2.2-5-2.5-2.3-.3-4.5.4-6.3 1.9-3 2.5-3.6 7.5-1.4 10.9l3 4.7c.4.6 1.2.8 1.8.4l14.1-9.4-6.2-6z"/><path fill="#997328" d="m213.224 139.503 30.587-5.626 6.241 33.93-30.587 5.627z"/><path fill="#bc8b2c" d="m198.553 159.784 8.507-28.352 25.573 7.674-8.507 28.351z"/><path class="st20" d="m219.6 126.6.1 7.8h-3.6l-.1-4.2z"/><path fill="#9f663f" d="m219.576 126.572 9.4-.14.053 3.6-9.4.14z"/><path class="st20" d="m232.6 130 .1 4.2h-3.6l-.1-7.7z"/><path class="st20" d="m209.053 134.33 30.597-.453.503 33.896-30.597.454z"/><path class="st10" d="m219.635 134.163 9.4-.126.125 9.399-9.399.126z"/><path class="st5" d="m205.1 90.8 3.4-.3c3.8-.3 7.2-2.6 8.9-6l1.1-4.2-7.1-.8-7.1 6.9.8 4.4z"/><path class="st6" d="m213.3 79.4 11.1 12.7c.6.9 1 2 1.1 3.1l1.2 25.2 1.7 4.4c.2.6.2 1.2.1 1.8l-1.1 3.2c-.2.7-.9 1.1-1.6 1.1h-3.9c-.4 0-.6-.3-.6-.7v-1.5c0-.4-.4-.7-.8-.6l-.8.1c-.3 0-.6-.1-.7-.4l-.6-1.6c-.2-.5-.2-1.2.2-1.7l1.4-2.2c1-1.5 1.3-3.3.9-5.1l-4.5-18.7-11.9-12.3 8.8-6.8z"/><path class="st14" d="M205.1 90.8c.1.2 3.3-3.4 3.6-3.9.9-1.6 1.6-3.4 3.1-4.5 1.9-1.5 4.5-1.1 6.7-2-4.3-4.4-9.4-8.6-14.3-12.4-2.4-1.9-5.4-3-8.2-1-2.3 1.7-2.9 5-1.4 7.4 0-.1 10.5 16.4 10.5 16.4z"/><path class="st4" d="M355.7 198.7c0-1.8-1.5-3.2-3.3-3.2-3.4 0-4 4.6-5.6 6.7 2.6-.1 8.9.1 8.9-3.5z"/><circle class="st4" cx="362.8" cy="213.5" r="1.4"/><circle class="st4" cx="360.9" cy="193.6" r=".7"/><circle class="st4" cx="368.6" cy="201.2" r="2"/></svg>