<svg xmlns="http://www.w3.org/2000/svg" viewBox="0 0 411 230"><style>.st1{fill:#662a16}.st2{fill:#3d281e}.st3{fill:#afafaf}.st5{fill:#993f21}.st6{fill:#c14f29}.st7{fill:#142328}.st8{fill:#5b91f4}.st11{fill:#d4e2fc}.st12{fill:#fff}.st13{fill:#574191}.st14{fill:#ab1300}.st15{fill:#66d19e}.st16{fill:#06c167}.st17{fill:#156a41}.st18{fill:#fa9269}.st19{fill:#ffcf70}.st21{fill:#276ef1}.st22{fill:none}.st23{fill:#a0bff9}.st24{fill:#bc8b2c}.st26{fill:#ffc043}.st27{fill:#fff2d9}.st28{fill:#870f00}.st29{fill:#05a357}</style><path fill="#eef3fe" d="M0 0h411v230H0z"/><path class="st1" d="M307.1 63.9c-.6-.8-1.2-1.6-1.7-2.4-.8 1.1-1.3 2.3-1.6 3.7-.3 1.6-.9 5.5-1.1 7.2-.1.6-.1 1.1 0 1.7.1.8.4 2.8.4 2.8l.9 2.9-.1 2.1s.1.4.1.5c.6 1.3 3.3.5 4.5-2 .4-.8.5-1.7.5-2.6l-.2-3.7 1.1-6.3c-1-1.4-1.9-2.7-2.8-3.9z"/><path class="st1" d="M307.6 69.6c.9 1.5 3 5.1 4 6.7.3.5.7 1 1.2 1.4.6.6 1 .9 1.5 1.4l2 1.2 1.3 1.8c2.1 1.8 3.7-3.2 1.6-5.6-2.1-2.4-3.2-3.8-3.2-3.8L312.3 62l-4.7 7.6z"/><path class="st2" d="m313 64.2-2.7 10.1c.5.8.9 1.4 1.2 1.9.2.4.5.7.8 1.1l2.4-8.2-1.7-4.9z"/><path class="st1" d="M313.2 68.8c1.1 1.1 3.9 3.5 5.1 4.7.4.4.9.7 1.3.9.5.2 1.5.7 1.5.7l1.8.3 1.9 1.4c2.3 1.1 2.4-3.6 0-5.2s-3.7-2.4-3.7-2.4l-5.9-8.1-2 7.7z"/><path class="st2" d="m322.1 56-5.7 12.4-16-.6 8.2-17.9z"/><path class="st3" d="M295.1 130.5c-.3-.1-.5-.4-.5-.8L312 64.2l1.5 6.3-17.6 59.5c-.1.4-.4.6-.8.5z"/><path d="M317.2 57.8c-.5 1.6-1.7 2.9-3.2 3.7-.8.4-1.6.8-1.7.8l-2.6 4.8 6.9-1.2.6-8.1z" fill="#f1998e"/><path class="st5" d="m344.8 51.5 5.9 17.1c-8.3 4.9-10.6 4.9-13.3 4.4-7.9 4.6-14.3-4.7-22.1-2.5l-3.1-8.2 2.7-1.4c2.7-1.4 2.7-5.9 1-5.1-1.7.8-12.7 6-12.7 6l-3 6.5-.8 3.6c-.2.9-.6 1.7-1.2 2.4-1.8 2.2-4.6 2.2-4.8.8v-.2l.7-2.3-.2-2.2c.2-1.4.3-2.7.4-3.6.1-.6.2-1.1.5-1.7.7-1.6 2.3-5.1 3-6.6.6-1.2 1.4-2.3 2.5-3.1l12.9-10c2.1-1.6 5-2 7.4-.8l13 6.1c3.6 1.8 7.6 2 11.2.8z"/><path class="st1" d="m313.1 45.5-4.8 3.8-2.2 11.4 1.5-.8zm22 28.5c4.1 1.4 7.4-.6 15.7-5.4 0 0-8.5 4.5-13.3 4.4l-2.4 1z"/><path class="st3" d="M275.9 123.1c-.3-.1-.5-.5-.3-.8l27.2-62 2.9 1.3-28.9 61.3c-.2.2-.6.4-.9.2z"/><path class="st5" d="M315.4 70.6s-6.2 1.9-12 3.6c-5.8 1.7-6.5-4-2.3-6.1l11.2-5.6 3.1 8.1z"/><path class="st6" d="M303.3 69.2c.9.8 1.3 2 1.1 3.1 0 .3-.3.6-.6.7l-2.2.8c-2-.2-2.8-2.6-1.4-4l2.2-.8c.4-.1.7-.1.9.2z"/><path class="st7" d="m302.8 60.2 12.4-28.3 3.7 1.7-13.2 28zm9.2 4 7.9-29.9 3.9 1.1-8.7 29.7z"/><path class="st5" d="M317.2 57.9c-.6 2.2-1.6 2.8-3.1 3.6-.8.4-1.6.8-1.7.8l-2.6 4.8 6.9-1.2.5-8z"/><path class="st6" d="M293.4 75c.8.1 1.2-1.9 1.4-3 .1-.4-.1-.9-.4-1.2-.2-.2-.4-.3-.5-.4l-.5 4.6z"/><path class="st5" d="M303.8 81.7c.7-.1.8-2 .7-3.2 0-.7-.4-1.3-1-1.6-.2-.1-.4-.2-.5-.2l.8 5zm13.8.3c.5-.8-.7-2-1.4-2.6-.4-.4-1-.6-1.5-.5-.2 0-.3.1-.4.1l3.3 3zm7.1-5.2c.2-.8-1.1-1.6-2-2-.5-.2-1.1-.2-1.5.1l-.2.2 3.7 1.7z"/><path class="st8" d="m352.1 44.4-10.4 2.2 5.8 28 11.8-2.3z"/><path d="M411 30.5v35.6l-56 9-.4-1.8-5.8-28.2-.4-1.9z"/><path fill="#1e54b7" d="m348.8 45.1 5.8 28.2L344.4 46z"/><circle cx="356.4" cy="46.7" r="2.3" fill="#757575"/><path class="st11" d="M135.4 55.1c0-16-13-29-29-29s-29 13-29 29 13 29 29 29c3.8 0 7.5-.7 10.9-2.1 10.6-4.3 18.1-14.7 18.1-26.9z"/><path class="st12" d="M131.3 55.1c0-13.7-11.1-24.9-24.9-24.9S81.5 41.4 81.5 55.1 92.6 80 106.4 80c3.3 0 6.4-.6 9.3-1.8 9.1-3.7 15.6-12.6 15.6-23.1z"/><path class="st11" d="M106.4 54h20.8v2.2h-20.8z"/><circle class="st11" cx="119.3" cy="55.1" r="3.2"/><path class="st11" d="m100.3 62.7-1.5-1.5 6.5-6.5V33.9h2.2v21.2c0 .3-.1.6-.3.8l-6.9 6.8z"/><path class="st13" d="m.5 104.4.3-.5-.3-.3z"/><path class="st6" d="m60.4 128.1 5.6 6.7c.7.8 1.9 1.1 2.9.5l15.1-8.8c1.3-.8 1.9-2.4 1.3-3.8l-3.1-7.3-12.7-2.1-9.1 14.8z"/><path class="st5" d="m80 118.9-.4.9c-.3.8-.1 1.8.6 2.3l.8.7-.5-.1c-1-.2-2 .3-2.4 1.3l-.5 1.2.1-4.2 2.3-2.1z"/><path class="st6" d="m79.1 108.8-3.6-7.9c-.2-.5-.8-.6-1.2-.2l-.4.4c-1.1 1-1.7 2.5-1.8 4l-.2 4 7.2-.3z"/><path class="st14" d="m75.6 101.2 1.4 3.1c.1.2-.1.4-.3.4-.2 0-.4-.2-.5-.4l-1-2.4c-.1-.2 0-.5.1-.6.2-.2.3-.2.3-.1z"/><path class="st15" d="m137.7 132.2-.1.2-.8 1.9-2.3 5.1c-.7 1.5-2.3 2.4-4 2.1l-51.4-8.9c-1.7-.3-2.9-1.7-3-3.4l-.4-5.6-.1-2.1v-.2l62.1 10.9z"/><path class="st16" d="m118.6 128.9-.1.2-.8 1.9-2.3 5.1c-.7 1.5-2.3 2.4-4 2.1l19.1 3.3c1.7.3 3.3-.6 4-2.1l2.3-5.1.8-1.9.1-.2-19.1-3.3z"/><path class="st17" d="m140.2 130.7-.3 2L73 121l.3-2c.2-1.2 1.3-2 2.5-1.8l62.6 10.9c1.2.3 2 1.5 1.8 2.6z"/><path class="st18" d="M99.9 138c-2.4.8-5.3 1.7-7.7 2.4-.8.2-1.1.3-1.9.3-3.4.2-7.3.3-10.7.5-1.1 0-1.7-.2-2.6-.8-3-1.9-7.4-5.5-10-7.1s-3.7-1.6-5.7-2.6c-2-1.1-2.7-1.5-4.2-3.1-2.9-3.1-5.8-7-8.6-10.2-1.3-1.5-2-2-3.9-2.5-7.7-2.3-15.8-4.5-23.6-7 4.9-5 9.5-10.3 14.7-15.2 6 2 19.4 7.1 23.7 8.6 4.3 1.5 3.4.6 5.2 1 3.4.9 4 1.2 6.6 2.7.3.2.6.4.8.6 1 .7 1.7 1 2.8 1.4 2.7 1 6.1 2.2 8.8 2.8 1.9.4 2.8.9 4.3 2 1 .7 2.1 1.8 3.2 2.3 1 .5 2.3.9 3.2 1.4 1.3.7 1.6 1.8 1.1 3-.3.8-1 1.1-1.7 1.3-.1 0-.3 0-.4.1-3 .5-5.8.4-8.7-.9-.4-.2-.9-.5-1.3-.7-1.8-.1-3.6-.6-5.4-1.1-.6 1-1.4 1.5-1.8 2.6-1.3 3.3-.5 6.2 1.7 9.1.5.6 1.4 1.5 2 2.2.6.7 1.2 1.6 1.6 2.4.1.1.1.3.3.5 2.2 0 6 .2 7.9.1s2.8-.7 4-.9c3.3-.5 5.3.5 7 3 .1 0 0 0 0 0 .4.8.1 1.5-.7 1.8z"/><path class="st14" d="m91.6 114 2.7 1.4c.1.1.2.2.3.4.1.4-.2.7-.5.8-.2.1-.4 0-.5 0l-2-1c-.3-.2-.5-.5-.4-.8v-.4c0-.3.2-.5.4-.4zm8 23.7c-.8-.3-1.7-.4-2.5-.1l-.6.2c-.4.1-.7.5-.7.9v.7l3.9-1.2c.1-.1.1-.4-.1-.5z"/><path class="st19" d="m47.4 119.8-3-1.5L54.9 98l3 1.5z"/><circle class="st19" cx="47" cy="123.1" r="3.3"/><circle cx="47" cy="123.1" r="1.7" fill="#ffe3ac"/><path class="st13" d="M38.9 91.7c-.2-.1-.3-.1-.5-.1l.4.3.1-.2z"/><path class="st21" d="m42 94.2-.9-1.1c-.6-.7-1.4-1.2-2.2-1.4l-.1.2-.4-.3c-.3-.1-.5-.1-.8-.1-.3 0-.6 0-.9.1-.8.2-1.5.1-2.2-.1l-3.4-2.3-7-4.6-6.5-4.3-7-4.6-6.5-4.3-3-2-1.1-.8v35l.4.3-.4.5v3.2l6.2 1.5 2.1.5 6.7 1.6 8.2 2 2 .5.8-.9 5.7-6.2 5.3-5.8 5.6-6.1-.6-.5z"/><path class="st12" d="m52.1 98-1.9 2.2-4.6 5.6-4.5 5.4-.5.6-4.6 5.6-.3.4c-.5.6-1.3.8-2 .6l-2.8-.9-5.3-1.6c-1-.3-1.5-1.4-1.2-2.3l.2-.4c0-.1.1-.2.2-.3l.2-.2 4.6-5.6 5-6 4.6-5.6 2.5-3 .3-.3c.5-.7 1.5-.9 2.3-.5l4.5 2.1 2.8 1.3c.9.5 1.2 2 .5 2.9z"/><path class="st22" d="m45.6 105.8-4.4 5.5 2.6-6.2zm-4-13.3-1.5 3.4-1-.4zM52.1 98l-1.9 2.2-3.7-1.6 2.1-4.9 2.8 1.3c1.1.6 1.4 2.1.7 3zm-14.7 4.3-3 7-4.9-2.2 5-6zm-5.7 13.4-.8 1.9-5.3-1.6c-1-.3-1.5-1.4-1.2-2.3l.2-.4c0-.1.1-.2.2-.3l.2-.2 6.7 2.9z"/><path class="st23" d="m50.2 100.2-4.6 5.6-1.8-.7 2.7-6.4zm-10.1-4.3-2.7 6.4-2.9-1.2 4.6-5.6zm-5.7 13.4-2.7 6.4-6.8-2.9 4.6-5.7z"/><path class="st23" d="m43.8 105.1-2.6 6.2-.6.6-6.2-2.6 3-7zM36 117.5l-.3.4c-.5.6-1.3.8-2 .6l-2.8-.9.8-1.9 4.3 1.8zm12.6-23.7-2.1 4.9-6.4-2.7 1.5-3.4.3-.3c.5-.7 1.5-.9 2.3-.5l4.4 2z"/><path class="st8" d="m37.382 102.31 2.75-6.437 6.438 2.751-2.751 6.437zm3.218 9.59-4.6 5.6-4.3-1.8 2.7-6.4z"/><path class="st22" d="m52.1 98-1.9 2.2-4.6 5.6-4.5 5.4-.5.6-4.6 5.6-.3.4c-.5.6-1.3.8-2 .6l-2.8-.9-5.3-1.6c-1-.3-1.5-1.4-1.2-2.3l.2-.4c0-.1.1-.2.2-.3l.2-.2 4.6-5.6 5-6 4.6-5.6 2.5-3 .3-.3c.5-.7 1.5-.9 2.3-.5l4.5 2.1 2.8 1.3c.9.5 1.2 2 .5 2.9z"/><path class="st11" d="m302.9 229.8 57.9-.2 2.9-19.8c.4-2.5-1.6-4.7-4.1-4.7l-56.8.2.1 24.5zm-149.6-94.6V155h-9.1v-10.7z"/><path class="st11" d="M177.22 135.22v9.1h-24v-9.1z"/><path class="st11" d="M186.3 144.3V155h-9.1v-19.8zm-59 10.7h75.9v74.6h-75.9zm-12.2 26.7-1.3 47.7H78.9l-2.3-47.7z"/><path class="st11" d="m100.8 181.7-.5 47.7H78.9l-2.3-47.7zm16.3 0H74.8v-1.8c0-1.1.9-2 2-2h38.4c1.1 0 2 .9 2 2v1.8z"/><path class="st11" d="m85.4 200.9-1.1 28.9H55.9L54 200.9z"/><path class="st11" d="m73.7 200.9-.4 28.9H55.9L54 200.9z"/><path class="st11" d="M94.1 201.3H51.8v-1.8c0-1.1.9-2 2-2h38.4c1.1 0 2 .9 2 2v1.8z"/><path class="st24" d="M196.7 112.9v22.3h-10.2v-12z"/><path class="st19" d="M223.825 112.909v10.3h-27v-10.3z"/><path class="st24" d="M234 123.2v12h-10.2v-22.3z"/><path class="st19" d="M167.5 135.2h85.6v94.6h-85.6z"/><ellipse class="st12" cx="221.3" cy="216" rx="12.1" ry="9.9"/><path class="st12" d="M221 206.7c-.1.2-.4.2-.6.1-.6-.1-1.3-.1-1.9-.2l1.4-1.4c.2-.2.4-.5.7-.5.2 0 .3.2.4.3 0 .1 0 .1.1.2h.1c.1 0 .2-.1.3-.2.2-.1.5-.1.7 0 .2.1.2.3.3.5 0-.2.2-.3.3-.3.2 0 .3.1.4.3.4.3.7.7 1.1 1-.9.1-1.8.1-2.8.1-.5 0-1.9.2-2.3-.2-.3-.4.2-1 .6-1.3"/><path class="st7" d="m219.1 207.6-1.1.5c-.3.1-.4.5-.1.7.2.2.6.2.7-.1l.5-1.1zm5.1 0-1.1.5c-.3.1-.4.5-.1.7.2.2.6.2.7-.1l.5-1.1zm-4.2 1.2 1.2-.3c.3-.1.5-.4.3-.7-.2-.3-.6-.3-.8 0l-.7 1z"/><ellipse class="st12" cx="246.8" cy="216" rx="12.1" ry="9.9"/><path class="st12" d="M246.5 206.7c-.1.2-.4.2-.6.1-.6-.1-1.3-.1-1.9-.2l1.4-1.4c.2-.2.4-.5.7-.5.2 0 .3.2.4.3 0 .1 0 .1.1.2h.1c.1 0 .2-.1.3-.2.2-.1.5-.1.7 0 .2.1.2.3.3.5 0-.2.2-.3.3-.3.2 0 .3.1.4.3.4.3.7.7 1.1 1-.9.1-1.8.1-2.8.1-.5 0-1.9.2-2.3-.2-.3-.4.2-1 .6-1.3"/><path class="st7" d="m244.6 207.6-1.1.5c-.3.1-.4.5-.1.7.2.2.6.2.7-.1l.5-1.1zm5 0-1.1.5c-.3.1-.4.5-.1.7.2.2.6.2.7-.1l.5-1.1zm-4.1 1.2 1.2-.3c.3-.1.5-.4.3-.7-.2-.3-.6-.3-.8 0l-.7 1z"/><path class="st24" d="M273.5 230h-58.9c-4.5 0-8.2-3.6-8.2-8.2h75.2c.1 4.6-3.6 8.2-8.1 8.2z"/><path fill="#333" d="m299.22 165.1 18.101 18.102-18.102 18.101-18.102-18.102z"/><path class="st26" d="M281.3 175c-13.7 0-24.8 11.1-24.8 24.8s11.1 24.8 24.8 24.8 24.8-11.1 24.8-24.8S295 175 281.3 175z"/><circle class="st27" cx="281.3" cy="199.8" r="21.4"/><circle class="st26" cx="281.3" cy="199.8" r="18"/><circle class="st27" cx="281.3" cy="199.8" r="14.6"/><circle class="st26" cx="281.3" cy="199.8" r="11.1"/><circle class="st27" cx="281.3" cy="199.8" r="7.7"/><circle class="st26" cx="281.3" cy="199.8" r="4.3"/><path class="st26" d="M308.8 180.6c10.6 0 19.3 8.6 19.3 19.3s-8.6 19.3-19.3 19.3c-10.6 0-19.3-8.6-19.3-19.3s8.6-19.3 19.3-19.3z"/><path class="st27" d="M308.8 186.1c7.6 0 13.8 6.2 13.8 13.8 0 7.6-6.2 13.8-13.8 13.8-7.6 0-13.8-6.2-13.8-13.8 0-7.6 6.2-13.8 13.8-13.8z"/><path class="st26" d="M308.8 191.6c4.5 0 8.2 3.7 8.2 8.2s-3.7 8.2-8.2 8.2-8.2-3.7-8.2-8.2 3.6-8.2 8.2-8.2z"/><path class="st27" d="M308.8 197.2c1.5 0 2.7 1.2 2.7 2.7s-1.2 2.7-2.7 2.7-2.7-1.2-2.7-2.7 1.2-2.7 2.7-2.7z"/><circle class="st26" cx="308.8" cy="199.9" r="19.3"/><path class="st27" d="M308.8 215.7c-8.7 0-15.9-7.1-15.9-15.9 0-8.7 7.1-15.9 15.9-15.9 8.7 0 15.9 7.1 15.9 15.9-.1 8.8-7.2 15.9-15.9 15.9z"/><path class="st26" d="M308.8 212.3c-6.9 0-12.4-5.6-12.4-12.4 0-6.9 5.6-12.4 12.4-12.4 6.9 0 12.4 5.6 12.4 12.4 0 6.8-5.6 12.4-12.4 12.4z"/><path class="st27" d="M308.8 208.9c-5 0-9-4-9-9s4-9 9-9 9 4 9 9c0 4.9-4 9-9 9z"/><path class="st26" d="M308.8 205.5c-3.1 0-5.6-2.5-5.6-5.6s2.5-5.6 5.6-5.6c3.1 0 5.6 2.5 5.6 5.6s-2.5 5.6-5.6 5.6z"/><path class="st27" d="M308.8 202c-1.2 0-2.2-1-2.2-2.2s1-2.2 2.2-2.2c1.2 0 2.2 1 2.2 2.2s-1 2.2-2.2 2.2z"/><path class="st26" d="M320.1 184.8h-5.3l-2.5-3.5h7.8c1.9 0 3.5-1.6 3.5-3.5h3.6c0 3.9-3.2 7-7.1 7z"/><path class="st12" d="M252.6 186.3c-6 6 7.2 27.9 17.5 17.5 10.4-10.3-11.5-23.4-17.5-17.5z"/><circle class="st18" cx="264.4" cy="198.2" r="5.5"/><path class="st28" d="M269.9 224h42.6v6h-42.6z"/><path class="st28" d="M332.2 199.8v3.8c0 .6 0 1.2-.1 1.7-.1.7-.2 1.3-.4 2-.1.4-.2.8-.4 1.3-1 2.8-2.8 5.2-5.3 7l-13.5 9.4-2.3 1.6h-38.5l-1.7-1.2-14.1-9.8c-2.5-1.7-4.3-4.2-5.4-7-.2-.4-.3-.8-.4-1.3-.2-.6-.3-1.3-.4-2-.1-.6-.1-1.2-.1-1.7v-3.8h82.6z"/><path class="st15" d="M178.1 219.4h-63l1.9 7.6c.4 1.6 1.9 2.8 3.6 2.8h52.1c1.7 0 3.2-1.2 3.6-2.8l1.8-7.6z"/><path class="st17" d="M180.2 219.6h-67.9v-2c0-1.2 1-2.2 2.2-2.2H178c1.2 0 2.2 1 2.2 2.2v2z"/><path class="st15" d="M178.1 205h-63l1.9 7.6c.4 1.6 1.9 2.8 3.6 2.8h52.1c1.7 0 3.2-1.2 3.6-2.8l1.8-7.6z"/><path class="st17" d="M180.2 205.1h-67.9v-2c0-1.2 1-2.2 2.2-2.2H178c1.2 0 2.2 1 2.2 2.2v2z"/><path class="st15" d="M178.1 190.5v.2l-.5 2-1.3 5.4c-.4 1.6-1.9 2.8-3.6 2.8h-52.1c-1.7 0-3.2-1.1-3.6-2.8l-1.3-5.4-.5-2v-.2h62.9z"/><path class="st16" d="M158.7 190.5v.2l-.5 2-1.3 5.4c-.4 1.6-1.9 2.8-3.6 2.8h19.4c1.7 0 3.2-1.1 3.6-2.8l1.3-5.4.5-2v-.2h-19.4zm0 14.6v.2l-.5 2-1.3 5.4c-.4 1.6-1.9 2.8-3.6 2.8h19.4c1.7 0 3.2-1.1 3.6-2.8l1.3-5.4.5-2v-.2h-19.4zm0 14.5v.2l-.5 2-1.3 5.4c-.4 1.6-1.9 2.8-3.6 2.8h19.4c1.7 0 3.2-1.1 3.6-2.8l1.3-5.4.5-2v-.2h-19.4z"/><path class="st17" d="M180.2 188.6v2h-67.9v-2c0-1.2 1-2.2 2.2-2.2H178c1.3.1 2.2 1 2.2 2.2z"/><path class="st12" d="M119.2 222H93.1c0 4.3 3.5 7.8 7.8 7.8h10.6c4.2 0 7.7-3.5 7.7-7.8z"/><path class="st29" d="M120.8 222.4H91.4v-1.9c0-.6.5-1.1 1.1-1.1h27.3c.6 0 1.1.5 1.1 1.1v1.9z"/><path class="st12" d="M119.2 211.7H93.1c0 4.3 3.5 7.8 7.8 7.8h10.6c4.2-.1 7.7-3.5 7.7-7.8z"/><path class="st29" d="M120.8 212.1H91.4v-1.9c0-.6.5-1.1 1.1-1.1h27.3c.6 0 1.1.5 1.1 1.1v1.9z"/><path d="M332.2 202v1.5c0 .6 0 1.2-.1 1.7h-82.5c-.1-.6-.1-1.2-.1-1.7V202h82.7zm-.4 5.3c-.1.4-.2.8-.4 1.3h-80.9c-.2-.4-.3-.8-.4-1.3h81.7z" style="fill:#e11900"/><path class="st16" d="M196.7 135.2h27.1v27.1h-27.1z"/><path class="st21" d="m12.4 80.4 14.3 10.1-5 6.5-11.2-3.8z"/></svg>