<svg xmlns="http://www.w3.org/2000/svg" viewBox="0 0 411 230"><style>.st0{fill:#addec9}.st1{fill:#fff}.st2{fill:#556268}.st4{fill:#142328}.st5{fill:#231f20}.st6{fill:#c14f29}.st7{fill:#8e3928}.st10{opacity:.81;fill:#fa9269;enable-background:new}.st11{fill:#662a16}.st12{fill:#06c167}.st13{fill:#0f462d}.st14{fill:#66d19e}.st15{fill:#156a41}.st16{fill:#05a357}.st17{fill:#ffc043}.st18{fill:#ff6937}.st20{fill:#f9a723}.st21{fill:#ffc552}.st22{fill:#b18977}</style><path class="st0" d="M0 0h411v230H0z"/><path class="st1" d="M295.1 0c-12.9 15-30.5 26.2-49.3 32.5-25.9 8.7-54.2 8.7-80.9 3.2-10-2.1-21-5.6-31.3-2.9-11.1 2.8-16.9 14-13.3 25 4.7 14.5 24.8 23.2 36.8 30.6 4.1 2.5 8.3 5.2 11.4 8.9 2.6 3 4.3 6.7 5.5 10.5 3.8 12.9.2 27.3-8 38s-20.4 17.7-33.4 21.2l-49.1 5.1c-2.4-.5-3.1-3.5-3-5.9.2-8.2 3.7-15.9 7.3-23.3 3.6-7.4 7.4-14.8 8.4-23 2.1-16.7-11.2-28.5-27.5-24.4C56 98.7 51.4 110 51.5 122c.1 12.9-5.5 28.9-14.2 38.5-7.9 8.8-19.3 12.9-29.9 17.3-2.4 1-4.9 2-7.4 2.8V0h295.1z"/><path class="st0" d="M163.7 108.9c-4.1-1.1-8.3-.3-11.4 2.2l-.1.1c-3.1 2.5-4.7 6.3-4.5 10.6 0 .3.2.6.4.9.2.2.6.3.9.3.6-.1 1.1-.6 1.1-1.2-.2-3.5 1.2-6.6 3.7-8.7 2.5-2 5.9-2.7 9.3-1.8.4.1.8 0 1-.2.2-.1.3-.3.4-.6.1-.3.1-.6-.1-.9-.1-.4-.3-.6-.7-.7z"/><path class="st2" d="m218.338 154.03 11.72-2.067 2.292 13-11.719 2.066z"/><path d="M127.7 199.1c-10 1-20.1 1-28.9-3-8.6-3.8-14.7-11.6-16.3-20.9l-.6-3.3 17.3-3.3 1.5 6.7c1.6 9.2 7.7 17.1 16.3 20.9 3.4 1.4 7 2.4 10.7 2.9z" fill="#394145"/><path class="st4" d="M215.6 175.5c-11.8 11.4-30.7 13.4-46 17.3-7.1 1.8-14.3 3.1-21.6 3.8-6.4.6-13.3 1.7-20.2 2.4-3.7-.5-7.3-1.4-10.7-3-8.6-3.8-14.7-11.6-16.3-20.9l-1.5-6.7 53.1-10.3 70.8-11.3.6 3.3c1.5 9.5-1.5 18.9-8.2 25.4z"/><path class="st5" d="m348.7 128 .8-18.5 31.7 25.9s-13.5 37.3-14 38.4c-.2.5-4-4.8-8.2-10.7a57.2 57.2 0 0 1-10.3-35.1z"/><path class="st6" d="m368.5 145.9-41.4.9c-1.1 0-2.1.5-2.9 1.2l-2.9 2.7c-3.4 3.2-6.2 5.8-10.5 7.8-.5.2-1 .5-1.5.7-5.9 2.4-12.1.8-18.4-.5-2.8-.6-3-4.5-5.6-5.3 1-3-.3-1.1.7-4.1l1.5-4.9 3.9-12.3 19.7-19.6 4.6-2.2c1.6-.8 3.4-1 5.1-.6l8.1 1.6 25.2-.6 14.4 35.2z"/><path class="st6" d="m287.6 144.2-1.5 4.9c-1 3-5.9 5.1-6.9 8.2 3.8-3.5 7 3.7 9.7 2.9 3.4-1.1 6.3 2.1 8.8 2l6.5-22.9-16.6 4.9z"/><path class="st7" d="m333.1 139.2-.7-7c-.2-1.6-1.7-2.8-3.3-2.6l-15.4 2.2-1 4.8-8.6 2.6-5.9 22.1c3.8-.1.6-1.4 4.2-2.8.4-.2 1-1.1 1.3-1.4 1-1.1 2-2.1 3-3.1 1.9-2 3.4-4.4 5.3-6.3 2.9-2.9 6.3-2.8 10-3.1l7.2-.6c2.5 0 4.3-2.3 3.9-4.8z"/><path class="st4" d="m228.9 153.5 1.8 10.1c.4 2.2 2.9 3.2 4.7 1.8l2.1-1.6c1.6-1.2 3.4-2.3 5.2-3.2l27.3-12.9c6.6-3.1 13.7-4.9 21-5.2l34.6-1.4c2.5-.1 4.3-2.3 3.8-4.8l-1.1-6.2c-.4-2-2.2-3.5-4.3-3.3l-43.7 3c-2.5.2-5 .8-7.3 1.8l-42.4 18.7c-1.2.5-1.9 1.8-1.7 3.2z"/><path class="st1" d="M411 96.7V166l-43.8 7.7-1-21.6c-.3-5.6-1.6-11-4-16.1l-12.8-26.6c8.9-.6 14.8-1.1 23.7-2.1 4-.4 21.7-5.7 37.9-10.6z"/><ellipse transform="rotate(-10.003 152.278 158.327)" cx="152.3" cy="158.3" rx="71.7" ry="13.9" fill="#a1bdca"/><path class="st4" d="M216 149.2c-7.7 5-28.9 13.2-61.9 19-12.4 2.2-23.4 3.5-32.8 4.2-15.4 1.1-26.3.5-31.9-.9-1.9-.4-2.4-3-.7-4.1 7.7-5 28.9-13.2 61.9-19 4.9-.9 9.6-1.6 14.1-2.2 25.4-3.5 42.9-2.9 50.6-1.1 1.9.4 2.3 3 .7 4.1z"/><path class="st6" d="M324.8 126.7c-4.9 0-9.2-.5-13.6 1.9-3.9 2.1-7.4 5-11.6 6.3-.6.2-1.3.4-2 .5-.8.1-1.6.2-2.4.2-2.8.1-5.5-.3-8.2-.8-.8-.1-1.7-.3-2.5-.4l-5.5-.7-3.4 10.5-.7 2.1c-.3 1-.9 1.8-1.6 2.4-.7.7-1.7 1.1-2.6 1.3-1.1.2-2.1 0-3-.3-2.1-.9-3.6-3-3.4-5.5l.8-10.5c.1-1.7.8-3.3 2-4.6L278 117c2.7-3 6.6-4.7 10.6-4.7h22.5l13.7 14.4z"/><path d="m270.9 139.1-3.7-.3c-.9-.1-1.8.6-1.8 1.6l-.3 3.2c-.1 1.7 1.1 3.1 2.8 3.3l1.1.1c1.7.1 3.1-1.1 3.3-2.8l.3-3.2c-.1-1-.8-1.9-1.7-1.9z" opacity=".57" fill="#fa9269"/><path class="st6" d="M268.6 143.6c-2.6-2-6.3-1.6-8.3 1l-4.8 6.3c-2 2.6-1.6 6.3 1 8.3 2.6 2 6.3 1.6 8.3-1l4.8-6.3c2-2.6 1.6-6.3-1-8.3z"/><path class="st10" d="m260.9 150.6 2.9 2c.7.5 1.8.3 2.3-.4l1.7-2.5c.9-1.3.5-3.1-.8-4l-.9-.6c-1.3-.9-3.1-.5-4 .8l-1.7 2.5c-.4.7-.2 1.7.5 2.2z"/><circle class="st2" cx="237" cy="155.5" r="3.1"/><circle class="st5" cx="376.1" cy="160.8" r="3.3"/><path class="st7" d="M286.8 134.8c-.8-.1-1.7-.3-2.5-.4l-5.5-.7-3.4 10.5-3.2-.1 3.1-10.7c.7-2.5 3.1-4.3 5.7-4.3h.5c2.8.3 5.1 2.2 5.3 5.7z"/><path class="st11" d="m284.4 143.8 2-6.1-1.7 6.1z"/><path class="st11" d="m284.4 143.8 2-6.1-1.7 6.1z"/><path class="st7" d="M299.6 134.9c-.6.2-1.3.4-2 .5-.8.1-1.6.2-2.4.2-2.6-.2-5.2-.7-7.7-.9l.5-1.5c.8-2.4 3.1-4.1 5.6-4.1h.7c4.1.6 4.8 3.4 5.3 5.8z"/><path class="st6" d="M278.9 158.5c.4-.6.6-1.2 1-1.7.1-.2.4-.6.6-.6.5-.1.6.6.7.9.2.5.4.9.7 1.3.7.9 1.6 1.6 2.7 2 1.4.5 2.9.5 4.3-.1.7-.3 1.3-.7 1.9-1.2.3-.3.5-.7.9-1-.2.2-.5.4-.7.6.4-.3.9-.9 1.3-.6.4.3.4.9.6 1.3.6 1.2 1.7 2.1 2.9 2.6 2.8 1 5.9-.4 6.9-3.2l5.6-15.6c1-2.8-.4-5.9-3.2-6.9-2.6-.9-5.4.2-6.6 2.5.4-2.7-1.1-5.5-3.8-6.5-3.1-1.1-6.5.5-7.6 3.5l-1.3 3.5c.4-2.7-1.1-5.5-3.8-6.5-3.1-1.1-6.5.5-7.6 3.5l-6.1 17c-1.1 3.1.5 6.5 3.5 7.6 1.7.6 3.6.4 5.1-.5.9-.5 1.5-1.2 2-1.9z"/><path class="st10" d="m289.8 141.4 3.4 1c.9.2 1.8-.3 2-1.1l.8-2.9c.4-1.5-.4-3.1-2-3.6l-1-.3c-1.5-.4-3.1.4-3.6 2l-.8 2.9c-.1.8.4 1.7 1.2 2zm10.9 3.1 3.1.9c.8.2 1.6-.2 1.8-1l.8-2.6c.4-1.4-.4-2.9-1.8-3.3l-.9-.3c-1.4-.4-2.9.4-3.3 1.8l-.8 2.6c-.1.9.3 1.7 1.1 1.9zm-23.5-2.6 3.4 1c.9.2 1.8-.3 2-1.1l.8-2.9c.4-1.5-.4-3.1-2-3.6l-1-.3c-1.5-.4-3.1.4-3.6 2l-.8 2.9c-.2.9.3 1.8 1.2 2z"/><path class="st2" d="M164.7 146.2c-17.4 18-31.6 22.9-43.4 26.2-15.4 1.1-26.3.5-31.9-.9-1.9-.4-2.4-3-.7-4.1 7.7-5 28.9-13.2 61.9-19 4.9-.8 9.6-1.6 14.1-2.2z"/><path class="st12" d="m150 130.2 1.2 1.1c.2.1 0 .4-.2.3l-1.6-.4c-1.2-.3-2.5-.4-3.7-.3-3.3.4-6.3-1.7-7-4.8l-.4-1.7 1.6-.5c3.1-1 6.5.4 7.9 3.3.5 1.2 1.2 2.2 2.2 3z"/><path class="st13" d="m138.3 124.2 5.9 3.6-6.2-3.1c-.1-.1-.2-.2-.1-.4.1-.1.3-.1.4-.1z"/><path class="st12" d="m176.2 156.8 1.5.7c.2.1.1.4-.1.4H176c-1.2 0-2.5.3-3.6.8-3 1.3-6.5.2-8.1-2.6l-.9-1.5 1.4-1c2.7-1.9 6.3-1.5 8.5.9.7 1 1.7 1.7 2.9 2.3z"/><path class="st13" d="m163.3 154.3 6.7 1.7-6.8-1.2c-.2 0-.3-.2-.2-.3 0-.1.1-.2.3-.2z"/><path class="st12" d="m145.8 139.5 1.5-2.1c.2-.3.6-.1.6.2l-.3 2.5c-.3 1.9-.1 3.9.4 5.8 1.3 5-1.3 10.2-6.1 12.1l-2.5 1-1.2-2.5c-2.3-4.7-.7-10.3 3.6-13.1 1.4-.9 2.8-2.3 4-3.9z"/><path class="st13" d="m138.8 159 4.4-10.1-3.5 10.4c-.1.2-.3.4-.6.3-.3-.1-.4-.4-.3-.6z"/><path class="st14" d="M154.4 74.2h3.7v-1.7h-3.7v1.7z"/><path class="st14" d="M154.4 72.8h3.7V71h-3.7v1.8zm7.2-8.1 4.3-3.1-.5-.6-4.3 3.1.5.6z"/><path class="st14" d="m161.2 64.2 4.3-3.1-.5-.6-4.3 3.1.5.6z"/><path class="st15" d="m164.7 125.5 2.4 2.8 1.3-1.1-2.4-2.8-1.3 1.1z"/><path class="st16" d="m165.8 124.5 2.4 2.8 1.3-1.1-2.4-2.8-1.3 1.1z"/><path class="st0" d="m127.7 138.4 2.4 2.8 1.3-1.1-2.4-2.8-1.3 1.1z"/><path class="st0" d="m128.8 137.5 2.4 2.8 1.3-1.1-2.4-2.8-1.3 1.1z"/><path class="st15" d="m104.7 152.3-1.7 3.3 1.5.8 1.7-3.3-1.5-.8z"/><path class="st16" d="m106 153-1.7 3.3 1.5.8 1.7-3.3-1.5-.8z"/><path class="st17" d="m106.7 72.6-.2-.6c-.3-.8.2-1.7 1.1-1.8l.6-.1.4-.5c.5-.7 1.6-.7 2.1 0l.4.5.6.1c.8.1 1.4 1 1.1 1.8l-.2.6.2.6c.3.8-.2 1.7-1.1 1.8l-.6.1-.4.5c-.5.7-1.6.7-2.1 0l-.4-.5-.6-.1c-.8-.1-1.4-1-1.1-1.8l.2-.6z"/><path class="st18" d="m138.6 106.9-.2-.6c-.3-.8.2-1.7 1.1-1.8l.6-.1.4-.5c.5-.7 1.6-.7 2.1 0l.4.5.6.1c.8.1 1.4 1 1.1 1.8l-.2.6.2.6c.3.8-.2 1.7-1.1 1.8l-.6.1-.4.5c-.5.7-1.6.7-2.1 0l-.4-.5-.6-.1c-.8-.1-1.4-1-1.1-1.8l.2-.6zm-22.7 50.6-.2-.6c-.3-.8.2-1.7 1.1-1.8l.6-.1.4-.5c.5-.7 1.6-.7 2.1 0l.4.5.6.1c.8.1 1.4 1 1.1 1.8l-.2.6.2.6c.3.8-.2 1.7-1.1 1.8l-.6.1-.4.5c-.5.7-1.6.7-2.1 0l-.4-.5-.6-.1c-.8-.1-1.4-1-1.1-1.8l.2-.6zm-17-29.9-.1-.3c-.2-.4.1-.8.5-.9l.3-.1.2-.3c.3-.3.8-.3 1.1 0l.2.3.3.1c.4.1.7.5.5.9l-.1.3.1.3c.2.4-.1.8-.5.9l-.3.1-.2.3c-.3.3-.8.3-1.1 0l-.2-.3-.3-.1c-.4-.1-.7-.5-.5-.9l.1-.3z"/><path class="st14" d="m144.7 49.3-.1-.3c-.2-.4.1-.8.5-.9l.3-.1.2-.3c.3-.3.8-.3 1.1 0l.2.3.3.1c.4.1.7.5.5.9l-.1.3.1.3c.2.4-.1.8-.5.9l-.3.1-.2.3c-.3.3-.8.3-1.1 0l-.2-.3-.3-.1c-.4-.1-.7-.5-.5-.9l.1-.3z"/><path class="st17" d="m111.9 165.6-.1-.3c-.2-.4.1-.8.5-.9l.3-.1.2-.3c.3-.3.8-.3 1.1 0l.2.3.3.1c.4.1.7.5.5.9l-.1.3.1.3c.2.4-.1.8-.5.9l-.3.1-.2.3c-.3.3-.8.3-1.1 0l-.2-.3-.3-.1c-.4-.1-.7-.5-.5-.9l.1-.3zm3.4-65.2-.1-.3c-.2-.4.1-.8.5-.9l.3-.1.2-.3c.3-.3.8-.3 1.1 0l.2.3.3.1c.4.1.7.5.5.9l-.1.3.1.3c.2.4-.1.8-.5.9l-.3.1-.2.3c-.3.3-.8.3-1.1 0l-.2-.3-.3-.1c-.4-.1-.7-.5-.5-.9l.1-.3zm42.2 18.8-.1-.3c-.2-.4.1-.8.5-.9l.3-.1.2-.3c.3-.3.8-.3 1.1 0l.2.3.3.1c.4.1.7.5.5.9l-.1.3.1.3c.2.4-.1.8-.5.9l-.3.1-.2.3c-.3.3-.8.3-1.1 0l-.2-.3-.3-.1c-.4-.1-.7-.5-.5-.9l.1-.3z"/><path class="st18" d="m84.3 66.1-.1-.3c-.2-.4.1-.8.5-.9l.3-.1.2-.3c.3-.3.8-.3 1.1 0l.2.3.3.1c.4.1.7.5.5.9l-.1.3.1.3c.2.4-.1.8-.5.9l-.3.1-.2.3c-.3.3-.8.3-1.1 0l-.2-.3-.3-.1c-.4-.1-.7-.5-.5-.9l.1-.3z"/><path d="M158.4 114c2.3-4.9 2.3-10.2 0-14.7v-.1c-2.4-4.4-6.7-7.4-12-8.1-.4-.1-.8.1-1.2.3-.3.3-.5.6-.6 1-.1.8.5 1.5 1.3 1.6 4.3.6 7.9 3 9.9 6.7 1.9 3.6 1.9 8 0 12-.2.4-.2.9 0 1.3.1.2.3.5.6.6.4.2.8.2 1.2.1.3 0 .6-.3.8-.7zm-37.3-7.3c-4.6 2.8-7.5 7.3-7.9 12.4v.1c-.4 5 1.7 9.8 5.7 13.3.3.3.7.4 1.1.4s.8-.2 1-.6c.5-.6.4-1.5-.2-2-3.3-2.9-5-6.9-4.7-11 .3-4.1 2.7-7.8 6.5-10.1.4-.3.7-.7.7-1.1 0-.3 0-.6-.2-.8-.2-.4-.5-.6-.9-.7-.3-.2-.7-.1-1.1.1z" style="fill:#066336"/><path class="st16" d="M129 169.7c-.7.9-1.4 1.6-2.2 2.2-1.9.2-3.7.3-5.5.4-2.3.2-4.5.3-6.5.4.2-.1.5-.2.7-.2h.7c4.2 0 7.9-1.7 10.3-4.7 2.6-3.2 3.4-7.5 2.3-11.7v-.4c0-.6.4-1.2 1-1.4.4-.1.8-.1 1.2.1.4.2.6.5.7.9 1.4 5.3.4 10.5-2.7 14.4z"/><path class="st15" d="M158.9 158.2c0 .5-.2.9-.6 1.2-3.1 2.3-5 5.5-5.5 9-1 .2-2 .4-3 .5.3-4.6 2.7-8.9 6.7-11.9.3-.2.8-.3 1.2-.3.4.1.8.3 1 .6.1.3.2.6.2.9z"/><path class="st16" d="M116.9 93.2c-5.4-.3-10.3 1.8-13.5 5.7l-.1.1c-3.1 3.9-4.2 9.1-2.9 14.2.1.4.4.8.7 1 .4.2.8.2 1.2.1.8-.2 1.2-1 1-1.8-1.1-4.3-.2-8.5 2.4-11.7 2.6-3.2 6.6-4.8 11.1-4.6.5 0 .9-.2 1.2-.5.2-.2.3-.5.3-.8 0-.4-.1-.8-.3-1.1-.3-.3-.7-.5-1.1-.6z"/><path class="st0" d="M111.5 83.4c-5.3 1.2-9.4 4.5-11.5 9.1v.1c-2 4.6-1.6 9.9 1.1 14.5.2.4.6.6 1 .7s.8 0 1.2-.2c.7-.4.9-1.3.5-2-2.2-3.8-2.5-8.1-.9-11.9 1.6-3.7 5.1-6.4 9.4-7.4.5-.1.8-.4 1-.9.1-.3.2-.5.1-.8-.1-.4-.3-.8-.6-1-.5-.2-.9-.3-1.3-.2z"/><path class="st20" d="M120 136.9c-5.4 5-13.9 4.6-18.9-.8l-2.5 2.3c6.3 6.9 16.9 7.3 23.8 1s7.3-16.9 1-23.8l-2.5 2.3c4.9 5.6 4.5 14-.9 19z"/><path class="st1" d="M120 136.9c5.4-5 5.8-13.5.8-18.9l-19.7 18.1c5 5.4 13.5 5.8 18.9.8zm-2.5-14.9c1.4-1.3 3.7-.7 4.4 1.1v.1c.7 1.8-.8 3.7-2.7 3.6l-6.7-.3 5-4.5zm-5 5.8 6.7.3c1.9.1 3.2 2.1 2.4 3.9v.1c-.8 1.8-3.2 2.1-4.5.7l-4.6-5zm3.6 5.8c1.3 1.4.7 3.7-1.1 4.4h-.1c-1.8.6-3.7-.8-3.6-2.7l.3-6.7 4.5 5zm-10 4c-1.9-.9-2.2-3.2-.8-4.5l4.9-4.5-.3 6.7c0 1.9-2 3.1-3.8 2.3z"/><path class="st21" d="M121.9 123.1c-.7-1.9-3-2.5-4.4-1.2l-4.9 4.5 6.7.3c1.9.1 3.3-1.8 2.6-3.6zm-.4 8.9s0-.1 0 0c.8-1.8-.4-3.9-2.3-3.9l-6.7-.3 4.5 4.9c1.3 1.4 3.7 1.1 4.5-.7zm-6.6 6s.1 0 0 0c1.9-.7 2.5-3 1.2-4.4l-4.5-4.9-.3 6.7c-.1 1.8 1.8 3.3 3.6 2.6zm-4.9-2.7.3-6.7-4.9 4.5c-1.4 1.3-1.1 3.7.7 4.5h.1c1.7.8 3.7-.4 3.8-2.3z"/><path class="st20" d="M128.5 70.6c3.5-4.1 9.7-4.5 13.8-1l1.7-1.9c-5.1-4.4-12.9-3.9-17.4 1.3-4.4 5.1-3.9 12.9 1.3 17.4l1.7-1.9c-4.1-3.7-4.6-9.8-1.1-13.9z"/><path class="st1" d="M128.5 70.6c-3.5 4.1-3.1 10.3 1 13.8l12.8-14.8c-4-3.6-10.2-3.1-13.8 1zm3.1 10.6c-.9 1.1-2.7.9-3.3-.4v-.1c-.6-1.3.2-2.8 1.6-2.9l4.9-.4-3.2 3.8zm3.2-4.6-4.9.4c-1.4.1-2.5-1.3-2-2.6v-.1c.5-1.3 2.1-1.8 3.2-.9l3.7 3.2zm-3.1-3.9c-1.1-.9-.9-2.7.4-3.3h.1c1.3-.6 2.8.2 2.9 1.6l.4 4.9-3.8-3.2zm6.9-3.8c1.4.5 1.9 2.1 1 3.2l-3.2 3.7-.4-4.9c-.1-1.4 1.2-2.5 2.6-2z"/><path class="st21" d="M128.3 80.8c.7 1.3 2.4 1.5 3.3.5l3.2-3.7-4.9.4c-1.3 0-2.2 1.5-1.6 2.8zm-.4-6.5c-.5 1.4.6 2.8 2 2.7l4.9-.4-3.7-3.2c-1.1-.9-2.8-.5-3.2.9zm4.3-5c-.1.1-.1.1 0 0-1.3.7-1.5 2.4-.5 3.3l3.7 3.2-.4-4.8c-.1-1.4-1.6-2.3-2.8-1.7zm3.8 1.6.4 4.9 3.2-3.7c.9-1.1.5-2.8-.9-3.2h-.1c-1.4-.5-2.7.6-2.6 2z"/><path class="st22" d="m99.7 104.2-.3-.6c-.2-.4-.5-.7-.9-.9l-.6-.3c-1.7-.7-2.8-2.3-2.8-4.1 0-1.1.4-2.3 1.2-3.1l.2-.2c2.1-2.2 5.4-2.8 8.2-1.6 1.7.7 3 2 3.8 3.7 1.3 2.8.8 6.1-1.3 8.3l-.2.2c-.8.8-1.9 1.3-3 1.3-2 0-3.6-1-4.3-2.7z"/><path class="st11" d="M99.5 103.7c0 .1 0 .1 0 0l-.1-.2c-.2-.4-.5-.7-.9-.9l-.2-.1c.3-.3.9-.3 1.2 0 .3.3.4.9 0 1.2z"/><path class="st22" d="m159.6 136.2.4.4c.2.3.6.4.9.4h.6c1.4.1 2.7 1 3.2 2.4.3.9.3 1.8-.1 2.6l-.1.2c-1 2.2-3.4 3.5-5.8 3.3-1.4-.1-2.8-.8-3.8-1.8a5.98 5.98 0 0 1-1.1-6.6l.1-.2c.4-.8 1.1-1.5 2-1.8 1.2-.4 2.8 0 3.7 1.1z"/><path class="st11" d="M159.8 136.5s0-.1 0 0l.2.1c.2.3.6.4.9.4h.2c-.2.3-.6.5-.9.3-.4-.1-.5-.5-.4-.8z"/><path class="st22" d="M119.8 55h-.6c-.4 0-.7.2-.9.5l-.4.4c-.9 1.1-2.5 1.5-3.8 1-.9-.3-1.6-.9-2-1.7l-.1-.2c-1.1-2.2-.7-4.8 1-6.6 1-1 2.3-1.7 3.8-1.8 2.4-.2 4.8 1 5.8 3.2l.1.2c.4.8.5 1.8.2 2.6-.4 1.4-1.6 2.4-3.1 2.4z"/><path class="st11" d="M119.4 55c.1 0 .1 0 0 0l-.2.1c-.4 0-.7.2-.9.5l-.1.1c-.2-.3 0-.8.3-.9.4-.3.8-.1.9.2z"/><path class="st12" d="m123.3 86.5-1.8-1.8c-.2-.2 0-.6.3-.5l2.5.7c1.9.6 3.9.8 5.8.6 5.2-.5 9.9 2.9 10.9 8l.6 2.6-2.6.8c-5 1.5-10.3-.9-12.3-5.6-.8-1.8-2-3.5-3.4-4.8z"/><path class="st13" d="m141.4 96.5-9.2-5.9 9.7 5.2c.2.1.3.4.2.6-.1.2-.4.3-.7.1z"/></svg>