<svg xmlns="http://www.w3.org/2000/svg" viewBox="0 0 673.12 817"><defs><style>.cls-2{fill:#f1998e}.cls-3{fill:#c14f29}.cls-4{fill:#fff}.cls-5{fill:#ffe3ac}.cls-6{fill:#fff2d9}.cls-7{fill:#870f00}.cls-8{fill:#05a357}.cls-9{fill:#156a41}.cls-10{fill:#333}.cls-11{fill:#993f21}.cls-13{fill:#d4e2fc}.cls-14{fill:#0f462d}.cls-15{fill:#06c167}</style></defs><g id="Layer_2" data-name="Layer 2"><g id="WebLeft"><path d="m508.61 140.21-7.41 11.18L272.81 0h24.28l211.52 140.21zm10.71-16.15-7.41 11.18L307.89 0h24.28l187.15 124.06zm10.7-16.15-7.41 11.18L342.96 0h24.27l162.79 107.91zm10.71-16.15-7.41 11.18L378.03 0h24.28l138.42 91.76zm10.7-16.15-7.41 11.18L413.09 0h24.28l114.06 75.61zm10.71-16.15-7.41 11.18L448.17 0h24.27l89.7 59.46zm10.71-16.15-7.42 11.18L483.24 0h24.27l65.34 43.31z" style="fill:#fa9269"/><path class="cls-2" d="M637.8 0a254 254 0 0 1-172 103.15 255.38 255.38 0 0 1-43.83 2.2 253.12 253.12 0 0 1-32.15-3.2A255.59 255.59 0 0 1 224.8 0z"/><path class="cls-3" d="M367.23 0H343l148.31 98.34c5.78-1.4 11.5-3 17.1-4.75zM297.1 0h-24.29L432 105.5c7.49 0 15-.37 22.65-1.08zm35.07 0h-24.31l156 103.4c.64-.09 1.26-.17 1.9-.24q8.87-1.23 17.48-3zm175.34 0h-24.27l82.19 54.48 7.42-11.17zm80.93 0 9.11 6 4-6zM402.31 0H378l137.59 91.19q7.81-2.72 15.36-5.92zm70.13 0h-24.27l106.56 70.64 7.4-11.19zm70.16 0h-24.3l57.84 38.34 7.42-11.19zm35 0h-24.21l33.46 22.18 7.4-11.18zM437.37 0h-24.28l124.33 82.42c4.72-2.17 9.36-4.45 13.9-6.89z"/><path class="cls-4" d="M624.35 0a253.93 253.93 0 0 1-166 95.15 255.38 255.38 0 0 1-43.83 2.2 253.12 253.12 0 0 1-32.15-3.2A255.53 255.53 0 0 1 223.42 0z"/><path class="cls-5" d="M613.07 0a245.14 245.14 0 0 1-155.91 86.45A245.85 245.85 0 0 1 234.73 0z"/><path class="cls-6" d="M530.33 0c-23.59 22.35-50.64 39.55-80 43.55-56.34 7.69-108.53-.37-151-31.62Q291.71 6.31 284.6 0z"/><path class="cls-7" d="M563.26 0a209.12 209.12 0 0 1-110.95 50.89 209.41 209.41 0 0 1-152.95-39c5.47-7.75 23.61-7.17 40.08 11.55 18.39 20.89 30.47 7.43 34.16 2a.13.13 0 0 1 0-.05c.66-1 1.05-1.68 1.14-1.85 4.74-7.2 13-12.69 21.49-14.93 14.09-3.7 29-1.28 43.53-1.38A139.43 139.43 0 0 0 483.35 0z"/><path class="cls-8" d="m462.85 18.01-18.07-5.56L437.33 0h14.74l10.78 18.01z"/><path class="cls-9" d="m451.88 0-6.14 6.14L444.61 0h7.27z"/><path class="cls-7" d="M374.77 23.61c-.09.17-.48.87-1.14 1.85a20.91 20.91 0 0 1 1.14-1.85z"/><path class="cls-6" d="M407.33 20.11a6.08 6.08 0 0 1 2.36-2.69 9.33 9.33 0 0 1 1.62-.87 8.62 8.62 0 0 1 .7 1.7 6.09 6.09 0 0 1 .11 3.58c-.78 2.42-3.82 3.59-4 3.66-.12-.16-1.73-3.01-.79-5.38zm20.94 15.3a6 6 0 0 1 3.56.33 9.2 9.2 0 0 1 1.66.79 8.72 8.72 0 0 1-1 1.56 6 6 0 0 1-2.83 2.19c-2.42.8-5.16-1-5.33-1.1.11-.18 1.47-3.18 3.94-3.77z"/><path class="cls-10" d="M499 14.37a6 6 0 0 1 2.85 2.16 9.44 9.44 0 0 1 1 1.55 8.94 8.94 0 0 1-1.64.81 6.09 6.09 0 0 1-3.56.37c-2.48-.61-3.86-3.56-3.94-3.76.15-.1 2.88-1.9 5.29-1.13z"/><path class="cls-8" d="m389.19 1.07 1.87 17.09-8.58 7.42-1.87-17.1 8.58-7.41zM260.74 75.71l-24.42-11.73-12.96 7.41v9.09l15.77 7.58 21.61-12.35z"/><path class="cls-9" d="m228.53 87.82 1.19-14.68 25.6 20.89-1.19 14.68-25.6-20.89z"/><circle class="cls-3" cx="378.14" cy="725.09" r="2.3"/><path class="cls-11" transform="rotate(14.94 369.805 718.518)" d="M366.98 715.54h5.49v5.49h-5.49z"/><path class="cls-11" transform="rotate(-1.87 216.578 568.32)" d="M214.16 566.59h5.49v5.49h-5.49z"/><path class="cls-2" d="M222.18 800.8q-1 8.25-2.8 16.2H.11V626.89a164.7 164.7 0 0 1 184.72 47.92s.06 0 .06.07a164.14 164.14 0 0 1 37.29 125.92z"/><path class="cls-2" d="M249.75 789.86c-4.32-19.74-2.35-33.86 1.45-44.62 2.51-7.09 4.88-19.93-1.06-25.25-16.36-3.64-25.26 6.15-31.29 15.8a164 164 0 0 1 6 68.39q-.79 6.38-2 12.58l.21.24h37a90.79 90.79 0 0 1-10.31-27.14z"/><path class="cls-8" d="M247.11 786.47c-4.32-19.74-2.35-33.85 1.45-44.61a40 40 0 0 0 1.58-21.86c-16.36-3.64-27.9 2.76-33.93 12.42a164 164 0 0 1 6 68.38q-.78 6.38-2 12.58a30.93 30.93 0 0 0 2.48 2.71c.3.3.6.61.88.92h35.95c-5.07-7.48-9.52-17.25-12.41-30.54z"/><path class="cls-2" d="M412.88 755.35a17.42 17.42 0 0 1-9.56 7.08c-7.5 2.29-15.47 7.78-21.95 15.76a53.9 53.9 0 0 0-7.61 12.42 39.74 39.74 0 0 0-3.29 12.29 17.42 17.42 0 0 1-5 10.82 32.18 32.18 0 0 0-2.88 3.28h40.66a116.93 116.93 0 0 1 9.43-13.37c14-17.26 27.5-25.25 39.36-29.37A43.89 43.89 0 0 0 472 760.62c-14.77-30.16-47.17-23.78-59.12-5.27z"/><path class="cls-8" d="M411.44 750.4a17.43 17.43 0 0 1-9.56 7.09c-7.5 2.29-15.47 7.77-21.95 15.75a54.11 54.11 0 0 0-7.61 12.42A39.87 39.87 0 0 0 369 798a17.45 17.45 0 0 1-5 10.82 32.74 32.74 0 0 0-6 8.22h41a110.49 110.49 0 0 1 12.22-18.32c14-17.26 27.5-25.25 39.36-29.36a44 44 0 0 0 19.88-13.64c-14.68-30.2-47.08-23.83-59.02-5.32z"/><path class="cls-2" d="M91.75 209.24a43.89 43.89 0 0 1-24 2.52c-12.39-2-28-1.44-48.59 7.06-5.93 2.45-14.64 5.09-19.18 7.83l3.56-45.05.2-.09c9.5-3.93 19.12-4.95 26.8-3.39a17.39 17.39 0 0 0 11.78-1.67c19.33-10.58 50.85-.75 49.43 32.79z"/><path class="cls-8" d="M88.21 205.57a43.89 43.89 0 0 1-24 2.52c-12.39-2-28.05-1.44-48.59 7.06A115.57 115.57 0 0 0 0 223v-45l.2-.09c9.5-3.93 19.12-5 26.8-3.39a17.39 17.39 0 0 0 11.78-1.67c19.33-10.65 50.85-.85 49.43 32.72z"/><path class="cls-9" d="M216.21 732.41a32 32 0 0 0-3.32 26.59 15.87 15.87 0 0 1-.39 10.81c-2.62 6.63-3.25 15.4-1.25 24.53a48.66 48.66 0 0 0 4.51 12.45 38.43 38.43 0 0 0 4.39 6.6q1.24-6.2 2-12.58a164 164 0 0 0-5.94-68.4z"/><path class="cls-4" d="M215.18 791.81a166 166 0 0 1-5.11 25.19H.11V615.41a164.68 164.68 0 0 1 184.72 59.4s.06 0 .06.07a164 164 0 0 1 30.29 116.93z"/><path d="M70.46 620.14A152.23 152.23 0 0 0 .11 628v189h197.55a152.8 152.8 0 0 0-127.2-196.86z" fill="#a0bff9"/><path class="cls-13" d="M196.59 789.52A148 148 0 0 1 190.5 817H.11V635.3a145.9 145.9 0 0 1 196.48 154.22z"/><path class="cls-4" d="M174 786.93a123.07 123.07 0 0 1-7.61 30.07H.11V659.67A123.42 123.42 0 0 1 174 786.93z"/><path class="cls-13" d="M148.77 699.14a10.5 10.5 0 0 0-7.11 3.26 39.39 39.39 0 0 1-16.12 9.51c-2.82.9-5 3-4.78 7.5.61 11.92 23.62 14.21 34.14 1.88s3.58-22.64-6.13-22.15z"/><path class="cls-8" d="M146.65 697a10.58 10.58 0 0 0-7.1 3.26 39.34 39.34 0 0 1-16.12 9.51c-2.82.91-5 3-4.78 7.5.61 11.92 23.62 14.21 34.13 1.88s3.59-22.62-6.13-22.15z"/><path class="cls-9" d="M16.94 679.33a43.91 43.91 0 0 0 14.73 19.09c10 7.56 20.41 19.3 28.44 40s8.27 36.41 6 48.74a44 44 0 0 0 2 24c33.5 2.18 44.05-29.11 33.9-48.67a17.51 17.51 0 0 1-1.4-11.82c1.73-7.64.93-17.28-2.78-26.87a54.18 54.18 0 0 0-7-12.77 39.88 39.88 0 0 0-9-9 17.46 17.46 0 0 1-6.93-9.68c-5.68-21.28-34.56-37.3-57.84-13.12z"/><path class="cls-14" d="M123.84 792.82a17.45 17.45 0 0 0-10.09 6.32 39.64 39.64 0 0 1-9.51 8.46 53.44 53.44 0 0 1-13.18 6.2c-9.79 3.09-19.47 3.3-27 1.1a17.32 17.32 0 0 0-11.88.65 29.87 29.87 0 0 1-4 1.45H28.94c-12.75-3.56-23.61-14.34-23.61-32.19a47.13 47.13 0 0 1 .4-6.13 43.88 43.88 0 0 1 24.11-.47c12.16 3.07 27.82 3.81 49-2.91s33.57-16.34 41.74-25.87a43.87 43.87 0 0 1 20-13.51c22.65 24.76 4.87 52.56-16.74 56.9zm-44.35-61.19a17.41 17.41 0 0 0-11.65 2.45A39.54 39.54 0 0 1 56 738.76 54.47 54.47 0 0 1 41.49 740c-10.27-.46-19.41-3.61-25.72-8.26a17.39 17.39 0 0 0-11.38-3.47 26.59 26.59 0 0 1-4.28 0V688c1.89 1.13 3.89 2.22 6 3.24l.43.2c9.24 4.32 21 7.54 36.69 8.24 22.21 1 37.15-3.81 48.1-9.94a43.83 43.83 0 0 1 23.43-5.74c12.78 31-13.49 51-35.27 47.63z"/><path class="cls-9" d="M45.47 817H.11v-30q3.21 3 6.35 5.44t6.27 4.38c.95.61 1.88 1.16 2.81 1.69a72.38 72.38 0 0 0 10.9 5.11A43.93 43.93 0 0 1 45.47 817zm28.98-60.1a28.47 28.47 0 0 1-3.67 1.1c-.42.11-.85.2-1.27.28a17.51 17.51 0 0 0-10.16 6.2 39.23 39.23 0 0 1-9.61 8.35 53.6 53.6 0 0 1-13.24 6.05c-9.84 3-19.5 3.09-27 .79-.47-.14-.95-.26-1.43-.37a17.68 17.68 0 0 0-8 .05v-34.46a106.3 106.3 0 0 0 24.62-4.66c21.27-6.48 33.74-16 42-25.39a43.87 43.87 0 0 1 20.13-13.29c20.71 23.06 6.9 48.36-12.37 55.35z"/><path class="cls-14" d="M86.87 701.55a43.87 43.87 0 0 0-20.12 13.28c-8.28 9.44-20.76 18.92-42 25.4a107.68 107.68 0 0 1-23.45 4.58c-.64 12-.77 26.07 12.74 35.86a44.25 44.25 0 0 0 9.67.47 44.83 44.83 0 0 0 10.44-16.33c4.39-11.76 12.68-25.06 30.26-38.67 10.45-8.09 20-13 28.6-16a44.82 44.82 0 0 0-6.14-8.59z"/><path class="cls-14" d="M15.55 798.46c-.7.2-1.36.37-2.08.59a122.47 122.47 0 0 0-13.36 4.79v-37.91c1.46-.27 2.49-.34 2.74 0l5.22 13.37 4.45 11.39 2.14 5.47z"/><path class="cls-13" d="M176.87 817H77.35c.54-.49 1.1-1 1.69-1.44a53.8 53.8 0 0 1 12.5-7.48c9.43-4.07 19-5.25 26.74-3.81a17.45 17.45 0 0 0 11.72-1.84c15.31-8.68 38.55-4.5 46.87 14.57z"/><path class="cls-9" d="M139.08 806.39a54.16 54.16 0 0 1-1 10.61H98.31c.28-3.3.42-6.8.4-10.5 0-22.23-5.53-36.93-12.17-47.57a44 44 0 0 1-6.9-23.12c30.41-14.2 51.62 11.11 49.28 33a17.47 17.47 0 0 0 3 11.53 39.58 39.58 0 0 1 5.22 11.6 52.88 52.88 0 0 1 1.94 14.45z"/><path class="cls-14" d="M139.08 806.39a54.16 54.16 0 0 1-1 10.61H98.31c.26-3.27.4-6.72.4-10.39a42.42 42.42 0 0 1 17.06-.65 17.39 17.39 0 0 0 11.76-1.85 32.92 32.92 0 0 1 11.18-3.85 53.53 53.53 0 0 1 .37 6.13z"/><path class="cls-15" d="M174.12 817H69.84a41.09 41.09 0 0 1 5.16-4.89 53.43 53.43 0 0 1 12.5-7.5c9.44-4.07 19-5.24 26.74-3.8A17.44 17.44 0 0 0 126 799c16.18-9.22 41.23-4 48.12 18z"/><path class="cls-10" d="M85.46 754.67a6.34 6.34 0 0 1-.54 3.7 9.66 9.66 0 0 1-.93 1.68 10.08 10.08 0 0 1-1.57-1.1 6.3 6.3 0 0 1-2.12-3.08c-.69-2.57 1.31-5.32 1.46-5.49.17.09 3.24 1.69 3.7 4.29z"/><path class="cls-8" d="M162.22 745.65a43.81 43.81 0 0 0-21.8-10.3c-12.37-2.18-26.95-7.92-43.53-22.73S73 684 69.41 671.92a44 44 0 0 0-12.68-20.51c-30.83 13.3-26 46-8.06 58.77a17.44 17.44 0 0 1 6.62 9.89c1.93 7.59 7 15.81 14.7 22.66A53.22 53.22 0 0 0 82 750.92a39.54 39.54 0 0 0 12.12 3.87 17.45 17.45 0 0 1 10.57 5.47c14.74 16.38 47.74 17.51 57.49-14.61z"/><path class="cls-6" d="M51.83 691.16a6.42 6.42 0 0 1-.89 3.67 9.7 9.7 0 0 1-1.1 1.61 10 10 0 0 1-1.49-1.25 6.47 6.47 0 0 1-1.86-3.3c-.45-2.66 1.82-5.25 2-5.41.16.11 3.06 2 3.34 4.68z"/><path class="cls-8" d="M81.41 783.05a48.79 48.79 0 0 1-.51 6.86 44.12 44.12 0 0 1-24.12.05c-11.19-3.06-25.38-4.14-44.26.71-1.57.4-3.16.85-4.8 1.33-.42.12-.86.25-1.26.39-2.21.68-4.34 1.39-6.35 2.15V752.3c8.46-1.89 16.59-1.65 23.08.38a17.47 17.47 0 0 0 11.9-.46 35.1 35.1 0 0 1 28.83 1.16 31.67 31.67 0 0 1 6.86 4.6c6.35 5.59 10.63 13.96 10.63 25.07z"/><path class="cls-9" d="M93.91 709.88 82.36 680l-48 21.84 25.21 28.34c1.55-1.33 3.16-2.66 4.89-4 10.8-8.39 20.6-13.38 29.45-16.3zM0 752.32l13 31.19c17-9.28 21.24-18.69 21.24-18.69s4.07-9.5 7.33-14.53c-2.25.43-41.57 2.03-41.57 2.03z"/><path class="cls-10" d="M79.62 677a6.42 6.42 0 0 1 1.69 3.39 9.66 9.66 0 0 1 .2 1.93 9.33 9.33 0 0 1-1.94 0 6.35 6.35 0 0 1-3.57-1.27c-2.06-1.74-2-5.18-2-5.41.25-.05 3.68-.47 5.62 1.36z"/><path class="cls-15" d="M124.82 696.91a40.6 40.6 0 0 1-6.73 4.22 45.34 45.34 0 0 1-15.74 4.52c-12.48 1.3-27.45 6-45 19.61A110.08 110.08 0 0 0 41.49 740a77 77 0 0 0-14.43 24A43.91 43.91 0 0 1 13 783.51a41 41 0 0 1-12.86-10v-41.06a31.29 31.29 0 0 1 3.7-4.1 31.36 31.36 0 0 1 5.24-4 17.41 17.41 0 0 0 7.31-9.41 39.38 39.38 0 0 1 6-11.21 49.78 49.78 0 0 1 5-5.73 54.83 54.83 0 0 1 5.25-4.62c8.13-6.3 17.13-9.82 25-10.33a17.47 17.47 0 0 0 10.92-4.73 35.13 35.13 0 0 1 24.07-9.48c13.74-.03 27.66 8.21 32.19 28.07z"/><path class="cls-9" d="M156.52 701.76c1.8 20.84-35.89 24.67-37.87 15.53.61 11.92 23.62 14.21 34.13 1.88 6-7 6.32-13.32 3.74-17.41z"/><path class="cls-15" d="M10.77 677.63a42.5 42.5 0 0 0-4 12.53c-.19.37-.39.74-.59 1.1a22.28 22.28 0 0 1-6 6.71v-30.82A9.27 9.27 0 0 1 8.71 669c3.36 2.93 3.36 6 2.06 8.63z"/><path class="cls-8" d="M6.74 690.16c-.06.43-.12.87-.16 1.3a31.46 31.46 0 0 0-.21 4.35 10.58 10.58 0 0 1-2.62 7.38 11.69 11.69 0 0 1-3.64 2.86V698a22.28 22.28 0 0 0 6-6.71c.24-.39.44-.76.63-1.13z"/><path class="cls-6" d="M20.66 741a6.37 6.37 0 0 1 3.54-1.21 9.72 9.72 0 0 1 1.92.06 9.26 9.26 0 0 1-.25 1.9 6.34 6.34 0 0 1-1.76 3.3c-2 1.78-5.33 1.26-5.56 1.21-.01-.26.03-3.66 2.11-5.26z"/><path class="cls-10" d="M99.14 780.66a6.39 6.39 0 0 1 3.72-.34 9.7 9.7 0 0 1 1.85.51 10.26 10.26 0 0 1-.7 1.78 6.41 6.41 0 0 1-2.49 2.79c-2.34 1.27-5.48 0-5.69-.13.05-.19.9-3.49 3.31-4.61z"/><path class="cls-6" d="M119.33 733.29a6.27 6.27 0 0 1 1.67 3.35 10.37 10.37 0 0 1 .2 1.91 10.09 10.09 0 0 1-1.92 0 6.37 6.37 0 0 1-3.5-1.32c-2-1.71-2-5.11-1.94-5.34.16-.03 3.58-.44 5.49 1.4zm-75.62-17.37a6.29 6.29 0 0 1-3.73-.23 9.67 9.67 0 0 1-1.75-.78 9.68 9.68 0 0 1 1-1.66 6.32 6.32 0 0 1 2.89-2.37c2.5-.91 5.41.86 5.59 1-.11.17-1.45 3.31-4 4.04zm56.43-18.03a6.29 6.29 0 0 1 2.77 2.5 9.86 9.86 0 0 1 .89 1.71 9.86 9.86 0 0 1-1.79.71 6.4 6.4 0 0 1-3.74.06c-2.52-.86-3.69-4-3.76-4.27.17-.1 3.17-1.72 5.63-.71zM53 757.35a6.33 6.33 0 0 1 1.66 3.34 9.47 9.47 0 0 1 .2 1.91 9.14 9.14 0 0 1-1.92 0 6.28 6.28 0 0 1-3.5-1.31c-2-1.72-2-5.12-1.94-5.34.19-.03 3.57-.44 5.5 1.4zm-19.13-15.56a6.29 6.29 0 0 1-1.36 3.48 9.2 9.2 0 0 1-1.28 1.43 9.11 9.11 0 0 1-1.29-1.42 6.34 6.34 0 0 1-1.39-3.48c-.1-2.66 2.47-4.89 2.65-5 .16.11 2.74 2.33 2.67 4.99zm107.04 65.78a6.27 6.27 0 0 1 .07 3.73 9.72 9.72 0 0 1-.63 1.82 9.69 9.69 0 0 1-1.73-.82 6.3 6.3 0 0 1-2.6-2.68c-1.11-2.42.41-5.47.52-5.66.19.04 3.46 1.13 4.37 3.61zm36.73-30.88a6.27 6.27 0 0 1 .08 3.73 9.29 9.29 0 0 1-.64 1.82 9.94 9.94 0 0 1-1.74-.82 6.41 6.41 0 0 1-2.6-2.68c-1.11-2.43.41-5.47.53-5.66.19.05 3.43 1.12 4.37 3.61zM140 682a6.22 6.22 0 0 1-3.35 1.64 9 9 0 0 1-1.91.19 9.67 9.67 0 0 1 0-1.92 6.31 6.31 0 0 1 1.33-3.5c1.72-2 5.12-1.93 5.35-1.91.06.16.46 3.55-1.42 5.5zm-27.86 129.2a6.27 6.27 0 0 1-2.36-2.89 10 10 0 0 1-.62-1.82 9.56 9.56 0 0 1 1.88-.43 6.36 6.36 0 0 1 3.7.51c2.36 1.22 3 4.55 3.07 4.78-.18.07-3.4 1.23-5.67-.15zM114 817h-5.2a6.48 6.48 0 0 1 3.33-1.24 9.77 9.77 0 0 1 1.92 0A9.43 9.43 0 0 1 114 817z"/><path class="cls-10" d="M183 763.32a6.33 6.33 0 0 1 3.65-.8 9.72 9.72 0 0 1 1.9.27 10 10 0 0 1-.46 1.87 6.31 6.31 0 0 1-2.13 3.07c-2.16 1.56-5.44.66-5.65.59.01-.2.43-3.59 2.69-5zm-36.45-23.22a6.34 6.34 0 0 1-3.11-2.07 9.71 9.71 0 0 1-1.13-1.56 9.06 9.06 0 0 1 1.66-1 6.38 6.38 0 0 1 3.69-.61c2.62.48 4.25 3.46 4.35 3.66-.15.17-2.88 2.22-5.46 1.58z"/><circle class="cls-3" cx="126.39" cy="751.67" r="2.3"/><circle class="cls-3" cx="158.5" cy="768.56" r="2.3"/><circle class="cls-3" cx="28.25" cy="664.88" r="2.3"/><circle class="cls-3" cx="145.04" cy="786.14" r="2.3"/><circle class="cls-11" cx="96.56" cy="771.1" r="2.3"/><circle class="cls-11" cx="120.21" cy="754.88" r="2.3"/><circle class="cls-11" cx="93.38" cy="728.33" r="2.3"/><circle class="cls-11" cx="80.84" cy="696.24" r="1.84"/><circle class="cls-11" cx="39.31" cy="771.27" r="1.84"/><circle class="cls-11" cx="92.35" cy="811.87" r="1.84"/><circle class="cls-11" cx="63.07" cy="715.86" r="1.84"/><circle class="cls-3" cx="66.33" cy="704.46" r="1.84"/><circle class="cls-3" cx="135.51" cy="672.01" r="1.84"/><circle class="cls-3" cx="128.99" cy="698.45" r="1.84"/><circle class="cls-3" cx="67.42" cy="642.68" r="1.84"/><circle class="cls-3" cx="150.1" cy="769.37" r="1.84"/><circle class="cls-3" cx="32.8" cy="673.11" r="1.84"/><circle class="cls-3" cx="12.85" cy="709.68" r="2.3"/><circle class="cls-3" cx="183.49" cy="804.05" r="2.3"/><circle class="cls-3" cx="5.42" cy="777.42" r="2.3"/><circle class="cls-3" cx="46.8" cy="779.72" r="2.3"/><path class="cls-11" transform="rotate(7.01 53.136 772.54)" d="M50.35 769.32h5.49v5.49h-5.49z"/><path class="cls-3" transform="rotate(-37.99 100.668 736.998)" d="M97.96 734.33h5.49v5.49h-5.49z"/><path class="cls-3" transform="rotate(-37.99 149.983 709.036)" d="M147.28 706.36h5.49v5.49h-5.49z"/><path class="cls-3" transform="rotate(-37.99 93.989 679.282)" d="M91.28 676.6h5.49v5.49h-5.49z"/><path class="cls-11" transform="rotate(-37.99 154.942 778.214)" d="M152.78 776.09h4.39v4.39h-4.39z"/><path class="cls-6" d="M7.79 658.55a6.25 6.25 0 0 1 2.78-2.48 9.29 9.29 0 0 1 1.79-.7 9.7 9.7 0 0 1 .51 1.85 6.23 6.23 0 0 1-.34 3.72c-1.11 2.42-4.41 3.25-4.64 3.29-.08-.23-1.38-3.34-.1-5.68z"/><circle class="cls-11" cx="39.57" cy="638.9" r="1.84"/><path class="cls-2" d="M329.72 783.85c6.15.69 10.72-5 12.23-12.36 1.4-6.82.18-15.07-4.85-21-10.47-12.37-21.76-7.21-22.85 2.46a10.54 10.54 0 0 0 2.06 7.54c.42.57.81 1.15 1.18 1.75a36.09 36.09 0 0 1 1.88 3.39 42.81 42.81 0 0 1 3.72 12.31c.44 2.91 2.18 5.41 6.63 5.91z"/><path class="cls-15" d="M339.35 770.3c1.4-6.82.18-15.07-4.85-21-10.47-12.37-21.77-7.21-22.86 2.46a10.57 10.57 0 0 0 2.07 7.54c.42.57.8 1.16 1.18 1.75a35 35 0 0 1 1.87 3.39c5.42 7.5 18.92 15.66 22.59 5.86z"/><path class="cls-8" d="M339.35 770.3c-3.67 9.8-17.17 1.64-22.59-5.88a42.28 42.28 0 0 1 3.72 12.31c.44 2.93 2.18 5.43 6.63 5.93 6.16.69 10.72-5 12.24-12.36z"/><path class="cls-6" d="M222.57 644.73a6.34 6.34 0 0 1-3.73.21 9.3 9.3 0 0 1-1.83-.57 9.71 9.71 0 0 1 .76-1.77 6.4 6.4 0 0 1 2.58-2.7c2.38-1.19 5.48.22 5.68.33-.03.2-1.03 3.47-3.46 4.5z"/><path class="cls-2" d="M233.14 656.36a43.9 43.9 0 0 0 24.1-.46c12-3.54 27.66-4.88 49.1 1S340.5 672 349 681.19a46.54 46.54 0 0 0 9.72 8 22.7 22.7 0 0 0 18.77 2.14c21.71-25.6-5.15-50.16-26.89-53.67a17.4 17.4 0 0 1-10.33-5.92c-5.11-5.95-13.33-11-23.24-13.78a53.9 53.9 0 0 0-14.43-2 39.4 39.4 0 0 0-12.58 1.92 17.45 17.45 0 0 1-11.9-.21c-20.48-8.12-50.55 5.52-45 38.63z"/><path class="cls-2" d="M250.59 667.86c5.28-11.38 14.57-24 33.15-36.23s33.84-15.75 46.39-16.09a43.92 43.92 0 0 0 23.08-7c-4.93-33.2-37.74-36.92-54.72-22.89a17.48 17.48 0 0 1-11.26 3.86c-7.84-.08-17.09 2.73-25.68 8.38a53.76 53.76 0 0 0-11 9.54 39.79 39.79 0 0 0-6.86 10.72 17.34 17.34 0 0 1-8 8.81c-19.61 10-29.09 42.82 4 60.11-.03.01 7.42-11.7 10.9-19.21z"/><path class="cls-15" d="M241.15 653.79a43.94 43.94 0 0 0 24.11-.45c12-3.54 27.66-4.88 49.1 1s34.16 15.06 42.69 24.27a44 44 0 0 0 20.47 12.74c21.71-25.6 2.87-52.72-18.88-56.23a17.43 17.43 0 0 1-10.32-5.92c-5.11-6-13.33-11.05-23.24-13.78a53.93 53.93 0 0 0-14.43-2 40 40 0 0 0-12.58 1.92 17.45 17.45 0 0 1-11.9-.2c-20.48-8.13-50.55 5.52-45 38.62z"/><path class="cls-9" d="M283.82 631.57c16.54-10.88 30.45-14.87 42.16-15.85-.3-.09-.59-.2-.9-.28a53.93 53.93 0 0 0-14.43-2 40 40 0 0 0-12.58 1.92 17.45 17.45 0 0 1-11.9-.2c-20.48-8.13-50.55 5.52-45 38.62a42.53 42.53 0 0 0 17.25 1c5.64-7.61 13.66-15.49 25.4-23.21z"/><path class="cls-8" d="M230.36 683.19a43.85 43.85 0 0 0 15.56-18.42c5.28-11.39 14.57-24 33.15-36.23s33.84-15.75 46.39-16.09a43.94 43.94 0 0 0 23.08-7c-4.93-33.2-37.74-36.92-54.72-22.89a17.48 17.48 0 0 1-11.26 3.86c-7.84-.08-17.09 2.73-25.68 8.38a53.46 53.46 0 0 0-11 9.54 39.55 39.55 0 0 0-6.88 10.73 17.34 17.34 0 0 1-8 8.81c-19.61 10-29.19 41.64-.65 59.31z"/><path class="cls-2" d="M312.82 136.49a43.89 43.89 0 0 0-24.05 1.63c-11.86 4.12-27.39 6.22-49.09 1.36s-34.85-13.37-43.82-22.16a43.89 43.89 0 0 0-21.07-11.72c-20.44 26.63-.3 52.8 21.59 55.24a17.44 17.44 0 0 1 10.6 5.41c5.39 5.69 13.85 10.39 23.88 12.63a53.15 53.15 0 0 0 14.51 1.28 39.63 39.63 0 0 0 12.48-2.52 17.41 17.41 0 0 1 11.89-.38c20.85 7.12 50.22-8 43.08-40.77z"/><path class="cls-8" d="M311.5 131.17a44 44 0 0 0-24.06 1.62c-11.85 4.13-27.39 6.22-49.08 1.37S203.5 120.78 194.53 112a44 44 0 0 0-21.06-11.73c-20.44 26.63-.31 52.8 21.59 55.25a17.38 17.38 0 0 1 10.6 5.41c5.39 5.69 13.85 10.38 23.88 12.63a53.94 53.94 0 0 0 14.51 1.28 39.85 39.85 0 0 0 12.47-2.53 17.44 17.44 0 0 1 11.9-.37c20.85 7.12 50.22-8 43.08-40.77z"/><path class="cls-10" d="M272 598.05a6.33 6.33 0 0 1-3.66-.75 9.69 9.69 0 0 1-1.63-1 9.22 9.22 0 0 1 1.18-1.52 6.33 6.33 0 0 1 3.19-2c2.6-.54 5.23 1.61 5.4 1.76-.09.21-1.85 3.13-4.48 3.51zm36.72 8.95a6.35 6.35 0 0 1-2.12 3.08 10.08 10.08 0 0 1-1.57 1.1 9.66 9.66 0 0 1-.93-1.68 6.29 6.29 0 0 1-.55-3.69c.51-2.61 3.52-4.2 3.73-4.29.12.16 2.12 2.92 1.44 5.48z"/><path class="cls-3" transform="rotate(92.38 237.886 664.929)" d="M235.14 662.19h5.49v5.49h-5.49z"/><path class="cls-3" transform="rotate(135 429.718 750.56)" d="M426.97 747.81h5.49v5.49h-5.49z"/><path class="cls-6" d="M306.66 629.69a6.38 6.38 0 0 1-1.49-3.42 9.28 9.28 0 0 1-.09-1.92 9.79 9.79 0 0 1 1.92.1 6.32 6.32 0 0 1 3.43 1.5c1.94 1.82 1.68 5.21 1.65 5.43-.2.02-3.61.26-5.42-1.69zm7.18-32.69a6.32 6.32 0 0 1-3.43-1.49 9.71 9.71 0 0 1-1.38-1.34 9 9 0 0 1 1.47-1.24 6.3 6.3 0 0 1 3.53-1.24c2.66 0 4.79 2.66 4.92 2.84-.13.14-2.46 2.63-5.11 2.47z"/><circle class="cls-3" cx="314.87" cy="645.87" r="2.3"/><circle class="cls-11" cx="226.55" cy="652.62" r="1.84"/><path class="cls-6" d="M362.07 664.3a6.36 6.36 0 0 1 3.32-1.72 9.55 9.55 0 0 1 1.91-.22 9.44 9.44 0 0 1 0 1.92 6.41 6.41 0 0 1-1.26 3.52c-1.69 2.06-5.09 2-5.31 2-.01-.18-.47-3.56 1.34-5.5zm79.98 95.7a6.26 6.26 0 0 1-3.55-1.15 9 9 0 0 1-1.51-1.19 9.37 9.37 0 0 1 1.34-1.38 6.29 6.29 0 0 1 3.38-1.59c2.65-.26 5 2.17 5.18 2.34-.11.12-2.18 2.83-4.84 2.97zm-59.9 23.27a6.33 6.33 0 0 1-.65-3.68 9.39 9.39 0 0 1 .36-1.89 9.46 9.46 0 0 1 1.84.54 6.34 6.34 0 0 1 3 2.26c1.46 2.22.42 5.46.34 5.67-.22-.02-3.58-.59-4.89-2.9z"/><path class="cls-10" d="M393.45 784.5a6.31 6.31 0 0 1 2.71-2.56 9.2 9.2 0 0 1 1.77-.75 9.72 9.72 0 0 1 .56 1.84 6.37 6.37 0 0 1-.24 3.73c-1 2.44-4.32 3.36-4.54 3.41-.08-.17-1.47-3.3-.26-5.67zm-85.78-146.7a6.38 6.38 0 0 1-1.19 3.54 9.86 9.86 0 0 1-1.21 1.5 9.82 9.82 0 0 1-1.35-1.36 6.28 6.28 0 0 1-1.55-3.4c-.23-2.65 2.23-5 2.4-5.15.16.07 2.85 2.22 2.9 4.87z"/><path class="cls-2" d="M665.6 806a88.65 88.65 0 0 1 .3 11h7.22c-.06-1.67-.16-3.35-.31-5a86.53 86.53 0 0 0-34.66-61.6A86.39 86.39 0 0 1 665.6 806z"/><path class="cls-4" d="M578.42 733.64a86.42 86.42 0 0 1 59.73 16.73A86.71 86.71 0 0 0 492.58 817h7.21a86.73 86.73 0 0 1 78.63-83.36z"/><path class="cls-4" d="M578.42 733.64A86.73 86.73 0 0 0 499.79 817h8.57a70.95 70.95 0 1 1 141.76 0h15.78a88.65 88.65 0 0 0-.3-11 86.39 86.39 0 0 0-27.45-55.61 86.42 86.42 0 0 0-59.73-16.75z"/><path class="cls-5" d="M649.89 807.44A70.95 70.95 0 0 0 508.36 817h13a57.93 57.93 0 0 1 115.55-8.27 58.78 58.78 0 0 1 .17 8.27h13a71.34 71.34 0 0 0-.19-9.56z"/><path class="cls-7" d="M556.64 764.36a54.69 54.69 0 0 1 75.07 34.45 24.77 24.77 0 0 1-1.8 18.19h7.2a58.78 58.78 0 0 0-.17-8.27A57.93 57.93 0 0 0 521.39 817h3.35a54.61 54.61 0 0 1 31.9-52.64z"/><path d="M631.71 798.81a54.61 54.61 0 0 0-107 18.19h105.2a24.77 24.77 0 0 0 1.8-18.19z"/><path class="cls-8" d="m452.93 671.75 25.26 9.79-20.59 14-25.26-9.79 20.59-14z"/><path class="cls-9" d="m463.51 671.17-.04 14.73-27.15-18.85.04-14.72 27.15 18.84z"/><circle class="cls-11" cx="234.16" cy="750.22" r="2.3"/><path class="cls-6" d="M230.05 733.56a6.26 6.26 0 0 1 1.63 3.36 9.33 9.33 0 0 1 .18 1.91 9.29 9.29 0 0 1-1.92 0 6.3 6.3 0 0 1-3.48-1.35c-2-1.74-1.91-5.14-1.89-5.37.2-.04 3.59-.42 5.48 1.45z"/><path class="cls-10" d="M241.76 803.93a6.37 6.37 0 0 1-3.56 1.12 9.94 9.94 0 0 1-1.92-.09 9.11 9.11 0 0 1 .3-1.9 6.3 6.3 0 0 1 1.83-3.26c2-1.74 5.36-1.14 5.58-1.09.01.2-.12 3.61-2.23 5.22z"/><path class="cls-2" d="M155.74 579.54c6.8-1.46 13.87-5.88 17.3-12.88 7.13-14.55-2.13-22.83-11.42-19.94a10.5 10.5 0 0 0-6.08 4.92c-.36.61-.74 1.19-1.13 1.77a35.5 35.5 0 0 1-2.36 3.09 42.38 42.38 0 0 1-9.78 8.34c-2.5 1.58-4.09 4.18-2.76 8.45 1.83 5.92 8.88 7.82 16.23 6.25z"/><path class="cls-8" d="M160.75 543.58a10.53 10.53 0 0 0-6.08 4.92c-.35.61-.73 1.19-1.12 1.78a36.93 36.93 0 0 1-2.36 3.08 42.59 42.59 0 0 1-9.78 8.34c-2.51 1.58-4.09 4.18-2.77 8.45 1.84 5.92 8.88 7.82 16.23 6.25 6.81-1.46 13.88-5.88 17.31-12.88 7.13-14.52-2.18-22.83-11.43-19.94z"/><path class="cls-9" d="M174 549.6a22 22 0 0 1-2.52 9.6c-3.43 7-10.5 11.42-17.31 12.88-7 1.49-13.73-.18-15.93-5.47a8.85 8.85 0 0 0 .42 3.54c1.84 5.92 8.88 7.82 16.23 6.25 6.81-1.46 13.88-5.88 17.31-12.88 2.8-5.7 3.04-10.44 1.8-13.92zm-128.8-9.76 1.25-14.67 25.51 21-1.24 14.67-25.52-21z"/><path class="cls-11" transform="rotate(-8.44 68.371 524.007)" d="M65.97 521.75h4.94v4.94h-4.94z"/><circle class="cls-3" cx="68.53" cy="576.64" r="2.07"/><path class="cls-6" d="M84.93 561.14a5.68 5.68 0 0 1 .2 3.36 8.54 8.54 0 0 1-.51 1.65 8.23 8.23 0 0 1-1.59-.68 5.57 5.57 0 0 1-2.43-2.32c-1.08-2.14.18-4.92.28-5.1.17.04 3.12.89 4.05 3.09zm-3.37-15.7a5.61 5.61 0 0 1 3.11 1.27 8.06 8.06 0 0 1 1.27 1.17 8.32 8.32 0 0 1-1.3 1.14 5.68 5.68 0 0 1-3.14 1.2c-2.39 0-4.36-2.29-4.48-2.45.11-.14 2.15-2.44 4.54-2.33z"/><path class="cls-11" transform="rotate(-8.44 122.511 186.388)" d="M120.08 184.01h4.94v4.94h-4.94z"/><path class="cls-11" transform="rotate(-171.56 583.566 98.326)" d="M581.09 95.87h4.94v4.94h-4.94z"/><path class="cls-11" transform="rotate(-8.44 263.419 162.242)" d="M261.08 159.83h4.94v4.94h-4.94z"/><path class="cls-11" transform="rotate(-8.44 45.86 187.34)" d="M43.43 184.96h4.94v4.94h-4.94z"/><circle class="cls-3" cx="193.75" cy="140.84" r="2.07"/><circle class="cls-3" cx="257.39" cy="151.39" r="2.07"/><path class="cls-6" d="M277.6 154.48a5.64 5.64 0 0 1 .19 3.35 9 9 0 0 1-.5 1.65 8 8 0 0 1-1.58-.68 5.64 5.64 0 0 1-2.44-2.32c-1.07-2.13.19-4.92.28-5.1.17.04 3.11.9 4.05 3.1zM63 179.27a5.73 5.73 0 0 1 .2 3.35 8.54 8.54 0 0 1-.51 1.65 8.53 8.53 0 0 1-1.59-.67 5.76 5.76 0 0 1-2.44-2.32c-1.07-2.14.19-4.93.28-5.11.18.05 3.12.9 4.06 3.1zm128.76-53.01a5.76 5.76 0 0 1 3.11 1.27 8.65 8.65 0 0 1 1.27 1.17 8.22 8.22 0 0 1-1.29 1.15 5.74 5.74 0 0 1-3.15 1.19c-2.39.05-4.36-2.28-4.48-2.45.11-.14 2.15-2.43 4.54-2.33z"/><circle class="cls-3" cx="357.9" cy="139.17" r="2.3"/><path class="cls-11" transform="rotate(165.06 366.311 132.346)" d="M363.57 129.62h5.49v5.49h-5.49z"/></g></g></svg>