<svg xmlns="http://www.w3.org/2000/svg" viewBox="0 0 590.16 817"><defs><style>.cls-1{fill:#ffe3ac}.cls-2{fill:none}.cls-3{fill:#ffc043}.cls-4{fill:#ab1300}.cls-5{fill:#ff6937}.cls-6{fill:#e11900}</style></defs><g id="Layer_2" data-name="Layer 2"><g id="WebLeft"><path class="cls-1" d="M356.85 645.08a12.73 12.73 0 0 1 4.36-13.17 149.76 149.76 0 0 0 12-10.66q3.71-3.64 7.08-7.44c34.07-38.21 44.1-86.66 46.78-105 .14-.95.27-1.85.37-2.63a5.24 5.24 0 0 1 5.54-4.57l3 .18a12.88 12.88 0 0 1 11.89 14.92c-3.23 19.95-12.24 57.77-36.66 93a273 273 0 0 0-54.36 35.37z"/><path class="cls-2" d="M537.68 733.52a5.24 5.24 0 0 0-7.64.7l-3.24 4.23a12.22 12.22 0 0 0-1.07 1.65l-1.64 2.14a11.87 11.87 0 0 0 .94 15.59 170.94 170.94 0 0 1 23 29.89c.46.75.93 1.52 1.39 2.3a194.39 194.39 0 0 1 9.67 18.5c1.24 2.71 2.47 5.54 3.66 8.48h27.37a222.42 222.42 0 0 0-21.72-45.84c-2.58-4.13-5.15-7.93-7.67-11.4a170 170 0 0 0-23.05-26.24zm-122.9 48.16-11-7.19a57.62 57.62 0 0 1-7.51 2.65c2.52-.83 5-1.7 7.52-2.66zM179.18 627c.06 1.26.13 2.51.22 3.76-.12-1.26-.19-2.51-.22-3.76z"/><path class="cls-1" d="M454.31 696.9c22-2.33 49-1.73 80 5.66a4.58 4.58 0 0 0 .62.08 4.68 4.68 0 0 1-5 2 238 238 0 0 0-75.35-6.1 5.51 5.51 0 0 0-.14-1zM50.52 621l1.85 2.44a120.38 120.38 0 0 1 23.88 59.46l6.84 60.54-3.85 19.4-6.92-76a120.45 120.45 0 0 0-21.73-60.27l-1.77-2.51a12.11 12.11 0 0 1-.43-13.34A12.09 12.09 0 0 0 50.52 621z"/><path class="cls-3" d="m454.31 696.9-1.16-4.79a10.62 10.62 0 0 0-13.3-7.69l-1.52.46-2.38-4.4a11.38 11.38 0 0 0-2-2.6c26.37-5 59.41-6.23 98.16 2a11.86 11.86 0 0 1 9 14.54l-1.2 4.69a4.72 4.72 0 0 1-5 3.52 4.58 4.58 0 0 1-.62-.08c-30.98-7.38-57.97-7.98-79.98-5.65zM83.09 743.43l-6.84-60.54a120.38 120.38 0 0 0-23.88-59.46L50.52 621a12.1 12.1 0 0 1 2.29-17l3.39-2.59a5.27 5.27 0 0 1 7.37 1l6 7.9a142.06 142.06 0 0 1 28.16 70.14l3.38 29.88z"/><path class="cls-1" d="M406.32 745.41v.89q-2.43.59-5 1.28c1.62-.74 3.31-1.47 5-2.17zM224.11 626.2c-.05-.47-.11-.93-.17-1.4-.22-1.81-.44-3.61-.68-5.39l-.24-1.8c-.29-2.08-.59-4.14-.9-6.16a2 2 0 0 1 0-.26c-.26-1.66-.52-3.31-.79-4.93l1.79-.61q.93 10.74 1.11 21.24c-.06-.23-.09-.46-.12-.69zm47.62-6.42c.07-.66.13-1.32.2-2 .14-1.45.27-2.88.39-4.31.05-.54.1-1.09.14-1.64.16-1.92.31-3.83.43-5.72 0-.28 0-.55.05-.83.11-1.61.2-3.21.28-4.78 0-.42 0-.83.07-1.24l2.5.17a471.09 471.09 0 0 1-4.28 22.43c.08-.68.15-1.38.22-2.08zm110.52 56.14a11.36 11.36 0 0 0 4.43-7.9c1.2 2 2.36 4 3.46 6.06-16.9 11.64-32.73 24-47.21 36.17a407.89 407.89 0 0 1 39.32-34.33z"/><path class="cls-4" d="M356.85 636.14a336.6 336.6 0 0 0-43.2 43.29c14.9-24.25 33.83-48.87 57.54-69.7l.12-.12 1.94 2.7a149.86 149.86 0 0 1-12 10.67 12.71 12.71 0 0 0-4.4 13.16zm-111.37 11.79a326.48 326.48 0 0 0-2.86-62 11.7 11.7 0 0 0-9.84-9.95c-.23-2.65-.48-5-.71-7.14a11.31 11.31 0 0 1 9.32-12.39l4.52-.77a6 6 0 0 1 5.4 1.8 373.13 373.13 0 0 1-5.83 90.45zm192.31 74.21-1.05-3.14a7 7 0 0 0-8.62-4.47l-2.24.68A325.94 325.94 0 0 0 395 726.69l1-.56 2.1-1.15c1.25-.68 2.51-1.35 3.77-2l1.6-.82c2.33-1.18 4.66-2.33 7-3.44a236.69 236.69 0 0 1 40.26-14.88 5.17 5.17 0 0 0 1.31-.58l2 8.4a11.15 11.15 0 0 1-8 13.35c-2.65.71-5.26 1.46-7.85 2.21a11.22 11.22 0 0 0-.4-5.08zM316.38 637l.78-2.39c.2-.6.38-1.19.58-1.78l.84-2.65.57-1.82c.26-.86.53-1.71.79-2.56l.54-1.8c.26-.86.52-1.72.77-2.57.17-.57.33-1.14.5-1.7.06-.22.13-.44.19-.65 1.61-5.53 3.07-10.89 4.38-16 .13-.5.24-1 .37-1.47 6.64-10 12.26-17.86 16.37-23.45a11.85 11.85 0 0 1 16.94-2.22l2 1.63a7 7 0 0 1 1.24 9.69c-.48.63-1 1.33-1.54 2.07A301.91 301.91 0 0 0 316.38 637z"/><path class="cls-3" d="M356.85 636.14a12.71 12.71 0 0 1 4.36-13.14 149.86 149.86 0 0 0 12-10.67q3.71-3.64 7.08-7.43c34.07-38.22 44.1-86.67 46.78-105 .14-.95.27-1.85.37-2.63a5.25 5.25 0 0 1 5.54-4.57l3 .19a12.87 12.87 0 0 1 11.89 14.92c-3.23 19.94-12.24 57.76-36.66 93a273.43 273.43 0 0 0-54.36 35.33z"/><path class="cls-4" d="M381.42 655.85a5 5 0 0 0-7-1.12 417 417 0 0 0-38 31.7c5.3-6 11-12 17-17.94A270.7 270.7 0 0 1 406 628.11a9.93 9.93 0 0 1 11.6 5.24l2.94 6a4.92 4.92 0 0 1-2.24 6.53c-11.36 5.69-22 11.71-31.95 17.93a10.91 10.91 0 0 0-1.68-3.51zM436 680.48l2.38 4.4a274.57 274.57 0 0 0-69 31.84A529.2 529.2 0 0 1 428.71 675a11 11 0 0 1 5.28 2.89 11.38 11.38 0 0 1 2.01 2.59zm-128.19-93.59a494.87 494.87 0 0 1-20.51 66.47q-1.49 3.81-3.08 7.65a465.82 465.82 0 0 0 16.42-82.69 11.31 11.31 0 0 0-10.72-12.42l-2.38-.11c.13-2.56.24-4.91.33-7a10.46 10.46 0 0 1 10.55-10h4.87a6.41 6.41 0 0 1 5.73 3.7 6.17 6.17 0 0 1 .64 2.93c-.2 6.72-.66 17.89-1.85 31.47z"/><path class="cls-3" d="M321.93 619.1c-.11.1-24.19 21.65-39.52 47.93q.94-3 1.81-6 1.59-3.84 3.08-7.65a494.87 494.87 0 0 0 20.51-66.47c3.5-15 5.69-27.36 7-35.77a12.84 12.84 0 0 1 13.87-10.79l2.38.22a6.78 6.78 0 0 1 6.08 7.62 473.7 473.7 0 0 1-10.43 53.44c-.13.49-.24 1-.37 1.47a617.23 617.23 0 0 1-4.41 16zm-3.35 11.1.57-1.82zm1.36-4.38.54-1.8zm-2.78 8.81c.2-.6.38-1.19.58-1.78-.2.59-.38 1.15-.58 1.78zm4.09-13.18c.17-.57.33-1.14.5-1.7-.17.56-.33 1.13-.5 1.7zm-130.31-27.21a178.22 178.22 0 0 1-1.65 20.8l-9.29-6.11-.06-.21a11 11 0 0 1 7-13.11l9.61-3.34z"/><path class="cls-5" d="M196.58 592.27c4.59 21.79 9 51.33 8.08 82a150.91 150.91 0 0 1-10.21-55.81l-5.16-3.46a178.22 178.22 0 0 0 1.65-20.8z"/><path class="cls-3" d="M309.87 588.8v-.83c.02.28.01.56 0 .83zm-.19 6.11c0-.57.05-1.14.07-1.71-.02.57-.05 1.14-.07 1.71zM241 685.64a285.32 285.32 0 0 0 4.45-37.71 373.13 373.13 0 0 0 5.83-90.45c-.26-4.58-.58-8.53-.89-11.75a10.39 10.39 0 0 1 8.71-11.24l.85-.14 4.18-.68a6.41 6.41 0 0 1 7.39 5.56c.34 2.95.74 6.79 1.1 11.42.67 8.54 1.22 19.76 1.1 32.88-.18 1.33-8.15 51.67-32.72 102.11zm31.32-72.15zm-.59 6.29c.07-.66.13-1.32.2-2-.07.68-.13 1.34-.2 2zm37.37-13.65v-.83c.03.28.02.55 0 .83zm.42-7.37v.52l-.06 1.24z"/><path class="cls-5" d="M273.22 600.52c-.08 1.57-.17 3.17-.28 4.78 0 .28 0 .55-.05.83-.12 1.89-.27 3.8-.43 5.72 0 .55-.09 1.1-.14 1.64-.12 1.43-.25 2.86-.39 4.31-.07.66-.13 1.32-.2 2s-.14 1.4-.22 2.1c-6.28 29.1-17.08 65.91-35.51 101.71-1.27-1.32-2.5-2.68-3.72-4a257.07 257.07 0 0 0 8.72-33.97c24.54-50.44 32.51-100.78 32.72-102.11 0 1.47 0 3-.06 4.48v.83c0 1.45-.07 2.92-.12 4.4l-.06 1.71c-.05 1.27-.11 2.55-.17 3.85z"/><path class="cls-3" d="M257 603.33c-.29-1.66-.59-3.3-.89-4.91.29 1.58.59 3.25.89 4.91zm-1.13-6.17q-.57-3-1.15-5.82.59 2.85 1.15 5.82zm-31.93 27.64c-.22-1.81-.44-3.61-.68-5.39.24 1.78.46 3.59.68 5.39zm-2.89-19.92c.08.46.16.91.24 1.38.27 1.62.53 3.27.79 4.93-.33-2.14-.68-4.19-1.03-6.31zM206 677.48c-.45-1.07-.87-2.15-1.29-3.24.9-30.64-3.49-60.18-8.08-82-.79-3.76-1.59-7.3-2.37-10.57a11.84 11.84 0 0 1 8.43-14.17l3.42-.92a6.38 6.38 0 0 1 7.86 4.59c1.51 5.94 3.07 12.65 4.56 19.95-.06.47-.64 59.29-12.53 86.36zm18.19-50.59v.1l-.09-.79c.04.23.07.46.09.69zm-1.19-9.28c-.29-2.08-.59-4.14-.9-6.16.33 2.02.63 4.08.9 6.16z"/><path class="cls-5" d="M222.08 611.19a2 2 0 0 0 0 .26c.31 2 .61 4.08.9 6.16l.24 1.8c.24 1.78.46 3.58.68 5.39.06.47.12.93.17 1.4l.09.79a264.47 264.47 0 0 1-8 70.74A149 149 0 0 1 206 677.48c11.94-27.07 12.52-85.89 12.53-86.33a1.77 1.77 0 0 0 0 .2q.57 2.85 1.14 5.82c.08.42.15.84.23 1.26.3 1.61.6 3.25.89 4.91l.27 1.55c.34 2.11.69 4.16 1.02 6.3z"/><path class="cls-3" d="m410.49 718.72 1.16-.56c-6.36.3-39.36 10.09-65.59 18.15a663.45 663.45 0 0 1 23.25-19.59 274.57 274.57 0 0 1 69-31.84l1.52-.46a10.62 10.62 0 0 1 13.3 7.69l1.16 4.79.16.63a5.51 5.51 0 0 1 .14 1 5.23 5.23 0 0 1-2.55 4.75 5.17 5.17 0 0 1-1.31.58 236.69 236.69 0 0 0-40.24 14.86zM396 726.13l2.1-1.15zm5.88-3.13 1.6-.82z"/><path class="cls-5" d="M346.06 736.31c26.23-8.06 59.23-17.85 65.59-18.15l-1.16.56c-2.35 1.11-4.68 2.26-7 3.44l-1.6.82c-1.26.65-2.52 1.32-3.77 2l-2.1 1.15-1 .56a385.86 385.86 0 0 0-72.83 41.66q-4.33-.66-8.64-1.56c9.55-9.5 20.45-19.86 32.51-30.48z"/><path class="cls-3" d="M353.5 668.49c-11.86 6.25-33.42 18.32-52.19 32.54 3.76-7.1 7.86-14.33 12.33-21.6a336.6 336.6 0 0 1 43.2-43.29 273.43 273.43 0 0 1 54.39-35.37c1.13-.55 2.26-1.1 3.4-1.63a5.59 5.59 0 0 1 7.5 2.78l1.72 3.91a12 12 0 0 1-5.62 15.61q-6.23 3.18-12.23 6.67a270.7 270.7 0 0 0-52.5 40.38z"/><path class="cls-5" d="M301.32 701c18.77-14.22 40.33-26.29 52.19-32.54a324.436 324.436 0 0 0-17 17.94 492.59 492.59 0 0 0-58.1 65.6 439 439 0 0 1 22.91-51z"/><path class="cls-3" d="M242.62 585.93a326.48 326.48 0 0 1 2.86 62 285.32 285.32 0 0 1-4.48 37.71 257.07 257.07 0 0 1-8.73 33.93 149.15 149.15 0 0 1-16.11-21.84 264.47 264.47 0 0 0 8-70.74v-.1q-.18-10.5-1.11-21.24-1-11.26-2.79-22.75a5 5 0 0 1 3.79-5.68l5.6-1.29a11.46 11.46 0 0 1 3.1.05 11.7 11.7 0 0 1 9.87 9.95zm126.69 130.79a663.45 663.45 0 0 0-23.25 19.59c-12 10.62-23 21-32.52 30.48q-6.41-1.35-12.74-3.28c13.78-19.66 24.86-35.16 24.88-35.19q8.19-9.08 17.25-18.07c14.48-12.21 30.31-24.53 47.21-36.17 12.11-8.35 24.76-16.35 37.84-23.69a10.54 10.54 0 0 1 14.45 4.29l2.81 5.33a5 5 0 0 1-2.05 6.7q-7.32 4-14.48 8.28a529.2 529.2 0 0 0-59.4 41.73z"/><path class="cls-3" d="M382.25 675.92a407.89 407.89 0 0 0-39.32 34.33q-9.06 9-17.25 18.07a159.13 159.13 0 0 0-44.2 27.79c-1.3-.61-2.6-1.23-3.9-1.88.27-.73.55-1.47.83-2.21a492.59 492.59 0 0 1 58.07-65.58 417 417 0 0 1 38-31.7 5 5 0 0 1 7 1.12l3.22 4.49a10.91 10.91 0 0 1 1.68 3.51 11.33 11.33 0 0 1-4.07 12.07z"/><path class="cls-5" d="M325.68 728.31s-11.1 15.53-24.88 35.19a148.51 148.51 0 0 1-19.32-7.41 159.13 159.13 0 0 1 44.2-27.78zM253 758.32l-1.08-1.32 1.26.86c-.05.14-.1.32-.18.46zM282.41 667c15.33-26.28 39.41-47.83 39.52-47.93-.06.21-.13.43-.19.65-.17.56-.33 1.13-.5 1.7-.25.85-.51 1.71-.77 2.57l-.54 1.8c-.26.85-.53 1.7-.79 2.56l-.57 1.82-.84 2.65c-.2.59-.38 1.18-.58 1.78l-.78 2.39c-28.55 37.12-46.91 76.79-57.85 105.86-2-1.38-3.91-2.81-5.81-4.27a401 401 0 0 0 29.7-71.58z"/><path class="cls-3" d="M300.64 578.33A465.82 465.82 0 0 1 284.22 661q-.87 3-1.81 6a401 401 0 0 1-29.69 71.58 150.68 150.68 0 0 1-16.7-15c18.41-35.8 29.21-72.62 35.49-101.73a471.09 471.09 0 0 0 4.28-22.43c2.28-13.71 3.37-24.13 3.85-29.64a4.56 4.56 0 0 1 4.77-4.16l3.13.15 2.38.11a11.31 11.31 0 0 1 10.72 12.45zm13.01 101.1c-4.47 7.27-8.57 14.5-12.33 21.6a439 439 0 0 0-22.91 51c-.28.74-.56 1.48-.83 2.21a150.07 150.07 0 0 1-15.43-8.87c-1.23-.81-2.43-1.63-3.62-2.47 10.94-29.07 29.3-68.74 57.85-105.86a301.91 301.91 0 0 1 45.36-47.69l.14-.12a5.57 5.57 0 0 1 7.94.78l2.76 3.44a11.85 11.85 0 0 1-1.27 16.18l-.12.12c-23.71 20.81-42.64 45.43-57.54 69.68zm-59.97 78.8c.43.29.88.56 1.32.84-1.19-.38-1.83-.6-1.83-.6l-.13-.15c0-.14.09-.28.14-.42zm81.06 6.07-7.26 4.75c-1.77-.2-3.54-.44-5.3-.7A385.86 385.86 0 0 1 395 726.69a325.94 325.94 0 0 1 30.87-11.49l2.24-.68a7 7 0 0 1 8.62 4.47l1.05 3.15a11.34 11.34 0 0 1-7.36 14.35c-1.2.37-2.23.7-2.93.93-4.26 1.42-8.51 3-12.75 4.59-17.48-.43-46.93 9.59-80 22.29z"/><path class="cls-5" d="M344.38 770a149.6 149.6 0 0 1-16.9-1l7.26-4.75c33.07-12.7 62.52-22.72 80-22.29-2.82 1.09-5.62 2.22-8.43 3.4-1.69.7-3.38 1.43-5.07 2.17A267.19 267.19 0 0 0 344.38 770z"/><path class="cls-3" d="M344.38 770a267.19 267.19 0 0 1 56.87-22.43q2.61-.69 5-1.28c5.17-1.26 9.75-2.2 13.6-2.89a12.21 12.21 0 0 1 14.31 11.13l.26 3.46a5.38 5.38 0 0 1-4.59 5.74c-2.74.4-6.57 1-11.22 2l-13.16-8.64A151 151 0 0 1 344.38 770z"/><path class="cls-1" d="m161.55 615.26-.94-.6-14.92 30.16-42.31 85.52-2.25-20L157.8 606.4l9.7-5.68-6.89 13.92zM83.09 743.43l2.57 22.74L60.51 817H42.97l34.48-63.23 5.64-10.34z"/><path class="cls-5" d="m101.13 710.34 2.25 20-17.72 35.83-2.57-22.74 18.04-33.09z"/><path class="cls-6" d="M280 772.34a164.76 164.76 0 0 0 116.33 4.8 57.62 57.62 0 0 0 7.51-2.65l11 7.19 7.6 5L396.66 817H294a448.52 448.52 0 0 0-14-44.66zm-194.34-6.17 17.72-35.83 42.31-85.52 14.92-30.16-4.69 9.49c33.23 53.57 46.55 106.53 49.28 153.85a48.22 48.22 0 0 0-43.59 39H60.51z"/><path class="cls-5" d="M214.05 778.13a48.58 48.58 0 0 0-8.85-.12c-2.73-47.33-16-100.29-49.28-153.86l4.69-9.49.94.6 17.62 11.59v.16c0 1.24.1 2.49.22 3.76A164.9 164.9 0 0 0 251.92 757l1.12 1.28.13.15s.64.22 1.83.6a166.4 166.4 0 0 0 25 13.27 448.52 448.52 0 0 1 14 44.7h-37.7a48.23 48.23 0 0 0-42.25-38.87z"/><path class="cls-3" d="M403.83 774.48c-2.49 1-5 1.83-7.52 2.66A164.76 164.76 0 0 1 255 759.07c-.44-.28-.89-.55-1.32-.84l-.5-.33-1.26-.86a164.9 164.9 0 0 1-72.52-126.27c-.09-1.25-.16-2.5-.22-3.76v-.16l-17.62-11.59-.94-.61 6.89-13.92 12.5 8.21 9.29 6.11 5.16 3.39a150.91 150.91 0 0 0 10.21 55.81c.42 1.09.84 2.17 1.29 3.24a149 149 0 0 0 26.35 42.09c1.22 1.36 2.45 2.72 3.72 4a150.68 150.68 0 0 0 16.7 15c1.9 1.46 3.83 2.89 5.81 4.27 1.19.84 2.39 1.66 3.62 2.47a150.07 150.07 0 0 0 15.43 8.87c1.3.65 2.6 1.27 3.9 1.88a148.51 148.51 0 0 0 19.32 7.41q6.33 1.93 12.74 3.28 4.31.9 8.64 1.56c1.76.26 3.53.5 5.3.7a150.86 150.86 0 0 0 78-11.93l13.16 8.64 13.79 9.07-10.05 11.85-7.6-5zM205.2 778a48.21 48.21 0 0 1 51.12 39h-94.71a48.22 48.22 0 0 1 43.59-39z"/><path class="cls-1" d="M527.74 754a169.68 169.68 0 0 1 23 29.89c.46.74.93 1.51 1.39 2.3a192 192 0 0 1 9.67 18.5c1.76 3.84 3.49 7.94 5.16 12.27h-4.21c-1.19-2.94-2.42-5.77-3.66-8.48a194.39 194.39 0 0 0-9.67-18.5c-.46-.78-.93-1.55-1.39-2.3a170.94 170.94 0 0 0-23-29.89 11.87 11.87 0 0 1-.94-15.59l1.64-2.14a11.9 11.9 0 0 0 2.01 13.94z"/><path class="cls-3" d="M560.77 759.76c2.52 3.47 5.09 7.27 7.67 11.4A222.42 222.42 0 0 1 590.16 817H567c-1.67-4.33-3.4-8.43-5.16-12.27a192 192 0 0 0-9.67-18.5c-.46-.79-.93-1.56-1.39-2.3a169.68 169.68 0 0 0-23-29.89 11.9 11.9 0 0 1-2-13.94 12.22 12.22 0 0 1 1.07-1.65l3.24-4.23a5.24 5.24 0 0 1 7.64-.7 170 170 0 0 1 23.04 26.24z"/><path class="cls-1" d="M25.4 817h-.3l.51-.34a3.87 3.87 0 0 1-.21.34z"/><path class="cls-2" d="M262.49 6.49a195.81 195.81 0 0 0 11.75 17.25A216.19 216.19 0 0 0 297 49.15 230.11 230.11 0 0 0 323.42 0h-64.66c.76 1.37 1.54 2.76 2.36 4.17.44.76.88 1.54 1.37 2.32z"/><path class="cls-1" d="m315.33 66.68-.08.1a254.11 254.11 0 0 0 22.67 14.83 6.08 6.08 0 0 1 2.27 8.21l-1.69 3.07a11.88 11.88 0 0 1-12.08 6l.78.48A11.86 11.86 0 0 0 343.73 95l1.69-3.07a6.11 6.11 0 0 0-2.27-8.22 251.17 251.17 0 0 1-27-18.09l-.8 1.09zM257.27 4.41A192 192 0 0 0 269 21.67a217.18 217.18 0 0 0 26.74 29.15c.4-.55.81-1.1 1.21-1.67a216.19 216.19 0 0 1-22.72-25.41 195.81 195.81 0 0 1-11.74-17.25c-.47-.78-.93-1.56-1.37-2.31-.82-1.41-1.6-2.8-2.36-4.17h-4.07c.4.69.79 1.39 1.2 2.09s.9 1.53 1.38 2.31zm29.21 89.94c-3.53 3.34-7 6.37-10.29 9.1A169.84 169.84 0 0 1 247.24 123a5.09 5.09 0 0 1-1.61.5 5.18 5.18 0 0 0 5.22.26 169.21 169.21 0 0 0 29-19.57c3.31-2.73 6.76-5.76 10.29-9.1 3.71-3.5 7.51-7.36 11.34-11.56l-2.58-1.92c-4.22 4.69-8.37 8.92-12.42 12.74zm28.77-27.57.08-.1-.08.1z"/><path class="cls-1" d="M312.62 64.68c.9.67 1.79 1.34 2.71 2l.8-1.09A250.67 250.67 0 0 0 350.45 0h-3.88a250.82 250.82 0 0 1-33.95 64.68z"/><path class="cls-3" d="M282 67.77c2.14-2.37 4.31-4.88 6.51-7.57 2.38-2.92 4.79-6.06 7.2-9.38A217.18 217.18 0 0 1 269 21.67a192 192 0 0 1-11.73-17.26c-.48-.78-.93-1.56-1.38-2.31s-.8-1.4-1.2-2.09h-24.56q2.72 5.57 6.17 11.63A227.68 227.68 0 0 0 282 67.77zm56.5 25.12 1.69-3.07a6.08 6.08 0 0 0-2.27-8.21 254.11 254.11 0 0 1-22.67-14.83c-4.56 6.11-9.17 11.65-13.74 16.68-.87-.63-1.72-1.27-2.58-1.91a.27.27 0 0 1-.07.08l2.58 1.92c6.37 4.69 13.19 9.29 20.53 13.76a11.87 11.87 0 0 0 16.53-4.42z"/><path class="cls-5" d="m315.25 66.78.08-.1c-.92-.66-1.81-1.33-2.71-2-4.53 6.17-9.12 11.78-13.69 16.87.86.64 1.71 1.28 2.58 1.91 4.57-5.03 9.18-10.57 13.74-16.68z"/><path class="cls-3" d="M295.75 50.82c-2.41 3.32-4.82 6.46-7.2 9.38-2.2 2.69-4.37 5.2-6.51 7.57-2.57 2.86-5.09 5.5-7.51 7.9-.64.64-1.29 1.27-1.92 1.87a170.25 170.25 0 0 1-29.83 23.13 11.87 11.87 0 0 0-4.78 14.85l2.07 4.9a5.21 5.21 0 0 0 5.61 3.1 5.09 5.09 0 0 0 1.61-.5 169.84 169.84 0 0 0 28.95-19.57c3.31-2.73 6.76-5.76 10.29-9.1 4-3.82 8.2-8 12.38-12.72a.27.27 0 0 0 .07-.08c4.57-5.09 9.16-10.7 13.69-16.87A250.82 250.82 0 0 0 346.57 0h-23.15A230.11 230.11 0 0 1 297 49.15c-.44.57-.85 1.12-1.25 1.67z"/><path class="cls-1" d="M42.14 722.28A266.78 266.78 0 0 1 0 749.93v-24.88a248.72 248.72 0 0 0 32.9-23.15 6.07 6.07 0 0 1 6.56-.78 6 6 0 0 1 1.93 1.48l2.3 2.64a11.86 11.86 0 0 1-1.55 17.04z"/><path class="cls-3" d="M45.07 714.46A264.92 264.92 0 0 1 0 743.62v-24.7a247.9 247.9 0 0 0 35.83-24.84 6.07 6.07 0 0 1 6.56-.78 6.31 6.31 0 0 1 1.93 1.47l2.3 2.65a11.87 11.87 0 0 1-1.55 17.04z"/><path class="cls-1" d="M0 249.07c5.55 4.4 10.6 10.11 17.4 12.32 7.18 2.33 15.38.2 23.34.2s16.17 2.13 23.35-.2c7.44-2.42 12.81-9 19-13.56s14.21-7.64 18.76-13.9 5-14.68 7.44-22.12c2.33-7.19 7-14.32 7-22.28s-4.65-15.09-7-22.27c-2.42-7.44-2.93-15.93-7.44-22.13s-12.5-9.34-18.75-13.89-11.57-11.14-19-13.56c-7.18-2.33-15.39-.2-23.35-.2s-16.16-2.13-23.34.2C10.6 119.89 5.55 125.6 0 130z"/><path d="M111.56 180.11c0 8-4.65 15.09-7 22.28-2.42 7.44-2.93 15.93-7.44 22.12s-12.5 9.35-18.75 13.9-11.57 11.14-19 13.56c-7.18 2.33-15.39.2-23.35.2s-16.16 2.13-23.34-.2C7.84 250.4 3.88 247 0 243.64v-127c3.88-3.4 7.84-6.76 12.69-8.33 7.18-2.33 15.38-.2 23.34-.2s16.17-2.13 23.35.2c7.45 2.42 12.81 9 19 13.56s14.2 7.64 18.75 13.89 5 14.69 7.44 22.13c2.34 7.11 6.99 14.26 6.99 22.22z" fill="#fff"/><path d="M101.19 180.11A65.17 65.17 0 0 1 0 234.41V125.82a65.16 65.16 0 0 1 101.19 54.29z" fill="#ffd7d2"/><path class="cls-4" d="M91.71 180.12a55.68 55.68 0 0 1-87.3 45.81q-2.3-1.59-4.41-3.39v-84.86a55.68 55.68 0 0 1 81.85 10.81 55.36 55.36 0 0 1 9.86 31.63z"/><path class="cls-6" d="M91.71 180.12a55.68 55.68 0 0 1-87.3 45.81A53.8 53.8 0 0 1 0 218.32v-48a55.68 55.68 0 0 1 81.85-21.8 55.36 55.36 0 0 1 9.86 31.6z"/><path class="cls-1" d="M179.57 163.29a9.57 9.57 0 0 1 12.8-5.06c27.85 12.65 61.11 34.19 96 70.81a6.93 6.93 0 0 1-.31 9.88l-4.06 3.74c-.23.21-.48.41-.72.61a9.85 9.85 0 0 1-13-1 333.05 333.05 0 0 0-42.63-37.4 261.05 261.05 0 0 0-37.54-23q-4.81-2.4-9.3-4.37a6.71 6.71 0 0 1-3.51-8.72z"/><path class="cls-3" d="M182.08 159.27a9.58 9.58 0 0 1 12.8-5.07c27.84 12.66 61.11 34.2 96 70.82a6.92 6.92 0 0 1-.32 9.88l-4.05 3.74c-.23.21-.48.41-.73.61a9.85 9.85 0 0 1-13-1 332.38 332.38 0 0 0-42.63-37.4 260.51 260.51 0 0 0-37.54-23q-4.8-2.4-9.29-4.37a6.72 6.72 0 0 1-3.52-8.72z"/><path class="cls-1" d="m485.25 40.21-1.77 5.68a9.57 9.57 0 0 1-12.28 6.22c-26-9-57-24.82-90.68-52.11h37.35c4.74 3.2 9.38 6.14 13.92 8.86a260.25 260.25 0 0 0 39.5 19.48c3.33 1.3 6.56 2.46 9.66 3.5a6.73 6.73 0 0 1 4.3 8.37z"/><path class="cls-3" d="m494.12 40.21-1.77 5.68a9.57 9.57 0 0 1-12.28 6.22c-26-9-57-24.82-90.68-52.11h37.35c4.74 3.2 9.38 6.14 13.92 8.86a260.25 260.25 0 0 0 39.5 19.48c3.33 1.3 6.56 2.46 9.66 3.5a6.73 6.73 0 0 1 4.3 8.37z"/></g></g></svg>