<svg xmlns="http://www.w3.org/2000/svg" viewBox="0 0 632.21 817"><defs><style>.cls-1{fill:#ffe3ac}.cls-2{fill:#e11900}.cls-3{fill:#ab1300}.cls-4{fill:#ffc043}.cls-5{fill:#ff6937}.cls-7{fill:#fabda5}.cls-8{fill:#fff}.cls-9{fill:#eef3fe}.cls-10{fill:#d4e2fc}.cls-11{fill:#05a357}.cls-14{fill:#5b91f4}.cls-15{fill:#1e54b7}.cls-16{fill:#ffd7d2}.cls-20{fill:#870f00}</style></defs><g id="Layer_2" data-name="Layer 2"><g id="WebRight"><path class="cls-1" d="M170.46 752.43c-1-2.22-1.87-4.46-2.73-6.72.81 2.3 1.67 4.59 2.58 6.85zm-23.09.63c0 .1.08.2.12.3l-.21-.55a2.5 2.5 0 0 0 .09.25zM216.13 817a169 169 0 0 1-27.39-30.42l1.07-.55a168.29 168.29 0 0 0 29.73 31z"/><path class="cls-2" d="M120.25 788.5h1.43c-.47-.03-.95-.02-1.43 0z"/><path class="cls-2" d="M152.15 765.26a37.93 37.93 0 0 1-6.86 2.63c-10 2.7-7-14.41-20.45-13.34s-31.62 17.92-34.64 15.2c-2.07-1.86-2-4.73-2.16-7.12-.19-3.89-1-8-5.69-9.19-5.09-1.34-10.59.84-15.22 2.58q-4.47 1.69-8.82 3.77c-3 1.43-6.33 3.12-9.94 2.86-33.42 0-46.23 13.53-48 18.9-1.44 4.38 1.46 9.79 6.17 13.28a26 26 0 0 0 4.46 2.61c.89.43 1.81.8 2.74 1.15C31.72 805.34 44.64 773.1 63 781s17.77 16.56 32.12 14.94a37.29 37.29 0 0 0 12.88-3.77 37.51 37.51 0 0 1 5-2.19h-.07c15.64-12.24 34.3 2.45 52.15.92-9.18-13.05-15.68-24.54-12.93-25.64z"/><path class="cls-2" d="M117.25 788.85c-.42.07-.84.16-1.27.26.43-.11.85-.19 1.27-.26zM24.54 801.1l-1.1-.14zm-1.94-.26-1.33-.21zm92.53-11.52c-.45.12-.92.27-1.39.42.47-.15.94-.3 1.39-.42zm-88.6 11.97-.82-.07zm201.02-64.6v2.21c.03-.77.03-1.5 0-2.21zm0 2.31c0 .73-.1 1.49-.19 2.27.09-.81.16-1.57.19-2.27zm-.2-4.41c.1.66.16 1.35.2 2.07-.58-12.54-11-15.36-25.58-7.38-9.08 4.24-17.46 11.22-25.62 18.19 24.29 54.15 49.57-11.47 51-12.88zm-.04 7.09zm-101.5 47.24q-.84-.17-1.71-.27.9.11 1.71.27zM20.77 800.53a42 42 0 0 1-7.07-1.94 42 42 0 0 0 7.07 1.94zm99.05-12.01c-.6 0-1.22.11-1.84.2.62-.09 1.24-.16 1.84-.2zm3.74.07c-.42 0-.83-.07-1.25-.09.42.02.83.05 1.25.09z"/><path class="cls-3" d="M112.93 790h.07l.74-.24c.47-.15.94-.3 1.39-.42l.85-.21c.43-.1.85-.19 1.27-.26.24-.05.49-.1.73-.13.62-.09 1.24-.16 1.84-.2h2.49c.42 0 .83 0 1.25.09l.54.06q.87.11 1.71.27c11.23 2.21 20.11 11.5 40.56 6.35.49-.12 1-.28 1.51-.42-.95-1.32-1.89-2.63-2.8-3.93-17.85 1.49-36.51-13.2-52.15-.96zm75.81-3.42 1.08-.56c2.09-1.12 4.18-2.31 6.22-3.58 14.57-9.06 27.37-21.88 30.66-37.2.08-.39.16-.76.23-1.14.16-.84.28-1.64.38-2.42 0-.15 0-.3.05-.44.09-.78.16-1.54.19-2.27v-2.28c0-.72-.1-1.41-.2-2.07-1.43 1.37-26.71 67-51 12.88-2 1.66-3.93 3.32-5.89 5l-.15.13a169.41 169.41 0 0 0 18.43 33.95z"/><path class="cls-4" d="M200.11 817c2.82-4.54.91-10.45-1.89-14.68-3.93-5.27-9.91-6.69-15.45-8a17.8 17.8 0 0 1-12.7-11.7c-7.08-21.53-12.73-19.41-17.92-17.32-.33-.76-.67-1.52-1-2.29-1.32-3.16-2.53-6.35-3.67-9.58 0-.15-.11-.29-.16-.43v-.13c-.14-.39-.29-.77-.43-1.16a14.59 14.59 0 0 1 10.27-18.84 6.47 6.47 0 0 1 6.22 1.73 6.62 6.62 0 0 1 1.64 2.77c.83 2.83 1.76 5.63 2.74 8.41q1.22 3.45 2.58 6.84A168.87 168.87 0 0 0 216.13 817z"/><path class="cls-2" d="M185.45 817c-4.06-4.62-8.43-10-12.65-15.52-1.67-2.2-3.32-4.42-4.92-6.62-1-1.32-1.9-2.64-2.81-3.93-9.17-13.07-15.67-24.57-12.93-25.67 5.19-2.08 10.83-4.2 17.91 17.33a17.78 17.78 0 0 0 12.71 11.69c5.54 1.35 11.52 2.77 15.45 8.05 2.8 4.23 4.7 10.13 1.88 14.68z"/><path class="cls-3" d="M63 781c-18.38-7.88-31.3 24.36-49.32 17.61a42 42 0 0 0 7.07 1.94l.5.1 1.33.21.84.12 1.1.14 1.17.12.82.07 2 .12c.51 0 1 .05 1.53.05a49.69 49.69 0 0 0 19.21-3.41c1.55-.63 3.34-1.49 5.21-2.39 5.19-2.51 11-5.26 13.69-3.75 5.78 3.17 16.69 5.21 27 4C80.79 797.54 81.43 788.86 63 781z"/><path class="cls-1" d="M621.54 174.37q3.38-.28 6.75-.7l.63-2.2q1.46-5.08 3.29-10v-23.12q-1.71 4.62-3.07 9.39zm-335.33 59.25a31.07 31.07 0 0 0 9.09-2.79l-1.3 18.33-.05.78a7.73 7.73 0 0 0 7.18 8.25 20.93 20.93 0 0 0 5.26-.29 134.34 134.34 0 0 0 16.13 35l-9.42 7.1a135 135 0 0 1-6.94-18.33 21.82 21.82 0 0 1-5.25.29 7.74 7.74 0 0 1-7.19-8.25l.06-.78 1.31-18.32a30.8 30.8 0 0 1-11.52 3c-5-.67-9.17-4.26-7.92-9l4.15-16a10.61 10.61 0 0 0 6.41 1.01zM350 323.6l-10.35 14.46a135.05 135.05 0 0 1-17.35-21.47l11.55-8.69A135.26 135.26 0 0 0 350 323.6zm15.3 10.92a135.27 135.27 0 0 0 185.14-43.15c6.44 10.11 18.53 17.19 25.49 8.42 0-.09 2.28-24 2.81-27.25a52.12 52.12 0 0 1 6.39-15.13L599.74 234a117.51 117.51 0 0 0 13.33-30l.42-1.47q3.38-.13 6.66-.38l-7.3 25.58a117.34 117.34 0 0 1-13.34 30l-14.6 23.37a52.28 52.28 0 0 0-7 18l-2.17 24.35c-7 8.77-19.05 1.68-25.5-8.42a135.24 135.24 0 0 1-196.37 35.42l11.46-16z"/><path class="cls-1" d="M350 323.61q1.74 1.42 3.52 2.79l.43.32c1.15.88 2.32 1.75 3.5 2.59q3.82 2.73 7.83 5.18l-11.46 16-11.49 16.11-15.3-11 12.59-17.58L350 323.6zm263.49-121.04q3.38-.13 6.66-.38c2.64-.2 5.25-.43 7.8-.73 1.43-.17 2.85-.35 4.26-.55v-5.45l-2.74.34c-2.52.29-5.1.52-7.7.72q-3.28.24-6.65.38z"/><path class="cls-4" d="M621.77 196.52c2.6-.2 5.18-.43 7.7-.72l2.74-.34v-22.34c-1.31.2-2.61.38-3.92.55zm-6.66.38c2.24-.09 4.46-.21 6.64-.37-2.18.15-4.39.28-6.64.37z"/><path class="cls-5" d="M621.77 196.52c-2.18.16-4.4.28-6.64.37l6.42-22.52q3.39-.28 6.76-.7z"/><path d="m301.19 148.71-5.36 74.76-.53 7.36a31.07 31.07 0 0 1-9.09 2.79 10.61 10.61 0 0 1-6.44-1.05 2.75 2.75 0 0 1-.3-.14c-2.78-1.6-4.48-4.33-3.63-7.61v-.11.11c3.89 1 8.26-9.33 10.55-15.67a8.51 8.51 0 0 0-1.55-8.46l-2.09-2.45c7.42-28.63 16.6-64.23 17.81-68.88A49.22 49.22 0 0 1 323.88 99l62.82-35.7-69.55 55.21a42.49 42.49 0 0 0-15.96 30.2z" fill="#fa9269"/><path class="cls-7" d="M301.11 258.19a20.88 20.88 0 0 0 5.25-.29c-.91-3.07-1.73-6.19-2.43-9.36a135.3 135.3 0 1 1 246.5 42.83c4.4 6.9 11.43 12.39 17.66 12.39a9.72 9.72 0 0 0 7.84-4c-9.15.88-4.54-24.65-4.54-24.65 1.48-6.34 7.87-5.08 7.39-2.86v.23a52.12 52.12 0 0 1 6.39-15.13L599.73 234a117.19 117.19 0 0 0 13.34-30l.42-1.47 1.62-5.67 6.43-22.52 7.6-26.63q1.36-4.77 3.07-9.39V12.91L616.9 0h-19.12a61.36 61.36 0 0 1-25.69 12.09L427.67 42.37a86.09 86.09 0 0 0-35.85 16.83l-5.12 4.06-69.55 55.21a42.49 42.49 0 0 0-16 30.24l-5.37 74.76 1.59.95a7.14 7.14 0 0 1 3.41 6.86c-.65 6.22-2.39 16.71-6.84 17.88l-.06.78a7.74 7.74 0 0 0 7.23 8.25z"/><path class="cls-8" d="M465.37 351.26a134.84 134.84 0 0 1-100.07-16.74l4.25-5.93a127.58 127.58 0 1 0-41.23-40.11l-5.82 4.38a134.34 134.34 0 0 1-16.13-35q-1.38-4.6-2.44-9.36a135.3 135.3 0 1 1 161.44 102.76z"/><path class="cls-8" d="M354.22 317.67 350 323.6a135.26 135.26 0 0 1-16.15-15.7l5.83-4.39a129.84 129.84 0 0 0 14.54 14.16zm-4.22 5.94q1.74 1.42 3.52 2.79-1.81-1.4-3.52-2.79zm3.92 3.11zm3.54 2.62q3.82 2.73 7.83 5.18-4-2.46-7.83-5.18z"/><path class="cls-9" d="m358.62 311.52-4.4 6.15a129.84 129.84 0 0 1-14.57-14.16l6.05-4.51a120.6 120.6 0 0 0 12.92 12.52z"/><path class="cls-9" d="M311 247a128.05 128.05 0 1 1 58.52 81.63l4.41-6.16a120.06 120.06 0 1 0-39.6-38.5l-6 4.55A127.81 127.81 0 0 1 311 247z"/><path class="cls-8" d="m368.87 297.22-10.25 14.3A120.6 120.6 0 0 1 345.7 299l14.07-10.6a104.22 104.22 0 0 0 9.1 8.82z"/><path class="cls-8" d="M318.38 245.33a120.6 120.6 0 1 1 55.62 77.1l10.24-14.3.44.26a11.73 11.73 0 0 0 14.59-2.29l17.16 5.4A11.73 11.73 0 0 0 427 321.76a103.51 103.51 0 0 0 60.57-13.47 11.72 11.72 0 0 0 5.31-13.77l13.25-12.16a11.74 11.74 0 0 0 14.19-4.11A102.8 102.8 0 0 0 539 218.83a11.62 11.62 0 0 0-9.27-11.26L525.77 190a11.65 11.65 0 0 0 3.62-14.13 102.84 102.84 0 0 0-42-45.9 11.74 11.74 0 0 0-14.59 2.29l-17.16-5.4A11.73 11.73 0 0 0 445 116.59a103.55 103.55 0 0 0-60.57 13.47 11.71 11.71 0 0 0-5.3 13.77L365.86 156a11.73 11.73 0 0 0-14.18 4.11A102.91 102.91 0 0 0 333 219.52a11.63 11.63 0 0 0 9.27 11.26l3.9 17.56a11.65 11.65 0 0 0-3.62 14.13 100.45 100.45 0 0 0 5.83 10.84l-14.07 10.6a120.09 120.09 0 0 1-15.93-38.58z"/><path class="cls-9" d="M342.6 262.49a100.45 100.45 0 0 0 5.83 10.84l57.83-43.53a30.9 30.9 0 0 1-1.09-3.77 31.6 31.6 0 1 1 21.19 23.23l-42.16 58.87.44.26a11.73 11.73 0 0 0 14.59-2.29l17.16 5.4A11.73 11.73 0 0 0 427 321.76a103.51 103.51 0 0 0 60.57-13.47 11.72 11.72 0 0 0 5.31-13.77l13.25-12.16a11.74 11.74 0 0 0 14.19-4.11A102.8 102.8 0 0 0 539 218.83a11.62 11.62 0 0 0-9.27-11.26L525.77 190a11.65 11.65 0 0 0 3.62-14.13 102.84 102.84 0 0 0-42-45.9 11.74 11.74 0 0 0-14.59 2.29l-17.16-5.4A11.73 11.73 0 0 0 445 116.59a103.55 103.55 0 0 0-60.57 13.47 11.71 11.71 0 0 0-5.3 13.77L365.86 156a11.73 11.73 0 0 0-14.18 4.11A102.91 102.91 0 0 0 333 219.52a11.63 11.63 0 0 0 9.27 11.26l3.9 17.56a11.65 11.65 0 0 0-3.57 14.15zm149.18-70.91A15.27 15.27 0 1 1 480.46 210a15.28 15.28 0 0 1 11.32-18.42zm-31.85-29.32a15.27 15.27 0 1 1 3.15 21.36 15.27 15.27 0 0 1-3.15-21.36zM431 144.11a15.27 15.27 0 1 1-14.34 16.15A15.27 15.27 0 0 1 431 144.11zM382.87 165a15.27 15.27 0 1 1-.61 21.58 15.27 15.27 0 0 1 .61-21.58z"/><path class="cls-9" d="m359.77 288.36 33.51-25.23-24.41 34.09a104.22 104.22 0 0 1-9.1-8.86z"/><path class="cls-8" d="M429.15 188.34a31.59 31.59 0 1 1-2.79 60.92l17.4-24.3a9.39 9.39 0 0 0 1.14-8.84 9.28 9.28 0 0 0-1.37-2.6 9.4 9.4 0 0 0-13.18-1.86l-24.09 18.14a30.9 30.9 0 0 1-1.09-3.77 31.58 31.58 0 0 1 23.98-37.69z"/><path class="cls-9" d="m369.55 328.59-4.25 5.93q-4-2.46-7.83-5.18a126.4 126.4 0 0 1-3.5-2.59l-.43-.32q-1.78-1.36-3.52-2.79l4.25-5.93a128.75 128.75 0 0 0 15.28 10.88z"/><path class="cls-10" d="m354.22 317.67 4.4-6.15A121.86 121.86 0 0 0 374 322.43l-4.41 6.16a128.75 128.75 0 0 1-15.37-10.92z"/><path class="cls-9" d="m358.62 311.52 10.25-14.3a105 105 0 0 0 15.33 10.91l-10.2 14.3a121.86 121.86 0 0 1-15.38-10.91z"/><path class="cls-10" d="m426.36 249.26-42.16 58.87a105 105 0 0 1-15.33-10.91l24.41-34.09 24.31-18.31a31.5 31.5 0 0 0 8.77 4.44z"/><path class="cls-9" d="m443.76 225-17.4 24.3a31.5 31.5 0 0 1-8.77-4.44l24.08-18.13a9.38 9.38 0 0 0 3.73-8.09 9.26 9.26 0 0 0-.5-2.48 9.39 9.39 0 0 1-1.14 8.84z"/><circle class="cls-8" cx="495.32" cy="206.44" r="15.27" transform="rotate(-61.69 495.311 206.446)"/><circle class="cls-8" cx="472.19" cy="171.36" r="15.27" transform="rotate(-45 472.19 171.362)"/><path class="cls-8" d="M431 144.11a15.27 15.27 0 1 1-14.34 16.15A15.27 15.27 0 0 1 431 144.11z"/><circle class="cls-8" cx="393.36" cy="176.04" r="15.27" transform="rotate(-19.6 393.292 176.027)"/><path class="cls-8" d="m616.9 0 4.25 3.58.91.77 1 .82 2 1.68c2.27 1.9 4.67 3.94 7.19 6.06V2.67l-6-2.67z"/><path class="cls-11" d="m626.18 0 6.03 2.67V0h-6.03z"/><path d="M575.93 299.79c-9.15.88-4.54-24.65-4.54-24.65 1.48-6.34 7.87-5.08 7.4-2.86v.23c-.53 3.23-2.8 27.16-2.81 27.25zM295.3 230.83l.53-7.36 1.58.95a7.12 7.12 0 0 1 3.41 6.86c-.64 6.22-2.38 16.71-6.84 17.88z" style="fill:#ffe1d6"/><path class="cls-7" d="M284.84 200.69a8.51 8.51 0 0 1 1.55 8.46c-2.29 6.34-6.66 16.63-10.55 15.67v-.11l6.86-26.42z"/><path class="cls-2" d="m328.32 288.48 6-4.55 14.07-10.6 57.83-43.53 24.09-18.14a9.4 9.4 0 0 1 13.18 1.86 9.59 9.59 0 0 1 1.87 5.08 9.38 9.38 0 0 1-3.73 8.09l-24.08 18.13-24.31 18.31-33.51 25.23L345.7 299l-6.05 4.55-5.83 4.39-11.55 8.69-28.59 21.53-11.32-15L313.08 300l9.42-7.1z"/><path class="cls-1" d="M372.38 14.28c-24.46 19.34-61.68 40.13-114.53 48.89a12.19 12.19 0 0 1-14.07-10.55l-.43-3.57a6.25 6.25 0 0 1 4.25-6.7 6.06 6.06 0 0 0-.17 2.37l.43 3.58a12.2 12.2 0 0 0 14.07 10.55C314.78 50.08 352 29.3 376.46 10q5.88-4.65 10.78-9.12l.91-.84h.5c-1.72 1.69-3.54 3.4-5.49 5.16q-4.89 4.42-10.78 9.08z"/><path class="cls-4" d="M376.46 10C352 29.3 314.78 50.08 261.93 58.85a12.2 12.2 0 0 1-14.07-10.55l-.43-3.58a6.06 6.06 0 0 1 .17-2.37 6.25 6.25 0 0 1 5.14-4.59C291 32.19 320.27 19.67 341.42 7c3.92-2.34 7.52-4.68 10.88-7h35.85l-.91.84Q382.35 5.3 376.46 10z"/><path class="cls-1" d="M199.6 86.82a174.21 174.21 0 0 0 27.89 22.64 5.35 5.35 0 0 0 2.33.79 5.38 5.38 0 0 1-7.56 1.93 174.47 174.47 0 0 1-27.88-22.65c-3.15-3.09-6.41-6.5-9.73-10.24-16.14-18.16-33.6-44-46.1-79.29h6.21c12.42 33.88 29.39 58.88 45.11 76.58q4.99 5.6 9.73 10.24z"/><path class="cls-4" d="M203.79 58.52c.6.72 1.21 1.42 1.8 2.09A175 175 0 0 0 234.05 87a12.2 12.2 0 0 1 3.62 15.64l-2.56 4.83a5.42 5.42 0 0 1-7.62 2 174.21 174.21 0 0 1-27.89-22.65q-4.72-4.63-9.73-10.24c-15.72-17.7-32.69-42.7-45.11-76.58h24a224.18 224.18 0 0 0 22.12 41.42 198 198 0 0 0 12.91 17.1z"/><path d="m135 780.1 1.06.45z" fill="none"/><path class="cls-14" d="M287.29 728.11c.55 1.37 1 2.59 1.36 3.6a4.28 4.28 0 0 0 5 2.76l7.11-1.69a9.58 9.58 0 0 0 2.62-1 9.87 9.87 0 0 0 6.4-12.78q-1-2.81-2.34-6.2l42-31.85c-5.45 8.41-6.62 14.18-3.37 17.18l11 11.64q-.63 6.69-.83 13.51c-5.72 19.66-16.92 45.36-6.22 48.45l11.67 4.55c.78 3.27 1.66 6.49 2.59 9.7L352 807.08h5.1l-6 9.92h-56.75L249 757.2z"/><path class="cls-14" d="m364 795.6-6.93 11.47 6.93-11.52z"/><path class="cls-15" d="M372.27 781.84 364 795.6v-.05zm-11.52-99.48.42.44.08.09 10.87 11.54a79.6 79.6 0 0 0-2.83 19.31v1.08c-5.87 18.35-13.63 38.93-4.13 41.67l13.42 5.23c.36 2.62.69 5.25 1 7.87l-8.81 5L364.2 786c-.93-3.21-1.81-6.43-2.59-9.7l-11.67-4.55c-10.7-3.09.5-28.79 6.22-48.45q.19-6.81.83-13.51l-11-11.64c-3.25-3-2.08-8.77 3.37-17.18l.45-.7 11.49-8.71c-2.24 4.89-2.44 8.5-.55 10.8z"/><path class="cls-8" d="M623.83 454.19a24.68 24.68 0 0 1-8.76 9 30.46 30.46 0 0 0-13.93 23.05 35.7 35.7 0 0 1-.65 4.29 110.29 110.29 0 0 0-51.09 22c-4.61 1.25-9.19 2.51-13.76 3.41-.95.19-1.91.36-2.87.53L598 408.58l34 20.55a27.61 27.61 0 0 0-4.28 13.14 24.76 24.76 0 0 1-3.89 11.92zM357.06 807.08l6.94-11.47a100.12 100.12 0 0 0-.85 10.46c-.13 3.68-.07 7.33.15 10.93h-12.23l6-9.92z"/><path class="cls-8" d="M603.63 490.07a110.16 110.16 0 0 1 13.82-.86c1 0 2 0 3 .05h.55c.59 0 1.17 0 1.76.07h.64c.49 0 1 .05 1.46.09s1.23.08 1.85.14 1.23.1 1.85.17c1.23.12 2.46.26 3.68.43v-54.81a26.31 26.31 0 0 0-1.54 7.25 30.46 30.46 0 0 1-13.93 23 27.52 27.52 0 0 0-12.63 20.88c-.14 1.19-.29 2.36-.51 3.59z"/><path class="cls-16" d="M600.49 490.5c1-.16 2.09-.3 3.14-.43.22-1.23.36-2.4.48-3.55a27.52 27.52 0 0 1 12.63-20.88 30.46 30.46 0 0 0 13.93-23 26.31 26.31 0 0 1 1.54-7.25v-6.08l-.23-.14a27.56 27.56 0 0 0-4.29 13.15 27.54 27.54 0 0 1-12.62 20.88 30.46 30.46 0 0 0-13.93 23 38.33 38.33 0 0 1-.65 4.3z"/><path class="cls-1" d="M407.53 580a90.21 90.21 0 0 0-15.21 14.91v-6.68a26.64 26.64 0 0 1 17-24.84 26.75 26.75 0 0 0-1.82 9.62zm-.24 21.73c-7 10.48-16.29 19.93-21.61 31.5a79.34 79.34 0 0 1 21.85-38.44v6.56zm-34.87 53.6c-5.3 6.38-9 11.78-11.05 16.15l-11.46 8.7a113.1 113.1 0 0 1 7.28-9.63 90.35 90.35 0 0 1 34.43-74.82 90.23 90.23 0 0 0-19.2 59.6z"/><path class="cls-16" d="M363.15 806.07a100.12 100.12 0 0 1 .85-10.46l8.26-13.76 7.34-12.17c.27 2.05.56 4.1.88 6.13A110.61 110.61 0 0 0 380 817h-16.7c-.22-3.6-.3-7.25-.15-10.93z"/><path d="M383.62 763.74c-.06.2-.12.41-.19.61-.26.82-.52 1.64-.76 2.47 0 .11-.07.21-.1.32-.81 2.82-1.5 5.69-2.09 8.61-.32-2-.61-4.08-.88-6.13-.35-2.62-.68-5.25-1-7.87zm-11.52-69.27 1.94 2c-.69 5.14-2.59 11.59-4.75 18.34v-1.08a79.6 79.6 0 0 1 2.81-19.26zm177.3-181.94q-2.42 1.89-4.74 3.91l-.74.67c-.43.38-.87.77-1.29 1.16-1.2 1.1-2.38 2.21-3.53 3.36-2.15 2.14-4.15 4.37-6.08 6.64a188.93 188.93 0 0 0-48.19 18h-22.2l.37-.25c11-7.38 20.91-17.26 33.31-22.41 11.31-4.69 24.14-5.07 36.52-7.19 1-.17 1.92-.34 2.87-.53 4.51-.89 9.09-2.11 13.7-3.36zm-141.87 88.82v18.22l-.9.84c-1.35 1.25-2.68 2.48-4 3.69l-1.34 1.27-2.57 2.44-1.72 1.64-2 2-1.69 1.65-.55.53q-4.65 4.56-8.66 8.75a77.78 77.78 0 0 1 1.6-9.15c5.32-11.57 14.59-21 21.61-31.5z" style="fill:#5a0a00"/><path class="cls-4" d="M443.86 563.27c-1.61.34-3.22.71-4.82 1.14A89.66 89.66 0 0 0 407.53 580v-7a26.72 26.72 0 0 1 26.66-26.65h32.07a199 199 0 0 0-22.4 16.92zm-36.33 38.08v-6.56a78.33 78.33 0 0 1 17.57-12.85A200.19 200.19 0 0 0 407.53 605z"/><path d="m457.59 561.47-2.48.18-1.83.16c-.82.08-1.63.19-2.44.29-.43.06-.85.09-1.27.15-1.89.27-3.79.59-5.68 1a199 199 0 0 1 22.4-16.95h18.51a188.84 188.84 0 0 0-23.52 15c-.64 0-1.28 0-1.93.06zM408.12 619l-.59.53V605a200.19 200.19 0 0 1 17.57-23.1 77.54 77.54 0 0 1 7.71-3.61c1.09-.44 2.21-.86 3.33-1.25l1.23-.44c1.5-.5 3-1 4.58-1.39 1.24-.33 2.48-.62 3.72-.89-1.74 1.61-3.46 3.25-5.15 4.94a190.24 190.24 0 0 0-28.19 35.89l-1.28 1.17c-.99.94-1.97 1.83-2.93 2.68z" style="fill:#c14f29"/><path d="M407.53 580A89.66 89.66 0 0 1 439 564.41c1.6-.43 3.21-.8 4.82-1.14 1.89-.4 3.79-.72 5.68-1-4.68 3.89-9.24 8-13.63 12.41-1.29 1.29-2.55 2.59-3.8 3.9.23-.09.47-.16.7-.26a77.54 77.54 0 0 0-7.71 3.61 78.33 78.33 0 0 0-17.57 12.85 79.34 79.34 0 0 0-21.85 38.44 77.78 77.78 0 0 0-1.6 9.15q-6.75 7-11.66 13a90.23 90.23 0 0 1 19.2-59.6l.7-.86A90.21 90.21 0 0 1 407.53 580zm43.31-17.9c.81-.1 1.62-.21 2.44-.29-.81.08-1.63.19-2.44.29zm-14.7 14.98 1.23-.44zm18.97-15.43 2.48-.18zm6.14-.3h-1.91c.66.04 1.27 0 1.91 0z" style="fill:#f4f1fa"/><path class="cls-16" d="m437.37 576.64-1.23.44c-1.12.39-2.24.81-3.33 1.25-.23.1-.47.17-.7.26 1.25-1.31 2.51-2.61 3.8-3.9 4.39-4.39 8.95-8.52 13.63-12.41.42-.06.84-.09 1.27-.15.81-.1 1.63-.21 2.44-.29l1.83-.16 2.48-.18 1.73-.06h1.91a191.64 191.64 0 0 0-15.56 13c-1.24.27-2.48.56-3.72.89-1.53.34-3.05.81-4.55 1.31z"/><path class="cls-2" d="M378.36 793.75a111.69 111.69 0 0 1 2.13-18c.59-2.92 1.28-5.79 2.09-8.61A197.52 197.52 0 0 0 394 798c-.78 6.61-1.54 13.16-1.85 19H380a111.69 111.69 0 0 1-1.64-23.25zm5.07-29.4c-.26.82-.52 1.64-.76 2.47.24-.82.5-1.65.76-2.47zm161.22-247.9A200.87 200.87 0 0 1 590 514.7a89.24 89.24 0 0 1 27-4.2h2.95c.45 0 .91 0 1.36.06.69 0 1.39.07 2.08.12l1.21.1 1.51.14 1 .11q1.79.19 3.57.48.74.1 1.47.24h.13V490.2a110.7 110.7 0 0 0-28.58-.13c-1 .13-2.1.27-3.14.43a110.18 110.18 0 0 0-51.09 22q-2.47 1.92-4.82 3.95zm-.78.67zm-4.82 4.52c-2.15 2.14-4.15 4.37-6.08 6.64 1.93-2.27 3.93-4.5 6.08-6.64z"/><path class="cls-3" d="M382.67 766.82c.24-.83.5-1.65.76-2.47.07-.2.13-.41.19-.61l8.81 3.43q1.6 5.52 3.56 11l-.06.92-.09 1.15q0 .54-.09 1.11l-.09 1.16c0 .38-.07.75-.11 1.13s-.07.78-.11 1.18l-.12 1.15-.12 1.19-.12 1.16c-.05.41-.09.81-.14 1.22s-.08.76-.13 1.14-.09.84-.14 1.26-.09.78-.14 1.17-.09.84-.14 1.26-.09.76-.14 1.14-.11 1-.17 1.46c0 .35-.09.71-.13 1.06a197.52 197.52 0 0 1-11.37-30.82c.02-.21.06-.28.09-.39zm156.38-245.18c1.15-1.15 2.33-2.26 3.53-3.36.42-.39.86-.78 1.29-1.16l.74-.67A200.76 200.76 0 0 1 590 514.7c-1.85.59-3.69 1.23-5.5 1.93a13.81 13.81 0 0 0-7.48 7 190.85 190.85 0 0 0-44 4.67c1.93-2.27 3.93-4.5 6.08-6.64zM590 514.7a199.13 199.13 0 0 1 42.26 7.81v-10.69A88.89 88.89 0 0 0 590 514.7z"/><path class="cls-20" d="M577 523.62a191.58 191.58 0 0 1 33.33 3.28 12.61 12.61 0 0 1 3-5.43s3.68 3 3.94 6.87c.92.21 1.83.42 2.74.65l1.69.41q1.55.39 3.09.81c1.24.34 2.48.69 3.71 1q1.63.48 3.27 1c.14 0 .27.08.41.12v-9.87c-.89-.27-1.77-.53-2.66-.78l-1.88-.52-1.84-.49c-.76-.21-1.53-.4-2.3-.59l-1.75-.43c-.67-.17-1.34-.32-2-.47q-1.41-.33-2.82-.63c-1-.22-2-.42-3-.62h-.09l-2.89-.55c-2-.36-4-.7-6-1-.8-.13-1.6-.24-2.4-.35l-1.77-.24-.43-.06-2.11-.26c-2.78-.33-5.56-.59-8.35-.8-1.86.59-3.7 1.23-5.51 1.94a13.81 13.81 0 0 0-7.38 7.01z"/><path class="cls-20" d="M617.24 528.33q-3.47-.78-6.94-1.44a12.58 12.58 0 0 1 3-5.42s3.7 2.97 3.94 6.86z"/><path d="m383.62 763.74-5.05-2-13.42-5.23c2.71.78 6.81.12 12.79-2.47.67-.3 1.32-.56 1.95-.79.37-.13.72-.23 1.08-.34s.52-.18.77-.25.64-.16 1-.23l.75-.18.88-.12c.23 0 .48-.08.71-.1s.53 0 .8 0h.65c.25 0 .49 0 .73.07s.41 0 .61.06.44.1.66.16l.26.07q1.53 7.46 3.67 14.8zm-22.87-81.38a6 6 0 0 0 .4.48l-.42-.44zm.48.57q2.31 2.15 7.6 2.42c5 .26 6.08 4.67 5.21 11.17l-1.94-2z" style="fill:#0f462d"/><path class="cls-11" d="m393.29 633.08 1.69-1.65zm3.71-3.63 1.72-1.64zm4.32-4.08 1.34-1.27zm11.01-10.18-1.27 1.16zm-4.21 3.81-1.49 1.37.9-.84zm-24.04 23.38q4-4.18 8.66-8.75a199.71 199.71 0 0 0-12.86 119.65c-.63.23-1.28.49-1.95.79-6 2.59-10.08 3.25-12.79 2.47-9.5-2.74-1.74-23.32 4.13-41.67 2.16-6.75 4.06-13.2 4.75-18.34.87-6.5-.22-10.91-5.21-11.17q-5.29-.27-7.6-2.42l-.08-.09a6 6 0 0 1-.4-.48c-1.89-2.3-1.69-5.91.59-10.8v-.08c2.05-4.37 5.75-9.77 11.05-16.15q4.97-5.92 11.71-12.96zM394 798c0-.35.09-.71.13-1.06A195.42 195.42 0 0 0 404.76 817H392.1c.31-5.86 1.07-12.41 1.9-19zm1.75-16.7q.06-.57.09-1.11-.03.54-.09 1.11zm-.2 2.29c0-.38.07-.75.11-1.13-.04.38-.07.75-.11 1.13zm-.47 4.68.12-1.16zm-.27 2.36c.05-.38.09-.76.13-1.14-.04.38-.08.76-.13 1.14zm1.19-12.5-.06.91.06-.92zm-.68 7.79.12-1.15zm-.79 7.14c.05-.39.1-.78.14-1.17-.04.39-.09.78-.14 1.17zm-.28 2.4c.05-.38.09-.76.14-1.14-.05.38-.09.76-.14 1.14zM381 752.93c.25-.09.52-.18.77-.25-.27.07-.54.16-.77.25zm5.5-.93h-.65zm-3.79.45.75-.18zm1.63-.3c.23 0 .48-.08.71-.1-.23.02-.48.07-.71.1zm2.89-.07c.2 0 .41 0 .61.06-.2-.03-.41-.04-.61-.06zm1.53.28-.26-.07z"/><path d="M387.84 752.14c-.2 0-.41 0-.61-.06s-.48-.06-.73-.07h-1.45c-.27 0-.48.07-.71.1l-.88.12-.75.18c-.32.07-.63.13-1 .23s-.52.16-.77.25-.71.21-1.08.34a199.71 199.71 0 0 1 12.86-119.65l.55-.53 1.69-1.65 2-2 1.72-1.64 2.57-2.44 1.34-1.27c1.29-1.21 2.62-2.44 4-3.69l1.49-1.37c1-.89 1.94-1.78 2.93-2.68l1.27-1.16a190.41 190.41 0 0 0-23.56 137.16l-.26-.06c-.18-.01-.39-.07-.62-.11zm6.24 44.78c.06-.49.11-1 .17-1.46s.09-.76.14-1.14.09-.84.14-1.26.1-.78.14-1.17.1-.84.14-1.26.09-.76.13-1.14.09-.81.14-1.22l.12-1.16.12-1.19.12-1.15c0-.4.07-.79.11-1.18s.07-.75.11-1.13l.09-1.16q.06-.57.09-1.11l.09-1.15.06-.91A188.48 188.48 0 0 0 415.23 817h-10.47a195.42 195.42 0 0 1-10.68-20.08z" style="fill:#156a41"/><path class="cls-5" d="M388.75 752.36q1.53 7.46 3.67 14.81c1.07 3.67 2.26 7.33 3.56 11A188.94 188.94 0 0 0 415.22 817h217V532.38q-7.41-2.32-15-4-3.47-.8-6.94-1.44a191.58 191.58 0 0 0-33.28-3.32h-2a191.32 191.32 0 0 0-42 4.67 188.9 188.9 0 0 0-71.7 33.06 193.85 193.85 0 0 0-15.57 13c-1.73 1.61-3.46 3.25-5.15 4.95a189.9 189.9 0 0 0-51.76 173.05z"/><path class="cls-1" d="m130.07 705.32 2.47 5.72a5.27 5.27 0 0 0 6.81 2.81c29.88-12 69.62-19.52 115.38-21.9 3.75-.2 7.39-.35 10.93-.47.54.69 1.06 1.37 1.57 2l.57.77c-5.11.18-10.49.44-16.07.79-45.73 2.96-85.39 10.89-115.14 23.18a5.29 5.29 0 0 1-6.84-2.74l-2.53-5.7c-2.45-5.5.47-14.8 6.09-17a10.54 10.54 0 0 0-3.24 12.54zm180.51-13.66a9.42 9.42 0 0 0 4.79-1 9.56 9.56 0 0 1-7.79 3.58c-2.61-.08-5.73-.16-9.26-.21-.5-.9-1-1.81-1.56-2.74 5.47.05 10.15.21 13.82.37z"/><path class="cls-15" d="m287.3 728.11 1.61-1.23c.46 1.32.85 2.51 1.15 3.49a4.34 4.34 0 0 0 5 3l7.3-1.39a9.3 9.3 0 0 0 1.07-.27 9.58 9.58 0 0 1-2.62 1l-7.11 1.69a4.28 4.28 0 0 1-5-2.76c-.35-1-.81-2.23-1.36-3.6z"/><path class="cls-1" d="M173.56 608.68c37.31 20.26 62.7 42.14 79.72 61-2.25.12-4.54.26-6.86.4-17.42-17-42.35-36-77.46-53.14a9.69 9.69 0 0 1-4.51-12.74l2.25-4.94a6.79 6.79 0 0 1 2.46-2.83 9.83 9.83 0 0 0 4.4 12.25zm92.1 82.8 4.73-.13c10.45 15.26 15.87 28 18.48 35.53l-1.61 1.23a151.26 151.26 0 0 0-19.5-33.82l-.57-.77c-.47-.67-.99-1.35-1.53-2.04z"/><path class="cls-4" d="M296.76 691.24a210.47 210.47 0 0 0-15.09-22.38c14.63-.09 26.24.35 33.13.72a6.64 6.64 0 0 1 6.27 7.15l-.48 6.06a9.62 9.62 0 0 1-5.22 7.82 9.42 9.42 0 0 1-4.79 1c-3.67-.11-8.35-.27-13.82-.37zm-31.1.24c-3.54.12-7.18.27-10.93.47-45.76 2.38-85.5 9.93-115.38 21.9a5.27 5.27 0 0 1-6.81-2.81l-2.47-5.72a10.54 10.54 0 0 1 3.24-12.52 10.92 10.92 0 0 1 2.74-1.53c35.52-13.31 76.17-19 110.36-21.19a212.68 212.68 0 0 1 19.25 21.4zm-12.38-21.8q-3.39.16-6.87.39c2.33-.13 4.59-.27 6.87-.39z"/><path class="cls-5" d="M253.29 669.69a208.85 208.85 0 0 1 16.7 21l.44.66-4.73.13a212.68 212.68 0 0 0-19.25-21.4q3.45-.23 6.84-.39z"/><path class="cls-4" d="M303.41 731.73a9.3 9.3 0 0 1-1.07.27l-7.3 1.39a4.34 4.34 0 0 1-5-3c-.3-1-.69-2.17-1.15-3.49-2.61-7.52-8-20.27-18.48-35.53l-.44-.66a208.85 208.85 0 0 0-16.7-21c-17-18.86-42.41-40.74-79.72-61a9.83 9.83 0 0 1-4.41-12.25c.12-.3.25-.59.39-.88l2.51-4.9a6.94 6.94 0 0 1 9.44-3c49.6 26.42 80.74 55.91 100.18 81.17a210.47 210.47 0 0 1 15.09 22.38c.54.93 1.06 1.84 1.56 2.74a166.4 166.4 0 0 1 9.12 18.84q1.37 3.39 2.34 6.2a9.87 9.87 0 0 1-6.36 12.72z"/><path class="cls-1" d="M267.4 540.34a7.92 7.92 0 0 1 0-1.09c.12-2.65.24-5.33.33-7.43a4.35 4.35 0 0 1 4.09-4.15c1-.06 2.27-.16 3.67-.3 7.91-.8 21.58-3.12 38.84-9.75l.74-.28a208.28 208.28 0 0 0 24.3-11.34c22.3-12.19 49.46-31.83 77.81-63.43a9.83 9.83 0 0 1 12.94-1.45 8.47 8.47 0 0 1 .76.58l4.19 3.58a6.94 6.94 0 0 1 .69 9.87c-37.19 42.12-73.09 65.59-102.16 78.65a210.88 210.88 0 0 1-25.28 9.5c-1 .31-2 .6-3 .88a167.64 167.64 0 0 1-20.45 4.51c-2.41.36-4.61.64-6.57.84a9.87 9.87 0 0 1-10.9-9.19z"/><path class="cls-4" d="M269.68 532.35a8.06 8.06 0 0 1 0-1.1c.12-2.65.23-5.33.33-7.42a4.35 4.35 0 0 1 4.09-4.16c1-.06 2.27-.16 3.67-.3 7.91-.8 21.58-3.12 38.84-9.75l.74-.28a208.28 208.28 0 0 0 24.3-11.34c22.29-12.19 49.46-31.82 77.81-63.42a9.83 9.83 0 0 1 12.94-1.46c.26.18.51.38.76.59l4.19 3.57a6.94 6.94 0 0 1 .69 9.87c-37.19 42.09-73.04 65.55-102.16 78.61a209.81 209.81 0 0 1-25.28 9.5c-1 .31-2 .6-3 .88a167.13 167.13 0 0 1-20.44 4.51c-2.41.37-4.61.64-6.57.84a9.87 9.87 0 0 1-10.91-9.14z"/><path class="cls-15" d="m379.58 769.68.03-.01-7.34 12.17-8.25 13.71-6.95 11.53h-5.11l12.24-21.07 6.57-11.31 8.81-5.02z"/><path d="m136.06 780.55-1.06-.45" stroke="#fff2d9" stroke-linecap="round" stroke-linejoin="round" stroke-width="0" fill="none"/><path d="M557.94 693.42a9 9 0 0 0 2-4.82 13.21 13.21 0 0 0 .09-2.68 13.25 13.25 0 0 0-2.68.23 9 9 0 0 0-4.71 2.21c-2.61 2.58-2.1 7.2-2 7.5.21.02 4.85.3 7.3-2.44zm34.7-27.13a9 9 0 0 0 2-4.81 13.83 13.83 0 0 0 .1-2.69 14.07 14.07 0 0 0-2.74.21 8.89 8.89 0 0 0-4.71 2.21c-2.62 2.58-2.1 7.2-2 7.5.27.04 4.9.29 7.35-2.42zM473.71 797.34a9 9 0 0 0 2-4.82 13.21 13.21 0 0 0 .09-2.68 13.21 13.21 0 0 0-2.68.23 9 9 0 0 0-4.71 2.21c-2.61 2.58-2.1 7.19-2 7.5.21.02 4.85.3 7.3-2.44zm94.44-211.78a9 9 0 0 0 2-4.82 13.21 13.21 0 0 0 .09-2.68 13.25 13.25 0 0 0-2.68.23 9 9 0 0 0-4.71 2.21c-2.61 2.58-2.1 7.2-2 7.5.21 0 4.85.3 7.3-2.44zM576 775.5a8.72 8.72 0 0 0-.71-5.12 13.79 13.79 0 0 0-1.27-2.34s-.25.14-.66.41a14.22 14.22 0 0 0-1.53 1.11 8.66 8.66 0 0 0-3 4.22c-1 3.53 1.76 7.4 2 7.59.29-.13 4.46-2.27 5.17-5.87zm6.71 19.63a8.14 8.14 0 0 0 2.15-4.77 11.5 11.5 0 0 0 .06-2.64 7.13 7.13 0 0 0-.78.06c-.49 0-1.17.17-1.93.31a9.56 9.56 0 0 0-4.8 2.33c-2.73 2.64-2.66 7-2.64 7.26.23.07 5.23.11 7.94-2.55zm-147.48-59.74a8.79 8.79 0 0 0-3.17-4.07 13.64 13.64 0 0 0-2.26-1.39 13.08 13.08 0 0 0-1.14 2.39 8.71 8.71 0 0 0-.46 5.14c.92 3.56 5.2 5.5 5.49 5.61.15-.22 2.69-4.19 1.54-7.68zM446 680.7a9.58 9.58 0 0 0-2.11 4.92c-.12.77-.15 1.45-.2 1.94s0 .79 0 .79a12.16 12.16 0 0 0 2.63-.2 8.09 8.09 0 0 0 4.64-2.39 9.81 9.81 0 0 0 2.06-5 11.88 11.88 0 0 0 .06-3.07c-.24 0-4.59.15-7.08 3.01zm170.24-56.35c1.23 3.7 5.46 5.81 5.46 5.81a12.07 12.07 0 0 0 1.15-2.38 8.05 8.05 0 0 0 .23-5.18 10 10 0 0 0-3.29-4.33 15.55 15.55 0 0 0-2.65-1.56c-.14.23-2.14 4.11-.9 7.64zm-85.59-47.6a8.73 8.73 0 0 0 3.17 4.07 13.64 13.64 0 0 0 2.26 1.39 13.51 13.51 0 0 0 1.14-2.39 8.73 8.73 0 0 0 .46-5.15c-.92-3.55-5.2-5.49-5.5-5.6-.18.22-2.68 4.19-1.53 7.68zm68.29.81a8.68 8.68 0 0 0 3.17 4.07 12.85 12.85 0 0 0 2.26 1.39 13.08 13.08 0 0 0 1.14-2.39 8.7 8.7 0 0 0 .46-5.14c-.92-3.56-5.2-5.5-5.49-5.61-.15.23-2.69 4.2-1.54 7.68zM489.37 808.2a8.79 8.79 0 0 0 3.17 4.07 13.28 13.28 0 0 0 2.26 1.39 13.08 13.08 0 0 0 1.14-2.39 8.71 8.71 0 0 0 .46-5.14c-.92-3.56-5.2-5.5-5.49-5.61-.15.22-2.69 4.19-1.54 7.68zm16.13-66.8a8.68 8.68 0 0 0 3.17 4.07 12.85 12.85 0 0 0 2.26 1.39 12.69 12.69 0 0 0 1.15-2.39 8.71 8.71 0 0 0 .46-5.14c-.93-3.56-5.2-5.5-5.5-5.61-.16.22-2.69 4.19-1.54 7.68zm9.67-105.46a9.5 9.5 0 0 0 5.28-.68 13.85 13.85 0 0 0 2.49-1.15 11.17 11.17 0 0 0-1.48-2.18 8.37 8.37 0 0 0-4.41-2.85c-3.74-.74-7.85 2-8.07 2.2.14.22 2.45 3.91 6.19 4.66zM461.66 708a9.49 9.49 0 0 0 5.28-.68 13 13 0 0 0 2.5-1.15A11.91 11.91 0 0 0 468 704a8.37 8.37 0 0 0-4.41-2.85c-3.74-.73-7.85 2-8.07 2.21.1.24 2.4 3.92 6.14 4.64zm77.28-59a9.31 9.31 0 0 0 5.28-.68 13.38 13.38 0 0 0 2.5-1.14 11.91 11.91 0 0 0-1.49-2.18 8.32 8.32 0 0 0-4.4-2.84c-3.75-.74-7.86 2-8.07 2.2.14.18 2.44 3.86 6.18 4.64zm-70.87-31.73a9 9 0 0 0 4.81 2 13.73 13.73 0 0 0 2.68.1 13.66 13.66 0 0 0-.24-2.67 9 9 0 0 0-2.2-4.71c-2.59-2.62-7.2-2.1-7.51-2 0 .2-.29 4.83 2.46 7.28zM596.1 718a8.93 8.93 0 0 0 4.82 2 13.73 13.73 0 0 0 2.68.1 13.66 13.66 0 0 0-.24-2.67 8.89 8.89 0 0 0-2.21-4.71c-2.58-2.62-7.19-2.1-7.5-2-.01.16-.29 4.79 2.45 7.28zm-125.44-48.76a8.87 8.87 0 0 0 4.81 2 13.73 13.73 0 0 0 2.68.1 13.66 13.66 0 0 0-.24-2.67 9 9 0 0 0-2.2-4.71c-2.59-2.62-7.2-2.1-7.51-2 0 .2-.29 4.83 2.46 7.28zm116.76-58.95a8.87 8.87 0 0 0 4.81 2 13.73 13.73 0 0 0 2.68.1 13.66 13.66 0 0 0-.24-2.67 8.89 8.89 0 0 0-2.21-4.71c-2.58-2.62-7.19-2.1-7.5-2.05.04.25-.29 4.88 2.46 7.33zm-142.36 35.85a8.29 8.29 0 0 0 3.06 4.25 11.61 11.61 0 0 0 2.26 1.37 13.54 13.54 0 0 0 1-2.55 9.72 9.72 0 0 0 .4-5.31c-.93-3.69-4.75-5.81-5-5.93-.11.23-2.68 4.45-1.72 8.17zm51.25 5.74a8.32 8.32 0 0 0 3.07 4.25 11.73 11.73 0 0 0 2.25 1.37 13.54 13.54 0 0 0 1-2.55 9.72 9.72 0 0 0 .4-5.31c-.94-3.69-4.75-5.81-5-5.93-.1.23-2.67 4.45-1.72 8.17zm60.08 82.78a8.32 8.32 0 0 0 3.07 4.25 11.39 11.39 0 0 0 2.25 1.37 13.54 13.54 0 0 0 1-2.55 9.72 9.72 0 0 0 .4-5.31c-.94-3.69-4.75-5.81-5-5.93-.11.23-2.67 4.45-1.72 8.17zm-27.02-63.26a8.32 8.32 0 0 0 3.07 4.25 12.14 12.14 0 0 0 2.25 1.38 13.6 13.6 0 0 0 1-2.54 9.74 9.74 0 0 0 .4-5.31c-.93-3.7-4.75-5.82-5-5.94-.09.23-2.67 4.45-1.72 8.16zm83.52 28.01a8.7 8.7 0 0 0 5.11-.72 13.39 13.39 0 0 0 2.34-1.26s-.15-.26-.41-.66a14.63 14.63 0 0 0-1.11-1.53 8.75 8.75 0 0 0-4.22-3c-3.54-1-7.41 1.75-7.6 2 .14.26 2.29 4.43 5.89 5.17zm-104.38-4.91a8.8 8.8 0 0 0 5.12-.72 13.39 13.39 0 0 0 2.34-1.26s-.14-.26-.4-.66a16.27 16.27 0 0 0-1.11-1.53 8.75 8.75 0 0 0-4.23-3c-3.53-1-7.4 1.76-7.59 2 .13.26 2.27 4.43 5.87 5.17zm104.7-93.75a8.78 8.78 0 0 0 5.11-.72 13 13 0 0 0 2.34-1.27s-.15-.26-.41-.66a14.63 14.63 0 0 0-1.11-1.53 8.77 8.77 0 0 0-4.22-3c-3.54-1-7.41 1.76-7.6 2 .14.27 2.29 4.43 5.89 5.18zM464.82 765.67a8.72 8.72 0 0 0 5.12-.72 13.39 13.39 0 0 0 2.34-1.26s-.14-.26-.4-.66a16.27 16.27 0 0 0-1.11-1.53 8.74 8.74 0 0 0-4.23-3c-3.53-1-7.4 1.75-7.59 2 .13.26 2.27 4.43 5.87 5.17zm25.72-9.47a9.59 9.59 0 0 0 2.11-4.91c.11-.77.15-1.46.19-1.95a7.64 7.64 0 0 0 0-.79 11.44 11.44 0 0 0-2.63.2 8 8 0 0 0-4.64 2.38 9.84 9.84 0 0 0-2.06 5 12.12 12.12 0 0 0-.07 3.07c.29.01 4.64-.14 7.1-3zm58.55-46.45a8.7 8.7 0 0 0-5.17.23 11.59 11.59 0 0 0-2.41 1.09 14.88 14.88 0 0 0 1.61 2.44 10 10 0 0 0 4.6 3.17c3.68 1 7.25-1.65 7.47-1.8-.19-.2-2.42-4.11-6.1-5.13zM530.28 783a8.79 8.79 0 0 0 4.07-3.17 13.28 13.28 0 0 0 1.39-2.26 13.47 13.47 0 0 0-2.39-1.15 8.79 8.79 0 0 0-5.14-.45c-3.56.92-5.5 5.2-5.61 5.49.22.16 4.19 2.7 7.68 1.54zm-6.58-183.22a8.68 8.68 0 0 0 4.07-3.17 12.85 12.85 0 0 0 1.39-2.26 12.69 12.69 0 0 0-2.39-1.15 8.69 8.69 0 0 0-5.14-.46c-3.56.92-5.5 5.2-5.61 5.5.23.16 4.2 2.69 7.68 1.54z" style="fill:#fff2d9"/><path class="cls-1" d="M33.63 109.37a9.36 9.36 0 0 0-.18 1.08c-.29 2.63-.59 5.3-.82 7.38a4.34 4.34 0 0 0 3.37 4.74c1 .22 2.22.51 3.58.87 7.69 2 20.83 6.44 36.85 15.67l.69.39a208.22 208.22 0 0 1 22.24 15c20.13 15.5 43.91 39.13 67 74.75a9.84 9.84 0 0 0 12.56 3.45c.28-.14.57-.29.84-.46l4.7-2.88a6.94 6.94 0 0 0 2.21-9.64c-30.18-47.4-62-76.16-88.69-93.58a211.64 211.64 0 0 0-23.48-13.32c-1-.46-1.91-.91-2.85-1.34a168.12 168.12 0 0 0-19.49-7.63c-2.33-.74-4.46-1.35-6.37-1.85a9.87 9.87 0 0 0-12.16 7.37z"/><path class="cls-4" d="M36.87 101.87a9.91 9.91 0 0 0-.18 1.09c-.29 2.63-.59 5.29-.82 7.38a4.35 4.35 0 0 0 3.39 4.74c1 .22 2.22.51 3.58.87 7.69 2 20.83 6.43 36.85 15.67l.69.39a209.5 209.5 0 0 1 22.24 15c20.13 15.5 43.91 39.12 67 74.74a9.84 9.84 0 0 0 12.56 3.46c.29-.14.57-.3.84-.46l4.7-2.89a6.94 6.94 0 0 0 2.21-9.64c-30.18-47.39-62-76.16-88.69-93.58a209 209 0 0 0-23.48-13.31c-1-.46-1.91-.91-2.85-1.34a168.12 168.12 0 0 0-19.49-7.63c-2.33-.71-4.42-1.36-6.37-1.83a9.88 9.88 0 0 0-12.18 7.34z"/></g></g></svg>