<svg xmlns="http://www.w3.org/2000/svg" viewBox="0 0 571.1 817"><defs><style>.cls-1{fill:none}.cls-2{fill:#156a41}.cls-3{fill:#05a357}.cls-4{fill:#c14f29}.cls-5{fill:#fff}.cls-6{fill:#d4e2fc}.cls-7{fill:#a0bff9}.cls-8{fill:#5b91f4}.cls-9{fill:#333}.cls-10{fill:#ffcf70}.cls-11{fill:#ffc043}.cls-12{fill:#ff6937}.cls-13{fill:#870f00}.cls-14{fill:#fff2d9}.cls-15{fill:#e6f2ed}.cls-16{fill:#fa9269}.cls-19{fill:#fabda5}</style></defs><g id="Layer_2" data-name="Layer 2"><g id="WebRight"><path class="cls-1" d="M44 531.83c.22-.07 3.54-.94 5.71.65a6.39 6.39 0 0 1 2.11 3.13 9.65 9.65 0 0 1 .45 1.89 10.07 10.07 0 0 1-1.93.25 6.37 6.37 0 0 1-3.67-.84c-2.23-1.43-2.62-4.86-2.67-5.08zm492.55-256.68c.21 0 3.5-.12 5.17 1.82a6 6 0 0 1 1.29 3.36 8.62 8.62 0 0 1 0 1.85 9 9 0 0 1-1.84-.17 6.16 6.16 0 0 1-3.24-1.58c-1.8-1.81-1.42-5.06-1.38-5.28zM523.4 503.31c1.2-2.4 4.56-3.14 4.78-3.17.1.21 1.31 3.42 0 5.74a6.4 6.4 0 0 1-2.89 2.43 9.82 9.82 0 0 1-1.83.65 9.26 9.26 0 0 1-.45-1.88 6.33 6.33 0 0 1 .39-3.77zm-44.71 44.5a9.39 9.39 0 0 1-1.69.76 6 6 0 0 1-3.59.23c-2.47-.7-3.76-3.72-3.82-3.92.17-.13 3-1.84 5.39-1a6.09 6.09 0 0 1 2.79 2.28 9.84 9.84 0 0 1 .92 1.65zm47.07 154.66a6.15 6.15 0 0 1-2.79 2.28 9.53 9.53 0 0 1-1.75.59 9 9 0 0 1-.41-1.81 6.15 6.15 0 0 1 .48-3.57c1.18-2.27 4.4-2.94 4.61-3 .1.23 1.19 3.32-.14 5.51zm-9.44 26.89 18.44 9 .67 2.66 5.22-9.12 14.83-1.24-16.59 29-14.83 1.25 8.21-14.33-13.27-6.51z"/><path class="cls-2" d="m407.16 566.8-5.5 2.87q-4.9-4.42-10-8.56L409 552z"/><path class="cls-3" d="m363.81 490.31-5.92 9.34-4.78-15.21 6.47-7.57 4.23 13.44z"/><path class="cls-4" d="M308.07 420v.1c0 .24-1.12 10.81-2.07 20.32a8.74 8.74 0 0 1-3.08-2.35l-69 69.87a254.367 254.367 0 0 0-14.38.84l-.81.07c-1.4.13-2.8.26-4.19.41h-.26l71-74.71c-8.09.18-14-2.74-13.22-6.9 0-.05.16-.34.4-.82.6-1.16 1.8-3.43 3.37-6.34s3.45-6.45 5.45-10.12l.08-.11 1.25-2.31 11-13.32c3.73 3.33 9.2 5.86 16.48 6.38-.61 6.28-2.02 18.99-2.02 18.99zm251.62 60.51c3.8-.19 7.61-.53 11.41-1v-30.63l-6.75 1.88A124.44 124.44 0 0 1 459 432.56l-.5-.35c-3.78-2.67-7.49-5.48-11.21-8.31 5.09 10.89 1.58 26-5.32 27.34.29 1.9-.32 2.77-1.83 1.57-3.85-3.06-21.42-17.61-21.42-17.61s-6.93-5.89-9.52-8a33.08 33.08 0 0 1-6.56-7.31c-3-4.59-8.11-12.31-12.91-19.68l.94 11.27s4.89 9.47 13.3 27c6.32 13.17-1.84 31.82-10.34 34.13.29 4.6-1 7.07-2.83 4.37-3.43-5-18.84-28.67-18.84-28.67s-5.42-7.93-8.19-12.1c-.55-.82-1.05-1.65-1.53-2.51q-.56-1-1-2c-.13-.27-.25-.55-.38-.82-.23-.52-.45-1-.66-1.56l-.3-.76c-.28-.76-.55-1.54-.79-2.33-.25-.83-.52-1.76-.81-2.73v-.16c-.42-1.39-.87-2.9-1.35-4.52l-35.14 51.44-.2 1.15h.08c-.23 1.35-.35 2.19-.34 2.28.75 5.23 11.25 6.35 21.29 1.74l-34.69 42.12c2.18.63 4.34 1.3 6.49 2q3.45 1.11 6.84 2.32l31.86-37.27 6.47-7.57 16.83-19.69a25.87 25.87 0 0 0 3.76 6.62c2.59 3.35 20.64 26.34 20.64 26.34 9 10.91 27-10.08 19.39-23.91s-12.12-21.47-12.12-21.47l-.45-8.91c4.48 5.89 9.22 12.06 12 15.72a28.47 28.47 0 0 0 6.24 5.87c3.05 2.11 25.71 17.7 25.71 17.7l.25.17c10 6.92 18-9 12.21-19.9a163.14 163.14 0 0 0 95.62 24.94zm-202-9.76 1.92 6.12-6.47 7.57-1.36-4.35z"/><path class="cls-2" d="m353.11 484.44-1.36-4.35 5.91-9.34 1.92 6.12-6.47 7.57z"/><path class="cls-4" d="M401.65 569.67A241.8 241.8 0 0 1 503.63 817h-32.26a240.88 240.88 0 0 0-69.72-247.33z"/><path class="cls-5" d="M212.57 509.49c-1.07.13-2.15.25-3.21.39 1.06-.14 2.14-.26 3.21-.39zM17 810.43l3.18-.88c.29 1 .56 2 .83 2.93.42 1.49.86 3 1.34 4.52h-3.49c-.36-1.21-.7-2.43-1-3.63-.31-.98-.58-1.96-.86-2.94zm254.85-291.86-.75 1.16.16-1.24zm-81.98 6.88-3.61.83-2 .46 3.48-4.2 3.67-.84-.48-2.23-.33.07-.46.1 6.42-7.74c2.44-.46 4.9-.89 7.37-1.26zm-11.25 11.84c-1.37.4-2.74.81-4.1 1.24l7.22-8.72c1.75-.47 3.5-.92 5.27-1.35z"/><path class="cls-5" d="m264.67 529.73 3.83-6-4.71-.6-6-.45.18-2.29 5.65.43c1.16.12 2.31.27 3.46.42l1.52.2.4-3.28-1.58-.2c-1.16-.15-2.31-.3-3.46-.42l-5.74-.44.17-2.28 6.19.47 8.63 1.1 3.76-5.85a241.82 241.82 0 0 0-36.34-2.73q-3.36 0-6.71.09c-3.22.09-6.42.26-9.61.47l-6.78 6.87c1.13-.11 2.27-.21 3.41-.27h.32l.19 2.27h-.33c-.64.06-1.28.1-1.92.14-1.15.08-2.32.16-3.47.33l-.74.09-3.76 3.81 4.83-.62c1.15-.16 2.32-.24 3.45-.32.63 0 1.25-.08 1.88-.14h.34l.19 2.29h-.35c-3.07.17-6.17.57-9.17 1-.7.09-1.4.19-2.11.27l-1.66.21-7.56 7.7a221.83 221.83 0 0 1 63.6-2.24zm-12.76-15.32-.1 2.29-10.81-.27v3.3l10.68.27-.11 2.29-10.94-.29-12.46.34-.12-2.28h.34c2.3-.09 4.6-.15 6.9-.2l3.44-.09v-3.3l-3.45.08c-2.35.06-4.7.12-7 .21h-.33l-.12-2.29h.34c2.74-.1 5.49-.17 8.23-.23l4-.1h.6zM0 748.5A240.51 240.51 0 0 0 9.91 817h6.61c-1.84-6-3.47-12.19-4.84-18.48l-.07-.33 2.23-.48 1.35 5.85c.35 1.55.72 3.14 1.17 4.69l3.19-.86c-.45-1.52-.8-3.09-1.15-4.61L17.07 797l2.24-.48.07.33c1.51 6.89 3.33 13.65 5.39 20.15h6.68a220.27 220.27 0 0 1 69.93-238.91l-.24-1.15a3.2 3.2 0 0 1 .47-2.41 3.16 3.16 0 0 1 4.39-.85l.51.34a220.4 220.4 0 0 1 46.9-27.63l7.86-10c-1.27.48-2.54 1-3.77 1.47l-3.55 1.4c-2.4 1-4.79 2.07-7.11 3.13-1.32.61-2.65 1.21-4 1.8l-.3.13-1-2.06 9.74-4.4-1.28-3.08-9.88 4.47-1-2.07.32-.14c1.33-.59 2.66-1.2 4-1.8 2.34-1.07 4.75-2.17 7.17-3.16l.32-.13.28-.11 3.22-1.27c2.18-.87 4.42-1.76 6.66-2.57l.32-.11.78 2.15-.32.12c-2.2.79-4.41 1.67-6.55 2.52l-3.24 1.28 1.27 3 3.23-1.27c2.09-.84 4.25-1.7 6.41-2.47l.32-.12.13.38 4.7-6-.56-1.72.32-.11c.73-.24 1.48-.46 2.21-.69l6.71-8.58C74.92 544.36 0 637.67 0 748.5zm10.05-41.73 2.26.4-1 5.68c-.16 1.14-.31 2.3-.45 3.45-.07.53-.13 1.05-.2 1.58l3.27.43c.07-.51.13-1 .19-1.51.15-1.15.29-2.31.46-3.46l1-5.59 2.25.4-1.06 5.93-1.43 11.27-.45 6-2.28-.18.43-5.65c.12-1.15.26-2.28.41-3.4.07-.53.13-1.05.2-1.58l-3.28-.4c-.06.53-.13 1.06-.2 1.59-.15 1.15-.3 2.3-.42 3.45l-.44 5.74-2.31-.19.47-6.18L9 712.89zm102.44-154.46.29-.19 1.86-1.19c2.63-1.7 5.35-3.45 8.14-5l5.08-2.92c1.1-.64 2.25-1.23 3.37-1.79l1.84-.94.3-.16 1 2-.3.16c-.56.3-1.13.58-1.7.87-1 .52-2.09 1.06-3.1 1.63l-4.41 2.54 1.65 2.86 4.34-2.49c1-.57 2-1.1 3-1.61.56-.29 1.13-.57 1.69-.87l.3-.15 1.05 2-.3.15c-.59.32-1.2.62-1.8.93-1.07.54-2.17 1.09-3.22 1.71l-4.93 2.83c-2.66 1.46-5.26 3.13-7.77 4.75l-1.89 1.21-.28.18-1.15-1.82.29-.19 2.57-1.64c2-1.3 4.07-2.64 6.2-3.82l-1.67-2.85c-2.17 1.2-4.28 2.57-6.33 3.89-.86.56-1.72 1.12-2.59 1.66l-.28.18zm-23 20.16L88 570.74l.24-.22c2.49-2.25 5.17-4.34 7.76-6.37l1.35-1.06c2.26-1.85 4.69-3.57 7-5.23l2.42-1.72.28-.2 1.3 1.87-.26.2c-1 .69-1.9 1.36-2.86 2-1.88 1.32-3.82 2.68-5.63 4.16l2 2.62c1.79-1.45 3.69-2.79 5.53-4.08 1-.67 1.89-1.33 2.82-2l.28-.21 1.31 1.88-.27.2-2.39 1.7c-2.25 1.59-4.58 3.24-6.75 5l-1.44 1.12c-2.46 1.93-5 3.92-7.36 6l-.26.23-1.43-1.63.26-.22 1.43-1.24c.85-.75 1.73-1.52 2.64-2.23l3.93-3.08-2-2.61-4 3.15c-.92.71-1.81 1.48-2.67 2.24-.48.42-1 .85-1.46 1.26zm-11.93 15.64-2.35-2.32c-.8.85-1.61 1.69-2.42 2.53-1.59 1.66-3.24 3.37-4.79 5.11l-.22.25-1.7-1.53.22-.25c1.82-2 3.73-4 5.58-5.94l2.81-2.96.25-.23.23-.25 7.91-7.52 1.54 1.69-7.84 7.48 2.34 2.34 7.73-7.37 1.54 1.69-7.92 7.55q-1.48 1.57-3 3.15c-1.76 1.83-3.58 3.73-5.31 5.65l-.22.25-1.7-1.53.22-.25c1.52-1.71 3.14-3.39 4.7-5zM58 610.76l-2.63-2c-1.35 1.77-2.65 3.61-3.91 5.41l-2.22 3.12-.2.26-1.88-1.29 3.9-5.49c1-1.44 2.06-2.92 3.2-4.31l5.43-6.91 2.14-2.48 1.75 1.47-2 2.31-4.82 6.15 2.62 2 4.74-6 2-2.27 1.75 1.47-2.08 2.41-5.26 6.7c-1.07 1.31-2.06 2.71-3 4.06l-3.84 5.4-1.88-1.3.2-.28c.74-1 1.47-2 2.2-3.09a94.52 94.52 0 0 1 3.79-5.34zm-16.4 25-2.87-1.64c-.26.46-.53.92-.8 1.38-.57 1-1.17 2-1.7 3l-2.63 5.13-2-1 2.83-5.52c.62-1.13 1.27-2.25 1.91-3.36l1-1.75 2.92-5.09 3.36-5.23 1.92 1.23-3.1 4.86c-.61 1-1.19 2-1.77 3l-.78 1.37 2.86 1.65.77-1.35c.57-1 1.14-2 1.74-3l3.06-4.78 1.89 1.34-3.21 5-2.87 5c-.33.59-.67 1.17-1 1.75-.61 1.06-1.22 2.11-1.8 3.18l-2.74 5.35-2-1 2.58-5c.54-1 1.13-2 1.7-3 .21-.61.47-1.05.72-1.49zm-14.67 37.71-2.15-.76 1-2.84 2.82-7.15-3.07-1.25-2.86 7.26-1 2.88-2.16-.76.11-.32c.12-.35.24-.7.35-1 .22-.64.43-1.29.68-1.92l3.35-8.5.13-.31.11-.3c.85-2.1 1.8-4.18 2.72-6.2.53-1.16 1.06-2.32 1.58-3.49l.14-.31 2.07 1-.13.3c-.52 1.18-1.06 2.35-1.59 3.52-.91 2-1.84 4-2.68 6.09l3.06 1.26c.82-2 1.74-4 2.63-6q.79-1.73 1.56-3.45l.14-.32 2.07 1-.13.31c-.51 1.15-1 2.3-1.56 3.45-.93 2-1.89 4.12-2.73 6.21L28 670.29c-.23.6-.43 1.22-.64 1.83-.11.34-.23.69-.35 1zM19 702l-2.24-.47.08-.33c.3-1.25.58-2.5.87-3.76.47-2.07 1-4.21 1.48-6.31l-3.2-.83c-.53 2.17-1 4.38-1.53 6.51-.28 1.24-.56 2.48-.85 3.72l-.08.32-2.24-.47.08-.33c.32-1.32.62-2.64.91-4 .56-2.45 1.14-5 1.8-7.46.38-1.32.75-2.63 1.12-4 .67-2.41 1.37-4.91 2.16-7.33l.11-.32 2.18.7-.11.32c-.73 2.22-1.37 4.51-2 6.72-.31 1.12-.62 2.24-.95 3.36l3.19.85c.33-1.11.64-2.23 1-3.35.61-2.17 1.23-4.41 1.95-6.59l.11-.31 2.17.69-.1.32c-.76 2.31-1.42 4.7-2.07 7-.36 1.31-.72 2.61-1.11 3.91-.73 2.44-1.26 4.8-1.73 7.13-.3 1.33-.61 2.66-.92 4zM7.14 767.87l2.27-.19v.33c.06.64.1 1.28.15 1.92.07 1.14.16 2.32.32 3.47l.64 5.05 3.28-.42-.63-5c-.17-1.14-.25-2.31-.32-3.44-.05-.63-.09-1.26-.15-1.89v-.34l2.3-.19v.35c.17 3.08.57 6.19 1 9.21l.27 2.07c.33 3.14.9 6.29 1.45 9.34l.39 2.2-2.25.41-.06-.33c-.16-.94-.33-1.89-.5-2.83-.44-2.41-.89-4.89-1.17-7.38l-3.27.45c.28 2.52.74 5 1.19 7.49l.51 2.88.05.33-2.24.41-.4-2.18c-.57-3.19-1.17-6.48-1.51-9.76l-.27-2.1c-.41-3.13-.82-6.36-1-9.58zm-.87-19v-.67l.28-10.93 2.28.1-.27 10.83h3.31l.27-10.68 2.28.11-.27 10.92.35 12.45-2.29.12v-.34c-.09-2.27-.14-4.54-.19-6.81l-.09-3.54H8.62l.09 3.45c.05 2.35.11 4.7.2 7v.33l-2.28.12V761c-.11-2.74-.17-5.53-.24-8.23 0-1.33-.06-2.65-.1-4zm198.29-238.32c-.2 0-.41.05-.6.09.19-.04.4-.06.6-.09zm109.85 8.84q-3.23-1-6.49-2c2.18.61 4.34 1.31 6.49 2zm-95.68-10.53c-1.4.12-2.8.26-4.19.41 1.39-.15 2.79-.27 4.19-.41zm5.58-.44zM460.72 748.5a220 220 0 0 1-10.88 68.5h6.71c.72-2.22 1.36-4.51 2-6.72.36-1.31.73-2.61 1.11-3.92.62-2.33 1.17-4.73 1.69-7.05.31-1.33.61-2.67.93-4l.07-.32 2.24.47-.08.34c-.29 1.24-.58 2.49-.86 3.73-.48 2.08-1 4.23-1.49 6.34l3.2.83c.53-2.17 1-4.38 1.53-6.52.28-1.24.57-2.48.86-3.72l.07-.32 2.24.47-.06.39c-.32 1.33-.62 2.67-.92 4-.56 2.44-1.13 5-1.78 7.41-.39 1.33-.76 2.65-1.13 4-.43 1.53-.88 3.09-1.34 4.65h6.58a240.88 240.88 0 0 0-69.72-247.33q-4.9-4.42-10-8.56a240.11 240.11 0 0 0-70.35-39.4q-3.39-1.22-6.84-2.32l-4.5 5.15c.62.19 1.24.37 1.85.57l.32.1-.7 2.18-.32-.1c-.91-.3-1.84-.58-2.77-.86l-2.38 2.75c1.38.4 2.76.81 4.13 1.26l.31.1-.69 2.18-.32-.1c-1.68-.55-3.38-1-5.07-1.52l-4.54 5.31c92.8 25.85 160.9 110.98 160.9 212.03zm-92.31-187 1.3-1.89.28.2c1 .75 2.06 1.48 3.1 2.21 1.75 1.24 3.56 2.51 5.29 3.83l2-2.63c-1.76-1.35-3.6-2.65-5.39-3.91-1.05-.74-2.1-1.48-3.14-2.23l-.26-.19 1.29-1.89 5.52 3.93c1.43 1 2.9 2.05 4.27 3.17l6.92 5.44 2.48 2.14-1.47 1.75-2.31-2-6.12-4.81-2 2.61 6 4.74 2.28 2-1.45 1.72-2.41-2.07-6.7-5.26c-1.31-1.07-2.71-2.06-4.06-3zm-27.76-25-1 2.07-.3-.14c-1.17-.51-2.33-1-3.49-1.57-2-.92-4.05-1.85-6.12-2.69l-1.26 3.06c2 .81 4 1.73 6 2.62 1.15.53 2.3 1.06 3.46 1.57l.32.14-1 2.07-.3-.14c-1.15-.5-2.29-1-3.43-1.55-2-.93-4.13-1.89-6.24-2.73h-.09l-8.38-3.31c-.6-.22-1.22-.43-1.83-.63l-1-.35-.32-.11.76-2.16 2.84 1 7.15 2.82 1.25-3.06-7.26-2.86-2.88-1 .76-2.16.32.11 1.05.35c.64.22 1.29.43 1.92.67l8.45 3.33.31.12.29.12c2.1.85 4.18 1.8 6.2 2.72l3.49 1.58zm21.55 11.56 5.23 3.35-1.24 1.93-4.85-3.11c-1-.61-2-1.19-3-1.78l-1.34-.75-1.65 2.86 1.36.79c1 .56 2 1.13 3 1.72l4.78 3.07-1.24 1.92-5.07-3.25-4.99-2.81-1.81-1c-1-.6-2.07-1.2-3.12-1.78l-5.36-2.74 1-2L349 547c1 .53 2 1.12 3 1.69l1.34.77 1.64-2.87c-.47-.26-.93-.53-1.39-.8-1-.57-2-1.16-3-1.7l-5.13-2.62 1-2 5.52 2.83c1.13.62 2.23 1.25 3.34 1.89l1.77 1zm51.95 42.86-1.7 1.54-7.45-7.82-2.36 2.36 7.36 7.7-1.69 1.55-7.55-7.92-3.14-3c-1.84-1.77-3.74-3.59-5.66-5.32l-.25-.23 1.52-1.7.25.23c1.72 1.52 3.4 3.13 5 4.7l2.52 2.4 2.32-2.36c-.84-.79-1.68-1.59-2.51-2.4-1.67-1.59-3.38-3.24-5.13-4.8l-.26-.23 1.54-1.7.25.23c2 1.81 4 3.72 5.93 5.57 1 .94 2 1.88 2.95 2.81l.23.25.25.22zm19.05 24-1.87 1.31-.2-.26c-.69-1-1.36-1.91-2-2.86-1.32-1.88-2.69-3.82-4.16-5.64l-2.62 2c1.45 1.78 2.79 3.68 4.08 5.53.67.94 1.33 1.89 2 2.82l.21.28-1.88 1.31-.2-.27c-.57-.79-1.13-1.59-1.69-2.38-1.6-2.26-3.25-4.59-5-6.76l-1.1-1.41c-1.94-2.47-3.93-5-6.07-7.39l-.23-.26 1.74-1.5.22.26c.41.49.83 1 1.25 1.44.74.85 1.51 1.72 2.21 2.64l3.09 3.93 2.61-2-3.15-4c-.71-.92-1.49-1.81-2.25-2.67-.42-.48-.84-1-1.25-1.45l-.22-.26 1.73-1.48.22.25c2.23 2.47 4.31 5.13 6.32 7.7l1.1 1.4c1.86 2.26 3.57 4.69 5.23 7l1.73 2.43zm15.8 26.3-2 1-.16-.29q-.45-.86-.87-1.71c-.52-1-1.06-2.08-1.63-3.09l-2.54-4.41-2.86 1.65 2.49 4.33c.58 1 1.1 2.06 1.62 3.07.28.56.56 1.12.85 1.67l.16.3-2 1.06-.15-.3c-.32-.6-.62-1.2-.93-1.8-.54-1.07-1.09-2.18-1.71-3.22l-2.84-4.93c-1.46-2.67-3.13-5.27-4.75-7.78-.4-.63-.8-1.26-1.21-1.89l-.17-.28 1.91-1.25.19.29c.54.87 1.09 1.72 1.65 2.58 1.29 2 2.63 4.07 3.81 6.2l2.85-1.67c-1.2-2.17-2.57-4.28-3.89-6.32-.56-.87-1.12-1.73-1.66-2.6l-.18-.28 1.91-1.25.19.29q.59.93 1.2 1.86c1.69 2.63 3.44 5.35 5 8.14l2.92 5.08c.64 1.09 1.23 2.25 1.79 3.36.31.62.62 1.23.94 1.84zm12.27 28.1-2.15.77-.12-.31c-.79-2.22-1.68-4.44-2.53-6.59-.43-1.06-.85-2.13-1.27-3.2l-3.05 1.27c.42 1.08.85 2.15 1.27 3.23.84 2.09 1.7 4.25 2.47 6.41l.12.31-2.16.78-.11-.32c-.76-2.12-1.61-4.25-2.43-6.31-.47-1.18-.94-2.36-1.4-3.55-1-2.39-2.07-4.79-3.13-7.11-.61-1.32-1.21-2.64-1.8-4l-.13-.3 2.06-1 4.4 9.73 3.05-1.28-4.47-9.85 2.07-1 .14.31c.59 1.34 1.2 2.67 1.81 4 1.06 2.33 2.16 4.74 3.15 7.16l.13.33.11.27c.42 1.08.84 2.15 1.27 3.22.86 2.18 1.76 4.43 2.56 6.67zm13.46 90.45-2.29-.11.27-10.83h-3.3l-.27 10.68-2.29-.1.28-10.92-.34-12.49 2.28-.12v.34c.09 2.26.14 4.53.2 6.8q0 1.77.09 3.54h3.3l-.09-3.46c-.05-2.35-.11-4.7-.2-7.05v-.33l2.29-.12v.4c.1 2.75.17 5.49.23 8.24 0 1.32.07 2.65.1 4v.67zm-11.26 29.07 1.06-5.93 1.47-11.26.45-6 2.28.17-.42 5.66c-.12 1.14-.27 2.27-.42 3.4-.06.52-.13 1.05-.2 1.57l3.28.41c.07-.53.13-1.06.2-1.59.15-1.15.3-2.3.42-3.46l.44-5.73 2.28.17-.47 6.18-1.48 11.66-1.09 6.12-2.25-.4 1-5.67c.17-1.15.31-2.31.46-3.47.06-.52.13-1 .19-1.56l-3.27-.43c-.07.52-.13 1-.2 1.56-.14 1.14-.28 2.27-.45 3.4l-1 5.59zm-.27-82.22 2.25-.42.06.34c.16.94.33 1.88.5 2.82.44 2.41.89 4.9 1.17 7.38l3.27-.45c-.28-2.52-.74-5.06-1.19-7.52l-.51-2.84-.05-.33 2.25-.42.39 2.18c.57 3.19 1.17 6.48 1.52 9.76l.26 2.1c.41 3.13.83 6.37 1 9.58v.33l-2.27.19v-.34c-.06-.64-.1-1.28-.14-1.92-.08-1.14-.16-2.32-.33-3.46l-.64-5.06-3.28.43.64 5c.16 1.14.24 2.31.32 3.45 0 .62.08 1.25.14 1.87v.34l-2.29.19v-.34c-.17-3.07-.57-6.17-1-9.17l-.26-2.11c-.34-3.14-.91-6.29-1.46-9.34zm-7.2-28.37-.1-.32 2.16-.71.12.31c.83 2.29 1.5 4.68 2.14 7 .27 1 .54 2 .83 2.93l3.18-.87c-.28-1-.56-2-.83-3-.66-2.35-1.33-4.77-2.18-7.1l-.12-.32 2.19-.72.11.32a232.45 232.45 0 0 1 6.14 22.67l.07.33-2.23.49-1.36-5.9c-.35-1.53-.71-3.11-1.16-4.64l-3.19.85c.44 1.5.79 3 1.14 4.54l1.34 5.85-2.24.49-.07-.33a224.4 224.4 0 0 0-5.94-21.87zM292.18 513.41q7.76 1.7 15.32 3.87-3.35-1-6.75-1.85l-4.45 5.41-3.18-.74-4-.92-.33-.08-.47 2.24.31.07 3.64.84 2.42.56-2.34 2.85-.72-.17-3.66-.84-.33-.08-.48 2.24.32.07 3.24.75-4.54 5.51q-3.27-.69-6.57-1.29z"/><path class="cls-5" d="m461.54 808 3.19.86c-.32 1.11-.64 2.23-1 3.35-.44 1.57-.9 3.17-1.38 4.76h-3.46c.6-1.88 1.14-3.79 1.66-5.66.36-1.07.67-2.17.99-3.31z"/><path class="cls-6" d="M294.67 522.81c1.4.32 2.79.65 4.18 1L298 527c-1.89-.46-3.8-.9-5.68-1.33l2.34-2.85zm5.86-.93c-1.4-.37-2.81-.71-4.22-1l4.45-5.41q3.4.87 6.75 1.85l.38.11q3.27 1 6.49 2L310 524.6c-1.83-.56-3.66-1.09-5.46-1.59-1.36-.37-2.69-.74-4.01-1.13zm5.47 7.36-1.69-.47-.8-.23-3.32-.94.3-1.11.55-2.08 3.36 1c1.3.36 2.63.74 3.95 1.13l-2.35 2.7zm-12.63 5.55-.69-.17c-2.15-.52-4.32-1-6.5-1.47l4.54-5.51.75.17 3.53.82c1.18.28 2.36.57 3.53.88l3.21.91.71.2 1.92.55-4.54 5.31c-2.16-.6-4.31-1.16-6.46-1.69zM211.45 516h-.08l-2.1.27c-3.28.35-6.58 1-9.76 1.52l-2.18.39.2 1.13.21 1.12h.33l1.42-.26 1.43-.25 1.24-.22c2.07-.37 4.17-.74 6.28-1l.22 1.63.23 1.64c-1.25.14-2.49.32-3.72.52s-2.46.43-3.66.65l-2.83.5-.33.06.41 2.25 2.22-.4c2.5-.45 5.07-.91 7.64-1.24l-7.55 7.69c-1.88.35-3.75.71-5.61 1.1l-.36.08c-1.78.37-3.55.77-5.31 1.18h-.19q-5.55 1.32-11 2.91l8.39-8.83q2.63-.65 5.28-1.22l.33-.07-.49-2.24-2.26.52L204 510.64c.19 0 .4-.06.6-.09 1.59-.24 3.19-.46 4.8-.67 1.06-.14 2.14-.26 3.21-.39l1.71-.2h.26c1.39-.15 2.79-.29 4.19-.41l.81-.07c1.59-.14 3.17-.26 4.77-.37l-6.78 6.87c-2.08.18-4.12.44-6.12.69z"/><path class="cls-6" d="m211.06 521.31-.37-2.9 4.31-.55-3.76 3.81-.13.01-.05-.37z"/><path class="cls-7" d="m189.87 525.45 2.26-.52.49 2.24-.49-2.24-2.25.52-2.87 3q2.63-.65 5.28-1.22l.33-.07-.33.07q-2.65.57-5.28 1.22c-1.77.43-3.52.88-5.27 1.35l2.54-3.07 2-.46zm1.13-5.98.48 2.23-3.67.84 2.4-2.9.46-.1zm-23.37 6.32.32-.11c.73-.24 1.48-.46 2.21-.69l-2 2.52z"/><path class="cls-6" d="M178.62 537.29q5.43-1.59 11-2.91-5.62 1.32-11 2.91zm-65.06 41.48-6.11-4.12-.94-.63a220.4 220.4 0 0 1 46.9-27.63l-11.15 14.25a212 212 0 0 0-28.7 18.13zm-93 169.73a219.62 219.62 0 0 1 80.82-170.41l.52 2.51a31 31 0 0 1 .61 7A212.3 212.3 0 0 0 39.93 817h-8.48a219.73 219.73 0 0 1-10.89-68.5z"/><path class="cls-6" d="m166.87 549.65-2.26.86 9.94-12c1.36-.43 2.73-.84 4.1-1.24zm-58.07 26.23-3.57 9.47h-.01l3.57-9.47h.01zm170.79-44.03q3.3.6 6.57 1.29l-5.81 7.06q-2.88-.54-5.78-1zm-88.8 10.53L201.07 532a221.83 221.83 0 0 1 63.6-2.24l-4.9 7.61q-9.45-.86-19.13-.87a212.72 212.72 0 0 0-49.85 5.88zm103.21.87 5.8-6.78c92.81 25.85 160.91 111 160.91 212A220 220 0 0 1 449.84 817h-8.49a211.81 211.81 0 0 0 11.32-68.5c0-98.67-67.4-181.58-158.67-205.25zm-7.82-10.1c2.18.45 4.35 1 6.5 1.47-2.15-.52-4.32-1.02-6.5-1.47zm13.62 3.32zm-110.02-2.14zm11.28-2.33c-1.88.35-3.75.71-5.61 1.1 1.86-.42 3.73-.78 5.61-1.1z"/><path class="cls-7" d="M11.29 712.85c-.16 1.14-.31 2.3-.45 3.45-.07.53-.13 1.05-.2 1.58l3.27.43c.07-.51.13-1 .19-1.51.15-1.15.29-2.31.46-3.46l1-5.59 2.25.4-1.06 5.93-1.43 11.27-.45 6-2.28-.18.43-5.65c.12-1.15.26-2.28.41-3.4.07-.53.13-1.05.2-1.58l-3.28-.4c-.06.53-.13 1.06-.2 1.59-.15 1.15-.3 2.3-.42 3.45l-.44 5.74-2.29-.19.47-6.18L9 712.89l1.09-6.12 2.26.4zm5.5-11.66c.3-1.25.58-2.5.87-3.76.47-2.07 1-4.21 1.48-6.31l-3.2-.83c-.53 2.17-1 4.38-1.53 6.51-.28 1.24-.56 2.48-.85 3.72l-.08.32-2.24-.47.08-.33c.32-1.32.62-2.64.91-4 .56-2.45 1.14-5 1.8-7.46.38-1.32.75-2.63 1.12-4 .67-2.41 1.37-4.91 2.16-7.33l.11-.32 2.18.7-.11.32c-.73 2.22-1.37 4.51-2 6.72-.31 1.12-.62 2.24-.95 3.36l3.19.85c.33-1.11.64-2.23 1-3.35.61-2.17 1.23-4.41 1.95-6.59l.11-.31 2.17.69-.1.32c-.76 2.31-1.42 4.7-2.07 7-.36 1.31-.72 2.61-1.11 3.91-.68 2.45-1.21 4.81-1.68 7.14-.3 1.33-.61 2.66-.92 4L19 702l-2.24-.47zm8.95-31.32 2.82-7.15-3.07-1.25-2.86 7.26-1 2.88-2.16-.76.11-.32c.12-.35.24-.7.35-1 .22-.64.43-1.29.68-1.92l3.39-8.5.13-.31.11-.3c.85-2.1 1.8-4.18 2.72-6.2.53-1.16 1.06-2.32 1.58-3.49l.14-.31 2.07 1-.13.3c-.52 1.18-1.06 2.35-1.59 3.52-.91 2-1.84 4-2.68 6.09l3.06 1.26c.82-2 1.74-4 2.63-6q.79-1.73 1.56-3.45l.14-.32 2.07 1-.13.31c-.51 1.15-1 2.3-1.56 3.45-.93 2-1.89 4.12-2.73 6.21L28 670.29c-.23.6-.43 1.22-.64 1.83-.11.34-.23.69-.35 1l-.11.32-2.15-.76zm12.18-34.34c-.57 1-1.17 2-1.7 3l-2.63 5.13-2-1 2.83-5.52c.62-1.13 1.27-2.25 1.91-3.36l1-1.75 2.92-5.09 3.36-5.23 1.92 1.23-3.1 4.86c-.61 1-1.19 2-1.77 3l-.78 1.37 2.86 1.65.77-1.35c.57-1 1.14-2 1.74-3l3.06-4.78 1.9 1.31-3.21 5-2.87 5c-.33.59-.67 1.17-1 1.75-.61 1.06-1.22 2.11-1.8 3.18l-2.74 5.35-2-1 2.58-5c.54-1 1.13-2 1.7-3 .26-.44.52-.88.77-1.32l-2.87-1.64c-.31.29-.58.75-.85 1.21zm13.53-21.35-2.22 3.12-.2.26-1.88-1.29 3.9-5.49c1-1.44 2.06-2.92 3.2-4.31l5.43-6.91 2.14-2.48 1.75 1.47-2 2.31-4.81 6.14 2.62 2 4.74-6 2-2.27 1.75 1.47-2.08 2.41-5.26 6.7c-1.07 1.31-2.06 2.71-3 4.06l-3.84 5.4-1.88-1.3.2-.28c.74-1 1.47-2 2.2-3.09 1.23-1.75 2.51-3.56 3.83-5.3l-2.63-2c-1.41 1.74-2.7 3.58-3.96 5.38zm21.34-25.86c-1.59 1.66-3.24 3.37-4.79 5.11l-.22.25-1.7-1.53.22-.25c1.82-2 3.73-4 5.58-5.94l2.81-2.96.25-.23.23-.25 7.91-7.52 1.54 1.69-7.84 7.48 2.34 2.34 7.73-7.37 1.54 1.69-7.92 7.55q-1.48 1.57-3 3.15c-1.76 1.83-3.58 3.73-5.31 5.65l-.22.25-1.7-1.53.22-.25c1.52-1.71 3.14-3.39 4.7-5l2.4-2.52-2.35-2.32-2.42 2.51zm15.46-17.8c2.49-2.25 5.17-4.34 7.76-6.37l1.35-1.06c2.26-1.85 4.69-3.57 7-5.23l2.42-1.72.28-.2 1.3 1.87-.26.2c-1 .69-1.9 1.36-2.86 2-1.88 1.32-3.82 2.68-5.63 4.16l2 2.62c1.79-1.45 3.69-2.79 5.53-4.08 1-.67 1.89-1.33 2.82-2l.28-.21 1.31 1.88-.27.2-2.39 1.7c-2.25 1.59-4.58 3.24-6.75 5l-1.44 1.12c-2.46 1.93-5 3.92-7.36 6l-.26.23-1.44-1.63.26-.22 1.43-1.24c.85-.75 1.73-1.52 2.64-2.23l3.93-3.08-2-2.61-4 3.15c-.92.71-1.81 1.48-2.67 2.24-.48.42-1 .85-1.46 1.26l-.25.22-1.52-1.75zm26.39-19.59c2.63-1.7 5.35-3.45 8.14-5l5.08-2.92c1.1-.64 2.25-1.23 3.37-1.79l1.84-.94.3-.16 1 2-.3.16c-.56.3-1.13.58-1.7.87-1 .52-2.09 1.06-3.1 1.63l-4.41 2.54 1.65 2.86 4.34-2.49c1-.57 2-1.1 3-1.61.56-.29 1.13-.57 1.69-.87l.3-.15 1.05 2-.3.15c-.59.32-1.2.62-1.8.93-1.07.54-2.17 1.09-3.22 1.71l-4.93 2.83c-2.66 1.46-5.26 3.13-7.77 4.75l-1.89 1.21-.28.18-1.15-1.82.29-.19 2.57-1.64c2-1.3 4.07-2.64 6.2-3.82l-1.67-2.85c-2.17 1.2-4.28 2.57-6.33 3.89-.86.56-1.72 1.12-2.59 1.66l-.28.18-1.25-1.91.29-.19zm42.86-13.1-3.55 1.4c-2.4 1-4.79 2.07-7.11 3.13-1.32.61-2.65 1.21-4 1.8l-.3.13-1-2.06 9.74-4.4-1.28-3.05-9.88 4.47-1-2.07.32-.14c1.33-.59 2.66-1.2 4-1.8 2.34-1.07 4.75-2.17 7.17-3.16l.32-.13.28-.11 3.22-1.27c2.18-.87 4.42-1.76 6.66-2.57l.32-.11.78 2.15-.32.12c-2.2.79-4.41 1.67-6.55 2.52l-3.24 1.28 1.27 3 3.23-1.27c2.09-.84 4.25-1.7 6.41-2.47l.32-.12.13.38-2.22 2.85c-1.22.51-2.49 1.01-3.72 1.5zm53.61-16.15-.05-.37.05.37h.13l4.83-.62c1.15-.16 2.32-.24 3.45-.32.63 0 1.25-.08 1.88-.14h.34l.19 2.29h-.35c-3.07.17-6.17.57-9.17 1-.7.09-1.4.19-2.11.27l-1.66.21 2.6-2.63zm.34-5.68c2-.25 4-.51 6.09-.71 1.13-.11 2.27-.21 3.41-.27h.32l.19 2.27h-.33c-.64.06-1.28.1-1.92.14-1.15.08-2.32.16-3.47.33l-.74.09 2.54-2.57c-2.05.21-4.09.47-6.09.72zm-11.96 4.13-1.42.26h-.16.16zm-2.16-1.94.2 1.13-.2-1.13zm11.11.5.22 1.63-.22-1.63c-2.11.23-4.21.6-6.28 1 2.07-.4 4.17-.77 6.28-1zm-3.27 3.79zm-6.41 3.46-.41-2.25.41 2.25zm2.24-.4-2.22.4 2.22-.4z"/><path class="cls-8" d="m201 525.54-2.22.4-.41-2.25.33-.06 2.83-.5c1.2-.22 2.42-.44 3.66-.65s2.47-.38 3.72-.52l-.23-1.64-.22-1.63c-2.11.23-4.21.6-6.28 1l-1.24.22-1.43.25-1.42.26h-.33l-.21-1.12-.2-1.13 2.18-.39c3.18-.57 6.48-1.17 9.76-1.52l2.1-.27h.08c2-.25 4-.51 6.09-.71l-2.56 2.58-4.31.55.37 2.9.05.37h.13l-2.6 2.63c-2.57.33-5.14.79-7.64 1.24zm-14 2.92 2.87-3 2.25-.52.49 2.24-.33.07q-2.64.56-5.28 1.21z"/><path class="cls-7" d="M241 516.43v3.3l10.68.27-.11 2.29-10.94-.29-12.46.34-.12-2.28h.34c2.3-.09 4.6-.15 6.9-.2l3.44-.09v-3.3l-3.45.08c-2.35.06-4.7.12-7 .21h-.33l-.12-2.29h.34c2.74-.1 5.49-.17 8.23-.23l4-.1h.6l10.93.27-.1 2.29zm16.8 6.3.18-2.29 5.65.43c1.16.12 2.31.27 3.46.42l1.52.2.4-3.28-1.58-.2c-1.16-.15-2.31-.3-3.46-.42l-5.74-.44.17-2.28 6.19.47 8.63 1.1-1.37 2.13-.59-.08-.16 1.24-2.6 4-4.71-.6zm29.34 4.08.48-2.24.33.08 3.66.84.72.17-1.63 2 .75.17 3.53.82-3.53-.82-.75-.17-3.24-.75zm11.71-3.01-.83 3.2.83-3.2zm-4.18-.99-2.42-.56-3.64-.84-.31-.07.47-2.24.33.08 4 .92 3.18.74zm6.36 1.6-.55 2.08.55-2.08zm-8.69 1.25zm16 .83 1.66-1.89c-1.83-.56-3.66-1.09-5.46-1.59-1.32-.37-2.65-.74-4-1.13s-2.81-.71-4.22-1c1.41.33 2.82.67 4.22 1s2.65.76 4 1.13c1.8.5 3.63 1 5.46 1.59.62.19 1.24.37 1.85.57l.32.1-.7 2.18-.32-.1c-.91-.3-1.84-.58-2.77-.86zm-8.16 1.11 3.32.94.8.23-.8-.23zm1.54 2.81.71.2 1.92.55 1.64-1.92c1.38.4 2.76.81 4.13 1.26l.31.1-.69 2.18-.32-.1c-1.68-.55-3.38-1-5.07-1.52l-1.92-.55zm37.66 8.04c-1.17-.51-2.33-1-3.49-1.57-2-.92-4.05-1.85-6.12-2.69l-1.26 3.06c2 .81 4 1.73 6 2.62 1.15.53 2.3 1.06 3.46 1.57l.32.14-1 2.07-.3-.14c-1.15-.5-2.29-1-3.43-1.55-2-.93-4.13-1.89-6.24-2.73h-.09l-8.38-3.31c-.6-.22-1.22-.43-1.83-.63l-1-.35-.32-.11.76-2.16 2.84 1 7.15 2.82 1.25-3.06-7.26-2.86-2.88-1 .76-2.16.32.11 1.05.35c.64.22 1.29.43 1.92.67l8.45 3.33.31.12.29.12c2.1.85 4.18 1.8 6.2 2.72l3.49 1.58.31.14-1 2.07zm28.05 12.98-1.24 1.93-4.85-3.11c-1-.61-2-1.19-3-1.78l-1.34-.77-1.65 2.86 1.36.79c1 .56 2 1.13 3 1.72l4.78 3.07-1.24 1.92-5.07-3.25-4.99-2.81-1.81-1c-1-.6-2.07-1.2-3.12-1.78l-5.36-2.74 1-2L349 547c1 .53 2 1.12 3 1.69l1.34.77 1.64-2.87c-.47-.26-.93-.53-1.39-.8-1-.57-2-1.16-3-1.7l-5.13-2.62 1-2 5.52 2.83c1.13.62 2.23 1.25 3.34 1.89l1.77 1 5.09 2.93zm2.57 8.38c1 .75 2.06 1.48 3.1 2.21 1.75 1.24 3.56 2.51 5.29 3.83l2-2.63c-1.76-1.35-3.6-2.65-5.39-3.91-1.05-.74-2.1-1.48-3.14-2.23l-.26-.19 1.29-1.89 5.52 3.93c1.43 1 2.9 2.05 4.27 3.17l6.92 5.44 2.48 2.14-1.47 1.75-2.31-2-6.12-4.81-2 2.61 6 4.74 2.28 2-1.46 1.72-2.41-2.07-6.7-5.26c-1.31-1.07-2.71-2.06-4.06-3l-5.4-3.84 1.3-1.89zm35 24.83-2.36 2.36 7.36 7.7-1.69 1.55-7.55-7.92-3.14-3c-1.84-1.77-3.74-3.59-5.66-5.32l-.25-.23 1.52-1.7.25.23c1.72 1.52 3.4 3.13 5 4.7l2.52 2.4 2.32-2.36c-.84-.79-1.68-1.59-2.51-2.4-1.67-1.59-3.38-3.24-5.13-4.8l-.26-.23 1.54-1.7.25.23c2 1.81 4 3.72 5.93 5.57 1 .94 2 1.88 2.95 2.81l.23.25.25.22 7.55 7.92-1.7 1.54zM431.13 616c-.69-1-1.36-1.91-2-2.86-1.32-1.88-2.69-3.82-4.16-5.64l-2.62 2c1.45 1.78 2.79 3.68 4.08 5.53.67.94 1.33 1.89 2 2.82l.21.28-1.88 1.31-.2-.27c-.57-.79-1.13-1.59-1.69-2.38-1.6-2.26-3.25-4.59-5-6.76l-1.1-1.41c-1.94-2.47-3.93-5-6.07-7.39l-.23-.26 1.74-1.5.22.26c.41.49.83 1 1.25 1.44.74.85 1.51 1.72 2.21 2.64l3.09 3.93 2.61-2-3.15-4c-.71-.92-1.49-1.81-2.25-2.67-.42-.48-.84-1-1.25-1.45l-.22-.26 1.73-1.48.22.25c2.23 2.47 4.31 5.13 6.32 7.7l1.1 1.4c1.86 2.26 3.57 4.69 5.23 7l1.73 2.43.2.27-1.87 1.31zm15.68 26q-.45-.86-.87-1.71c-.52-1-1.06-2.08-1.63-3.09l-2.54-4.41-2.86 1.65 2.49 4.33c.58 1 1.1 2.06 1.62 3.07.28.56.56 1.12.85 1.67l.16.3-2 1.06-.15-.3c-.32-.6-.62-1.2-.93-1.8-.54-1.07-1.09-2.18-1.71-3.22l-2.84-4.93c-1.46-2.67-3.13-5.27-4.75-7.78-.4-.63-.8-1.26-1.21-1.89l-.17-.28 1.91-1.25.19.29c.54.87 1.09 1.72 1.65 2.58 1.29 2 2.63 4.07 3.81 6.2l2.85-1.67c-1.2-2.17-2.57-4.28-3.89-6.32-.56-.87-1.12-1.73-1.66-2.6l-.18-.28 1.91-1.25.19.29q.59.93 1.2 1.86c1.69 2.63 3.44 5.35 5 8.14l2.92 5.08c.64 1.09 1.23 2.25 1.79 3.36.31.62.62 1.23.94 1.84l.16.3-2 1zM459 669.78c-.79-2.22-1.68-4.44-2.53-6.59-.43-1.06-.85-2.13-1.27-3.2l-3.05 1.27c.42 1.08.85 2.15 1.27 3.23.84 2.09 1.7 4.25 2.47 6.41l.12.31-2.16.78-.11-.32c-.76-2.12-1.61-4.25-2.43-6.31-.47-1.18-.94-2.36-1.4-3.55-1-2.39-2.07-4.79-3.13-7.11-.61-1.32-1.21-2.64-1.8-4l-.13-.3 2.06-1 4.4 9.73 3.05-1.28-4.47-9.85 2.07-1 .14.31c.59 1.34 1.2 2.67 1.81 4 1.06 2.33 2.16 4.74 3.15 7.16l.13.33.11.27c.42 1.08.84 2.15 1.27 3.22.86 2.18 1.76 4.43 2.56 6.67l.12.32-2.15.77zm-3.14 8.15 2.16-.71.12.31c.83 2.29 1.5 4.68 2.14 7 .27 1 .54 2 .83 2.93l3.18-.87c-.28-1-.56-2-.83-3-.66-2.35-1.33-4.77-2.18-7.1l-.12-.32 2.19-.72.11.32a232.45 232.45 0 0 1 6.14 22.67l.07.33-2.23.49-1.36-5.9c-.35-1.53-.71-3.11-1.16-4.64l-3.19.85c.44 1.5.79 3 1.14 4.54l1.34 5.85-2.24.49-.07-.33a224.4 224.4 0 0 0-5.94-21.9zm9.65 28.61c.16.94.33 1.88.5 2.82.44 2.41.89 4.9 1.17 7.38l3.27-.45c-.28-2.52-.74-5.06-1.19-7.52l-.51-2.84-.05-.33 2.25-.42.39 2.18c.57 3.19 1.17 6.48 1.52 9.76l.26 2.1c.41 3.13.83 6.37 1 9.58v.33l-2.27.19v-.34c-.06-.64-.1-1.28-.14-1.92-.08-1.14-.16-2.32-.33-3.46l-.64-5.06-3.28.43.64 5c.16 1.14.24 2.31.32 3.45 0 .62.08 1.25.14 1.87v.34l-2.29.19v-.34c-.17-3.07-.57-6.17-1-9.17l-.26-2.11c-.34-3.14-.91-6.29-1.46-9.34l-.39-2.2 2.25-.42zm7.2 42.29h-3.3l-.27 10.68-2.29-.1.28-10.92-.34-12.49 2.28-.12v.34c.09 2.26.14 4.53.2 6.8q0 1.77.09 3.54h3.3l-.09-3.46c-.05-2.35-.11-4.7-.2-7.05v-.33l2.29-.12v.4c.1 2.75.17 5.49.23 8.24 0 1.32.07 2.65.1 4v.67l-.27 10.94-2.29-.11zM466 771.65l.45-6 2.28.17-.42 5.66c-.12 1.14-.27 2.27-.42 3.4-.06.52-.13 1.05-.2 1.57l3.28.41c.07-.53.13-1.06.2-1.59.15-1.15.3-2.3.42-3.46l.44-5.73 2.28.17-.47 6.18-1.48 11.66-1.09 6.12-2.25-.4 1-5.67c.17-1.15.31-2.31.46-3.47.06-.52.13-1 .19-1.56l-3.27-.43c-.07.52-.13 1-.2 1.56-.14 1.14-.28 2.27-.45 3.4l-1 5.59-2.25-.4 1.06-5.93zm-6.36 34.71c.62-2.33 1.17-4.73 1.69-7.05.31-1.33.61-2.67.93-4l.07-.32 2.24.47-.08.34c-.29 1.24-.58 2.49-.86 3.73-.48 2.08-1 4.23-1.49 6.34l3.2.83c.53-2.17 1-4.38 1.53-6.52.28-1.24.57-2.48.86-3.72l.07-.32 2.24.47-.04.39c-.32 1.33-.62 2.67-.92 4-.56 2.44-1.13 5-1.78 7.41-.39 1.33-.76 2.65-1.13 4-.43 1.53-.88 3.09-1.34 4.65h-2.43c.48-1.59.94-3.19 1.38-4.76.31-1.12.63-2.24 1-3.35l-3.19-.86c-.32 1.11-.63 2.21-.94 3.31-.52 1.87-1.06 3.78-1.66 5.66h-2.39c.72-2.22 1.36-4.51 2-6.72.29-1.34.66-2.67 1.04-3.98zm-448.03-8.17 2.23-.48 1.35 5.85c.35 1.55.72 3.14 1.17 4.69l3.19-.86c-.45-1.52-.8-3.09-1.15-4.61L17.07 797l2.24-.48.07.33c1.51 6.89 3.33 13.65 5.39 20.15h-2.43c-.48-1.51-.92-3-1.34-4.52-.27-1-.54-2-.83-2.93l-3.18.88c.29 1 .56 2 .83 2.94.34 1.2.68 2.42 1 3.63h-2.3c-1.84-6-3.47-12.19-4.84-18.48zM9.44 768c.06.64.1 1.28.15 1.92.07 1.14.16 2.32.32 3.47l.64 5.05 3.28-.42-.63-5c-.17-1.14-.25-2.31-.32-3.44-.05-.63-.09-1.26-.15-1.89v-.34l2.3-.19v.35c.17 3.08.57 6.19 1 9.21l.27 2.07c.33 3.14.9 6.29 1.45 9.34l.39 2.2-2.25.41-.06-.33c-.16-.94-.33-1.89-.5-2.83-.44-2.41-.89-4.89-1.17-7.38l-3.27.45c.28 2.52.74 5 1.19 7.49l.51 2.88.05.33-2.24.41-.4-2.18c-.57-3.19-1.17-6.48-1.51-9.76l-.27-2.1c-.41-3.13-.82-6.36-1-9.58v-.32l2.27-.19zm-3.17-19.84.28-10.93 2.28.1-.27 10.83h3.31l.27-10.68 2.28.11-.27 10.92.35 12.49-2.29.12v-.34c-.09-2.27-.14-4.54-.19-6.81l-.09-3.54H8.62l.09 3.45c.05 2.35.11 4.7.2 7v.33l-2.28.12V761c-.11-2.74-.17-5.53-.24-8.23 0-1.33-.06-2.65-.1-4v-.67z"/><path class="cls-9" d="m166.84 549.68-12.07 12.7 9.81-11.84 2.26-.86zM161.12 763a80.53 80.53 0 0 0 4.88 16.51l-12.69 7.32a21.15 21.15 0 0 0 4.2-8.47zm-22.75-167.52 52.42-53.1a212.72 212.72 0 0 1 49.85-5.91q9.68 0 19.13.87l-39.06 60.72L197 635l-10.61-7.14zm141.98-55.28-37.91 46 32.13-47q2.9.47 5.78 1z"/><path class="cls-9" d="M102.51 587.65a30.82 30.82 0 0 1-2 10.11l4.68-12.41-10.93 29a21.17 21.17 0 0 0-1.26 9.22l-13.76 17.62a2 2 0 0 0 .32 2.8l3 2.44a2 2 0 0 0 2.81-.28L95.48 634l3.76 13.81a47.42 47.42 0 0 0 19.25 26.85 47.45 47.45 0 0 0 32.12 7.75l17.14-2.06L155 700.18a2 2 0 0 0 .58 2.76l3.25 2.16a2 2 0 0 0 2.77-.55l19.12-28 .47-.33.32-.23a21.16 21.16 0 0 0 2-1.58l30.21-27.9-17.21 15.89a30.87 30.87 0 0 1 15.41-7.7l3.67-.68a3.1 3.1 0 0 0 2-1.34 3.17 3.17 0 0 0-.85-4.39l-2.89-1.94-5.08-3.42L294 543.25c91.26 23.67 158.66 106.58 158.66 205.25a211.81 211.81 0 0 1-11.31 68.5h-20.62a21 21 0 0 0-.53-12.12l-6.95-20a47.45 47.45 0 0 0-21.06-25.45c-.31-.18-.64-.35-1-.52h52.91a3.16 3.16 0 0 0 2.21-5.42l-2.67-2.61a31 31 0 0 1-8.48-15l5.39 22.75-9.47-40a21.11 21.11 0 0 0-6.78-11.15l-16-13.82a47.38 47.38 0 0 0-31-11.52h-1.09l14.06-8.12 23.13-13.36 5.61-3.23 3-1.75a3.15 3.15 0 0 0 1.16-4.31 3.18 3.18 0 0 0-1.95-1.49l-3.62-.92a31 31 0 0 1-14.84-8.75l16.05 17-28.22-29.92a21.09 21.09 0 0 0-11.43-6.26l-20.78-4a47.43 47.43 0 0 0-32.58 5.51c-.32.18-.62.38-.94.57l26-45 .46-.8a3.16 3.16 0 0 0-3.59-4.62l-3.6 1a30.93 30.93 0 0 1-17.22-.15l22.4 6.71L310 568.53a21.13 21.13 0 0 0-13 .29l-20 6.95a47.43 47.43 0 0 0-25.45 21.07 47.38 47.38 0 0 0-5.55 32.59l4 20.78a21.17 21.17 0 0 0 6.27 11.43l11.2 10.56a80.83 80.83 0 0 0-106.9 65.88H36.93a3.16 3.16 0 0 0-2.21 5.42l2.67 2.61a30.9 30.9 0 0 1 8.48 15l-5.39-22.76 9.47 40a21.09 21.09 0 0 0 6.78 11.14l16 13.83a47.6 47.6 0 0 0 13.66 8.23 49 49 0 0 0-9.31 5.45H39.93a212.3 212.3 0 0 1 62.58-229.35z"/><path class="cls-9" d="M113.56 578.77a212 212 0 0 1 28.7-18.13l-19.19 24.53-2.65-1.78zm183.96 102.34 4.4 14.68a81.81 81.81 0 0 0-12.26-11.56l7.25-12.55a21.08 21.08 0 0 0 .61 9.43zm30.25 29.05a21 21 0 0 0-4.19 8.48l-1.08 4.53-2.43 10.28a80.4 80.4 0 0 0-4.8-16.07zM179 800.79a81.17 81.17 0 0 0 12.45 11.85l-2.51 4.36h-5.12c-.09-.37-.18-.75-.29-1.12zm150.82-41.87h5.43a21.09 21.09 0 0 0-6.75 4.14c-.23.21-.45.44-.67.66s-.31.29-.45.44l-10.44 11.07a79.61 79.61 0 0 0 3.85-16.31zm-15.93 43.97 1.13.65 2.33 1.34a21.24 21.24 0 0 0-3.09-.27 21.22 21.22 0 0 0-3.18.2h-.24c-.45.06-.9.14-1.34.23s-.89.22-1.33.35l-.25.06-14.72 4.45a81.09 81.09 0 0 0 11.61-12.25l5.3 3.05z"/><path class="cls-7" d="m280.35 540.2 5.81-7.06c2.18.45 4.35 1 6.5 1.47l.69.17c2.15.53 4.3 1.09 6.43 1.68l-5.8 6.78q-6.71-1.74-13.63-3.04z"/><path d="M205.32 640.57 229.64 605l12.8-18.73 37.91-46q6.91 1.31 13.66 3l-85.2 99.67z"/><path class="cls-10" d="M435.18 735.9a31 31 0 0 0 8.48 15l2.67 2.61a3.16 3.16 0 0 1-2.21 5.42h-.54a17.73 17.73 0 0 1-3-.27z"/><path class="cls-10" d="M438.08 758a16.16 16.16 0 0 0 2.49.61l-9.47-40a21.11 21.11 0 0 0-6.78-11.15l-16-13.82a47.38 47.38 0 0 0-31-11.52h-1.09l-33.42 19.29-9.6 5.54-5.45 3.15a21 21 0 0 0-4.19 8.48l-1.08 4.53a80.57 80.57 0 0 1 7 25.73c2.59-2.09 8.12-6.26 12.38-7.66 5.26-1.72 11.89-.92 18-1.81 5.67-.84 9.77-3.53 17.53-3.53s11.85 2.69 17.53 3.53c6.08.89 12.71.09 18 1.81 5.76 1.89 13.86 8.88 13.86 8.88l6.72 5.41a15.18 15.18 0 0 0 4.57 2.53zm-99-44.32 16.24 19.35a18.26 18.26 0 0 1-16.24-19.35zm27 16.53a27 27 0 0 1-10.77-29.57zm11-2.83a26.94 26.94 0 0 1 0-31.46zm21.92-26.7-10.77 29.57a25.19 25.19 0 0 1 .62-16.53c2.15-5.9 5.89-10.53 10.15-13.04zm16.3 13L399 733.07a18.25 18.25 0 0 1 16.23-19.35z"/><path class="cls-11" d="m359.6 753.93-20.78 4a20.56 20.56 0 0 0-3.57 1h-5.43c0-.68.05-1.36.05-2 0-1.36 0-2.71-.11-4s-.17-2.63-.3-3.93c2.59-2.09 8.12-6.26 12.38-7.66 5.26-1.72 11.89-.92 18-1.81 5.67-.84 9.77-3.53 17.53-3.53s11.85 2.69 17.53 3.53c6.08.89 12.71.09 18 1.81 5.76 1.89 13.86 8.88 13.86 8.88l6.72 5.41a15.18 15.18 0 0 0 4.66 2.51 16.16 16.16 0 0 0 2.49.61 17.73 17.73 0 0 0 3 .27h-52.42a47.38 47.38 0 0 0-31.61-5.09zM377.18 696v31.46a26.94 26.94 0 0 1 0-31.46zm11.63 17.72c2.15-5.9 5.93-10.53 10.15-13l-10.77 29.57a25.19 25.19 0 0 1 .62-16.57zM356 717.19a25.13 25.13 0 0 1-.62-16.51l10.77 29.57A25.14 25.14 0 0 1 356 717.19zm47.26 2.94a17.73 17.73 0 0 1 12-6.41L399 733.07a17.69 17.69 0 0 1 4.26-12.94zm-59.91 6.52a17.71 17.71 0 0 1-4.23-12.93l16.24 19.35a17.72 17.72 0 0 1-12.01-6.42z"/><path class="cls-10" d="M377.76 817h43a21 21 0 0 0-.53-12.12l-6.95-20a47.45 47.45 0 0 0-21.06-25.45c-.31-.18-.64-.35-1-.52a47.38 47.38 0 0 0-31.61-5l-20.78 4a20.56 20.56 0 0 0-3.57 1 21.09 21.09 0 0 0-6.75 4.14c.38-.34.78-.68 1.19-1a80.32 80.32 0 0 1-8.25 30.72 37.94 37.94 0 0 1 10.45.09c5.42 1.14 10.76 5.15 16.48 7.42 5.33 2.1 10.22 1.82 16.94 5.7 6.21 3.6 8.56 7.62 12.44 11.02zm-4.87-34.59c3.14-5.44 7.66-9.34 12.25-11.08l-15.73 27.25a25.13 25.13 0 0 1 3.48-16.17zm-16.71-3.29a25.1 25.1 0 0 1 7.73-14.6l-5.47 31a25.19 25.19 0 0 1-2.26-16.4zm-12.88-11.44 4.39 24.87a18.26 18.26 0 0 1-4.39-24.87zm42.21 46.7a18.25 18.25 0 0 1 23.73-8.63zm-8-7.85c.92-4.84 4-10 8.79-14s10.4-6.16 15.31-6.23zm-62.49-2.99 2.33 1.34-2.33-1.34zm12.81-39.82c-.15.15-.31.29-.45.44l-10.44 11.07 10.44-11.07c.14-.16.3-.29.45-.44z"/><path class="cls-11" d="M321 805.78a21.55 21.55 0 0 0-3.6-.9l-2.4-1.34c.57-.81 1.12-1.63 1.66-2.45.12-.17.22-.35.33-.52.45-.7.89-1.4 1.32-2.12l.23-.39c.47-.79.92-1.58 1.36-2.38l.1-.18c.48-.89.95-1.79 1.4-2.69a37.94 37.94 0 0 1 10.45.09c5.42 1.14 10.76 5.15 16.48 7.42 5.33 2.1 10.22 1.82 16.94 5.7 6.22 3.59 8.57 7.61 12.45 11h-27.78a47 47 0 0 0-9-4.26zm64.14-34.45-15.73 27.25a25.13 25.13 0 0 1 3.48-16.17c3.11-5.41 7.66-9.34 12.25-11.08zm1.19 21.2c4.81-4 10.4-6.16 15.31-6.23l-24.1 20.23c.92-4.84 3.97-9.96 8.79-14zm-22.42-28.01-5.47 31a26.92 26.92 0 0 1 5.47-31zm31.73 40.78a17.64 17.64 0 0 1 13.6.45l-23.73 8.63a17.71 17.71 0 0 1 10.13-9.08zm-47.95-12.75a18.26 18.26 0 0 1-4.39-24.87z"/><path class="cls-10" d="M314.26 804.61a21.24 21.24 0 0 1 3.09.27 21.55 21.55 0 0 1 3.6.9l20 7a47 47 0 0 1 9 4.26h-30.19l.18-.5c-.33.15-.64.33-1 .5H303a81 81 0 0 0 11.26-12.43zm-4.77.47c.44-.09.89-.17 1.34-.23-.45.06-.9.15-1.34.23zm1.58-.27a21.22 21.22 0 0 1 3.18-.2 21.22 21.22 0 0 0-3.18.2zm-2.91.62-.25.06-14.71 4.41 14.71-4.41z"/><path class="cls-11" d="M319.76 817H319c.32-.17.63-.35 1-.5z"/><path class="cls-10" d="m194.29 816.35.74.65h-.63zm-2.83-3.71-2.52 4.36 2.52-4.36z"/><path class="cls-11" d="M322.5 723.17a80.57 80.57 0 0 1 7 25.73c-.92.74-1.48 1.22-1.48 1.22l-6.73 5.41-.09.07c.2-2.34.33-4.71.33-7.1a82 82 0 0 0-1.42-15l2.43-10.28z"/><path class="cls-11" d="M329.76 752.83q-.11-2-.3-3.93.2 1.95.3 3.93z"/><path class="cls-12" d="M328 750.12s.56-.48 1.48-1.22q.19 2 .3 3.93c.07 1.34.11 2.69.11 4 0 .68 0 1.36-.05 2h-9c.15-1.1.27-2.2.37-3.32l.09-.07z"/><path class="cls-11" d="m313.89 802.89 1.13.65-1.13-.65zm13.94-39.17c.22-.22.44-.45.67-.66s.78-.68 1.19-1a80.32 80.32 0 0 1-8.25 30.72c-3.36.35-6 .85-6 .85l-8.52 1.37h-.15a80.22 80.22 0 0 0 10.17-19.74l10.44-11.07c.14-.19.3-.32.45-.47zM318.58 798c.47-.79.92-1.58 1.36-2.38-.44.84-.89 1.63-1.36 2.38zm1.42-2.52c.48-.89.95-1.79 1.4-2.69-.4.9-.88 1.8-1.4 2.69zm-3 5.07c.45-.7.89-1.4 1.32-2.12-.4.72-.84 1.42-1.32 2.12zm-2 2.97c.57-.81 1.12-1.62 1.66-2.45-.5.82-1.05 1.64-1.66 2.45z"/><path class="cls-12" d="M315.46 793.63s2.62-.5 6-.85c-.45.9-.92 1.8-1.4 2.69l-.1.18c-.44.8-.89 1.59-1.36 2.38l-.23.39c-.43.72-.87 1.42-1.32 2.12-.11.17-.21.35-.33.52-.54.83-1.09 1.64-1.66 2.45l-1.13-.65-3.78-2.19-5.3-3.05c.68-.88 1.33-1.77 2-2.68h.15z"/><path class="cls-11" d="m307.91 805.49.25-.06c.44-.13.89-.25 1.33-.35s.89-.17 1.34-.23h.24a21.22 21.22 0 0 1 3.18-.2A81 81 0 0 1 303 817h-19.44a81.94 81.94 0 0 0 9.64-7.1zm-113.84 9.4v-.36q1.82 1.29 3.7 2.47H195l-.74-.65z"/><path class="cls-11" d="M191.46 812.64c.84.65 1.7 1.28 2.57 1.89v.36l.22 1.46.11.65h-5.46z"/><path class="cls-10" d="M156.41 805.44c4-4.52 7.57-14.61 7.57-14.61l3.11-8.06.16-.36A81.13 81.13 0 0 0 179 800.79l4.52 15.09c.11.37.2.75.29 1.12h-43.24c.38-.34.77-.68 1.18-1 4.82-3.82 10.97-6.44 14.66-10.56z"/><path class="cls-11" d="m134.69 803.33 16-13.83a20.33 20.33 0 0 0 2.58-2.67l12.73-7.32c.41 1 .84 1.94 1.28 2.9l-.16.36-3.12 8.06s-3.53 10.09-7.57 14.61c-3.69 4.12-9.84 6.74-14.66 10.56-.41.32-.8.66-1.18 1h-30.46v-2.59a47.47 47.47 0 0 0 24.56-11.08z"/><path class="cls-10" d="M45.87 761.1a30.9 30.9 0 0 0-8.48-15l-2.67-2.61a3.16 3.16 0 0 1 2.21-5.42h.54a17.73 17.73 0 0 1 3 .26zM43 739a18.85 18.85 0 0 0-2.49-.61l9.47 40a21.09 21.09 0 0 0 6.78 11.14l16 13.83a47.6 47.6 0 0 0 13.66 8.23q2.35-1.09 4.92-2c10.39-3.78 18.81-3.9 18.81-.26v5.14a47.47 47.47 0 0 0 24.56-11.08l16-13.83a20.33 20.33 0 0 0 2.58-2.67 21.15 21.15 0 0 0 4.2-8.47l3.63-15.42a81.32 81.32 0 0 1-1.32-14.48c0-2.46.13-4.89.34-7.29l-.34.25-6.73 5.42s-8.1 7-13.86 8.87c-5.26 1.73-11.89.92-18 1.82-5.67.84-9.77 3.53-17.53 3.53s-11.85-2.69-17.53-3.53c-6.08-.9-12.71-.09-18-1.82-5.76-1.88-13.85-8.87-13.85-8.87l-6.73-5.42A15.18 15.18 0 0 0 43 739zm82.08 40.85c2.15 5.91 2.23 11.88.62 16.52l-10.8-29.62c4.23 2.52 8 7.14 10.15 13.05zm16.88 3.47-16.24-19.34a18.25 18.25 0 0 1 16.24 19.34zm-38.06-13.7a27 27 0 0 1 0 31.47zm-21.81 26.7 10.77-29.57a25.16 25.16 0 0 1-.62 16.52c-2.15 5.91-5.92 10.53-10.15 13.05zm-16.3-13.05L82 763.93a18.25 18.25 0 0 1-16.23 19.34z"/><path class="cls-11" d="m159.8 741.46-6.73 5.42s-8.1 7-13.86 8.87c-5.26 1.73-11.89.92-18 1.82-5.67.84-9.77 3.53-17.53 3.53s-11.85-2.69-17.53-3.53c-6.08-.9-12.71-.09-18-1.82-5.76-1.88-13.85-8.87-13.85-8.87l-6.73-5.42A15.18 15.18 0 0 0 43 739a18.85 18.85 0 0 0-2.49-.61 17.73 17.73 0 0 0-3-.26h123c-.14 1-.26 2.08-.35 3.13zM103.87 801v-31.43a27 27 0 0 1 0 31.47zm-11.63-17.73c-2.15 5.91-5.92 10.53-10.15 13.05l10.77-29.57a25.16 25.16 0 0 1-.62 16.52zm33.43 13.05-10.77-29.57c4.23 2.52 8 7.14 10.15 13s2.23 11.93.62 16.57zm-47.88-19.46a17.62 17.62 0 0 1-12 6.41L82 763.93a17.63 17.63 0 0 1-4.21 12.93zm47.9-12.93a18.25 18.25 0 0 1 16.24 19.34z"/><path class="cls-10" d="m349.34 580.33-22.4-6.71a30.93 30.93 0 0 0 17.22.15l3.6-1a3.16 3.16 0 0 1 3.59 4.62l-.46.8.19-.34a17.48 17.48 0 0 1-1.74 2.48z"/><path class="cls-10" d="M349.34 580.33 310 568.53a21.13 21.13 0 0 0-13 .29l-20 6.95a47.43 47.43 0 0 0-25.45 21.07 47.38 47.38 0 0 0-5.55 32.59l4 20.78a21.17 21.17 0 0 0 6.27 11.43l11.2 10.56A80.84 80.84 0 0 1 287 682.28v-.18l-1.32-8.53s-2-10.51-.76-16.44c1.14-5.42 5.15-10.76 7.41-16.47 2.11-5.34 1.83-10.23 5.71-16.95s8.26-8.92 11.82-13.41c3.82-4.82 6.44-11 10.56-14.66 4.51-4 14.61-7.56 14.61-7.56l8.06-3.12a15.12 15.12 0 0 0 4.5-2.78 17.24 17.24 0 0 0 1.75-1.85zm-89.63 65.39 24.87-4.38a18.27 18.27 0 0 1-24.87 4.38zm-3.17-20.6 31 5.46a25.06 25.06 0 0 1-16.38 2.26c-6.16-1.09-11.41-4-14.62-7.72zm34.06-5.51a25.17 25.17 0 0 1-16.16-3.47c-5.44-3.15-9.34-7.67-11.08-12.26zm-12.27-32.23 20.22 24.11a26.94 26.94 0 0 1-20.22-24.11zm28.08 16.14a18.26 18.26 0 0 1-8.63-23.73z"/><path class="cls-11" d="m304.77 648.09-7 20a21.66 21.66 0 0 0-.9 3.61l-7.25 12.55c-.87-.67-1.76-1.31-2.66-2v-.18l-1.32-8.53s-2-10.51-.76-16.44c1.14-5.42 5.15-10.76 7.41-16.47 2.11-5.34 1.83-10.23 5.71-16.95s8.26-8.92 11.82-13.41c3.82-4.82 6.44-11 10.56-14.66 4.51-4 14.61-7.56 14.61-7.56l8.06-3.12a15.12 15.12 0 0 0 4.5-2.78 17.24 17.24 0 0 0 1.77-1.85 17.48 17.48 0 0 0 1.74-2.48l-.19.34-26 45a47.41 47.41 0 0 0-20.1 24.93zm-30.33-31.95c-5.44-3.15-9.34-7.67-11.08-12.26l27.24 15.73a25.17 25.17 0 0 1-16.16-3.47zm10.11-13.45a25.08 25.08 0 0 1-6.22-15.31l20.22 24.11a25.18 25.18 0 0 1-14-8.8zm-13.4 30.15c-6.19-1.09-11.4-4-14.61-7.72l31 5.46a25.06 25.06 0 0 1-16.39 2.26zm26.18-39.46a17.61 17.61 0 0 1 .45-13.59l8.63 23.73a17.7 17.7 0 0 1-9.08-10.14zM273 648.52a17.65 17.65 0 0 1-13.31-2.8l24.87-4.38a17.69 17.69 0 0 1-11.56 7.18z"/><path class="cls-10" d="m418.85 657.27-16.05-17a31 31 0 0 0 14.84 8.73l3.62.92a3.18 3.18 0 0 1 1.95 1.49 3.15 3.15 0 0 1-1.16 4.31l-3 1.75 2.55-1.48a18.38 18.38 0 0 1-2.75 1.28z"/><path class="cls-10" d="M416.39 658a18.15 18.15 0 0 0 2.46-.72l-28.22-29.92a21.09 21.09 0 0 0-11.43-6.26l-20.78-4a47.43 47.43 0 0 0-32.58 5.51c-.32.18-.62.38-.94.57a47.41 47.41 0 0 0-20.12 24.88l-7 20a21.66 21.66 0 0 0-.9 3.61 21.08 21.08 0 0 0 .61 9.43l4.4 14.68a81.12 81.12 0 0 1 12 18.54.31.31 0 0 1 0-.1l3.12-8.06s3.52-10.1 7.56-14.61c3.69-4.13 9.84-6.74 14.66-10.56 4.49-3.57 6.69-7.94 13.41-11.83s11.61-3.59 16.94-5.7c5.72-2.26 11.06-6.28 16.48-7.41 5.93-1.25 16.43.75 16.43.75l8.54 1.33a15 15 0 0 0 5.36-.13zm-107.86 11.08 23.73 8.64a18.26 18.26 0 0 1-23.73-8.64zm31.66.8c-4.92-.07-10.49-2.19-15.31-6.23s-7.87-9.17-8.79-14zm8.15-8c-4.6-1.75-9.12-5.65-12.26-11.09s-4.26-11.31-3.47-16.16zm10.94-3.06a25.11 25.11 0 0 1-7.72-14.62c-1.09-6.19-.14-12.08 2.26-16.37zM374.46 631l-4.38 24.87a18.24 18.24 0 0 1 4.38-24.87zm-41.24 76.01-5.45 3.15-12.5 7.22 17.95-10.37zm80.21-46.31-23.13 13.36-14.06 8.12-33.42 19.29 70.61-40.77z"/><path class="cls-11" d="m342.82 701.47-9.6 5.54-18 10.37c-.43-1-.89-2-1.36-3a.31.31 0 0 1 0-.1l3.12-8.06s3.52-10.1 7.56-14.61c3.69-4.13 9.84-6.74 14.66-10.56 4.49-3.57 6.69-7.94 13.41-11.83s11.61-3.59 16.94-5.7c5.72-2.26 11.06-6.28 16.48-7.41 5.93-1.25 16.43.75 16.43.75l8.54 1.33a15 15 0 0 0 5.29-.15 18.15 18.15 0 0 0 2.46-.72 18.38 18.38 0 0 0 2.74-1.28l-2.49 1.43-5.61 3.23zm-6.74-50.64c-3.14-5.45-4.26-11.31-3.47-16.16l15.73 27.25c-4.6-1.75-9.12-5.65-12.26-11.09zm15.48-6.59c-1.09-6.19-.14-12.08 2.26-16.37l5.46 31a25.11 25.11 0 0 1-7.72-14.63zm-26.68 19.41c-4.82-4-7.87-9.17-8.79-14l24.1 20.22c-4.92-.06-10.49-2.18-15.31-6.22zm42.39-21.08a17.71 17.71 0 0 1 7.19-11.57l-4.38 24.87a17.7 17.7 0 0 1-2.81-13.3zm-58.74 26.51 23.73 8.64a18.26 18.26 0 0 1-23.73-8.64z"/><path class="cls-7" d="M191.46 812.64a81.17 81.17 0 0 1-24.21-30.23c-.44-1-.87-1.92-1.28-2.9a81.8 81.8 0 0 1-6.17-31c0-2.46.13-4.89.34-7.29.09-1.05.21-2.09.35-3.13A80.78 80.78 0 0 1 287 682.28c.9.64 1.79 1.28 2.66 2a81.07 81.07 0 0 1 24.25 30.1c.47 1 .93 2 1.36 3a80.4 80.4 0 0 1 4.8 16.07 82 82 0 0 1 1.42 15c0 2.39-.13 4.76-.33 7.1-.1 1.12-.22 2.22-.37 3.32a79.61 79.61 0 0 1-3.85 16.31A80.22 80.22 0 0 1 306.77 795c-.63.91-1.28 1.8-2 2.68a81.09 81.09 0 0 1-11.57 12.22 81.94 81.94 0 0 1-9.64 7.1h-22.71a71.42 71.42 0 1 0-40.42 0h-22.7q-1.89-1.18-3.7-2.47c-.87-.61-1.73-1.24-2.57-1.89z"/><path class="cls-6" d="M220.43 817h40.42a71.42 71.42 0 1 0-40.42 0zm20.27-10.15a58.33 58.33 0 1 1 58.3-58.38 58.32 58.32 0 0 1-58.3 58.38z"/><path class="cls-13" d="M240.7 806.85a58.33 58.33 0 1 0-58.38-58.27 58.33 58.33 0 0 0 58.38 58.27zm-12.24-11.39L193.7 760.7a25.22 25.22 0 0 1-7.06-22.56 55 55 0 1 1 65 64.28 25.52 25.52 0 0 1-23.18-6.96z"/><path d="m193.7 760.7 34.76 34.76a25.52 25.52 0 0 0 23.16 7 55 55 0 1 0-65-64.28 25.22 25.22 0 0 0 7.08 22.52zm85-32.93c0 .23-.19 3.65-2.36 5.21a6.38 6.38 0 0 1-3.62 1 9.66 9.66 0 0 1-1.93-.15 9.92 9.92 0 0 1 .35-1.9 6.35 6.35 0 0 1 1.93-3.23c2.03-1.7 5.39-1 5.6-.93zm-.7 19.91c-.22 0-3.53-.91-4.63-3.35a6.4 6.4 0 0 1-.31-3.75 9.61 9.61 0 0 1 .53-1.86 9.47 9.47 0 0 1 1.79.72 6.38 6.38 0 0 1 2.78 2.53c1.24 2.35-.1 5.52-.16 5.71zm-8.6 18.81c.84-2.54 4-3.76 4.26-3.82.12.19 1.78 3.18.78 5.67a6.34 6.34 0 0 1-2.5 2.81 9.18 9.18 0 0 1-1.71.9 9.42 9.42 0 0 1-.72-1.79 6.37 6.37 0 0 1-.16-3.77zm-24 18.14c.21-.07 3.52-1 5.69.62a6.36 6.36 0 0 1 2.12 3.1 9.3 9.3 0 0 1 .46 1.88 9.38 9.38 0 0 1-1.92.26 6.27 6.27 0 0 1-3.67-.82c-2.28-1.41-2.69-4.82-2.69-5.04zm-4.24-72.77a10 10 0 0 1 .55-1.85 6.32 6.32 0 0 1 2.25-3c2.23-1.48 5.51-.46 5.71-.37 0 .23-.56 3.61-2.89 4.94a6.39 6.39 0 0 1-3.7.66 9 9 0 0 1-1.9-.35zM235.49 769a9.33 9.33 0 0 1 1.07-1.61 10 10 0 0 1 1.48 1.23 6.36 6.36 0 0 1 1.87 3.26c.48 2.64-1.76 5.24-1.92 5.39-.2-.11-3.09-2-3.39-4.61a6.3 6.3 0 0 1 .89-3.66zm-4.44-60.46a6.37 6.37 0 0 1-1-3.63 9.13 9.13 0 0 1 .16-1.92 10.08 10.08 0 0 1 1.9.37 6.32 6.32 0 0 1 3.21 2c1.69 2.08 1 5.44.91 5.65-.23-.09-3.64-.31-5.18-2.49zm-10.94 64.59a10.06 10.06 0 0 1 1.48-1.26 6.35 6.35 0 0 1 3.53-1.28c2.68 0 4.86 2.65 5 2.83-.15.18-2.46 2.71-5.13 2.54a6.32 6.32 0 0 1-3.46-1.47 10 10 0 0 1-1.42-1.38zm0-57a9.69 9.69 0 0 1 1.48-1.25 6.35 6.35 0 0 1 3.53-1.28c2.68 0 4.86 2.64 5 2.83-.15.18-2.46 2.7-5.13 2.54a6.33 6.33 0 0 1-3.46-1.48 9.6 9.6 0 0 1-1.42-1.4zM212.79 735a9.35 9.35 0 0 1 .26-1.91 9.65 9.65 0 0 1 1.88.45 6.3 6.3 0 0 1 3.11 2.11c1.59 2.16.72 5.48.64 5.69-.23 0-3.63-.4-5.07-2.66a6.34 6.34 0 0 1-.82-3.68zm-15.9 3.8a6.32 6.32 0 0 1-2.68 2.63 9.91 9.91 0 0 1-1.77.78 9.6 9.6 0 0 1-.6-1.84 6.42 6.42 0 0 1 .17-3.76c1-2.47 4.3-3.47 4.52-3.51.09.17 1.54 3.27.36 5.68zM192 750.38a9.19 9.19 0 0 1-1.62-1 9.57 9.57 0 0 1 1.22-1.5 6.31 6.31 0 0 1 3.23-1.91c2.63-.51 5.26 1.69 5.42 1.85-.11.2-1.91 3.11-4.57 3.45a6.36 6.36 0 0 1-3.68-.89z"/><path class="cls-14" d="M220.11 716.06a9.69 9.69 0 0 1 1.48-1.25 6.35 6.35 0 0 1 3.53-1.28c2.68 0 4.86 2.64 5 2.83-.15.18-2.46 2.7-5.13 2.54a6.33 6.33 0 0 1-3.46-1.48 9.6 9.6 0 0 1-1.4-1.33zm-7.04 17.01a9.65 9.65 0 0 1 1.88.45 6.3 6.3 0 0 1 3.11 2.11c1.59 2.16.72 5.48.64 5.69-.23 0-3.63-.4-5.07-2.66a6.34 6.34 0 0 1-.84-3.67 9.35 9.35 0 0 1 .26-1.91zm60.54 29.6c.12.19 1.78 3.18.78 5.67a6.34 6.34 0 0 1-2.5 2.81 9.18 9.18 0 0 1-1.71.9 9.42 9.42 0 0 1-.72-1.79 6.37 6.37 0 0 1-.09-3.76c.82-2.5 4.02-3.77 4.24-3.83zm-79.4-21.26a9.91 9.91 0 0 1-1.77.78 9.6 9.6 0 0 1-.6-1.84 6.42 6.42 0 0 1 .17-3.76c1-2.47 4.3-3.47 4.52-3.51.11.2 1.56 3.3.38 5.71a6.32 6.32 0 0 1-2.7 2.62zm-3.88 7.92a9.57 9.57 0 0 1 1.22-1.5 6.31 6.31 0 0 1 3.23-1.91c2.63-.51 5.26 1.69 5.42 1.85-.11.2-1.91 3.11-4.57 3.45a6.36 6.36 0 0 1-3.67-.81 9.19 9.19 0 0 1-1.63-1.08zM230.2 703a10.08 10.08 0 0 1 1.9.37 6.32 6.32 0 0 1 3.21 2c1.69 2.08 1 5.44.91 5.65-.23 0-3.65-.23-5.19-2.41a6.37 6.37 0 0 1-1-3.63 9.13 9.13 0 0 1 .17-1.98zm-10.09 70.09a10.06 10.06 0 0 1 1.48-1.26 6.35 6.35 0 0 1 3.53-1.28c2.68 0 4.86 2.65 5 2.83-.15.18-2.46 2.71-5.13 2.54a6.32 6.32 0 0 1-3.46-1.47 10 10 0 0 1-1.4-1.34zM241.68 710a6.32 6.32 0 0 1 2.25-3c2.23-1.48 5.51-.46 5.71-.37 0 .23-.56 3.61-2.89 4.94a6.39 6.39 0 0 1-3.7.66 9 9 0 0 1-1.9-.35 10 10 0 0 1 .53-1.88zm-5.12 57.37a10 10 0 0 1 1.48 1.23 6.36 6.36 0 0 1 1.87 3.26c.48 2.64-1.76 5.24-1.92 5.39-.2-.11-3.09-2-3.39-4.61a6.3 6.3 0 0 1 .86-3.66 9.33 9.33 0 0 1 1.1-1.61zm36.76-23.04a6.4 6.4 0 0 1-.31-3.75 9.61 9.61 0 0 1 .53-1.86 9.47 9.47 0 0 1 1.79.72 6.38 6.38 0 0 1 2.78 2.53c1.26 2.36-.08 5.53-.19 5.72-.19-.06-3.5-.92-4.6-3.36zm2.99-11.33a6.38 6.38 0 0 1-3.62 1 9.66 9.66 0 0 1-1.93-.15 9.92 9.92 0 0 1 .35-1.9 6.35 6.35 0 0 1 1.93-3.23c2.07-1.7 5.43-1 5.64-1-.01.28-.2 3.7-2.37 5.28zm-25.23 52.25a6.36 6.36 0 0 1 2.12 3.1 9.3 9.3 0 0 1 .46 1.88 9.38 9.38 0 0 1-1.92.26 6.27 6.27 0 0 1-3.67-.82c-2.26-1.43-2.67-4.84-2.67-5.06.2-.05 3.51-.94 5.68.64z"/><path d="M166.84 549.68a211.77 211.77 0 0 1 23.91-7.28l-52.42 53.1-2-1.32-5.1-3.44 23.46-28.34zm-71.35 84.31-.01-.01.01.01z"/><path class="cls-7" d="M189.59 534.38h.19c1.76-.41 3.53-.81 5.31-1.18l.36-.08c1.86-.39 3.73-.75 5.61-1.1l-10.28 10.41a211.77 211.77 0 0 0-23.91 7.28l11.75-12.36q5.43-1.65 10.97-2.97z"/><path class="cls-2" d="M110.13 809.27V817H103c4.33-2.78 7.13-5.65 7.13-7.73z"/><path class="cls-3" d="M91.32 809.53c10.39-3.78 18.81-3.9 18.81-.26 0 2.08-2.8 5-7.13 7.73H77.08a49 49 0 0 1 9.32-5.44q2.36-1.09 4.92-2.03z"/><path class="cls-4" d="M534.6 660.63a84.24 84.24 0 0 0 36.5 18.9v5.33a84.54 84.54 0 0 1-36.5-24.23z"/><path class="cls-5" d="M506 597.14A84.52 84.52 0 0 1 571.1 515v7.11a77.61 77.61 0 0 0 0 150.28v7.11a84.57 84.57 0 0 1-65.1-82.36z"/><path class="cls-15" d="M512.92 597.16a77.63 77.63 0 0 1 58.18-75v12.04a66 66 0 0 0 0 126.17v12a77.61 77.61 0 0 1-58.18-75.21z"/><path class="cls-11" d="M524.61 600.79a66 66 0 0 1 46.49-66.59v4.73a61.47 61.47 0 0 0 0 116.64v4.8a66 66 0 0 1-46.49-59.58z"/><path class="cls-10" d="M531.48 580.13a61.41 61.41 0 0 1 39.62-41.2v116.64a61.48 61.48 0 0 1-39.62-75.44z"/><path class="cls-16" d="M310 452.13a33.43 33.43 0 0 0 5.15-14c1.7-13.08-7-18.08-7-18.08V420s1.41-12.72 2.06-19a40.62 40.62 0 0 0 4.17.11c11.44-.37 23.15-.79 33.84-1.18l-33.45 52a12.47 12.47 0 0 1-4.77.2zm48.23-28.91c-.42-1.39-.87-2.9-1.35-4.52.48 1.61.94 3.13 1.35 4.52zm24.91-24.6 5.46-.23c.38.6.77 1.19 1.16 1.78l.94 11.27s4.89 9.47 13.3 27c6.32 13.17-1.84 31.82-10.34 34.13a33 33 0 0 0-4.83-14.68c-6.9-11.23-16.84-9.62-16.84-9.62s-5.42-7.93-8.19-12.1c-.55-.82-1.05-1.65-1.53-2.51zm-24.05 27.49c-.25-.83-.52-1.76-.81-2.73l.81 2.73zm.79 2.33.3.76zm.96 2.32c.13.27.25.55.38.82-.13-.27-.22-.58-.38-.82z"/><path class="cls-12" d="m370.25 399.13 12.89-.51-20.86 35q-.56-1-1-2c-.13-.27-.25-.55-.38-.82-.23-.52-.45-1-.66-1.56l-.3-.76c-.28-.76-.55-1.54-.79-2.33l-.81-2.73v-.16c-.41-1.39-.87-2.91-1.35-4.52z"/><path class="cls-16" d="M390.4 398.32c22.48-.79 39.69 12.5 56.92 25.58 5.09 10.89 1.58 26-5.32 27.34-.45-2.95-3.06-8.4-7.94-12.66-8-7-15.31-3.38-15.31-3.38s-6.93-5.89-9.52-8a33.08 33.08 0 0 1-6.56-7.31c-3-4.59-8.11-12.31-12.91-19.68-.39-.59-.78-1.18-1.16-1.78z"/><path d="m360.51 323.7 41.79-7.91-19.31 30-8.71 1.9-50.87 11 23.32-28.16 3.85-4.65zm57.49 5.53a1.74 1.74 0 0 0-.11.18l-.09.11z" style="fill:#993f21"/><path class="cls-13" d="m279.59 531.85-5 7.35-32.13 47-12.82 18.8 4.3-27.47-13.23 20.57 39.06-60.72 4.9-7.61 3.83-6 2.6-4 .75-1.16 1.37-2.13 3.76-5.85L314.69 452l33.45-52 22.11-.84-13.37 19.54-35.14 51.44-29.56 43.27z"/><path d="m417.8 329.52.09-.11a29.27 29.27 0 0 1-2.09 3.12l-.26.3z" fill="#f1998e"/><path class="cls-3" d="m320.78 278.76 2.97-12.93 13.31 15.42-10.26 4.48-6.02-6.97z"/><path class="cls-19" d="M295 365.52c-1.56.64-3.14 1.36-4.75 2.14-6.07 3-8 7.17-7.31 11.1a9 9 0 0 0 .4 1.65l-12.08 15.44c-6.78 3.46-12.92 3.84-16.11 1.09A32.09 32.09 0 0 0 265.6 384c5.46-12-1.43-19.34-1.43-19.34 2.8-7.31 5.91-15.44 7.49-19.55a34.56 34.56 0 0 1 5.18-9c6.55-8.26 21.19-26.69 27.61-34.46A52.12 52.12 0 0 1 323.79 287l3-1.31 10.27-4.48 36.13-15.74-41.45 53zm164 67.04-.5-.35c-3.78-2.67-7.49-5.48-11.21-8.31-17.23-13.08-34.44-26.37-56.92-25.58l-3.06-26.52 17.55 1.48L420 326.54a44.43 44.43 0 0 1-4.21 6 29.27 29.27 0 0 0 2.09-3.12 1.74 1.74 0 0 1 .11-.18L466 259l61 50.5a92.74 92.74 0 0 0 44.08 20.11v119.27l-6.75 1.88A124.44 124.44 0 0 1 459 432.56zm-56.7-116.77-41.79 7.91L410 254.12l6-7.2a43.23 43.23 0 0 1 30.94-.49z"/><path class="cls-16" d="m360.54 323.69-.03.01-9.93 2.2 59.44-71.78-49.48 69.57z"/><path class="cls-13" d="m93.69 627.39 1.79 6.61-10.07 12.15a2 2 0 0 1-2.81.28l-3-2.44a2 2 0 0 1-.32-2.8L93 623.57a21.82 21.82 0 0 0 .69 3.82zm229.72-268.68-10.09 2.19c-4.85.17-11.27 1.67-18.37 4.62l36.8-47 15 12.06zm-35.47 26.75c.06.25.09.51.17.77a18.44 18.44 0 0 0 5.54 8.43l-11 13.32-86 103.92-6.42 7.74-2.4 2.9-3.48 4.2-2.54 3.07-7.22 8.72-9.94 12-9.81 11.84-23.46 28.34-8.24-5.55 19.19-24.53 11.15-14.25 7.86-10 2.22-2.85 4.7-6 2-2.52 6.71-8.58 94.34-120.56 12.08-15.44a9 9 0 0 0 4.55 5.03z"/><path class="cls-19" d="m388.6 398.39-5.46.23-12.89.51-22.11.84c-10.69.39-22.4.81-33.84 1.18a40.62 40.62 0 0 1-4.17-.11c-7.28-.52-12.75-3.05-16.48-6.38a18.44 18.44 0 0 1-5.54-8.43c-.08-.26-.11-.52-.17-.77a16.53 16.53 0 0 0 5.32 1.62c14.77 2.11 26.52.05 30.27-3.83 1.88-1.94 2.49-6.38 1.84-11.17-.85-4.77-2.8-8.81-5.18-10.08a14 14 0 0 0-6.87-1.1l10.09-2.19 50.87-11-12 22 25 2.11 3.06 26.52z"/><path d="m331.75 318.48 14.98 12.07 3.86-4.65 113.94-137.61-20.35-13.49-70.98 90.71-41.45 52.97zm83.79 14.35c-5.58 6.45-11.52 8.38-19.41 10.11L383 345.81l19.31-30 44.62-69.36 31.48-48.94L498.77 211 466 259l-48 70.25-.2.29z" style="fill:#142328"/><path class="cls-19" d="m362.31 369.69 12-22 8.71-1.9 13.14-2.87c7.89-1.73 13.83-3.66 19.41-10.11l.26-.3a44.43 44.43 0 0 0 4.21-6l-15.12 46.74-17.55-1.48z"/><path class="cls-8" d="M388.83 457.85a33 33 0 0 1 4.83 14.68c.29 4.6-1 7.07-2.83 4.37-3.43-5-18.84-28.67-18.84-28.67s9.94-1.61 16.84 9.62zm45.23-19.27c4.88 4.26 7.49 9.71 7.94 12.66.29 1.9-.32 2.77-1.83 1.57-3.85-3.06-21.42-17.61-21.42-17.61s7.25-3.63 15.31 3.38z"/><path class="cls-10" d="M106.44 574a17.42 17.42 0 0 1 2.35 1.9l-3.56 9.47-4.68 12.41a31.38 31.38 0 0 0 1.35-17.16l-.52-2.51-.24-1.15a3.2 3.2 0 0 1 .47-2.41 3.16 3.16 0 0 1 4.39-.85l.51.34.94.63z"/><path class="cls-11" d="m216.33 648-2.43-1.64 2.89 1.94a3.17 3.17 0 0 1 .85 4.39 3.1 3.1 0 0 1-2 1.34l-3.67.68a30.87 30.87 0 0 0-15.41 7.7l17.19-15.87a17.38 17.38 0 0 1 2.58 1.46z"/><path class="cls-10" d="m108.8 575.88-3.57 9.47-10.93 29a21.17 21.17 0 0 0-1.3 9.22 21.82 21.82 0 0 0 .66 3.82l1.82 6.61 3.76 13.81a47.42 47.42 0 0 0 19.25 26.85 47.45 47.45 0 0 0 32.12 7.75l17.14-2.06 21.89-34a33.64 33.64 0 0 1-8.7-.85c-5.33-1.51-10.38-5.88-15.92-8.53-5.18-2.47-10.08-2.53-16.52-6.87s-8.32-8.85-12.56-12.71c-4.54-4.14-10.49-7.18-13.89-11.55-3.72-4.78-6.54-15.1-6.54-15.1l-2.51-8.28a15 15 0 0 0-2.46-4.68 17.15 17.15 0 0 0-1.74-1.9zm56.38 68.82a18.27 18.27 0 0 1 2.66 25.12zm-18.12 26.85 7.6-30.53a25.12 25.12 0 0 1 1.12 16.49c-1.52 6.1-4.78 11.09-8.72 14.04zM129 620.31a18.25 18.25 0 0 1-24.27 7zm-2.61 43 17.57-26.1a26.92 26.92 0 0 1-17.57 26.1zm-15.42-16.08 25.44-18.51a25.16 25.16 0 0 1-9.74 13.36c-5.12 3.67-10.84 5.4-15.74 5.13zM181.52 676a21.16 21.16 0 0 0 2-1.58 21.16 21.16 0 0 1-2 1.58zm-.32.24-.47.33.05-.07c.13-.09.28-.16.42-.26zm-44.79-82.08 1.96 1.32 48 32.33 10.61 7.14-76.56-51.56 2.65 1.78 8.24 5.55 5.1 3.44z"/><path class="cls-11" d="m202 645.46 4-.34h1.3a15.4 15.4 0 0 1 4 .57 17.505 17.505 0 0 1 2.41.89l-30.21 27.9a21.16 21.16 0 0 1-2 1.58l-.32.23c-.14.1-.29.17-.42.26zm3.32-4.89 3.49 2.35 5.08 3.42-1.14-.77-7.43-5zm-84.9-57.18L197 635l-7.32 11.37a33.64 33.64 0 0 1-8.7-.85c-5.33-1.51-10.38-5.88-15.92-8.53-5.18-2.47-10.08-2.53-16.52-6.87s-8.32-8.85-12.56-12.71c-4.54-4.14-10.49-7.18-13.89-11.55-3.72-4.78-6.54-15.1-6.54-15.1l-2.55-8.3a15 15 0 0 0-2.46-4.68 17.15 17.15 0 0 0-1.72-1.9 17.42 17.42 0 0 0-2.35-1.9l1 .67 6.11 4.12zm93.48 62.96 2.43 1.64a17.38 17.38 0 0 0-2.63-1.46l.2-.19z"/><path class="cls-11" d="M212.5 646c-.4-.15-.81-.28-1.22-.4a15.4 15.4 0 0 0-4-.57 15.4 15.4 0 0 1 4 .57c.41.16.82.29 1.22.4zm.25-.43-6.55-4.41-.88-.59 7.43 5zm-6.75-.45h1.3-1.3l-4 .34z"/><path class="cls-12" d="M212.5 646c-.4-.15-.81-.28-1.22-.4a15.4 15.4 0 0 0-4-.57h-1.3l-4 .34 3.34-4.89.88.59 6.55 4.41 1.14.77-.2.19c-.39-.09-.79-.25-1.19-.44z"/><path class="cls-11" d="M139.34 653.08a25.15 25.15 0 0 1-13 10.21l17.57-26.1a25.07 25.07 0 0 1-4.57 15.89zm-12.71-11.02c-5.08 3.69-10.8 5.42-15.7 5.15l25.44-18.51a25.16 25.16 0 0 1-9.74 13.36zm29.15 15.45c-1.52 6.1-4.78 11.09-8.72 14l7.6-30.53a25.12 25.12 0 0 1 1.12 16.53zm-37.56-28.84a17.66 17.66 0 0 1-13.53-1.39l24.27-7a17.65 17.65 0 0 1-10.74 8.39zm53.33 28.06a17.69 17.69 0 0 1-3.71 13.09l-2.66-25.12a17.71 17.71 0 0 1 6.37 12.03z"/><path class="cls-13" d="m197 635 23.73-36.89 13.23-20.57-4.32 27.46-24.32 35.61-3.32 4.85-21.2 31-.05.07-19.12 28a2 2 0 0 1-2.77.55l-3.25-2.16a2 2 0 0 1-.58-2.76l12.76-19.83 21.89-34z"/><path class="cls-14" d="M49.75 532.48a6.39 6.39 0 0 1 2.11 3.13 9.65 9.65 0 0 1 .45 1.89 10.07 10.07 0 0 1-1.93.25 6.37 6.37 0 0 1-3.67-.84c-2.26-1.45-2.65-4.88-2.66-5.1.21-.05 3.53-.92 5.7.67zM396 102.73a6.35 6.35 0 0 1 2.11 3.13 9.65 9.65 0 0 1 .45 1.88 9.56 9.56 0 0 1-1.93.26 6.46 6.46 0 0 1-3.67-.85c-2.26-1.45-2.65-4.87-2.65-5.09.19-.06 3.52-.93 5.69.67zm132.18 397.41c.1.21 1.31 3.42 0 5.74a6.4 6.4 0 0 1-2.89 2.43 9.82 9.82 0 0 1-1.83.65 9.26 9.26 0 0 1-.45-1.88 6.33 6.33 0 0 1 .46-3.75c1.13-2.42 4.53-3.16 4.71-3.19zM541.72 277a6 6 0 0 1 1.29 3.36 8.62 8.62 0 0 1 0 1.85 9 9 0 0 1-1.84-.17 6.16 6.16 0 0 1-3.24-1.58c-1.8-1.83-1.42-5.08-1.38-5.3.21-.04 3.5-.16 5.17 1.84zm-63.04 270.83a9.39 9.39 0 0 1-1.69.76 6 6 0 0 1-3.59.23c-2.47-.7-3.76-3.72-3.82-3.92.17-.13 3-1.84 5.39-1a6.09 6.09 0 0 1 2.79 2.28 9.84 9.84 0 0 1 .93 1.6zM523 704.75a9.53 9.53 0 0 1-1.75.59 9 9 0 0 1-.41-1.81 6.15 6.15 0 0 1 .48-3.57c1.18-2.27 4.4-2.94 4.61-3 .09.2 1.21 3.29-.12 5.48a6.15 6.15 0 0 1-2.81 2.31z"/><path class="cls-3" d="m237.4 283.33 9.29 8.48-17.13-4.65-4.04-7.05 11.88 3.22z"/><path class="cls-2" d="m225.52 280.11 4.04 7.05 6.19 10.82-14.82-1.25-16.59-28.96 14.82 1.24 6.36 11.1zM212.77 0l10.68 18.64-14.83-1.24L198.66 0h14.11zm322.66 740.99 5.22-9.12 14.83-1.24-16.59 28.96-14.83 1.25 8.21-14.33 5.21 2.53-2.05-8.05zm-2.18-506.75-7.15-32.61 4.07-4.35h7.51l5.72 26.08-10.15 10.88z"/><path class="cls-3" d="m535.43 740.99 2.05 8.05-5.21-2.53-13.23-6.44-2.72-10.71 18.44 8.97.67 2.66z"/><path class="cls-5" d="m442.38 95.51 5.67-5 20.44 32.11-30.86 19.63a46.16 46.16 0 0 1-6.76-31.25l1.06-7.52-.94 6.67a49.77 49.77 0 0 1 11.39-14.64z"/><path d="m448.05 90.51-5.67 5A49.77 49.77 0 0 0 431 110.12l.94-6.67 5.41-38.19a50.16 50.16 0 0 1 4.75-13.65H492l.08.09z" fill="#ffe1d6"/><path class="cls-8" d="M315.11 438.17a33.43 33.43 0 0 1-5.15 14c-2.8 4.14-5.57 5.48-5.29 2.09.19-2.32.73-7.84 1.33-13.79.95-9.51 2.05-20.08 2.07-20.32s8.74 4.94 7.04 18.02z"/><path class="cls-7" d="M265.6 384a32.09 32.09 0 0 1-10.5 12.94c-3.12 2.08-5.27 2.09-4.18-.65 2.26-5.65 13.24-31.62 13.25-31.63s6.89 7.34 1.43 19.34zm47.72-23.1a14 14 0 0 1 6.87 1.1c2.38 1.27 4.33 5.31 5.18 10.08.65 4.79 0 9.23-1.84 11.17-3.75 3.88-15.5 5.94-30.27 3.83a16.53 16.53 0 0 1-5.32-1.62 8.65 8.65 0 0 1-5.05-6.7c-.72-3.93 1.24-8.14 7.31-11.1 1.61-.78 3.19-1.5 4.75-2.14 7.1-2.95 13.52-4.45 18.37-4.62z"/><path class="cls-8" d="m290.7 527.63 1.63-2c1.88.43 3.79.87 5.68 1.33l.83-3.19a510.9 510.9 0 0 0-4.18-1l1.63-2c1.41.33 2.82.67 4.22 1s2.65.76 4 1.13c1.8.5 3.63 1 5.46 1.59l-1.62 1.89c-1.32-.39-2.65-.77-3.95-1.13l-3.36-1-.55 2.08-.3 1.11 3.32.94.8.23 1.69.47-1.64 1.92-1.92-.55-.71-.2-3.21-.91c-1.17-.31-2.35-.6-3.53-.88l-3.53-.82z"/><path class="cls-14" d="M374.35 134.17a6.74 6.74 0 0 1 3.9-.87 10.43 10.43 0 0 1 2 .28 10.12 10.12 0 0 1-.49 2 6.75 6.75 0 0 1-2.26 3.3c-2.3 1.68-5.82.73-6.05.66.05-.22.49-3.85 2.9-5.37z"/><path class="cls-4" d="M105.65 72.65A93.91 93.91 0 0 1 17.16 9.76L15.59 0H197l-.51 2a94.17 94.17 0 0 1-26.62 45.44 93.6 93.6 0 0 1-64.22 25.21z"/><path class="cls-1" d="M22.78 73.28a9.86 9.86 0 0 1-1.79 1 6.78 6.78 0 0 1-4 .6c-2.79-.55-4.5-3.77-4.6-4 .17-.15 3.12-2.31 5.88-1.58a6.77 6.77 0 0 1 3.3 2.26 10.45 10.45 0 0 1 1.21 1.72z"/><path class="cls-4" d="M286.58 151.34C318.21 125.93 324.66 81.47 301 52c-.49-.61-1-1.2-1.53-1.8a64.74 64.74 0 0 1 8.09 8.36c23.66 29.45 17.2 73.92-14.43 99.33A75.69 75.69 0 0 1 235 174.24a32.91 32.91 0 0 1-18.4-9.38c22.45 7.52 49.09 3.26 69.98-13.52zm-64.25-45.58 20.53-7-6.78 11.12-7.2 2.47a104.46 104.46 0 0 1-35.76 5.61 32.66 32.66 0 0 1-20.51-7.76 104.28 104.28 0 0 0 49.72-4.44z"/><path d="M200.91 44.69c31-24.87 74.55-22.23 98.56 5.52.52.6 1 1.19 1.53 1.8 23.66 29.46 17.21 73.92-14.42 99.33-20.89 16.78-47.53 21-70 13.52 7.7-29.77 30.69-55.25 50-79.37a4.24 4.24 0 0 0 0-5.32 4.29 4.29 0 0 0-2.45-1.51 4.24 4.24 0 0 0-2.85.4c-27.52 14.49-57.7 31.31-88.63 31.15-2.54-23.63 7.35-48.74 28.26-65.52z" fill="#ffe3ac"/><path class="cls-11" d="M264.09 78.62a4.29 4.29 0 0 1 2.45 1.51 4.24 4.24 0 0 1 0 5.32c-19.3 24.12-42.29 49.6-50 79.37a104.08 104.08 0 0 1 15-47.55l4.51-7.42 6.78-11.12-20.53 7a104.28 104.28 0 0 1-49.72 4.41c30.93.16 61.11-16.66 88.63-31.15a4.24 4.24 0 0 1 2.88-.37z"/><path class="cls-5" d="M95.89 62.89A93.94 93.94 0 0 1 7.39 0h8.2A86.19 86.19 0 0 0 95.9 55.2 86.23 86.23 0 0 0 176.49 0h8.19a93.92 93.92 0 0 1-88.79 62.89z"/><path class="cls-15" d="M95.9 55.2A86.19 86.19 0 0 1 15.59 0h14A73.34 73.34 0 0 0 100 42.21 73.3 73.3 0 0 0 162.5 0h14a86.23 86.23 0 0 1-80.6 55.2z"/><path class="cls-11" d="M100 42.21A73.34 73.34 0 0 1 29.58 0h5.65A68 68 0 0 0 77 34.56 68.27 68.27 0 0 0 156.9 0h5.6A73.3 73.3 0 0 1 100 42.21z"/><path class="cls-10" d="M77 34.56A68 68 0 0 1 35.23 0H156.9A68.27 68.27 0 0 1 77 34.56z"/><path class="cls-14" d="M22.77 73.31a9.86 9.86 0 0 1-1.79 1 6.78 6.78 0 0 1-4 .6c-2.79-.55-4.5-3.77-4.6-4 .17-.15 3.12-2.31 5.88-1.58a6.77 6.77 0 0 1 3.3 2.26 10.45 10.45 0 0 1 1.18 1.68zm340.7-35.16a9.57 9.57 0 0 1 1.3 1.32 6 6 0 0 1 1.48 3.28c.21 2.56-2.17 4.82-2.33 5-.18-.12-2.77-2.15-2.8-4.71a6.13 6.13 0 0 1 1.15-3.41 9.36 9.36 0 0 1 1.2-1.48z"/></g></g></svg>