<svg xmlns="http://www.w3.org/2000/svg" viewBox="0 0 707.22 819.01"><defs><style>.cls-1{fill:#c14f29}.cls-2{fill:#662a16}.cls-3{fill:#993f21}.cls-4{fill:#156a41}.cls-5{fill:#ffcf70}.cls-6{fill:#ffc043}.cls-7{fill:#ffe3ac}.cls-8{fill:#5c3c2e}.cls-9{fill:#3d281e}.cls-10{fill:#744c3a}.cls-11{fill:#fff}.cls-12{fill:#ffe1d6}.cls-13{fill:#870f00}.cls-14{fill:#0f462d}.cls-15{fill:#05a357}.cls-16{fill:#5a0a00}.cls-17{fill:#06c167}.cls-18{fill:#fff2d9}.cls-19{fill:#ff6937}.cls-20{fill:#ab1300}.cls-21{fill:#e11900}.cls-22{fill:#231f20}</style></defs><g id="Layer_2" data-name="Layer 2"><g id="WebLeft"><path class="cls-1" d="M549.82 0c-.16 1.22-6.81 22.76-6.94 24-.7 5.35-1.19 10.79-1.68 16.23-.38 4.29-.39 4.29 0 0-6.06-15-27.46-24.12-28.15-9.68v.35l-1.32 26.25s-.38 7-.54 10.55a35.26 35.26 0 0 0 1.06 10.43c1.45 5.68 3.9 15.23 6.26 24.31l-8.22-8.83s-4-10.66-11.73-29.85-41.06-25.1-37.2-7.76L468 82.85l.36 1.46c1 4.15 1.87 7.6 3.17 12.79A40.29 40.29 0 0 0 476 108c3.51 5.82 9.49 15.73 15.13 25-.39.4-.79.8-1.18 1.21l-8.57-2.78-20.68-12.18a36.36 36.36 0 0 0-16.55-5.14c-18.33-.88-30.91 12.31-25.14 19.46.11.14 2.34 1.93 2.34 1.93l26.13 19.5.12.08 13.29 9.18a45.07 45.07 0 0 0-3.7 5c-.1.15-.17.3-.26.44l-11.17-4.59-1.25-.46q-8.17-3-16.38-6l-1.09-.4.26-.06q-49.16-17.51-99.76-31.13a5.86 5.86 0 0 0-7 3.52h-.62a5.47 5.47 0 0 0-5.58 3.58L307.87 152l-9.3 25.5a5.46 5.46 0 0 0 2 6.33l.55.39a5.83 5.83 0 0 0 .25 3.56l-.43.1a5.86 5.86 0 0 0 2.93 3.06q51.26 23.92 104.11 43.29l3.44 1.26q52.9 19.22 107.5 33.9a5.54 5.54 0 0 0 1.45.18 5.33 5.33 0 0 0 1.13 0 5.37 5.37 0 0 1-1.06 0 5.87 5.87 0 0 0 2.68-.63h.42a5.85 5.85 0 0 0 2.57-2.61 5.18 5.18 0 0 0 .28-.58q4.47-12.24 8.93-24.49c8-.27 18.37-2.5 25.17-5.55l29-13 67.6-30.34a46.14 46.14 0 0 0 27.18-39.89l4.36-93.24c.63-13.77 12.83-47.28 18.62-59.19zm40.73 130.42z"/><path class="cls-2" d="m427.28 134.77-.12-.09a10 10 0 0 0 .44-3.18 11.9 11.9 0 0 0-6.19-11c-6.92-3.78-17.51-8.72-20.39-5.36 0 0-2.22-1.79-2.34-1.93-5.76-7.16 6.82-20.34 25.14-19.46a36.16 36.16 0 0 1 16.55 5.14l20.72 12.18 8.56 2.77c-8.28 8.46-28.92 30.17-28.92 30.17z"/><path class="cls-3" d="M421.41 120.54a11.9 11.9 0 0 1 6.19 11 10 10 0 0 1-.44 3.18L401 115.18c2.9-3.36 13.49 1.58 20.41 5.36z"/><path class="cls-2" d="M449.94 62.23a12.66 12.66 0 0 0 1.91-10.34C450.33 45.52 446.92 35 441 35.7c-3.86-17.36 29.48-11.33 37.2 7.72S490 73.27 490 73.27l8.22 8.83.57 2.19c-3.7 3.74-14.6 14.79-27.92 28.39-5.64-9.26-11.62-19.17-15.13-25a39.61 39.61 0 0 1-4.53-10.9C449.88 71.59 449 68.13 448 64a4.81 4.81 0 0 0 1.94-1.77z"/><path class="cls-2" d="m498.76 84.29-.57-2.19c-2.36-9.08-4.81-18.64-6.26-24.32a35.54 35.54 0 0 1-1.07-10.42c.17-3.59.55-10.56.55-10.56a4.21 4.21 0 0 0 1.53-.44 9.42 9.42 0 0 0 5.24-8.4c.14-6.15-.39-16.43-5.47-17.4v-.35c.69-14.44 22.09-5.31 28.15 9.68-.79 8.73-1.57 17.48-3.15 25.91-2.58 13.68-7.28 26.53-17.62 37.12zm-19.46 82.77 58.08-41.43.59-.42 10-7.06c7.12-5.05 13-8.38 22.27-8.05 12 1 21.94 8.89 15.36 13.83-7.71 5.76-74.42 56.22-74.42 56.22s-21.72-8.68-31.88-13.09z"/><path class="cls-4" d="m594.23 207.76-13.87 2.6-11.22-8.02 10.75-4.82 14.34 10.24z"/><path class="cls-3" d="M678.15 0a99.22 99.22 0 0 0-9.87 38.87l-4.36 93.24A46.14 46.14 0 0 1 636.74 172l-56.85 25.52-10.75 4.82-29 13a74.11 74.11 0 0 1-27.6 5.57l-1.39-40.79c16.74-12.61 66.71-50.46 74.42-56.22 6.58-4.94-3.33-12.84-15.36-13.83 2.36.08-39.93-20.64-39.93-20.64l-11.43 14.91-18.74-21.42a58.89 58.89 0 0 0 11.72-17.4 88.23 88.23 0 0 0 5.9-19.72c1.58-8.43 2.36-17.18 3.15-25.91.49-5.44 1-10.88 1.68-16.23.13-1.22.28-2.44.44-3.66z"/><path class="cls-3" d="M537.05 125.22h.95l-.59.42z"/><path class="cls-5" d="M299.63 110.29h.62l-.07.13q-9.63 26.42-19.27 52.81c-.07.21-.11.41-.16.62l-.54-.39a5.48 5.48 0 0 1-2-6.33l9.31-25.5 6.5-17.82a5.46 5.46 0 0 1 5.61-3.52z"/><path class="cls-6" d="m300.18 110.47.07-.13a5.86 5.86 0 0 1 7-3.53q50.63 13.62 99.77 31.13L281 167.55a5.81 5.81 0 0 0 2.92 3.06q51.26 23.94 104.11 43.29l3.44 1.26q52.9 19.22 107.5 33.9c1.46.4-73.55-104.22-73.55-104.22s84.2 34.58 94.27 39.26c.85.39 1.71.77 2.56 1.17a5.87 5.87 0 0 1 3.06 7.18v.15Q515.66 219 506 245.41a5.94 5.94 0 0 1-.27.57 5.84 5.84 0 0 1-6.76 3.09 1311.24 1311.24 0 0 1-215-78.46 5.85 5.85 0 0 1-3.19-6.71c.05-.21.09-.41.16-.62q9.61-26.4 19.24-52.81z"/><path class="cls-5" d="M502.76 248.62a5.88 5.88 0 0 1-4.2.45q-54.62-14.69-107.5-33.9l-3.45-1.26q-52.86-19.38-104.11-43.3a5.86 5.86 0 0 1-2.92-3.05l126-29.61 1.25.45q8.2 2.94 16.38 6l1.25.46z"/><path class="cls-3" d="m518.84 104.37-18.73-21.45-1.35 1.37c-3.7 3.74-14.6 14.79-27.92 28.39l-1.19 1.2a9145.52 9145.52 0 0 0-26.33 27l-.06.05a48.79 48.79 0 0 0-6.4 8.05c-12.17 19.5 3.63 33.63 22 29.48a34.52 34.52 0 0 0 12.39-5.65l18.14-12.94 48-34.25-.34-.4-34.51.42zm-47.29 51.84a5.7 5.7 0 0 1-1.61 5.68L459 172.07a15.21 15.21 0 0 1-18.75-20.13l10.92-10.18a5.73 5.73 0 0 1 5.78-1.21 23 23 0 0 1 14.6 15.66z"/><path class="cls-1" d="M471.55 156.21a5.7 5.7 0 0 1-1.61 5.68L459 172.07a15.21 15.21 0 0 1-18.75-20.13l10.92-10.18a5.73 5.73 0 0 1 5.78-1.21 23 23 0 0 1 14.6 15.66z"/><path class="cls-3" d="m547.93 118.15-10 7.06h-.92l-34.51.42 16.3-21.27 11.43-14.91L578 111.07a47.72 47.72 0 0 0-7.81-1c-9.3-.3-15.14 3.03-22.26 8.08zM441 35.7c5.88-.67 9.29 9.82 10.81 16.19a12.66 12.66 0 0 1-1.91 10.34A4.81 4.81 0 0 1 448 64l-.36-1.46L441 35.7zm57.18-7.7a9.42 9.42 0 0 1-5.24 8.4 4.21 4.21 0 0 1-1.53.44l1.32-26.25c5.06.94 5.59 11.22 5.45 17.41zm25.34 240.93-.14.08z"/><path class="cls-1" d="M326.94 18.3c-1.68-.26-3.36-.47-5.05-.65-.23 0-.46-.07-.69-.09a100.48 100.48 0 0 0-17.26-.23h-.33a101.18 101.18 0 0 0-22.7 4.36l-4.69 10.13-12.5-4.35-4.72 1.62-22.77 18.14L202.6 74a62.16 62.16 0 0 0 4.9 5.44c23.66 23.43 63.24 24.8 91.83 2 20.26-16.09 29.94-40.31 27.61-63.14z"/><path class="cls-7" d="M293 75.17c-28.59 22.78-68.17 21.41-91.83-2a62.16 62.16 0 0 1-4.9-5.44l33.63-26.8a4.13 4.13 0 0 0 4.9.84l7.71-4 3.12 5.08 12.35-7 11.88 5.06L280 20.19c13.27-5 26.86-8.35 40.6-8.22 2.34 22.83-7.34 47.03-27.6 63.2z"/><path class="cls-6" d="m280 20.19-10.14 20.63L258 35.76l-12.35 7-3.12-5.08-7.71 4a4.13 4.13 0 0 1-4.9-.84l22.75-18.15 4.75-1.6 12.49 4.35 4.69-10.13A101.18 101.18 0 0 1 297.28 11h.33a100.48 100.48 0 0 1 17.26.23c.23 0 .46.06.69.09 1.69.18 3.37.39 5.05.65-13.74-.13-27.33 3.22-40.61 8.22z"/><path class="cls-7" d="M297.5 11h-.22z"/><path class="cls-1" d="M411.56.3C413 26.41 401.07 45.6 383 57.5l-6.53-9.92-17.13-26a4.1 4.1 0 0 0 1.3-4.81c-1.37-3.31-2.77-6.67-4.15-10.06-.28-.67-.55-1.34-.82-2z"/><path class="cls-7" d="M406.87 0c-.58 21-10.49 40.91-28.56 52.81l-6.53-9.92-17.13-26a4.1 4.1 0 0 0 1.3-4.81C354.58 8.76 353.18 5.4 351.8 2c-.28-.67-.55-1.34-.82-2zm-59.64 5.36q1.27 2.14 2.64 4.24-1.36-2.1-2.64-4.24zM344.4.3z"/><path class="cls-6" d="M351 0c.27.67.54 1.34.82 2 1.38 3.39 2.78 6.75 4.15 10.06a4.1 4.1 0 0 1-1.3 4.81l-4.47-6.78c-.11-.17-.2-.34-.31-.5q-1.37-2.1-2.64-4.24c-.24-.41-.47-.83-.71-1.25-.73-1.26-1.44-2.53-2.12-3.81 0-.1-.11-.2-.17-.3zM229 19.79l-11.1-7.52 9.86-1.78a7.29 7.29 0 0 1 6.77 2.34l9.71 10.92-10.72-2.09a12.3 12.3 0 0 1-4.52-1.87z"/><path class="cls-1" d="M493.64 782.68q-4.71 16.92-11.33 34.32H55.62a592.64 592.64 0 0 1 48.51-54.66c49-48.86 101.5-89.89 151.71-118.67 50.65-29 98.1-45 137.21-46.31 3.17-.1 6.32-.11 9.38 0 27.44.8 50.17 9.22 67.57 25 35.1 31.87 43.5 88.8 23.64 160.32z"/><path class="cls-8" transform="rotate(58.86 334.555 528.275)" d="M323.24 494.37h22.63v67.88h-22.63z"/><path class="cls-9" transform="rotate(58.86 322.851 508.917)" d="M311.54 475.01h22.63v67.88h-22.63z"/><path class="cls-9" transform="rotate(58.86 346.255 547.647)" d="M334.94 513.74h22.63v67.88h-22.63z"/><path class="cls-8" transform="rotate(58.86 218.366 598.486)" d="M207.05 564.59h22.63v67.88h-22.63z"/><path class="cls-9" transform="rotate(58.86 206.662 579.128)" d="M195.35 545.22h22.63v67.88h-22.63z"/><path class="cls-9" transform="rotate(58.86 230.074 617.853)" d="M218.75 583.95h22.63v67.88h-22.63z"/><path class="cls-8" transform="rotate(58.86 102.181 668.706)" d="M90.85 634.8h22.63v67.88H90.85z"/><path class="cls-9" transform="rotate(58.86 90.481 649.334)" d="M79.15 615.44h22.63v67.88H79.15z"/><path class="cls-9" transform="matrix(.52 .86 -.86 .52 643.91 234.77)" d="M102.56 654.17h22.63v67.88h-22.63z"/><path class="cls-8" d="M20.87 731.08 0 743.69v-26.43l9.17-5.54 11.7 19.36z"/><path class="cls-9" d="M9.17 711.72 0 717.26v-20.72l9.17 15.18zm23.4 38.73L0 770.13v-26.44l20.87-12.61 11.7 19.37z"/><path class="cls-8" transform="matrix(-.86 .52 -.52 -.86 804.46 902.66)" d="M265.14 529.48h22.63v67.88h-22.63z"/><path class="cls-10" transform="rotate(148.86 295.837 551.707)" d="M284.51 517.78h22.63v67.88h-22.63z"/><path class="cls-10" transform="rotate(148.86 257.11 575.11)" d="M245.78 541.18h22.63v67.88h-22.63z"/><path class="cls-8" transform="rotate(148.86 160.28 633.623)" d="M148.95 599.69h22.63v67.88h-22.63z"/><path class="cls-10" transform="rotate(148.86 179.645 621.923)" d="M168.32 587.99h22.63v67.88h-22.63z"/><path class="cls-10" transform="matrix(-.86 .52 -.52 -.86 595.25 1124.79)" d="M129.59 611.4h22.63v67.88h-22.63z"/><path class="cls-8" transform="rotate(148.86 44.093 703.84)" d="M32.76 669.91h22.63v67.88H32.76z"/><path class="cls-10" transform="rotate(148.86 63.454 692.138)" d="M52.12 658.21h22.63v67.88H52.12z"/><path class="cls-10" d="m32.58 750.45 19.36-11.7-35.11-58.1L0 690.82v5.72l32.58 53.91z"/><path class="cls-8" transform="rotate(148.86 369.678 586.394)" d="M358.35 552.47h22.63v67.88h-22.63z"/><path class="cls-10" transform="rotate(148.86 389.044 574.693)" d="M377.71 540.77h22.63v67.88h-22.63z"/><path class="cls-10" transform="rotate(148.86 350.31 598.1)" d="M338.98 564.17h22.63v67.88h-22.63z"/><path class="cls-8" transform="rotate(58.86 311.566 621.475)" d="M300.25 587.58h22.63v67.88h-22.63z"/><path class="cls-9" transform="rotate(58.86 299.862 602.117)" d="M288.55 568.21h22.63v67.88h-22.63z"/><path class="cls-9" transform="rotate(58.86 323.275 640.842)" d="M311.95 606.94h22.63v67.88h-22.63z"/><path class="cls-8" transform="rotate(58.86 195.376 691.686)" d="M184.06 657.79h22.63v67.88h-22.63z"/><path class="cls-9" transform="matrix(.52 .86 -.86 .52 664.14 167.43)" d="M172.36 638.43h22.63v67.88h-22.63z"/><path class="cls-9" transform="rotate(58.86 207.085 711.053)" d="M195.76 677.16h22.63v67.88h-22.63z"/><path class="cls-8" transform="rotate(58.86 79.201 761.902)" d="M67.86 728h22.63v67.88H67.86z"/><path class="cls-9" transform="rotate(58.86 67.492 742.535)" d="M56.16 708.64h22.63v67.88H56.16z"/><path class="cls-9" transform="rotate(58.86 90.896 781.264)" d="M79.57 747.37h22.63v67.88H79.57z"/><path class="cls-8" transform="rotate(148.86 253.486 656.61)" d="M242.15 622.68h22.63v67.88h-22.63z"/><path class="cls-10" transform="rotate(148.86 272.852 644.909)" d="M261.52 610.98h22.63v67.88h-22.63z"/><path class="cls-10" transform="rotate(148.86 234.12 668.315)" d="M222.79 634.39h22.63v67.88h-22.63z"/><path class="cls-8" transform="rotate(148.86 137.295 726.825)" d="M125.96 692.9h22.63v67.88h-22.63z"/><path class="cls-10" transform="rotate(148.86 156.66 715.124)" d="M145.33 681.2h22.63v67.88h-22.63z"/><path class="cls-10" transform="rotate(148.86 117.928 738.53)" d="M106.59 704.6h22.63v67.88h-22.63z"/><path class="cls-8" d="M46.36 817H19.92L0 784.04v-13.91l13.21-7.98L46.36 817z"/><path class="cls-10" d="m44.45 813.86 23.23-5.31-35.1-58.1-19.37 11.7 31.24 51.71zM19.92 817H0v-32.96L19.92 817z"/><path class="cls-8" transform="rotate(58.86 404.766 644.464)" d="M393.45 610.57h22.63v67.88h-22.63z"/><path class="cls-9" transform="rotate(58.86 393.066 625.092)" d="M381.75 591.2h22.63v67.88h-22.63z"/><path class="cls-9" transform="rotate(58.86 416.47 663.822)" d="M405.16 629.93h22.63v67.88h-22.63z"/><path class="cls-8" transform="rotate(58.86 288.577 714.675)" d="M277.26 680.78h22.63v67.88h-22.63z"/><path class="cls-9" transform="rotate(58.86 276.882 695.313)" d="M265.56 661.42h22.63v67.88h-22.63z"/><path class="cls-9" transform="rotate(58.86 300.286 734.042)" d="M288.96 700.15h22.63v67.88h-22.63z"/><path class="cls-8" transform="rotate(58.86 172.396 784.882)" d="M161.07 750.99h22.63v67.88h-22.63z"/><path class="cls-9" transform="rotate(58.8 159.814 761.98)" d="M149.36 731.63h22.63v67.88h-22.63z"/><path class="cls-8" transform="rotate(148.86 346.687 679.6)" d="M335.36 645.68h22.63v67.88h-22.63z"/><path class="cls-10" transform="rotate(148.86 366.052 667.899)" d="M354.72 633.97h22.63v67.88h-22.63z"/><path class="cls-10" transform="rotate(148.86 327.326 691.301)" d="M315.99 657.38h22.63v67.88h-22.63z"/><path class="cls-8" transform="rotate(148.86 230.495 749.815)" d="M219.16 715.89h22.63v67.88h-22.63z"/><path class="cls-10" transform="rotate(148.86 249.86 738.114)" d="M238.53 704.19h22.63v67.88h-22.63z"/><path class="cls-10" transform="matrix(-.86 .52 -.52 -.86 785.65 1304.12)" d="M199.8 727.59h22.63v67.88H199.8z"/><path class="cls-8" transform="rotate(148.86 439.894 702.585)" d="M428.56 668.67h22.63v67.88h-22.63z"/><path class="cls-10" transform="rotate(148.86 459.26 690.885)" d="M447.93 656.96h22.63v67.88h-22.63z"/><path class="cls-10" transform="matrix(-.86 .52 -.52 -.86 1149.84 1108.19)" d="M409.2 680.37h22.63v67.88H409.2z"/><path class="cls-8" transform="matrix(.52 .86 -.86 .52 815.72 29.43)" d="M370.46 703.77h22.63v67.88h-22.63z"/><path class="cls-9" transform="matrix(.52 .86 -.86 .52 793.49 30.09)" d="M358.76 684.41h22.63v67.88h-22.63z"/><path class="cls-9" transform="rotate(58.86 393.48 757.023)" d="M382.17 723.14h22.63v67.88h-22.63z"/><path class="cls-9" transform="rotate(58.86 253.893 788.513)" d="M242.57 754.62h22.63v67.88h-22.63z"/><path class="cls-8" transform="rotate(148.86 323.702 772.801)" d="M312.37 738.88H335v67.88h-22.63z"/><path class="cls-10" transform="rotate(148.86 343.068 761.1)" d="M331.73 727.18h22.63v67.88h-22.63z"/><path class="cls-8" transform="rotate(58.86 474.977 760.654)" d="M463.67 726.76h22.63v67.88h-22.63z"/><path class="cls-9" transform="rotate(58.86 463.277 741.282)" d="M451.97 707.4h22.63v67.88h-22.63z"/><path class="cls-9" transform="rotate(58.8 484.28 776.454)" d="M475.37 746.13H498v67.88h-22.63z"/><path class="cls-8" d="M442.91 817h-26.44l-26.82-44.39 19.36-11.7 33.9 56.09z"/><path class="cls-10" transform="matrix(-.86 .52 -.52 -.86 1215.15 1229.58)" d="M424.94 750.17h22.63v67.88h-22.63z"/><path class="cls-10" d="M416.47 817h-26.44l-19.75-32.69 19.37-11.7L416.47 817z"/><path class="cls-8" d="M522.14 816.87H495.7l-12.85-21.27 19.37-11.7 19.92 32.97z"/><path class="cls-10" d="M548.58 816.87h-26.44l-19.92-32.97 19.36-11.7 27 44.67zm-52.88 0h-26.43l-5.78-9.57 19.36-11.7 12.85 21.27z"/><path class="cls-8" d="M487.92 804c-1 2.8-3 8.18-4.75 12.87h-13.9l-5.78-9.57 19.36-11.7z"/><path class="cls-9" d="M487.93 804c1.64-4.78 3.2-9.54 4.63-14.26l-9.71 5.86z"/><path class="cls-11" d="M484 771.84A399.54 399.54 0 0 1 468.33 817H37.67a590 590 0 0 1 56.79-65.51c49-48.85 101.49-89.88 151.7-118.66 50.65-29 98.1-45.05 137.22-46.31 3.16-.1 6.32-.11 9.37 0 27.44.8 50.18 9.22 67.57 25 35.1 31.87 43.5 88.8 23.68 160.32z"/><path class="cls-12" d="M475.91 769.6a393.61 393.61 0 0 1-16.62 47.4H48.12a582.42 582.42 0 0 1 52.23-59.59c102.9-102.5 214.85-164.8 292.16-162.56 25.36.74 46.31 8.43 62.19 22.87 32.66 29.63 40.18 83.59 21.21 151.88z"/><path class="cls-5" d="m171.47 754.36-.42 7.39-19.28-17.58.41-7.39 19.29 17.58zM385.51 643.7l-4.38-5.97 25.48 1.09 4.38 5.97-25.48-1.09z"/><path class="cls-13" d="M390.34 637.14c-8.33-11.49-22.53-18.14-36.72-18.4-16.29-.3-32.75 7.93-41.38 21.75s-8.57 32.89 1 46.06c5.92 8.13 15.56 13.89 25.61 13.58 9.53-.3 18.15-5.75 27.56-7.3 6.91-1.14 14-.14 20.89.87s14 2 20.88.92 13.78-4.7 17.11-10.86 1.93-15-4.08-18.55c-4.45-2.65-9.57-1.8-14.12 0-4.21 1.65-7.66 5.71-9.68.75-1.49-3.64.27-10.94-.84-15.32a39.63 39.63 0 0 0-6.23-13.5zm85.58 132.47a385.24 385.24 0 0 1-12.63 37.48c-1.39 3-3 6.35-4.88 9.91h-62.72c42.61-23.2 81.41-60 90.16-125.56 1.35 23-1.92 49.29-9.93 78.17zM146.28 817h-23.74c-2.22-4.62-3.74-9.25-3.8-13.6a15.58 15.58 0 0 1 19.91-15.1c9.22 2.55 6.62 18.43 7.63 28.7z"/><path class="cls-4" d="m255.61 763.08-3.43 6.19L225.75 817h-39.68l26.62-72.96 9.08 4.03 4.92 2.18 21.72 9.64 7.2 3.19z"/><path class="cls-14" d="M256.11 814.51c-.18.83-.38 1.66-.58 2.49H140.72c.77-21 2.75-42.45 10.9-59l.29-.59C161.19 739 178.25 726.71 210 728a54.24 54.24 0 0 1 22.14 5.27 43 43 0 0 1 14.4 11.52c8.46 10.41 12.47 24.82 12.75 40.78a123.23 123.23 0 0 1-3.18 28.94z"/><path class="cls-15" d="M221.77 748.07c-22.43 22.8-15.81 48.4-15.81 48.4s-1.85.28-13.13 20.53H181c5.78-31 3.29-60.75 37.06-82.86l9.38 8.79a73.17 73.17 0 0 0-5.67 5.14z"/><path class="cls-14" d="M351.05 696.33s76.13-66.65 46.31 40.12-60.54 29.1-60.54 29.1z"/><path class="cls-16" d="M387.33 693.7c5.6.82 11.29 1.62 16.92 1.32-1.42-44-53.2 1.31-53.2 1.31l-.27 1.28c5.18-1.74 10.29-3.9 15.66-4.78 6.91-1.14 13.96-.14 20.89.87z"/><path class="cls-17" d="M458.22 742.25c.27 32.43-14.29 55.68-43 74.75H287.89l27-28.56 118-33.27z"/><path class="cls-4" d="M447.78 758.16c-23.48 17.44-50.81-4-86.4 34A187.05 187.05 0 0 1 332.46 817h-43l41.7-88.86c36.42-25.87 69.77-19.36 78.77-15.54s6.1 21.25 23.72 10.06 37.61 18.06 14.13 35.5z"/><path class="cls-5" d="m358.75 761.98-8.22-8.12 17.88-1.86 8.23 8.12-17.89 1.86z"/><path class="cls-17" d="M252.93 799.46c-2.77 6.3-5.39 12.23-7.76 17.54h-31.73c3.09-37.13-30.75-64.86-17.57-89.43-2.72 16.94 81.54 27.61 37.36 75.92z"/><path class="cls-14" d="M240.92 711.38c5.27-71 88.89-129.56 61.43 9.78z"/><path class="cls-15" d="m247.14 797.09 5.79 2.37c14.07-32.09 32.07-74.15 39.61-96.77 13.23-39.78-31.65-65.31-65.73-47.46-29.52 15.47-38.55 41.33-27.78 55.82a10.17 10.17 0 0 1-.43 12.51c-25.97 31.91 64.32 41.09 48.54 73.53zM318.12 817h-35.84c2.6-12.39 5.34-26.93 9-44.66 13-62.61 95.18-53 92.75-80.45 8.21 33.52-25.29 79.87-65.91 125.11z"/><path class="cls-4" d="M291.32 772.34c-3.7 17.73-6.44 32.27-9 44.66H209.2c21.63-85.44 42.73-194.53 134.86-161.51 24.06 8.63 36.31 21.2 40 36.4 2.44 27.48-79.7 17.84-92.74 80.45z"/><path class="cls-16" d="M256.11 814.51c-.54.83-1.14 1.66-1.79 2.49H209.2c5.47-21.63 10.92-44.77 17.49-66.75q2.58-8.65 5.43-17c2.34-6.84 4.83-13.48 7.51-19.84 0 0 9.65 9 7.41 24.91a53.91 53.91 0 0 0-.52 6.45 50.72 50.72 0 0 0 1.89 15.13 47.44 47.44 0 0 0 3.54 8.93c.08.15.16.3.23.45a101.63 101.63 0 0 1 7.09 16.27c3.01 9.62 3.21 19.28-3.16 28.96zM146.28 817h-5.56c.32-8.72.85-17.52 1.94-26 4.34 5.55 2.8 17.64 3.62 26z"/><path class="cls-18" d="M271.79 746.89a6.68 6.68 0 0 1-3.9.81 9.84 9.84 0 0 1-2-.31 9.77 9.77 0 0 1 .52-2 6.67 6.67 0 0 1 2.29-3.26c2.32-1.64 5.81-.64 6-.56 0 .23-.49 3.84-2.91 5.32zm-34.53 66.16a6.68 6.68 0 0 1-3.5-1.9 10.27 10.27 0 0 1-1.35-1.54 10 10 0 0 1 1.68-1.17 6.73 6.73 0 0 1 3.86-1c2.83.26 4.85 3.27 5 3.48-.19.13-2.89 2.57-5.69 2.13zM401.62 800a6.75 6.75 0 0 1 3.14-2.45 9.74 9.74 0 0 1 2-.61 9.89 9.89 0 0 1 .41 2 6.77 6.77 0 0 1-.64 3.94c-1.36 2.48-4.93 3.13-5.17 3.15-.12-.24-1.27-3.69.26-6.03zM365.2 650.94a6.76 6.76 0 0 1 1.56-3.67 10.17 10.17 0 0 1 1.4-1.49 10.54 10.54 0 0 1 1.34 1.56 6.73 6.73 0 0 1 1.36 3.74c0 2.84-2.78 5.14-3 5.28-.13-.14-2.86-2.59-2.66-5.42zM125.51 806.11a6.68 6.68 0 0 1 1.55-3.67 9.89 9.89 0 0 1 1.41-1.49 10.1 10.1 0 0 1 1.34 1.55 6.77 6.77 0 0 1 1.37 3.75c0 2.84-2.79 5.14-3 5.28-.18-.14-2.84-2.59-2.67-5.42z"/><path class="cls-13" d="M473.62 777.48A404.11 404.11 0 0 1 459.29 817h-37.84l.82-5z"/><path class="cls-5" d="m333.37 662.88-10.98-3.6 15.19-9.63 10.98 3.61-15.19 9.62zm79.72 48.52 8.58-4.64-2.9 14.9-8.58 4.64 2.9-14.9z"/><path class="cls-19" d="m385.51 643.7 8.81.38a38.57 38.57 0 0 0-3.29-5.93l-9.9-.42z"/><path class="cls-5" d="m271.28 701.89-4.38-5.97 10.3-.81 4.38 5.98-10.3.8zm-96.04 38.72-6.53 3.49.64-10.31 6.53-3.5-.64 10.32zm60.64-71.24-3.07 6.73 10.25-1.3 3.07-6.74-10.25 1.31zm30.06 99.21-4.38-6-12.46-.53a47.84 47.84 0 0 0 2.45 5.89z"/><path class="cls-19" d="m240.45 767.49 11.1.48a47.84 47.84 0 0 1-2.45-5.89l-13-.56z"/><path class="cls-1" d="M705.71 817H538.08a85 85 0 1 1 167.63 0z"/><path class="cls-11" d="M536.22 759.7a85 85 0 0 1 159.26 57.18h-9.11a76.21 76.21 0 1 0-146.56 0h-9.13a84.66 84.66 0 0 1 5.54-57.18z"/><path class="cls-12" d="M544.17 763.45a76.21 76.21 0 0 1 142.2 53.43h-14.63a62.23 62.23 0 1 0-117.26 0h-14.67a76 76 0 0 1 4.36-53.43z"/><path class="cls-20" d="M556.86 769.38a62.23 62.23 0 0 1 114.88 47.5h-3.84a58.66 58.66 0 0 0-101.78-56 27.22 27.22 0 0 0-3.85 25.52l1.78 5-5.47 11.59 3.24 1.53h-.15A4.17 4.17 0 1 0 567 807l-.07-.14 3.24 1.53 3 8.46h-18.69a62 62 0 0 1 2.38-47.47z"/><path class="cls-21" d="m570.17 808.42 3 8.46h4.63l17.2-6.16 2.16 6-.32.12h71.06a58.66 58.66 0 0 0-101.78-56 27.22 27.22 0 0 0-3.85 25.52l1.78 5 11.6 5.47zm64.48-54.49a4.17 4.17 0 1 1 5.34 2.52 4.18 4.18 0 0 1-5.34-2.52zm6.07 29.47a8.32 8.32 0 0 1 .28-6.4l-9.09-4.29 2.74-5.8 11.87 5.61a8.32 8.32 0 1 1-5.83 10.86zM629 791.05l-3-8.45 8.46-3 3 8.45zm-19.77 10.41a4.16 4.16 0 0 1-4.95-6.1 8.3 8.3 0 0 1-6.52-11.8l-2.6-1.23 6.65-14.08-18.48 6.63 1.75 4.89-8.45 3-3-8.45 4.21-1.5-2.51-7 25.42-9.11 2.82 7.86 1.63-3.46a4.17 4.17 0 1 1 4.9-1.63l6.77 3.19-8 16.89A8.32 8.32 0 0 1 610 794a4.09 4.09 0 0 1 1.76 2.13 4.18 4.18 0 0 1-2.49 5.33zm32.19 7.12-3-8.45 8.45-3 3 8.45z"/><path class="cls-20" d="M605.21 761.13a4.17 4.17 0 1 1 4.9-1.63l-3.37-1.59z"/><path class="cls-22" d="M602.53 779.27a8.32 8.32 0 0 0-4.73 4.29l-2.6-1.23 6.65-14.08 2.7-1-1-2.7 1.63-3.46 1.53-3.22 3.37 1.59 6.77 3.19-8 16.89a8.29 8.29 0 0 0-6.32-.27z"/><path class="cls-20" d="m601.85 768.25-18.48 6.63-1.27-3.56-4.25 1.53-2.51-7.01 25.42-9.11 2.82 7.86.97 2.7-2.7.96zm4.6 25.36a4.12 4.12 0 0 0-2.13 1.75A8.32 8.32 0 1 1 610 794a4.09 4.09 0 0 0-3.55-.39zm34.27-10.21a8.32 8.32 0 0 1 .28-6.4l8.46 4 2.74-5.8-5.68-2.68a8.32 8.32 0 1 1-5.83 10.86z"/><path class="cls-22" d="M634.65 753.93a4.17 4.17 0 1 1 5.34 2.52 4.18 4.18 0 0 1-5.34-2.52zm-25.38 47.53a4.16 4.16 0 0 1-4.95-6.1 4.17 4.17 0 0 1 7.46.76 4.18 4.18 0 0 1-2.51 5.34z"/><path class="cls-21" d="M567 807a4.17 4.17 0 1 1-5.33-2.52h.15l5.11 2.42z"/><path class="cls-22" d="m575.65 796.82-5.48 11.6-3.24-1.53-5.11-2.42-3.24-1.53 5.47-11.59 11.6 5.47z"/><path class="cls-22" transform="rotate(-19.72 644.162 802.843)" d="M639.68 798.35h8.98v8.98h-8.98z"/><path class="cls-20" transform="rotate(-19.72 631.688 785.264)" d="M627.27 780.82h8.98v8.98h-8.98z"/><path class="cls-22" d="m583.37 774.88 1.75 4.89-8.45 3.03-3.03-8.45 4.21-1.5 4.25-1.53 1.27 3.56zm66.12 6.14-8.46-4-9.09-4.29 2.74-5.8 11.87 5.61 5.68 2.68-2.74 5.8zm-52.33 35.74-.32.12h-19l17.16-6.16 2.16 6.04z"/><path class="cls-18" d="M550.15 689.15a6.35 6.35 0 0 1 2.11 3.13 9.65 9.65 0 0 1 .45 1.88 9.56 9.56 0 0 1-1.93.26 6.46 6.46 0 0 1-3.67-.85c-2.26-1.45-2.65-4.87-2.65-5.09.2-.06 3.54-.93 5.69.67zM525 595.4a6.4 6.4 0 0 1 3.7.73 9.08 9.08 0 0 1 1.65 1 10.29 10.29 0 0 1-1.18 1.53 6.36 6.36 0 0 1-3.2 2c-2.62.58-5.32-1.57-5.48-1.72.1-.17 1.83-3.13 4.51-3.54zm-459.12 8.09a6.35 6.35 0 0 1 .33 3.76 9.47 9.47 0 0 1-.52 1.87 10 10 0 0 1-1.81-.71 6.45 6.45 0 0 1-2.8-2.52c-1.28-2.37 0-5.55.14-5.74.21.05 3.54.9 4.66 3.34zm-33.74 23.25a6.4 6.4 0 0 1 3.7.72 9.79 9.79 0 0 1 1.65 1 9.3 9.3 0 0 1-1.17 1.54 6.43 6.43 0 0 1-3.2 2c-2.62.57-5.32-1.57-5.48-1.73.11-.16 1.84-3.13 4.5-3.53zm545.67-6.98a6.41 6.41 0 0 0-2.11 3.13 9.65 9.65 0 0 0-.45 1.89 9.87 9.87 0 0 0 1.92.25 6.32 6.32 0 0 0 3.68-.85c2.26-1.45 2.65-4.87 2.65-5.09-.2-.09-3.5-.92-5.69.67z"/><path class="cls-4" d="m37.19 589.75-4.06 7.04-6.24 10.79-6.37-13.44 16.7-28.9 6.37 13.44-6.4 11.07zm439.72-24.13-9.01-5.4-.94-14.85 28.62 17.18.94 14.85-14.16-8.5 2.64-5.16-8.09 1.88z"/><path class="cls-15" d="m476.91 565.62 8.09-1.88-2.64 5.16-6.7 13.09-10.77 2.5 9.34-18.25 2.68-.62z"/><path class="cls-1" d="M86.92 210.48c-3.65 23.45-19.69 45.16-44.18 56A76.79 76.79 0 0 1 0 272.34V137a76.6 76.6 0 0 1 18.82-2.36 72.2 72.2 0 0 1 39.69 11.66 104.15 104.15 0 0 1-26.74 42.1l-6.26 6-9.41 9 21.64-1.4a104.34 104.34 0 0 1 49.18 8.48z"/><path class="cls-7" d="M0 188.15v-62.69A73.22 73.22 0 0 1 52.65 136C40.73 157.18 20.3 173.29 0 188.15zm81.06 12c-3.65 23.45-19.69 45.16-44.18 56A77.19 77.19 0 0 1 0 262.67v-58.09c26.81-6.06 55.29-11.43 81.06-4.43z"/><path class="cls-6" d="M81.06 200.15c-25.77-7-54.25-1.63-81.06 4.43v-16.43c20.3-14.86 40.73-31 52.64-52.11a104.09 104.09 0 0 1-26.74 42.1l-6.27 6-9.4 9 21.65-1.51a104.34 104.34 0 0 1 49.18 8.52z"/></g></g></svg>