<svg xmlns="http://www.w3.org/2000/svg" viewBox="0 0 735.07 817"><defs><style>.cls-1{fill:#bc8b2c}.cls-2{fill:#174291}.cls-3{fill:#d4e2fc}.cls-4{fill:#fff}.cls-5{fill:#5b91f4}.cls-6{fill:#662a16}.cls-7{fill:#5a0a00}.cls-8{fill:#e8503d}.cls-9{fill:#3d281e}.cls-10{fill:#ffc043}.cls-11{fill:#ffe3ac}.cls-12{fill:#fa9269}.cls-13{fill:#ffe1d6}.cls-14{fill:#ff6937}.cls-15{fill:#993f21}.cls-16{fill:#05a357}.cls-18{fill:#c14f29}.cls-19{fill:#fff2d9}.cls-20{fill:#156a41}.cls-21{fill:#06c167}.cls-22{fill:#102c60}.cls-23{fill:#f4f1fa}</style></defs><g id="Layer_2" data-name="Layer 2"><g id="WebRight"><path class="cls-1" d="M735.07 193.86v162.33l-20.9-22.64a18.44 18.44 0 0 0-15.1-5.87l-20.48 1.7-49.09 36a90.06 90.06 0 0 1-27.57 32.55l-9.25 6.72-11.39 22.7a40.46 40.46 0 0 1-26.29 21.1l-5.14 1.29a7.72 7.72 0 0 1-9.32-9.52l14.54-53.17a37.17 37.17 0 0 1 4.6-10.27l41.53-64.28 64.34-85.31A80.06 80.06 0 0 1 718.84 196z"/><path class="cls-1" d="M735.07 413.43v403.49H314.45A303.13 303.13 0 0 1 550 373.9a307.06 307.06 0 0 1 32.41-1.71 301.83 301.83 0 0 1 152.71 41.24z"/><path class="cls-2" d="M735.07 383.48v433.39H345.2a303.11 303.11 0 0 1 389.87-433.39z"/><path class="cls-3" d="M735.07 402v414.87H364.94a285.22 285.22 0 0 1-49.59-161.16c0-140.5 101.15-257.39 234.6-281.81a288.77 288.77 0 0 1 128.67 5.72A283.07 283.07 0 0 1 735.07 402z"/><circle class="cls-2" cx="603.72" cy="370.45" r="6.71"/><path class="cls-2" d="M609.37 409.8a8.38 8.38 0 0 0 2.14-8.37l-6.82-22.74a1.07 1.07 0 0 0-2.05 0l-7.14 22.65a8.36 8.36 0 0 0 2 8.4 8.38 8.38 0 0 0 11.87.06zM587 406.51a8.38 8.38 0 0 0 6.36-5.85l6.64-22.78a1.07 1.07 0 0 0-1.71-1.13L580 391.83a8.38 8.38 0 0 0-2.9 8.17 8.39 8.39 0 0 0 9.9 6.51zm-17-14.97a8.38 8.38 0 0 0 8.53-1.43l18-15.44a1.08 1.08 0 0 0-.82-1.89l-23.6 2.64a8.37 8.37 0 0 0-6.86 5.25 8.38 8.38 0 0 0 4.75 10.87zm50.26 15.21a8.39 8.39 0 0 1-6.28-5.94l-6.37-22.87a1.07 1.07 0 0 1 1.73-1.11l18.12 15.34a8.35 8.35 0 0 1 2.77 8.18 8.37 8.37 0 0 1-9.97 6.4zM637.43 392a8.37 8.37 0 0 1-8.5-1.55l-17.82-15.7a1.08 1.08 0 0 1 .85-1.87l23.56 3a8.39 8.39 0 0 1 6.79 5.35 8.39 8.39 0 0 1-4.88 10.77z"/><circle class="cls-2" cx="457.06" cy="409.92" r="6.71"/><path class="cls-2" d="M482.1 440.8a8.37 8.37 0 0 0-2.46-8.28l-17.52-16a1.08 1.08 0 0 0-1.78 1.05l5.5 23.1a8.37 8.37 0 0 0 6.05 6.17 8.38 8.38 0 0 0 10.21-6.04zm-20.9 8.66a8.37 8.37 0 0 0 2.46-8.28l-6-23a1.07 1.07 0 0 0-2-.09l-8 22.35a8.41 8.41 0 0 0 1.7 8.48 8.39 8.39 0 0 0 11.84.54zm-22.2-4.14a8.39 8.39 0 0 0 6.58-5.6l7.56-22.51a1.08 1.08 0 0 0-1.67-1.2l-18.9 14.37a8.39 8.39 0 0 0-3.2 8 8.38 8.38 0 0 0 9.63 6.94zm50.88-12.73a8.42 8.42 0 0 1-8.44-1.87l-17.2-16.37a1.07 1.07 0 0 1 .91-1.84l23.43 3.87a8.38 8.38 0 0 1 6.58 5.6 8.39 8.39 0 0 1-5.28 10.61zm7.18-21.46a8.38 8.38 0 0 1-8.09 3l-23.35-4.33a1.07 1.07 0 0 1-.24-2l21.75-9.54a8.36 8.36 0 0 1 8.57 1.11 8.38 8.38 0 0 1 1.36 11.76z"/><circle class="cls-2" cx="355.47" cy="511.93" r="6.71"/><path class="cls-2" d="M392.4 526.65a8.39 8.39 0 0 0-6.19-6l-23.12-5.43a1.08 1.08 0 0 0-1 1.78l16.08 17.48a8.4 8.4 0 0 0 8.29 2.43 8.38 8.38 0 0 0 5.94-10.26zm-14.01 17.76a8.36 8.36 0 0 0-1.9-8.43l-16.41-17.16a1.08 1.08 0 0 0-1.84.93l3.94 23.41a8.36 8.36 0 0 0 5.62 6.56 8.38 8.38 0 0 0 10.59-5.31zM357 551.66a8.4 8.4 0 0 0 3-8.1l-4.4-23.34a1.08 1.08 0 0 0-2.05-.23l-9.47 21.78a8.35 8.35 0 0 0 1.14 8.56 8.38 8.38 0 0 0 11.78 1.33zm38.18-35.98a8.4 8.4 0 0 1-8.28 2.49l-23-5.88a1.08 1.08 0 0 1-.1-2l22.34-8.07a8.38 8.38 0 0 1 8.48 1.68 8.38 8.38 0 0 1 .56 11.78zM391 493.45a8.38 8.38 0 0 1-5.58 6.6l-22.49 7.63a1.08 1.08 0 0 1-1.2-1.67L376 487.07a8.36 8.36 0 0 1 8-3.22 8.38 8.38 0 0 1 7 9.6z"/><circle class="cls-2" cx="316.58" cy="655.59" r="6.71"/><path class="cls-2" d="M355.9 649.7a8.38 8.38 0 0 0-8.38-2.09l-22.71 7a1.07 1.07 0 0 0 0 2l22.69 7a8.4 8.4 0 0 0 8.39-2.08 8.38 8.38 0 0 0 .01-11.83zm-3.16 22.4a8.37 8.37 0 0 0-5.88-6.32L324 659.22a1.08 1.08 0 0 0-1.13 1.72l15.2 18.25a8.37 8.37 0 0 0 8.16 2.84 8.38 8.38 0 0 0 6.51-9.93zm-14.86 17.06a8.39 8.39 0 0 0-1.48-8.52l-15.55-17.94a1.08 1.08 0 0 0-1.89.83l2.79 23.58a8.37 8.37 0 0 0 5.29 6.83 8.38 8.38 0 0 0 10.84-4.78zm14.9-50.33a8.39 8.39 0 0 1-5.9 6.31L324 651.66a1.08 1.08 0 0 1-1.12-1.73l15.24-18.22a8.38 8.38 0 0 1 8.16-2.82 8.39 8.39 0 0 1 6.5 9.94zm-14.84-17.08a8.38 8.38 0 0 1-1.49 8.51l-15.59 17.91a1.07 1.07 0 0 1-1.88-.83l2.83-23.58a8.38 8.38 0 0 1 5.31-6.82 8.37 8.37 0 0 1 10.82 4.81z"/><circle class="cls-2" cx="356.95" cy="802" r="6.71"/><path class="cls-2" d="M387.67 776.78a8.38 8.38 0 0 0-8.27 2.5l-15.91 17.62a1.08 1.08 0 0 0 1.05 1.77l23.07-5.67a8.36 8.36 0 0 0 6.13-6.08 8.37 8.37 0 0 0-6.07-10.14zm8.79 20.84a8.39 8.39 0 0 0-8.3-2.41l-23 6.09a1.07 1.07 0 0 0-.08 2.05l22.4 7.86a8.38 8.38 0 0 0 8.47-1.75 8.39 8.39 0 0 0 .51-11.84zm-17.05-28.57a8.39 8.39 0 0 1-1.82 8.44l-16.26 17.31a1.08 1.08 0 0 1-1.85-.91l3.73-23.45a8.39 8.39 0 0 1 5.56-6.61 8.38 8.38 0 0 1 10.64 5.22zm-21.5-7.05a8.37 8.37 0 0 1 3.09 8.07l-4.19 23.37a1.07 1.07 0 0 1-2 .25L345.1 772a8.38 8.38 0 0 1 1-8.57 8.36 8.36 0 0 1 11.81-1.43zm12.3 54.87h21.09a8.33 8.33 0 0 0-4.49-3.53l-22.55-7.42a1.08 1.08 0 0 0-1.19 1.68z"/><path class="cls-4" d="M735.07 457.39v359.48H413.72a73 73 0 0 1-7-16.56l-2.7-9.6a72.84 72.84 0 0 0-18-31.2l-7-7.14a73 73 0 0 1-18.47-69l2.45-9.68a73 73 0 0 0 0-36l-2.39-9.69a73 73 0 0 1 18.47-69l7-7.14a72.84 72.84 0 0 0 18-31.2l2.7-9.6a73 73 0 0 1 50.48-50.49l9.61-2.7a72.9 72.9 0 0 0 31.2-18l7.14-7a73 73 0 0 1 69-18.47l9.67 2.47a73 73 0 0 0 36 0l9.67-2.47a73 73 0 0 1 69 18.47l7.15 7a72.62 72.62 0 0 0 29.37 17.52z"/><path class="cls-3" d="M601.85 773.18a117.47 117.47 0 1 1 83.06-34.41 116.7 116.7 0 0 1-83.06 34.41zm0-223.85a106.39 106.39 0 1 0 75.23 31.16 105.68 105.68 0 0 0-75.23-31.16z"/><circle class="cls-5" cx="674.85" cy="397.13" r="10.81"/><circle class="cls-5" cx="537.02" cy="394.96" r="10.81"/><circle class="cls-5" cx="413.57" cy="464.03" r="10.81"/><circle class="cls-5" cx="343.81" cy="580.85" r="10.81"/><circle class="cls-5" cx="341.39" cy="721.71" r="10.81"/><path class="cls-6" d="m345.08 562.18 51.81-32.95a90.63 90.63 0 0 1 48.63-14.15h138.74l-3.1 174.14h-90.78a45.27 45.27 0 0 1-30.67-12l-36.2-33.33a65.88 65.88 0 0 0-44.63-17.42H363.8a34.89 34.89 0 0 1-34.89-34.88 34.87 34.87 0 0 1 16.17-29.41z"/><path class="cls-7" d="M354.65 592a43.88 43.88 0 0 0 19.49-19.48A44 44 0 0 1 393.63 553a43.85 43.85 0 0 0 19.49-19.49 44 44 0 0 1 14.75-16.71 91.5 91.5 0 0 0-10.56 2.75 43.81 43.81 0 0 1-10.63 7.52 44 44 0 0 0-19.49 19.49 44 44 0 0 1-19.49 19.49 43.93 43.93 0 0 0-19.48 19.49 43.88 43.88 0 0 1-17.11 18.19 34.88 34.88 0 0 0 4.06 7.75A43.93 43.93 0 0 1 354.65 592zm226.51 38.29a43.87 43.87 0 0 1-14 11.11 43.88 43.88 0 0 0-19.48 19.49 43.9 43.9 0 0 1-19.48 19.48 43.62 43.62 0 0 0-12 8.83h17.09c.45-.78.89-1.58 1.3-2.39a43.85 43.85 0 0 1 19.48-19.48 43.93 43.93 0 0 0 19.49-19.48 44 44 0 0 1 7.54-10.65zm-84.29 37.04a43.93 43.93 0 0 0 19.49-19.48 44 44 0 0 1 19.49-19.49 43.93 43.93 0 0 0 19.48-19.49 44 44 0 0 1 19.49-19.49 43.49 43.49 0 0 0 6.33-3.89v-17.86a43.91 43.91 0 0 0-12.77 15.3 44 44 0 0 1-19.49 19.49 43.9 43.9 0 0 0-19.49 19.49 44 44 0 0 1-19.49 19.49 43.9 43.9 0 0 0-19.49 19.49 43.85 43.85 0 0 1-19.48 19.48 43.69 43.69 0 0 0-4 2.28 45.69 45.69 0 0 0 10.22 4.57l.22-.41a43.88 43.88 0 0 1 19.49-19.48zM377.18 626.5a43.84 43.84 0 0 0 12.36-15A43.93 43.93 0 0 1 409 592a43.8 43.8 0 0 0 19.48-19.48A43.93 43.93 0 0 1 448 553a43.9 43.9 0 0 0 19.49-19.49 43.87 43.87 0 0 1 17.59-18.46h-9.3a43.91 43.91 0 0 1-14.74 12 43.88 43.88 0 0 0-19.48 19.49 43.93 43.93 0 0 1-19.48 19.49 44 44 0 0 0-19.49 19.49A43.88 43.88 0 0 1 383.1 605a43.9 43.9 0 0 0-19.48 19.48l-1 1.92h1.16zm87.66 18.5a44 44 0 0 1 19.49-19.49A43.93 43.93 0 0 0 503.82 606a43.8 43.8 0 0 1 19.48-19.48A43.8 43.8 0 0 0 542.8 567a43.9 43.9 0 0 1 19.49-19.49 43.89 43.89 0 0 0 18.87-18.31v-10.53l-5.82 2.93a43.88 43.88 0 0 0-19.49 19.48 43.9 43.9 0 0 1-19.49 19.49 44 44 0 0 0-19.49 19.49 43.93 43.93 0 0 1-19.49 19.48A44 44 0 0 0 477.89 619a43.88 43.88 0 0 1-19.49 19.48A43.85 43.85 0 0 0 438.91 658v.05l6.78 6.24A44 44 0 0 0 464.84 645zm-32.44-22a43.88 43.88 0 0 1 19.48-19.49 43.88 43.88 0 0 0 19.48-19.49 43.88 43.88 0 0 1 19.48-19.49 44 44 0 0 0 19.49-19.49 43.85 43.85 0 0 1 19.49-19.49 44 44 0 0 0 13.47-10.5h-17.55a45 45 0 0 0-2.33 4.06 43.83 43.83 0 0 1-19.49 19.48 43.8 43.8 0 0 0-19.48 19.48A43.8 43.8 0 0 1 465 577.6a43.88 43.88 0 0 0-19.49 19.48A44 44 0 0 1 426 616.59a44 44 0 0 0-18 16.71 64.68 64.68 0 0 1 10.08 6.15A44 44 0 0 0 432.4 623z"/><path class="cls-8" d="M579 517.27A37.84 37.84 0 0 0 567.89 544v104.46a69.19 69.19 0 0 0 13.27 40.76A18.86 18.86 0 0 0 600 670.36v-84.65a26.45 26.45 0 0 0-3.1-12.44 44.2 44.2 0 0 1-5.15-20.7v-30a7.49 7.49 0 0 0-7.51-7.5 7.52 7.52 0 0 0-5.24 2.2z"/><path class="cls-6" d="M483.59 485.31v-1.4a16.77 16.77 0 0 1 4.82-11.91l29.28-29.7a25.51 25.51 0 0 1 18-7.59l20.81-.14a25.48 25.48 0 0 1 18.07 7.33l15 14.81a21.47 21.47 0 0 0 5.07 3.71l6.36 3.38a27.73 27.73 0 0 1 14.81 24.34v4.33z"/><path class="cls-7" d="M534.8 440.32a40.57 40.57 0 0 0 20.67 14.9 40.62 40.62 0 0 1 20.68 14.89A40.61 40.61 0 0 0 596.83 485a40.61 40.61 0 0 1 13.31 7.15l5.69.31v-2.15a40.5 40.5 0 0 1-14.05-12.14 40.61 40.61 0 0 0-20.67-14.89 40.64 40.64 0 0 1-20.68-14.9 40.61 40.61 0 0 0-17.43-13.7l-7.36.05a26.22 26.22 0 0 0-5.16.57 40.59 40.59 0 0 1 4.31 5zm18.55 43.49a40.62 40.62 0 0 1-20.68-14.89A40.57 40.57 0 0 0 512 454l-4.46-1.4-3.71 3.76 3.24 4.48a40.56 40.56 0 0 0 20.68 14.89 40.61 40.61 0 0 1 19.19 13l18.11 1a40.66 40.66 0 0 0-11.7-5.92z"/><path class="cls-8" d="m510.48 498 100.59-.7a4.81 4.81 0 0 0 4.77-4.84 4.8 4.8 0 0 0-3.4-4.56l-16-4.88a50.29 50.29 0 0 0-15-2.19l-93.6.66a4.29 4.29 0 0 0-2.68 7.61 39.58 39.58 0 0 0 25.32 8.9z"/><path class="cls-6" d="M609.46 513.54a37.86 37.86 0 0 0-11.08 26.75v118.18a27 27 0 0 0 5.18 15.91 27 27 0 0 0 21.84 11.11h1.6l3.49-110.12-8.26-15.54 11-48.49h-18.47a7.5 7.5 0 0 0-5.3 2.2z"/><path class="cls-7" d="M601.23 613.6a49.44 49.44 0 0 0 22-22 49.9 49.9 0 0 1 6.77-10.1l.26-8a49.77 49.77 0 0 1-14.3 10.84 49.6 49.6 0 0 0-17.55 14.8v16c.93-.55 1.88-1.08 2.85-1.56zm-2.85-63.53v14.34a48 48 0 0 0 2.46-4.31 49.44 49.44 0 0 1 22-22 50.72 50.72 0 0 0 5.07-2.94l5.43-23.86h-.06a49.52 49.52 0 0 0-17.7 19.53 49.4 49.4 0 0 1-17.2 19.24zM613 663.89a49.33 49.33 0 0 0 15.08-11.74l.57-18-.95.5a49.47 49.47 0 0 0-22 22l-5.66 11.24c.27.7.56 1.4.88 2.08z"/><path class="cls-8" d="M628.31 513.54a37.86 37.86 0 0 0-11.08 26.75v135.82a9.38 9.38 0 0 0 9.39 9.38 9.39 9.39 0 0 0 6.63-2.75L639 677a35.58 35.58 0 0 0 10.41-25.13V582a26.57 26.57 0 0 0-3.1-12.44 44.06 44.06 0 0 1-5.16-20.7v-30a7.49 7.49 0 0 0-7.5-7.5 7.5 7.5 0 0 0-5.34 2.18z"/><path class="cls-6" d="M652 475.1a37.82 37.82 0 0 0-11.08 26.74V620a27 27 0 0 0 5.18 15.9 27 27 0 0 0 21.84 11.1h1.63l3.49-110.11-8.26-15.55 11-48.49h-18.5a7.47 7.47 0 0 0-5.3 2.25z"/><path class="cls-7" d="M671.3 592.5a49.75 49.75 0 0 1-13.74 10.25 49.43 49.43 0 0 0-16.63 13.59V620a27 27 0 0 0 2.63 11.57A49.44 49.44 0 0 0 664.81 610a49.94 49.94 0 0 1 6.22-9.47zm.11-58.68a49.46 49.46 0 0 0-20 20.94 49.52 49.52 0 0 1-10.44 13.92V577a49.49 49.49 0 0 1 17.7-15 49.53 49.53 0 0 0 14-10.49l.47-14.6zm-30.49-4.9a49.42 49.42 0 0 0 11.5-14.92 49.46 49.46 0 0 1 18.62-20.11l4.79-21h-.3a49.57 49.57 0 0 0-8.41 11.92 49.49 49.49 0 0 1-22 21.95 47.74 47.74 0 0 0-4.24 2.41z"/><path class="cls-8" d="M670.85 475.1a37.82 37.82 0 0 0-11.08 26.74v135.82a9.38 9.38 0 0 0 9.39 9.38 9.36 9.36 0 0 0 6.63-2.74l5.71-5.71a35.58 35.58 0 0 0 10.41-25.13v-69.93a26.57 26.57 0 0 0-3.1-12.44 44.06 44.06 0 0 1-5.16-20.7v-30a7.5 7.5 0 0 0-7.5-7.5 7.47 7.47 0 0 0-5.3 2.21z"/><path class="cls-6" d="M713.72 509.39a37.82 37.82 0 0 0-11.08 26.75v97.56a27 27 0 0 0 5.18 15.91 27 27 0 0 0 21.84 11.11h1.63l3.49-89.5-8.26-15.54 8.05-48.49H719a7.5 7.5 0 0 0-5.28 2.2z"/><path class="cls-7" d="M733.66 599.85a42.46 42.46 0 0 0-15.35 16.87 42.55 42.55 0 0 1-15.67 17.07 26.89 26.89 0 0 0 2 10c.37-.65.73-1.3 1.07-2A42.5 42.5 0 0 1 724.54 623a42.41 42.41 0 0 0 8.43-5.59zm1.41-85.33a41.56 41.56 0 0 0-2.56 4.39 42.35 42.35 0 0 1-18.87 18.87 42.45 42.45 0 0 0-11 8V539a42.56 42.56 0 0 0 4.77-7.43 42.44 42.44 0 0 1 18.86-18.86 42.62 42.62 0 0 0 8.3-5.48h.5zm-24.49 73.93a42.48 42.48 0 0 0 18.86-18.86 41.33 41.33 0 0 1 2.33-4l-3-5.58a43.25 43.25 0 0 1-5.59 3.38 42.53 42.53 0 0 0-18.86 18.86c-.53 1-1.1 2.06-1.7 3v8.37a41.94 41.94 0 0 1 7.93-5.18z"/><path class="cls-8" d="M735.07 507.75v152a4.66 4.66 0 0 1-.6.28 9.37 9.37 0 0 1-13-8.67V536.14a37.83 37.83 0 0 1 11.06-26.74 7.26 7.26 0 0 1 2.54-1.65z"/><path class="cls-9" d="M425.86 812.84a47.8 47.8 0 0 0 2.84 4H616a83.3 83.3 0 0 0 1.68-16.65v-42.43a45.24 45.24 0 0 0-45.24-45.24h-69.58a45.25 45.25 0 0 1-32-13.25l-6.09-6.09a45.24 45.24 0 0 0-64 0l-5.17 5.16a45.23 45.23 0 0 0-6.36 56z"/><path d="m549.71 797.07 67.92-26.79v25.02l-67.92 1.77zm-127.57 9.81 42.28-30.7-48.87 20.17 6.59 10.53z"/><path class="cls-10" d="m526.87 803.19 107.55-28.82a2.3 2.3 0 0 0 1-3.85l-78.73-78.73a2.3 2.3 0 0 0-3.85 1l-28.79 107.58a2.3 2.3 0 0 0 2.82 2.82z"/><path class="cls-9" d="M551.42 816.87A37.33 37.33 0 0 0 488 786l30.91 30.91z"/><path class="cls-10" d="m507 747.5-99.31-57.34a2.37 2.37 0 0 0-3.56 2.05v114.68a2.37 2.37 0 0 0 3.56 2.05L507 751.6a2.37 2.37 0 0 0 0-4.1z"/><path class="cls-9" d="M483.58 803.31a37.35 37.35 0 0 1 52.81-52.82z"/><path class="cls-4" d="m506.51 755.69-.4-.86a2 2 0 0 0-3-.8l-.78.55-.94-.09a2 2 0 0 0-2.18 2.18l.09 1-.55.77a2 2 0 0 0 .8 3l.86.39.39.87a2 2 0 0 0 3 .79l.78-.55.94.09a2 2 0 0 0 2.18-2.18l-.09-.94.55-.77a2 2 0 0 0-.8-3zm-15.94 38.8.45-1.2a2.68 2.68 0 0 0-2.07-3.58l-1.26-.21-.81-1a2.68 2.68 0 0 0-4.14 0l-.81 1-1.26.21a2.68 2.68 0 0 0-2.07 3.58l.45 1.2-.45 1.19a2.69 2.69 0 0 0 2.07 3.59l1.26.21.81 1a2.68 2.68 0 0 0 4.14 0l.81-1 1.26-.21a2.69 2.69 0 0 0 2.07-3.59zm31.52-8.85-.71-1.57a3.61 3.61 0 0 0-5.39-1.44l-1.4 1-1.71-.16a3.61 3.61 0 0 0-3.95 3.95l.16 1.71-1 1.4a3.62 3.62 0 0 0 1.45 5.39l1.56.71.72 1.57a3.61 3.61 0 0 0 5.39 1.44l1.4-1 1.71.17a3.62 3.62 0 0 0 3.95-3.95l-.17-1.71 1-1.4a3.61 3.61 0 0 0-1.44-5.39z"/><circle class="cls-4" cx="542.1" cy="802.57" r="2.53"/><circle class="cls-4" cx="487.03" cy="769.7" r="2.08"/><circle class="cls-4" cx="505.57" cy="776.33" r="2.09"/><circle class="cls-4" cx="467.55" cy="785.02" r="1.33"/><circle class="cls-4" cx="473.34" cy="810.81" r="2.1"/><circle class="cls-4" cx="499.31" cy="800.04" r="1.34"/><circle class="cls-4" cx="522.31" cy="810.16" r="1.37"/><circle class="cls-4" cx="524.63" cy="766.48" r="2.8"/><circle class="cls-4" cx="507.27" cy="741.12" r="1.05"/><path class="cls-11" d="M559.76 776.77a1.74 1.74 0 0 0 0 3.47 1.74 1.74 0 0 0 0-3.47zm-11.28-18.5a1.76 1.76 0 0 0-1.73 1.74v.22a1.74 1.74 0 1 0 3.47 0V760a1.76 1.76 0 0 0-1.74-1.73zm21.43-20.76a1.74 1.74 0 0 0 0 3.48 1.74 1.74 0 0 0 0-3.48zM582.55 763h-.23a1.76 1.76 0 0 0-1.74 1.74 1.78 1.78 0 0 0 1.74 1.74h.23a1.75 1.75 0 0 0 1.73-1.74 1.77 1.77 0 0 0-1.73-1.74zm37.45 4.07a1.74 1.74 0 0 0 0 3.47 1.74 1.74 0 0 0 0-3.47zm-22.79-30.91a1.74 1.74 0 0 0 0 3.48 1.74 1.74 0 0 0 0-3.48zm-32.94-30.23a1.74 1.74 0 0 0 0 3.48 1.74 1.74 0 0 0 0-3.48zm-8.93 24.01a1.74 1.74 0 0 0 0 3.48 1.74 1.74 0 0 0 0-3.48zm50.44 21.56a1.74 1.74 0 0 0 0 3.48 1.74 1.74 0 0 0 0-3.48zm-16.69 29.35a1.74 1.74 0 0 0 0 3.47 1.74 1.74 0 0 0 0-3.47zm-48.73-8.37a1.76 1.76 0 0 0-1.73 1.74v.22a1.74 1.74 0 1 0 3.47 0v-.22a1.76 1.76 0 0 0-1.74-1.74zM423 785.27a1.79 1.79 0 0 0 0 3.58 1.79 1.79 0 0 0 0-3.58zm25.33-5.35h-.23a1.79 1.79 0 0 0 0 3.58h.23a1.79 1.79 0 0 0 0-3.58zm-20.22-18.11h-.23a1.79 1.79 0 0 0 0 3.58h.23a1.79 1.79 0 0 0 0-3.58zm26.73 1.62a1.79 1.79 0 0 0 0 3.58 1.79 1.79 0 0 0 0-3.58zm-39.74 4.19a1.79 1.79 0 0 0 0 3.57 1.79 1.79 0 0 0 0-3.57zm.71-33.47a1.79 1.79 0 0 0 0 3.58 1.79 1.79 0 0 0 0-3.58zm26.95 17.2a1.79 1.79 0 0 0 0 3.58 1.79 1.79 0 0 0 0-3.58zm24.39-9.53a1.79 1.79 0 0 0 0 3.58 1.79 1.79 0 0 0 0-3.58zm-33.45-16.26h-.24a1.79 1.79 0 1 0 0 3.58h.24a1.79 1.79 0 0 0 0-3.58zm14.86 9.29a1.79 1.79 0 0 0 0 3.58 1.79 1.79 0 0 0 0-3.58zm-32.75-27.65h-.24a1.79 1.79 0 0 0 0 3.58h.24a1.79 1.79 0 0 0 0-3.58zm46.93 21.61a1.79 1.79 0 0 0 0 3.58 1.79 1.79 0 0 0 0-3.58zm17.89 6.97a1.79 1.79 0 0 0 0 3.58 1.79 1.79 0 0 0 0-3.58z"/><path class="cls-12" d="M735.07 677.54v136.27a40.91 40.91 0 0 0-3.92 3.06h-83.94a41.76 41.76 0 0 1-2.46-14.11v-34.42a77.24 77.24 0 0 1 22.63-54.61l20.26-20.27a54.38 54.38 0 0 1 38.43-15.92z"/><ellipse class="cls-13" cx="729.05" cy="703.4" rx="2.26" ry="7.62"/><ellipse class="cls-13" cx="691.81" cy="756.82" rx="7.62" ry="2.26"/><ellipse class="cls-13" cx="634.83" cy="748.25" rx="7.62" ry="2.26"/><ellipse class="cls-13" cx="684" cy="794.29" rx="2.26" ry="7.62"/><ellipse class="cls-14" cx="689.62" cy="810.02" rx="7.62" ry="2.26" transform="rotate(-45 689.618 810.011)"/><ellipse class="cls-13" cx="699.51" cy="720.63" rx="2.26" ry="7.62" transform="rotate(-45 699.515 720.631)"/><ellipse class="cls-13" cx="728.55" cy="805.95" rx="2.26" ry="7.62" transform="rotate(-45 728.553 805.944)"/><ellipse class="cls-13" cx="715.88" cy="778.22" rx="7.62" ry="2.26" transform="rotate(-45 715.88 778.223)"/><ellipse class="cls-13" cx="711.79" cy="774.12" rx="7.62" ry="2.26" transform="rotate(-45 711.793 774.126)"/><ellipse class="cls-13" cx="678.55" cy="784.93" rx="2.26" ry="7.62"/><ellipse class="cls-13" cx="682.19" cy="748.3" rx="7.62" ry="2.26"/><ellipse class="cls-13" cx="657.27" cy="744.97" rx="7.62" ry="2.26" transform="rotate(-45 657.276 744.968)"/><ellipse class="cls-13" cx="725.8" cy="746.05" rx="7.62" ry="2.26" transform="rotate(-45 725.801 746.043)"/><ellipse class="cls-13" cx="655.55" cy="774.56" rx="7.62" ry="2.26" transform="rotate(-45 655.554 774.56)"/><ellipse class="cls-12" cx="643.88" cy="803.56" rx="7.62" ry="2.26" transform="rotate(-45 643.878 803.567)"/><ellipse class="cls-14" cx="705.13" cy="795.88" rx="7.62" ry="2.26" transform="rotate(-45 705.132 795.875)"/><ellipse class="cls-14" cx="689.45" cy="733.34" rx="2.26" ry="7.62"/><ellipse class="cls-12" cx="684.2" cy="696.85" rx="2.26" ry="7.62"/><ellipse class="cls-12" cx="662.89" cy="723.54" rx="2.26" ry="7.62" transform="rotate(-45 662.887 723.533)"/><ellipse class="cls-12" cx="644.53" cy="720.63" rx="7.62" ry="2.26" transform="rotate(-45 644.528 720.638)"/><ellipse class="cls-13" cx="682.19" cy="670.33" rx="7.62" ry="2.26"/><ellipse class="cls-12" cx="690.28" cy="690.43" rx="2.26" ry="7.62"/><ellipse class="cls-14" cx="715.17" cy="689.23" rx="7.62" ry="2.26" transform="rotate(-45 715.18 689.233)"/><path class="cls-15" d="m731.19 184.67-52.54 22.69a36.39 36.39 0 0 0-14.07 10.79l-62.82 79.35a44.77 44.77 0 0 0-9.6 30l2.62 52.29 24-15.77z"/><path class="cls-6" d="m647.89 332.7 2.61 33.54a26.82 26.82 0 0 0 9.11 18.12L710.85 429a6.38 6.38 0 0 0 8.63-.22 6.34 6.34 0 0 0 1.95-4.58v-4.79a50 50 0 0 0-15.82-36.6l-17.44-16.34.44-2.27a78 78 0 0 0 .11-29.25c-.75-4-1.32-7.34-1.15-7.56.42-.59 18.58-38.39 18.58-38.39l26.09 15.3-8.42-38.79-42.7 14z"/><path class="cls-15" d="m596.4 369.31 18.69 50.59a5.08 5.08 0 0 0 8.53 1.64l.92-1a41.29 41.29 0 0 0 9.81-35.86L626.94 348z"/><path class="cls-16" d="M735.07 400.46V448a98.34 98.34 0 0 0-131.63-17.34 83.1 83.1 0 0 1 131.63-30.15z"/><path class="cls-11" d="M735.07 448v37.66L603.4 430.69v-.08A98.42 98.42 0 0 1 735.07 448z"/><path d="M735.07 460.19v17.39l-115.22-48.07a91.07 91.07 0 0 1 115.22 30.68z" fill="#ffcf70"/><path class="cls-11" d="m730.73 448.31.5 4.49-36.33 4.05a3.26 3.26 0 0 0-2.91 2.92 10.2 10.2 0 0 1-.76 3.1l-19.24-8a10.42 10.42 0 0 1 2-3 3.28 3.28 0 0 0 .21-4.17l-22-29.8 3.63-2.68 22.4 30.27a8.33 8.33 0 0 0 5.28 3.18L694 423.51l4.17 1.74-10.5 25.16.48.36a7.8 7.8 0 0 0 5.71 1.73z"/><path class="cls-18" d="M735.07 181.05v125.77l-18.74 1.56-49.1 36a90.1 90.1 0 0 1-27.58 32.56l-9.25 6.72-11.4 22.69a40.37 40.37 0 0 1-26.32 21.09l-5.12 1.29a7.72 7.72 0 0 1-9.32-9.52l14.54-53.16a36.73 36.73 0 0 1 4.58-10.27l41.53-64.29 64.34-85.3a80.14 80.14 0 0 1 31.84-25.14z"/><path class="cls-12" d="M578.86 417a4.44 4.44 0 0 0 6 2.53l.22-.1a4.76 4.76 0 0 0 2.63-3.05l4.84-17.38a5.53 5.53 0 0 0-3.82-6.81 3 3 0 0 0-3.65 2.07z"/><path class="cls-1" d="M263.13 650.66a12.92 12.92 0 0 0-8.42-14.59 7.91 7.91 0 0 1-2.51-1.46l-.06-.05a13 13 0 0 0-16.64-.08l-.15.12a8.29 8.29 0 0 1-2.52 1.47 12.93 12.93 0 0 0-8.42 14.59 8.13 8.13 0 0 1 0 3 13 13 0 0 0 8.42 14.6 8.22 8.22 0 0 1 2.53 1.47l.06.05a13 13 0 0 0 16.74 0l.06-.05a8.25 8.25 0 0 1 2.5-1.46h.05a12.94 12.94 0 0 0 8.42-14.6 8.13 8.13 0 0 1-.06-3.01z"/><path class="cls-11" d="m253.91 644.41-2.45-2.41a7.46 7.46 0 0 1-2.18-5.28v-3.85c-.5-.05-1-.08-1.52-.08a15 15 0 0 0-1.51.08v3.85a7.47 7.47 0 0 1-2.19 5.28l-2.45 2.45a7.46 7.46 0 0 1-5.28 2.18h-3.85c0 .5-.07 1-.07 1.52s0 1 .07 1.51h3.85a7.47 7.47 0 0 1 5.28 2.19l2.45 2.45a7.45 7.45 0 0 1 2.19 5.27v3.86c.49 0 1 .07 1.51.07s1 0 1.52-.07v-3.86a7.44 7.44 0 0 1 2.18-5.27l2.45-2.45a7.47 7.47 0 0 1 5.28-2.19H263c0-.5.07-1 .07-1.51s0-1-.07-1.52h-3.85a7.46 7.46 0 0 1-5.24-2.22z"/><circle class="cls-19" cx="252.18" cy="658.55" r="1.94"/><circle class="cls-19" cx="255.38" cy="655.35" r="1.94"/><circle class="cls-19" cx="258.59" cy="652.15" r="1.94"/><circle class="cls-19" cx="258.23" cy="644.1" r="1.94"/><circle class="cls-19" cx="255.09" cy="640.84" r="1.94"/><circle class="cls-19" cx="251.95" cy="637.58" r="1.94"/><circle class="cls-19" cx="243.7" cy="637.86" r="1.94"/><circle class="cls-19" cx="240.44" cy="641" r="1.94"/><circle class="cls-19" cx="237.17" cy="644.14" r="1.94"/><circle class="cls-19" cx="237.46" cy="652.39" r="1.94"/><circle class="cls-19" cx="240.6" cy="655.65" r="1.94"/><circle class="cls-19" cx="243.74" cy="658.91" r="1.94"/><path class="cls-20" d="M267.16 646.63a12.94 12.94 0 0 0-8.42-14.6 7.91 7.91 0 0 1-2.51-1.46h-.06a13 13 0 0 0-16.63-.08l-.16.13a8.18 8.18 0 0 1-2.52 1.47 13 13 0 0 0-8.42 14.6 8.13 8.13 0 0 1 0 3 13 13 0 0 0 8.42 14.6 8.22 8.22 0 0 1 2.53 1.47l.06.05a13 13 0 0 0 16.74 0l.06-.05a8.37 8.37 0 0 1 2.5-1.46h.05a12.94 12.94 0 0 0 8.42-14.6 8.13 8.13 0 0 1-.06-3.07zM247.76 662a13.86 13.86 0 1 1 13.86-13.86A13.87 13.87 0 0 1 247.76 662z"/><path class="cls-21" d="M264.77 646.19a10.55 10.55 0 0 0-6.85-11.86 10.64 10.64 0 0 1-3.31-1.91 10.57 10.57 0 0 0-13.7 0 10.64 10.64 0 0 1-3.31 1.91 10.55 10.55 0 0 0-6.85 11.86 10.72 10.72 0 0 1 0 3.83 10.57 10.57 0 0 0 6.85 11.87 10.44 10.44 0 0 1 3.31 1.91 10.57 10.57 0 0 0 13.7 0 10.44 10.44 0 0 1 3.31-1.91 10.57 10.57 0 0 0 6.85-11.89 10.72 10.72 0 0 1 0-3.81zm-17 15.78a13.86 13.86 0 1 1 13.86-13.86A13.87 13.87 0 0 1 247.76 662z"/><path class="cls-1" d="M230.82 816.67a94.68 94.68 0 0 0 7.26-36.43c0-53.17-43.79-96.28-97.8-96.28s-97.8 43.11-97.8 96.28a94.68 94.68 0 0 0 7.26 36.43z"/><path class="cls-18" d="M237.5 816.67a94.77 94.77 0 0 0 14-49.61c0-53.18-43.79-96.28-97.8-96.28s-97.8 43.1-97.8 96.28a94.77 94.77 0 0 0 14 49.61z"/><path class="cls-6" d="M231.32 816.67a89.63 89.63 0 0 0 14.94-49.61c0-50.34-41.46-91.15-92.59-91.15s-92.59 40.81-92.59 91.15A89.7 89.7 0 0 0 76 816.67z"/><path class="cls-9" d="M214.23 816.67a76.58 76.58 0 0 0 18.23-49.61c0-42.84-35.28-77.56-78.79-77.56s-78.79 34.72-78.79 77.56a76.52 76.52 0 0 0 18.23 49.61z"/><path d="M156.41 717.05a14 14 0 0 0-9.28-15.84 9 9 0 0 1-2.77-1.58l-.07-.06a14.48 14.48 0 0 0-18.32-.09l-.16.14a9.26 9.26 0 0 1-2.78 1.59 14 14 0 0 0-9.29 15.84 8.61 8.61 0 0 1 0 3.2 14 14 0 0 0 9.29 15.83 9.1 9.1 0 0 1 2.79 1.59l.06.06a14.53 14.53 0 0 0 18.44 0l.07-.06a8.92 8.92 0 0 1 2.76-1.58 14 14 0 0 0 9.28-15.83 9.05 9.05 0 0 1-.02-3.21z"/><path class="cls-11" d="m146.25 710.26-2.7-2.65a8.05 8.05 0 0 1-2.41-5.73v-4.18c-.54-.05-1.1-.08-1.66-.08s-1.13 0-1.67.08v4.18a8.05 8.05 0 0 1-2.41 5.73l-2.7 2.65a8.29 8.29 0 0 1-5.82 2.37h-4.24a17 17 0 0 0 0 3.29h4.24a8.29 8.29 0 0 1 5.82 2.37l2.7 2.66a8 8 0 0 1 2.41 5.72v4.18a17.37 17.37 0 0 0 3.33 0v-4.18a8 8 0 0 1 2.41-5.72l2.7-2.66a8.29 8.29 0 0 1 5.82-2.37h4.24a17 17 0 0 0 0-3.29h-4.24a8.29 8.29 0 0 1-5.82-2.37z"/><ellipse class="cls-19" cx="144.35" cy="725.61" rx="2.14" ry="2.11"/><ellipse class="cls-19" cx="147.88" cy="722.13" rx="2.14" ry="2.11"/><ellipse class="cls-19" cx="151.4" cy="718.66" rx="2.14" ry="2.11"/><ellipse class="cls-19" cx="151.01" cy="709.93" rx="2.14" ry="2.11"/><ellipse class="cls-19" cx="147.55" cy="706.39" rx="2.14" ry="2.11"/><ellipse class="cls-19" cx="144.09" cy="702.86" rx="2.14" ry="2.11"/><ellipse class="cls-19" cx="135" cy="703.16" rx="2.14" ry="2.11"/><ellipse class="cls-19" cx="131.4" cy="706.57" rx="2.14" ry="2.11"/><ellipse class="cls-19" cx="127.81" cy="709.98" rx="2.14" ry="2.11"/><ellipse class="cls-19" cx="128.12" cy="718.92" rx="2.14" ry="2.11"/><ellipse class="cls-19" cx="131.58" cy="722.46" rx="2.14" ry="2.11"/><ellipse class="cls-19" cx="135.04" cy="726" rx="2.14" ry="2.11"/><path class="cls-20" d="M160.86 712.68a14 14 0 0 0-9.29-15.84 9 9 0 0 1-2.77-1.58l-.07-.06a14.48 14.48 0 0 0-18.32-.09l-.17.14a9 9 0 0 1-2.78 1.58 14 14 0 0 0-9.29 15.84 8.56 8.56 0 0 1 0 3.19 14 14 0 0 0 9.29 15.84 8.9 8.9 0 0 1 2.79 1.59l.07.05a14.48 14.48 0 0 0 18.43 0l.07-.05a8.92 8.92 0 0 1 2.76-1.58 14 14 0 0 0 9.29-15.84 8.56 8.56 0 0 1-.01-3.19zm-21.38 16.63a15 15 0 1 1 15.27-15 15.16 15.16 0 0 1-15.27 15z"/><path class="cls-21" d="M158.22 712.2a11.42 11.42 0 0 0-7.55-12.87 11.89 11.89 0 0 1-3.65-2.07 11.79 11.79 0 0 0-15.09 0 11.89 11.89 0 0 1-3.65 2.07 11.42 11.42 0 0 0-7.55 12.87 11.14 11.14 0 0 1 0 4.15 11.44 11.44 0 0 0 7.55 12.88 11.69 11.69 0 0 1 3.65 2.07 11.77 11.77 0 0 0 15.09 0 11.69 11.69 0 0 1 3.65-2.07 11.44 11.44 0 0 0 7.55-12.88 11.14 11.14 0 0 1 0-4.15zm-18.74 17.11a15 15 0 1 1 15.27-15 15.16 15.16 0 0 1-15.27 15z"/><path d="M170.56 769.43a14 14 0 0 0-9.28-15.84 9 9 0 0 1-2.77-1.58l-.07-.06a14.48 14.48 0 0 0-18.32-.09l-.16.14a9 9 0 0 1-2.78 1.58 14 14 0 0 0-9.29 15.84 8.56 8.56 0 0 1 0 3.19 14 14 0 0 0 9.29 15.84 8.9 8.9 0 0 1 2.79 1.59l.06.05a14.5 14.5 0 0 0 18.44 0l.07-.05a8.92 8.92 0 0 1 2.76-1.58h.05a14 14 0 0 0 9.28-15.84 9 9 0 0 1-.07-3.19z"/><path class="cls-11" d="m160.4 762.64-2.7-2.64a8 8 0 0 1-2.41-5.72v-4.18c-.54-.05-1.1-.08-1.67-.08s-1.12 0-1.66.08v4.18a8 8 0 0 1-2.41 5.72l-2.7 2.66A8.29 8.29 0 0 1 141 765h-4.24a17 17 0 0 0 0 3.29H141a8.29 8.29 0 0 1 5.82 2.37l2.7 2.66a8 8 0 0 1 2.41 5.72v4.18c.54 0 1.1.08 1.66.08s1.13 0 1.67-.08v-4.18a8 8 0 0 1 2.41-5.72l2.7-2.66a8.29 8.29 0 0 1 5.82-2.37h4.24a17 17 0 0 0 0-3.29h-4.24a8.29 8.29 0 0 1-5.79-2.36z"/><ellipse class="cls-19" cx="158.5" cy="777.98" rx="2.14" ry="2.11"/><ellipse class="cls-19" cx="162.03" cy="774.51" rx="2.14" ry="2.11"/><ellipse class="cls-19" cx="165.55" cy="771.04" rx="2.14" ry="2.11"/><ellipse class="cls-19" cx="165.16" cy="762.31" rx="2.14" ry="2.11"/><ellipse class="cls-19" cx="161.7" cy="758.77" rx="2.14" ry="2.11"/><ellipse class="cls-19" cx="158.24" cy="755.23" rx="2.14" ry="2.11"/><ellipse class="cls-19" cx="149.15" cy="755.54" rx="2.14" ry="2.11"/><ellipse class="cls-19" cx="145.55" cy="758.95" rx="2.14" ry="2.11"/><ellipse class="cls-19" cx="141.96" cy="762.35" rx="2.14" ry="2.11"/><ellipse class="cls-19" cx="142.27" cy="771.3" rx="2.14" ry="2.11"/><ellipse class="cls-19" cx="145.73" cy="774.84" rx="2.14" ry="2.11"/><ellipse class="cls-19" cx="149.19" cy="778.38" rx="2.14" ry="2.11"/><path class="cls-20" d="M175 765.06a14 14 0 0 0-9.29-15.84 9 9 0 0 1-2.77-1.59h-.07a14.48 14.48 0 0 0-18.32-.09l-.17.14a8.85 8.85 0 0 1-2.78 1.59 14 14 0 0 0-9.29 15.84 8.56 8.56 0 0 1 0 3.19 14 14 0 0 0 9.29 15.84 8.9 8.9 0 0 1 2.79 1.59h.07a14.48 14.48 0 0 0 18.43 0h.07a8.92 8.92 0 0 1 2.76-1.58h.05a14 14 0 0 0 9.23-15.9 8.56 8.56 0 0 1 0-3.19zm-21.39 16.63a15 15 0 1 1 15.28-15 15.16 15.16 0 0 1-15.27 15z"/><path class="cls-21" d="M172.37 764.58a11.42 11.42 0 0 0-7.55-12.87 11.5 11.5 0 0 1-3.65-2.07 11.79 11.79 0 0 0-15.09 0 11.5 11.5 0 0 1-3.65 2.07 11.42 11.42 0 0 0-7.55 12.87 11.14 11.14 0 0 1 0 4.15 11.42 11.42 0 0 0 7.55 12.87 11.72 11.72 0 0 1 3.65 2.08 11.79 11.79 0 0 0 15.09 0 11.72 11.72 0 0 1 3.65-2.08 11.42 11.42 0 0 0 7.55-12.87 11.14 11.14 0 0 1 0-4.15zm-18.75 17.11a15 15 0 1 1 15.28-15 15.16 15.16 0 0 1-15.28 15z"/><path d="M95.87 816.67H139a14.14 14.14 0 0 0-.16-4 8.61 8.61 0 0 1 0-3.2 14 14 0 0 0-9.29-15.84 9 9 0 0 1-2.77-1.58l-.07-.06a14.48 14.48 0 0 0-18.32-.09l-.17.14a9 9 0 0 1-2.78 1.58A14 14 0 0 0 96 809.48a8.61 8.61 0 0 1 0 3.2 14.14 14.14 0 0 0-.13 3.99z"/><path class="cls-20" d="M101.5 816.67h8.94a14.84 14.84 0 0 1-3.86-10 15.28 15.28 0 0 1 30.55 0 14.84 14.84 0 0 1-3.86 10h8.94a13.83 13.83 0 0 0 1-8.37 8.56 8.56 0 0 1 0-3.19 14 14 0 0 0-9.21-15.84 9 9 0 0 1-2.78-1.58l-.06-.06a14.5 14.5 0 0 0-18.33-.09l-.17.14a9 9 0 0 1-2.78 1.58 14 14 0 0 0-9.28 15.84 9 9 0 0 1 0 3.19 13.9 13.9 0 0 0 .9 8.38z"/><ellipse class="cls-19" cx="130.26" cy="814.56" rx="2.14" ry="2.11"/><ellipse class="cls-19" cx="133.79" cy="811.09" rx="2.14" ry="2.11"/><ellipse class="cls-19" cx="133.39" cy="802.36" rx="2.14" ry="2.11"/><ellipse class="cls-19" cx="129.93" cy="798.82" rx="2.14" ry="2.11"/><ellipse class="cls-19" cx="126.47" cy="795.28" rx="2.14" ry="2.11"/><ellipse class="cls-19" cx="117.38" cy="795.59" rx="2.14" ry="2.11"/><ellipse class="cls-19" cx="113.79" cy="799" rx="2.14" ry="2.11"/><ellipse class="cls-19" cx="110.19" cy="802.41" rx="2.14" ry="2.11"/><ellipse class="cls-19" cx="110.5" cy="811.35" rx="2.14" ry="2.11"/><ellipse class="cls-19" cx="113.96" cy="814.89" rx="2.14" ry="2.11"/><path class="cls-11" d="M109.26 808.35a8.27 8.27 0 0 1 5.82 2.37l2.7 2.66a8 8 0 0 1 2 3.29H124a7.91 7.91 0 0 1 2-3.29l2.7-2.66a8.31 8.31 0 0 1 5.82-2.37h4.24a17 17 0 0 0 0-3.29h-4.24a8.31 8.31 0 0 1-5.82-2.37l-2.7-2.66a8 8 0 0 1-2.4-5.72v-4.18c-.55 0-1.11-.08-1.67-.08s-1.12 0-1.67.08v4.18a8 8 0 0 1-2.41 5.72l-2.7 2.66a8.27 8.27 0 0 1-5.82 2.37H105c0 .54-.08 1.09-.08 1.65s0 1.1.08 1.64z"/><path class="cls-21" d="M104.53 816.67h5.91a14.84 14.84 0 0 1-3.86-10 15.28 15.28 0 0 1 30.55 0 14.84 14.84 0 0 1-3.86 10h5.91a11.26 11.26 0 0 0 1.42-7.89 11.58 11.58 0 0 1 0-4.15 11.42 11.42 0 0 0-7.55-12.87 11.72 11.72 0 0 1-3.65-2.08 11.79 11.79 0 0 0-15.09 0 11.72 11.72 0 0 1-3.65 2.08 11.43 11.43 0 0 0-7.55 12.87 11.14 11.14 0 0 1 0 4.15 11.31 11.31 0 0 0 1.42 7.89z"/><path d="M116.8 774.23a13.93 13.93 0 0 0 4.81-17.67 8.54 8.54 0 0 1-.82-3v-.09a14 14 0 0 0-4.14-8.75 14.44 14.44 0 0 0-8.76-4.07h-.22a9 9 0 0 1-3.1-.81 14.41 14.41 0 0 0-17.94 4.74 8.68 8.68 0 0 1-2.3 2.26 13.9 13.9 0 0 0-4.8 17.66 8.67 8.67 0 0 1 .84 3.07v.08a14 14 0 0 0 4.15 8.76 14.49 14.49 0 0 0 8.89 4.08h.09a9.24 9.24 0 0 1 3.09.81 14.39 14.39 0 0 0 17.94-4.73 8.83 8.83 0 0 1 2.27-2.34z"/><path class="cls-11" d="M113.43 757.21v-3.76a8 8 0 0 1 2.41-5.72l3-3a16.18 16.18 0 0 0-2.36-2.32l-3 2.95a8.29 8.29 0 0 1-5.82 2.37h-3.81A8.29 8.29 0 0 1 98 745.4l-3-2.95a16.18 16.18 0 0 0-2.36 2.32l3 3a8 8 0 0 1 2.41 5.72v3.76a8 8 0 0 1-2.41 5.72l-3 3c.35.42.72.82 1.12 1.22a16 16 0 0 0 1.24 1.1l3-3a8.29 8.29 0 0 1 5.82-2.37h3.81a8.29 8.29 0 0 1 5.82 2.37l3 3a16 16 0 0 0 1.24-1.1c.4-.4.77-.8 1.12-1.22l-3-3a8 8 0 0 1-2.38-5.76z"/><ellipse class="cls-19" cx="101.06" cy="766.73" rx="2.14" ry="2.11"/><ellipse class="cls-19" cx="106.05" cy="766.73" rx="2.14" ry="2.11"/><ellipse class="cls-19" cx="111.04" cy="766.73" rx="2.14" ry="2.11"/><ellipse class="cls-19" cx="117.03" cy="760.29" rx="2.14" ry="2.11"/><ellipse class="cls-19" cx="117.13" cy="755.38" rx="2.14" ry="2.11"/><ellipse class="cls-19" cx="117.22" cy="750.46" rx="2.14" ry="2.11"/><ellipse class="cls-19" cx="110.57" cy="744.35" rx="2.14" ry="2.11"/><ellipse class="cls-19" cx="105.58" cy="744.26" rx="2.14" ry="2.11"/><ellipse class="cls-19" cx="100.6" cy="744.17" rx="2.14" ry="2.11"/><ellipse class="cls-19" cx="94.39" cy="750.71" rx="2.14" ry="2.11"/><ellipse class="cls-19" cx="94.3" cy="755.62" rx="2.14" ry="2.11"/><ellipse class="cls-19" cx="94.2" cy="760.54" rx="2.14" ry="2.11"/><path class="cls-20" d="M122 769.08a13.92 13.92 0 0 0 4.81-17.66 8.81 8.81 0 0 1-.82-3v-.09a14.06 14.06 0 0 0-4.14-8.76 14.42 14.42 0 0 0-8.75-4.06h-.22a9.07 9.07 0 0 1-3.11-.82 14.4 14.4 0 0 0-18 4.74 8.91 8.91 0 0 1-2.29 2.25 13.93 13.93 0 0 0-4.81 17.67 8.76 8.76 0 0 1 .83 3.06v.09a14.06 14.06 0 0 0 4.14 8.76 14.42 14.42 0 0 0 8.9 4.07h.08a8.89 8.89 0 0 1 3.09.81 14.42 14.42 0 0 0 18-4.74 9.11 9.11 0 0 1 2.29-2.32zM95 766a14.86 14.86 0 0 1 0-21.26 15.44 15.44 0 0 1 21.59 0 14.86 14.86 0 0 1 0 21.26A15.44 15.44 0 0 1 95 766z"/><path class="cls-21" d="M120.5 766.91a11.36 11.36 0 0 0 3.91-14.36 11.19 11.19 0 0 1-1.09-4A11.56 11.56 0 0 0 112.65 738a11.85 11.85 0 0 1-4.06-1.07A11.77 11.77 0 0 0 94 740.81a11.41 11.41 0 0 1-3 2.94 11.36 11.36 0 0 0-3.91 14.36 11.19 11.19 0 0 1 1.09 4 11.56 11.56 0 0 0 10.67 10.51 11.85 11.85 0 0 1 4.06 1.07 11.75 11.75 0 0 0 14.59-3.84 11.41 11.41 0 0 1 3-2.94zM95 766a14.86 14.86 0 0 1 0-21.26 15.44 15.44 0 0 1 21.59 0 14.86 14.86 0 0 1 0 21.26A15.44 15.44 0 0 1 95 766z"/><path d="M224 781.21a13.89 13.89 0 0 0-3.68-17.92 8.88 8.88 0 0 1-2.12-2.37v-.07a14.3 14.3 0 0 0-7.67-6 14.58 14.58 0 0 0-9.67.19l-.2.08a9.21 9.21 0 0 1-3.15.63 14.19 14.19 0 0 0-13.93 12.1 8.59 8.59 0 0 1-1 3 13.9 13.9 0 0 0 3.68 17.93 8.79 8.79 0 0 1 2.13 2.38l.05.08a14.3 14.3 0 0 0 7.67 6 14.56 14.56 0 0 0 9.81-.25h.08a8.82 8.82 0 0 1 3.13-.63H209a14.18 14.18 0 0 0 13.92-12.1 8.8 8.8 0 0 1 1.08-3.05z"/><path class="cls-11" d="m216.15 769.16-1.7-3.37a8 8 0 0 1-.43-6.18l1.35-4c-.5-.22-1-.42-1.55-.6s-1.08-.32-1.61-.45l-1.36 4a8.14 8.14 0 0 1-4.13 4.68l-3.42 1.67a8.39 8.39 0 0 1-6.28.42L193 764a15.72 15.72 0 0 0-.61 1.53c-.18.53-.33 1.06-.46 1.58l4 1.34a8.16 8.16 0 0 1 4.74 4.07l1.7 3.36a8 8 0 0 1 .43 6.18l-1.35 4c.5.22 1 .42 1.55.6s1.08.32 1.61.44l1.36-4a8.15 8.15 0 0 1 4.13-4.67l3.42-1.67a8.29 8.29 0 0 1 6.28-.42l4 1.33c.23-.5.43-1 .61-1.53s.33-1.06.46-1.59l-4-1.33a8.16 8.16 0 0 1-4.72-4.06z"/><ellipse class="cls-19" cx="209.38" cy="783.11" rx="2.14" ry="2.11"/><ellipse class="cls-19" cx="213.85" cy="780.92" rx="2.14" ry="2.11"/><ellipse class="cls-19" cx="218.31" cy="778.73" rx="2.14" ry="2.11"/><ellipse class="cls-19" cx="220.76" cy="770.34" rx="2.14" ry="2.11"/><ellipse class="cls-19" cx="218.63" cy="765.9" rx="2.14" ry="2.11"/><ellipse class="cls-19" cx="216.49" cy="761.46" rx="2.14" ry="2.11"/><ellipse class="cls-19" cx="207.78" cy="758.9" rx="2.14" ry="2.11"/><ellipse class="cls-19" cx="203.27" cy="761" rx="2.14" ry="2.11"/><ellipse class="cls-19" cx="198.76" cy="763.1" rx="2.14" ry="2.11"/><ellipse class="cls-19" cx="196.16" cy="771.68" rx="2.14" ry="2.11"/><ellipse class="cls-19" cx="198.3" cy="776.12" rx="2.14" ry="2.11"/><ellipse class="cls-19" cx="200.43" cy="780.56" rx="2.14" ry="2.11"/><path class="cls-20" d="M229.21 776a13.89 13.89 0 0 0-3.68-17.92 8.67 8.67 0 0 1-2.11-2.37v-.07a14.3 14.3 0 0 0-7.67-6 14.58 14.58 0 0 0-9.67.19l-.21.08a9.11 9.11 0 0 1-3.15.63 14.18 14.18 0 0 0-13.92 12.1 8.94 8.94 0 0 1-1 3 13.89 13.89 0 0 0 3.68 17.92 8.79 8.79 0 0 1 2.13 2.38v.08a14.3 14.3 0 0 0 7.67 6 14.56 14.56 0 0 0 9.81-.25h.08a9 9 0 0 1 3.13-.63h.05a14.18 14.18 0 0 0 13.92-12.1 8.8 8.8 0 0 1 .94-3.04zm-25.65 9.06a15 15 0 0 1-9.61-19 15.33 15.33 0 0 1 19.34-9.46 15 15 0 0 1 9.61 19 15.33 15.33 0 0 1-19.34 9.49z"/><path class="cls-21" d="M226.87 774.75a11.35 11.35 0 0 0-3-14.57 11.47 11.47 0 0 1-2.78-3.11 11.73 11.73 0 0 0-14.31-4.73 12.1 12.1 0 0 1-4.13.82 11.57 11.57 0 0 0-11.32 9.84 11.32 11.32 0 0 1-1.35 3.94 11.35 11.35 0 0 0 3 14.57 11.47 11.47 0 0 1 2.78 3.11 11.74 11.74 0 0 0 14.31 4.73 11.64 11.64 0 0 1 4.13-.82 11.58 11.58 0 0 0 11.32-9.83 11.25 11.25 0 0 1 1.35-3.95zm-23.31 10.34a15 15 0 0 1-9.61-19 15.33 15.33 0 0 1 19.34-9.46 15 15 0 0 1 9.61 19 15.33 15.33 0 0 1-19.34 9.46z"/><path d="M195.76 816.67a13.9 13.9 0 0 0-1.39-6.4 8.81 8.81 0 0 1-.82-3v-.09a14.06 14.06 0 0 0-4.14-8.76 14.42 14.42 0 0 0-8.75-4.06h-.22a9.07 9.07 0 0 1-3.11-.82 14.4 14.4 0 0 0-18 4.74 8.91 8.91 0 0 1-2.29 2.25 13.92 13.92 0 0 0-5.39 16.25z"/><path class="cls-20" d="M157.45 813a8.45 8.45 0 0 1 .83 3.07v.08c0 .19.05.38.08.56h7a14.86 14.86 0 0 1 2.34-18.27 15.45 15.45 0 0 1 21.6 0 14.86 14.86 0 0 1 2.34 18.27h8.2a13.86 13.86 0 0 0-.27-11.54 8.76 8.76 0 0 1-.83-3.05V802a14 14 0 0 0-4.15-8.76 14.37 14.37 0 0 0-8.75-4.06h-.23a9 9 0 0 1-3.1-.82 14.39 14.39 0 0 0-17.96 4.64 8.83 8.83 0 0 1-2.3 2.26 13.93 13.93 0 0 0-4.81 17.74z"/><ellipse class="cls-19" cx="189.8" cy="813.99" rx="2.14" ry="2.11"/><ellipse class="cls-19" cx="189.89" cy="809.08" rx="2.14" ry="2.11"/><ellipse class="cls-19" cx="189.98" cy="804.17" rx="2.14" ry="2.11"/><ellipse class="cls-19" cx="183.34" cy="798.06" rx="2.14" ry="2.11"/><ellipse class="cls-19" cx="178.35" cy="797.97" rx="2.14" ry="2.11"/><ellipse class="cls-19" cx="173.36" cy="797.88" rx="2.14" ry="2.11"/><ellipse class="cls-19" cx="167.15" cy="804.42" rx="2.14" ry="2.11"/><ellipse class="cls-19" cx="167.06" cy="809.33" rx="2.14" ry="2.11"/><ellipse class="cls-19" cx="166.97" cy="814.24" rx="2.14" ry="2.11"/><path class="cls-11" d="M170.84 807.16v3.75a8 8 0 0 1-2.4 5.73h7.41a7 7 0 0 1 .8-.08h3.82a7.22 7.22 0 0 1 .8.08h7.41a8.05 8.05 0 0 1-2.41-5.73v-3.75a8.05 8.05 0 0 1 2.41-5.73l3-2.95a16 16 0 0 0-1.12-1.22c-.4-.39-.81-.76-1.24-1.11l-3 3a8.27 8.27 0 0 1-5.81 2.37h-3.82a8.27 8.27 0 0 1-5.81-2.37l-3-3c-.42.35-.84.72-1.23 1.11a16.16 16.16 0 0 0-1.13 1.22l3 2.95a8 8 0 0 1 2.32 5.73z"/><path class="cls-21" d="M159.87 811.81a11.67 11.67 0 0 1 1.09 4c0 .29.06.57.1.85h4.32a14.86 14.86 0 0 1 2.34-18.27 15.45 15.45 0 0 1 21.6 0 14.86 14.86 0 0 1 2.34 18.27h5.21a11.28 11.28 0 0 0 .3-10.41 11.67 11.67 0 0 1-1.09-4 11.55 11.55 0 0 0-10.67-10.5 12 12 0 0 1-4.07-1.08 11.77 11.77 0 0 0-14.59 3.85 11.38 11.38 0 0 1-3 2.93 11.37 11.37 0 0 0-3.91 14.36z"/><path d="M199.6 745.64a13.91 13.91 0 0 0 4.81-17.64 8.75 8.75 0 0 1-.82-3.05v-.08a14 14 0 0 0-4.14-8.76 14.49 14.49 0 0 0-8.75-4.07h-.22a9.05 9.05 0 0 1-3.11-.81 14.41 14.41 0 0 0-17.95 4.73 8.79 8.79 0 0 1-2.29 2.26 13.92 13.92 0 0 0-4.81 17.66 8.87 8.87 0 0 1 .83 3.07v.05a14 14 0 0 0 4.14 8.76 14.44 14.44 0 0 0 8.9 4.08h.08a9.11 9.11 0 0 1 3.09.81h.05a14.39 14.39 0 0 0 17.94-4.73 8.79 8.79 0 0 1 2.25-2.28z"/><path class="cls-11" d="M196.24 728.62v-3.76a8 8 0 0 1 2.4-5.72l3-3c-.35-.42-.73-.82-1.13-1.22a16 16 0 0 0-1.24-1.1l-3 2.95a8.27 8.27 0 0 1-5.81 2.37h-3.82a8.27 8.27 0 0 1-5.81-2.37l-3-2.95a16 16 0 0 0-1.24 1.1c-.4.4-.78.8-1.13 1.22l3 3a8 8 0 0 1 2.4 5.72v3.76a8 8 0 0 1-2.4 5.72l-3 3a16.16 16.16 0 0 0 1.13 1.22 16 16 0 0 0 1.24 1.1l3-3a8.27 8.27 0 0 1 5.81-2.37h3.82a8.27 8.27 0 0 1 5.81 2.37l3 3a16 16 0 0 0 1.24-1.1 16.16 16.16 0 0 0 1.13-1.22l-3-3a8 8 0 0 1-2.4-5.72z"/><ellipse class="cls-19" cx="183.87" cy="738.14" rx="2.14" ry="2.11"/><ellipse class="cls-19" cx="188.86" cy="738.14" rx="2.14" ry="2.11"/><ellipse class="cls-19" cx="193.85" cy="738.14" rx="2.14" ry="2.11"/><ellipse class="cls-19" cx="199.84" cy="731.7" rx="2.14" ry="2.11"/><ellipse class="cls-19" cx="199.93" cy="726.79" rx="2.14" ry="2.11"/><ellipse class="cls-19" cx="200.02" cy="721.88" rx="2.14" ry="2.11"/><ellipse class="cls-19" cx="193.38" cy="715.77" rx="2.14" ry="2.11"/><ellipse class="cls-19" cx="188.39" cy="715.67" rx="2.14" ry="2.11"/><ellipse class="cls-19" cx="183.4" cy="715.58" rx="2.14" ry="2.11"/><ellipse class="cls-19" cx="177.19" cy="722.12" rx="2.14" ry="2.11"/><ellipse class="cls-19" cx="177.1" cy="727.04" rx="2.14" ry="2.11"/><ellipse class="cls-19" cx="177.01" cy="731.95" rx="2.14" ry="2.11"/><path class="cls-20" d="M204.83 740.5a13.91 13.91 0 0 0 4.8-17.67 8.76 8.76 0 0 1-.83-3v-.09a14 14 0 0 0-4.14-8.75 14.38 14.38 0 0 0-8.76-4.07h-.22a9 9 0 0 1-3.1-.81 14.41 14.41 0 0 0-17.94 4.74 8.68 8.68 0 0 1-2.3 2.26 13.9 13.9 0 0 0-4.8 17.66 8.62 8.62 0 0 1 .84 3.06v.09a14.06 14.06 0 0 0 4.14 8.76 14.45 14.45 0 0 0 8.9 4.07h.09a9.24 9.24 0 0 1 3.09.81 14.38 14.38 0 0 0 17.94-4.74 8.79 8.79 0 0 1 2.29-2.32zm-27.07-3.13a14.87 14.87 0 0 1 0-21.26 15.45 15.45 0 0 1 21.6 0 14.87 14.87 0 0 1 0 21.26 15.45 15.45 0 0 1-21.6 0z"/><path class="cls-21" d="M203.31 738.32a11.35 11.35 0 0 0 3.9-14.36 11.61 11.61 0 0 1-1.09-4 11.55 11.55 0 0 0-10.67-10.51 11.74 11.74 0 0 1-4.07-1.07 11.74 11.74 0 0 0-14.58 3.84 11.61 11.61 0 0 1-3 2.94 11.36 11.36 0 0 0-3.9 14.36 11.61 11.61 0 0 1 1.09 4A11.55 11.55 0 0 0 181.67 744a11.75 11.75 0 0 1 4.07 1.08 11.76 11.76 0 0 0 14.58-3.85 11.61 11.61 0 0 1 2.99-2.91zm-25.55-1a14.87 14.87 0 0 1 0-21.26 15.45 15.45 0 0 1 21.6 0 14.87 14.87 0 0 1 0 21.26 15.45 15.45 0 0 1-21.6.05z"/><ellipse class="cls-19" cx="213.18" cy="806.53" rx="2.14" ry="2.11"/><ellipse class="cls-19" cx="207.2" cy="812.42" rx="2.14" ry="2.11"/><ellipse class="cls-19" cx="216.17" cy="739.62" rx="2.14" ry="2.11"/><ellipse class="cls-19" cx="90.48" cy="786.91" rx="2.14" ry="2.11"/><ellipse class="cls-19" cx="135.93" cy="747.89" rx="2.14" ry="2.11"/><ellipse class="cls-19" cx="143.48" cy="743.15" rx="2.14" ry="2.11"/><ellipse class="cls-19" cx="104.94" cy="717.69" rx="2.14" ry="2.11"/><ellipse class="cls-19" cx="168.78" cy="702.86" rx="2.14" ry="2.11"/><path class="cls-20" d="m570.07 329.05.82-.22-.72-.83a10.63 10.63 0 0 0-1.23-1.19 12.61 12.61 0 0 0 4.39-1.52l.95-.54-1.17-.78a12.55 12.55 0 0 0-7.71-2.1l-.62.05a34.21 34.21 0 0 1 4.49-1.59 10.42 10.42 0 0 0 5.35-3.57l.57-.72-1.19-.24a10.44 10.44 0 0 0-3.34-.18 16.65 16.65 0 0 0 1.59-2.94l1.39-3.34a.39.39 0 0 0-.45-.54l-3.53.81a16.93 16.93 0 0 0-3.17 1.08 10.35 10.35 0 0 0 .39-3.33v-1.18l-.8.45a10.4 10.4 0 0 0-4.42 4.67 34 34 0 0 1-2.32 4.17l.15-.61a12.55 12.55 0 0 0-.77-7.95l-.57-1.28-.7.84a12.68 12.68 0 0 0-2.24 4.07 10.31 10.31 0 0 0-1-1.41l-.7-.86-.35.78a9.64 9.64 0 0 0-.68 5.94 31.62 31.62 0 0 1 .54 3.64l-.15-.52c-.07-.23-.13-.46-.21-.69a6.67 6.67 0 0 0-.31-.78 7 7 0 0 0-2.32-2.76l-.12-.09-.51-.35-.09.59a7 7 0 0 0 .12 2.67 6.89 6.89 0 0 0 .57 1.51c.12.23.23.46.34.7 0 .09.09.18.13.27l.2.44c0 .11.09.23.14.35l.15.35c0 .14.1.27.16.41l.09.27.18.5v.06c.21.66.4 1.34.56 2 .14.59.25 1.19.34 1.79 0 .23.07.45.09.68a1 1 0 0 0 .74.88l.66.2c.58.19 1.15.4 1.7.64.65.27 1.28.57 1.9.9h.06l.46.25.25.14.38.23.32.2.32.2.4.27.25.17.63.46a7 7 0 0 0 1.89 1 6.89 6.89 0 0 0 2.11.38h.6l-.28-.59-.05-.11a7 7 0 0 0-2.33-2.75 6.59 6.59 0 0 0-.72-.44l-.64-.32-.49-.23a30.47 30.47 0 0 1 3.5 1.15 9.75 9.75 0 0 0 6.03.39z"/><path class="cls-11" transform="rotate(44.74 17.639 788.375)" d="M12.96 783.73h9.32v9.32h-9.32z"/><path class="cls-4" transform="rotate(44.74 20.945 791.646)" d="M16.27 787.01h9.32v9.32h-9.32z"/><path class="cls-11" transform="rotate(-.26 534.714 344.99)" d="M526.73 338.72h9.32v9.32h-9.32z"/><path class="cls-4" transform="rotate(-.26 539.122 345)" d="M531.39 338.7h9.32v9.32h-9.32z"/><path class="cls-20" transform="rotate(135 284.47 791.831)" d="M282.09 785.8h4.75v12.05h-4.75z"/><path class="cls-16" transform="rotate(135 281.574 794.72)" d="M279.2 788.69h4.75v12.05h-4.75z"/><path class="cls-16" d="M14.73 739.38h9.09v3.48h-9.09z"/><path class="cls-19" d="M265.06 716.38a2.28 2.28 0 0 0-.63-1.08l-.49-.38a2.41 2.41 0 0 0-1.23-.33h-.29a2.71 2.71 0 0 0-1.72.71 1.8 1.8 0 0 0-.51.79 1.87 1.87 0 0 0-.21.93l.09.65a2.51 2.51 0 0 0 .63 1.08l.49.38a2.41 2.41 0 0 0 1.23.33h.29a1.69 1.69 0 0 0 .94-.21 2.2 2.2 0 0 0 1.29-1.29 1.88 1.88 0 0 0 .21-.94zm17.02 44.3a2.4 2.4 0 0 0-.62-1.08l-.5-.38a2.41 2.41 0 0 0-1.23-.33h-.28a1.69 1.69 0 0 0-.94.21 1.78 1.78 0 0 0-.79.5 2.77 2.77 0 0 0-.71 1.73l.08.64a2.45 2.45 0 0 0 .63 1.08l.49.38a2.45 2.45 0 0 0 1.24.33h.28a1.69 1.69 0 0 0 .94-.21 1.75 1.75 0 0 0 .79-.5 1.9 1.9 0 0 0 .5-.78 1.93 1.93 0 0 0 .21-.94zM511.37 354.9a2.45 2.45 0 0 0-.62-1.08l-.5-.38a2.41 2.41 0 0 0-1.23-.33h-.28a1.88 1.88 0 0 0-.94.21 1.78 1.78 0 0 0-.79.5 1.84 1.84 0 0 0-.5.79 1.69 1.69 0 0 0-.21.94l.08.65a2.48 2.48 0 0 0 .63 1.07l.5.38a2.53 2.53 0 0 0 1.23.34h.26a1.88 1.88 0 0 0 .94-.21 2.2 2.2 0 0 0 1.29-1.29 1.91 1.91 0 0 0 .21-.94zm210.44-178.24a2.57 2.57 0 0 0-.63-1.08l-.49-.38a2.41 2.41 0 0 0-1.23-.33h-.29a2.71 2.71 0 0 0-1.72.71 1.86 1.86 0 0 0-.51.79 1.88 1.88 0 0 0-.21.94l.09.65a2.38 2.38 0 0 0 .63 1.07l.49.38a2.53 2.53 0 0 0 1.23.34h.29a1.91 1.91 0 0 0 .94-.21 2.27 2.27 0 0 0 1.29-1.29 1.91 1.91 0 0 0 .21-.94zM296 514.51a2.36 2.36 0 0 0-.62-1.07l-.5-.38a2.42 2.42 0 0 0-1.23-.34h-.28a1.88 1.88 0 0 0-.94.21 2.2 2.2 0 0 0-1.29 1.29 1.71 1.71 0 0 0-.21.94l.08.65a2.57 2.57 0 0 0 .63 1.08l.49.38a2.48 2.48 0 0 0 1.24.33h.28a1.88 1.88 0 0 0 .94-.21 1.94 1.94 0 0 0 .79-.5 1.84 1.84 0 0 0 .5-.79 1.88 1.88 0 0 0 .21-.94zm42.42-44.7a2.38 2.38 0 0 0-.63-1.07l-.49-.38a2.53 2.53 0 0 0-1.23-.34h-.29a1.91 1.91 0 0 0-.94.21 2.27 2.27 0 0 0-1.29 1.29 1.91 1.91 0 0 0-.21.94l.09.65a2.47 2.47 0 0 0 .63 1.08l.49.38a2.41 2.41 0 0 0 1.23.33h.29a2.71 2.71 0 0 0 1.72-.71 1.86 1.86 0 0 0 .51-.79 1.88 1.88 0 0 0 .21-.94zM47.56 714.1a2.48 2.48 0 0 0-.63-1.07l-.49-.39a2.48 2.48 0 0 0-1.24-.33h-.28a1.88 1.88 0 0 0-.94.21 1.86 1.86 0 0 0-.79.51 1.81 1.81 0 0 0-.5.78 1.88 1.88 0 0 0-.21.94l.09.65a2.36 2.36 0 0 0 .62 1.07l.5.39a2.41 2.41 0 0 0 1.23.33h.28a1.88 1.88 0 0 0 .94-.21 2.2 2.2 0 0 0 1.29-1.29 1.69 1.69 0 0 0 .21-.94zM5.08 804.34a2.57 2.57 0 0 0-.63-1.08l-.45-.38a2.41 2.41 0 0 0-1.23-.33h-.33a1.88 1.88 0 0 0-.94.21 1.9 1.9 0 0 0-.78.5 1.86 1.86 0 0 0-.51.79A1.88 1.88 0 0 0 0 805l.09.65a2.3 2.3 0 0 0 .63 1.07l.49.38a2.42 2.42 0 0 0 1.23.34h.29a1.91 1.91 0 0 0 .94-.21 1.83 1.83 0 0 0 .78-.51 1.83 1.83 0 0 0 .51-.78 1.91 1.91 0 0 0 .21-.94z"/><path class="cls-16" transform="rotate(-45 693.221 182.348)" d="M685.66 179.57h15.13v5.56h-15.13z"/><path class="cls-16" d="m208.27.01 185.7 262.9 59.04-41.71L296.78.01h-88.51zM735 0v22l-33.19 23.46-.33-.48-3.58-5.06-12.72-18 6.91-4.92a23.24 23.24 0 0 0 9.72-17z"/><path class="cls-4" d="m674.15 65-25.04 17.69-17.95 12.67 70.65-49.9-13.95 9.86L674.15 65zm-96.74 68.33 33.55-23.69-9.65 6.81-23.9 16.88zm-126.66 55.05L318.22.74l-.53-.73h-20.91L453.01 221.2l26.7-18.86-12.74 9-16.22-22.96z"/><path class="cls-4" d="m671.25 31.8 16.61 23.52 13.95-9.86-16.63-23.55-13.93 9.89z"/><path class="cls-2" d="m317.69.01.53.73 1.04-.73h-1.57zm20.55 0 126.2 178.66-74.68-105.73L338.24.01zm126.2 178.66-13.69 9.71 16.22 22.96 12.74-9 .97-.68-16.24-22.99zm15.27 23.67.97-.68-.97.68zM674.15 65l13.71-9.68-16.61-23.52-13.68 9.72L674.15 65zm0 0 13.71-9.68L674.15 65z"/><path class="cls-5" d="m464.44 178.67 16.24 22.99 25.04-17.69-16.28-23.06-25 17.76zm16.24 22.99 25.04-17.69-25.04 17.69zM657.57 41.52l-25 17.75 16.54 23.42L674.15 65l-16.58-23.48zm-8.46 41.17L674.15 65l-25.04 17.69z"/><path class="cls-4" d="m593.68 121.84-16.27 11.49 23.9-16.88-7.63 5.39zm-70.02 49.45-17.94 12.68 18.09-12.78-.15.1zm-17.94 12.68 24.51-17.31-6.42 4.53-18.09 12.78z"/><path class="cls-4" d="m507.35 148.19-17.91 12.72 16.28 23.06 17.94-12.68-16.31-23.1zm125.22-88.92-17.91 12.72 16.5 23.37 17.95-12.67-16.54-23.42z"/><path class="cls-16" d="m610.96 109.64 20.2-14.28-29.85 21.09 9.65-6.81zm-9.65 6.81 29.85-21.09-37.48 26.48 7.63-5.39zm-33.68 23.79.14-.1-44.11 31.15.15-.1 43.82-30.95z"/><path class="cls-16" d="m523.81 171.19 6.42-4.53 37.4-26.42-43.82 30.95z"/><path class="cls-16" d="m530.23 166.66 47.18-33.33-9.78 6.91-37.4 26.42z"/><path class="cls-16" d="m567.63 140.24 9.78-6.91-9.64 6.81-.14.1z"/><path class="cls-16" d="m507.35 148.19 16.31 23.1 44.11-31.15 25.91-18.3 37.48-26.48-16.5-23.37-107.31 76.2z"/><path class="cls-16" d="m567.77 140.14 9.64-6.81 16.27-11.49-25.91 18.3z"/><path class="cls-20" d="m685.18 21.91 6.91-4.91a23.26 23.26 0 0 0 9.72-17h-32.1z"/><path class="cls-5" d="m648.79.01 22.46 31.79 13.93-9.89L669.71.01h-20.92z"/><path class="cls-22" d="m628.24.01 29.33 41.51 13.68-9.72L648.79.01h-20.55zm0 0 29.33 41.51L628.24.01z"/><path class="cls-2" d="M375.78.01h-37.54l51.52 72.93 74.68 105.73 25-17.76-23.63-33.45L375.78.01z"/><path class="cls-2" d="M389.76 72.94 338.24.01l51.52 72.93zM628.24.01H590.7l14.09 19.94 27.78 39.32 25-17.75L628.24.01z"/><path class="cls-5" d="M402.68.01h-26.9l90.03 127.45 23.63 33.45 17.91-12.72-66.42-94.03L402.68.01zm188.02 0h-26.89l7.1 10.05 43.75 61.93 17.91-12.72-27.78-39.32L590.7.01z"/><path class="cls-20" d="M563.81.01H402.68l38.25 54.15 66.42 94.03 107.31-76.2-43.75-61.93-7.1-10.05z"/><path class="cls-22" d="m318.22.74 132.53 187.64L318.22.74zm1.04-.73-1.04.73 132.53 187.64 13.69-9.71L338.24.01h-18.98z"/><path class="cls-1" d="M735.03 21.28v36.5l-324.2 229-3.57-5.07-13.63-19.27L701.48 44.98l33.55-23.7z"/><path class="cls-1" d="M429.77 321.24q-4.26-.4-8.47-.43a64.54 64.54 0 0 0-13-38c2.49-1.42 5.07-2.74 7.72-4a72.83 72.83 0 0 1 13.75 42.43z"/><path class="cls-1" d="m438.14 305.84-8.37.74a59.93 59.93 0 0 0-14.51-34.06l6.33-5.52a68.34 68.34 0 0 1 16.55 38.84zm25.5-22.14-5.2 6.6a126.51 126.51 0 0 1-26.92-29.11l7-4.67a118.55 118.55 0 0 0 25.12 27.18zm14.69-8.9-8 2.49A60 60 0 0 0 449 247.05l5-6.73a68.36 68.36 0 0 1 24.33 34.48zm17.17-12.08-5 6.73A68.23 68.23 0 0 1 466.12 235l8-2.49a59.87 59.87 0 0 0 21.38 30.21zm18.97-14.21-5.94 6a243.56 243.56 0 0 1-24.93-29.12l6.79-5a235.54 235.54 0 0 0 24.08 28.12zm15.14-11.63-8 2.49a59.8 59.8 0 0 0-21.36-30.23c1.68-2.25 3.36-4.49 5-6.74a68.38 68.38 0 0 1 24.36 34.48zM541 234.2l-8.4-.2a48.32 48.32 0 0 0-13.35-34.53l6.09-5.8A56.77 56.77 0 0 1 541 234.2zm27.37-25.2c-.69 2.71-1.38 5.43-2.08 8.14a49.17 49.17 0 0 1-33.53-29.48l7.81-3.11a40.79 40.79 0 0 0 27.8 24.45zm9.75-7.58-8.57 1a61.42 61.42 0 0 0-15.78-34.53l6.34-5.83a70.09 70.09 0 0 1 18.01 39.36zm128.02-88.29-5.93 5.94A243.78 243.78 0 0 1 675.27 90l6.79-5a236.43 236.43 0 0 0 24.08 28.13zM720.83 100l-8 2.49a59.94 59.94 0 0 0-21.38-30.29l5-6.73A68.28 68.28 0 0 1 720.83 100zm11.89-1.19-8.4-.2A48.42 48.42 0 0 0 711 64.08l6.08-5.8a56.78 56.78 0 0 1 15.64 40.53zM735 50.68v14.93A49.27 49.27 0 0 1 726 51c2.6-1 5.2-2.08 7.81-3.1.38.96.79 1.88 1.19 2.78zM599.58 188.34l-6.46 5.37A243.65 243.65 0 0 1 571 162.39l7.23-4.29a235.92 235.92 0 0 0 21.35 30.24zm17.11-10.41-7.22 4.29A237 237 0 0 0 588.11 152l6.46-5.37a243.65 243.65 0 0 1 22.12 31.3zm23.23-22.77q-.17 4.18-.35 8.39a49.18 49.18 0 0 1-38.9-21.92l7-4.65a40.78 40.78 0 0 0 32.25 18.18zm12.08.19-8 2.49a59.9 59.9 0 0 0-21.36-30.24l5-6.73A68.29 68.29 0 0 1 652 155.35z"/><path class="cls-1" transform="rotate(-35.24 655.496 125.71)" d="M651.39 106.14h8.4v39.12h-8.4z"/><path class="cls-1" d="m690.46 127.44-8 2.49a59.9 59.9 0 0 0-21.36-30.24l5-6.73a68.28 68.28 0 0 1 24.36 34.48z"/><path class="cls-4" d="M735.03 13.69v36.5L407.26 281.71l-13.63-19.27-3.58-5.08L697.9 39.92l37.13-26.23z"/><path class="cls-4" d="M426.62 317.13q-4.26-.4-8.47-.43a64.51 64.51 0 0 0-13-38q3.75-2.13 7.73-4a72.9 72.9 0 0 1 13.74 42.43zm17.25-14.5-8.37.74a59.93 59.93 0 0 0-14.5-34.06l6.34-5.52a68.3 68.3 0 0 1 16.53 38.84zm25.51-22.14-5.2 6.6A126.75 126.75 0 0 1 437.25 258l7-4.67a118.33 118.33 0 0 0 25.13 27.16zm15.76-6.43-8 2.49a59.9 59.9 0 0 0-21.36-30.24q2.5-3.37 5-6.73a68.28 68.28 0 0 1 24.36 34.48zm16.1-14.55-5 6.73a68.36 68.36 0 0 1-24.35-34.48l8-2.49a60 60 0 0 0 21.35 30.24zm18.96-14.21-5.93 5.95a245.36 245.36 0 0 1-24.94-29.12l6.79-4.95a236.33 236.33 0 0 0 24.08 28.12zm16.72-7.82-8 2.49a59.94 59.94 0 0 0-21.36-30.24l5-6.73a68.28 68.28 0 0 1 24.36 34.48zm9.86-6.48-8.4-.2A48.39 48.39 0 0 0 525 196.26l6.08-5.8a56.77 56.77 0 0 1 15.7 40.54zm27.33-25.2c-.7 2.71-1.39 5.43-2.08 8.14a49.19 49.19 0 0 1-33.53-29.49l7.81-3.1a40.76 40.76 0 0 0 27.8 24.45zm11.78-1.54-8.56 1a61.37 61.37 0 0 0-15.79-34.53l6.35-5.83a70 70 0 0 1 18 39.36zm125.99-94.35-5.94 6A244.35 244.35 0 0 1 681 86.74l6.79-4.95a235.41 235.41 0 0 0 24.09 28.12zm16.72-7.82-8 2.49a59.88 59.88 0 0 0-21.36-30.24l5-6.73a68.29 68.29 0 0 1 24.36 34.48zm6.4-27.27v20.7l-5-.12a48.34 48.34 0 0 0-13.3-34.53l6.08-5.8A56.74 56.74 0 0 1 735 74.82zm0-27.68v11.17a49.07 49.07 0 0 1-4.86-9.25zM605.32 185.13l-6.46 5.37a245 245 0 0 1-22.12-31.32l7.22-4.29a237 237 0 0 0 21.36 30.24zm17.11-10.42L615.2 179a233.62 233.62 0 0 0-21.36-30.24l6.47-5.37a245.24 245.24 0 0 1 22.12 31.32zm23.23-22.77q-.18 4.2-.35 8.4a49.16 49.16 0 0 1-38.9-21.93l7-4.64a40.74 40.74 0 0 0 32.25 18.17zm12.09.19-8 2.49a60 60 0 0 0-21.36-30.24l5-6.73a68.36 68.36 0 0 1 24.36 34.48z"/><path class="cls-4" transform="rotate(-35.24 661.233 122.488)" d="M657.12 102.92h8.4v39.12h-8.4z"/><path class="cls-4" d="m694.26 126.34-8 2.49a59.92 59.92 0 0 0-21.38-30.23c1.67-2.25 3.35-4.49 5-6.74a68.36 68.36 0 0 1 24.38 34.48z"/><path class="cls-20" d="M287.12 22.83a23.31 23.31 0 0 0-5.51 32.51l106 149.28a23.31 23.31 0 0 0 32.51 5.51l16.69-11.85L304.29 10.64z"/><path class="cls-5" d="m304.29 10.64 132.53 187.64 13.93-9.9L318.22.74l-13.93 9.9z"/><path class="cls-6" d="m297 0-6.37 4.52A23.31 23.31 0 0 0 285.11 37l106 149.28a23.31 23.31 0 0 0 32.51 5.51L693.76 0z"/><path class="cls-18" d="M505.51 104.48c-20.47-5.24-41.75-6.76-62.82-6.06a339.89 339.89 0 0 0-60.64 7.34 176.69 176.69 0 0 0-39 12.92l1.8 2.53a166.26 166.26 0 0 1 30.75-10.82c19.11-4.8 38.91-7.33 58.55-8.52 20.67-1.25 41.57-.58 61.91 3.57a176.64 176.64 0 0 1 34 10.78l2.94-2.08a176.82 176.82 0 0 0-27.49-9.66zm-76.39 47.21a135.22 135.22 0 0 0-44 6.29c-3.81 1.2-7.55 2.58-11.23 4.11l1.8 2.54a133.44 133.44 0 0 1 48.55-9.92 84.28 84.28 0 0 1 22.83 2.38c5.24 1.4 11 3.58 15.17 7.31l2.52-1.79a36.73 36.73 0 0 0-12.84-7.21 74.23 74.23 0 0 0-22.8-3.71zM598.4 25.7c-7 .93-16.17 1.33-21.12 7.23s-2.84 14.33 2 19.55c5.72 6.15 14.72 9.34 22.45 11.93l.92.29 3-2.14a91 91 0 0 1-16.61-6.69c-6.45-3.4-14.11-10.31-10.95-18.51 2.91-7.36 13.75-7.74 20.31-8.61a368.68 368.68 0 0 1 55.47-3.1c1.22 0 2.43.05 3.65.09l4.07-2.89a370.87 370.87 0 0 0-63.19 2.85zM439.24 61.93A412.75 412.75 0 0 1 516.53 68a385.41 385.41 0 0 1 60 15.23l3.07-2.18a379 379 0 0 0-52.85-14.23 417.15 417.15 0 0 0-77.54-8 412.17 412.17 0 0 0-77.61 6.65 394.48 394.48 0 0 0-56 14.49l1.84 2.6a392 392 0 0 1 45.19-12.24 406.64 406.64 0 0 1 76.61-8.39zM662.46 0c-18.26 3.93-36.8 6.68-55.32 9-41.65 5-83.57 7.1-125.44 9.37-37.73 2.05-75.67 3.81-113 10-25.53 4.23-51 10.74-74.65 21.26l1.84 2.59c20-8.82 41.22-14.82 62.72-19 37.18-7.12 75.15-9.14 112.88-11.22 42-2.33 84.17-4.2 126-8.86C617.9 10.85 638.22 8 658.32 4c5.88-1.17 11.74-2.47 17.56-4z"/><path class="cls-9" d="m419.68 0-55.33 37.66a57.23 57.23 0 0 0-15.11 79.49 57.22 57.22 0 0 0 79.49 15.11L623.07 0z"/><path class="cls-18" d="M371.5 0q-1.5 2-3.21 3.83c-15.66 17.54-38.51 25.46-61.58 26.24a133 133 0 0 1-25.41-1.71 22.75 22.75 0 0 0 .93 3.22 139.94 139.94 0 0 0 16 1.52c22.23.81 45.43-4.33 63.09-18.44A79.37 79.37 0 0 0 375.35 0z"/><path class="cls-6" d="M442.69 98.42a339.89 339.89 0 0 0-60.64 7.34 184.45 184.45 0 0 0-33.45 10.42c.21.32.42.65.64 1 .37.54.75 1.07 1.13 1.59a171.78 171.78 0 0 1 25.26-8.35c19.11-4.8 38.91-7.33 58.55-8.52a268.57 268.57 0 0 1 38.79.28l3.94-2.67a253.91 253.91 0 0 0-34.22-1.09zM371.63 65.5q-15.58 2.84-30.9 6.91c-.25 1.1-.47 2.21-.65 3.33q11.19-3 22.56-5.39a406.64 406.64 0 0 1 76.6-8.42A412.75 412.75 0 0 1 516.53 68l5.23 1 3.54-2.41a416.81 416.81 0 0 0-76.06-7.69 412.17 412.17 0 0 0-77.61 6.6zM481.7 18.37c-33.7 1.83-67.56 3.44-101 8.17l-5.7 3.9c31.92-4.93 64.31-6.67 96.53-8.46 42-2.33 84.17-4.2 126-8.86l7.55-.88 5.47-3.72-3.41.48c-41.65 5-83.57 7.1-125.44 9.37z"/><path class="cls-10" d="m392.37 0-30.2 20.55a57.21 57.21 0 0 0-15.11 79.49 57.21 57.21 0 0 0 79.49 15.11L595.76 0z"/><path class="cls-16" d="m399.41 121.39-10.82-2.06a8 8 0 0 1-6.35-9.34 8.65 8.65 0 0 0-6.87-10.1l-2.62-.49a8 8 0 0 1-6.36-9.34l.6-3.15a8.63 8.63 0 0 0-6.87-10.09l-10.94-2.08a8 8 0 0 1-6.35-9.34l3.39-17.86a12.08 12.08 0 0 1 5-7.68L381.73 19l48.81 82.19-12.81 14.06a19.78 19.78 0 0 1-18.32 6.14z"/><path class="cls-6" d="m440.85 72.62.15 11.15a7.9 7.9 0 0 1-3.79 6.87l-17.42 10.59a36.46 36.46 0 0 1-36.45.83L369 94.18a17.32 17.32 0 0 0-8.6-2.12l-7.25.12a7.42 7.42 0 0 1-7.54-7.29l-.18-10.68z"/><path class="cls-7" d="M399.78 106.52a36 36 0 0 0 5.87-.3L421.07 73l-5.78.09zm-46.32-14.35 8.45-18.24-5.78.1-7.68 16.56a7.41 7.41 0 0 0 4.71 1.59zm29.04 9.4.88.49a37.49 37.49 0 0 0 3.8 1.79l14.17-30.57-5.78.09zm-15.68-8.39a16 16 0 0 1 2.19 1l2.46 1.35 10.16-21.92-5.78.09zm73.97-20.56-5.78.1-12.44 26.85 7.98-4.86 10.24-22.09z"/><path class="cls-8" d="M440.86 73.32v1.81a4.74 4.74 0 0 1-2.27 4.13l-19 11.53a36.45 36.45 0 0 1-36.44.82l-14.37-7.87a17.26 17.26 0 0 0-8.61-2.13l-7.24.12a7.41 7.41 0 0 1-7.54-7.29 7.42 7.42 0 0 1 7.29-7.54l80.1-1.34a7.89 7.89 0 0 1 8.08 7.76z"/><path class="cls-6" d="m460.34 71.74-4.11 12.19a9.11 9.11 0 0 1-6.78 6l-23.05 4.8a42.08 42.08 0 0 1-39.95-13.2l-12.59-14.12a19.91 19.91 0 0 0-8.54-5.64l-7.93-2.67A8.57 8.57 0 0 1 352 48.25l4-11.68z"/><path class="cls-7" d="M402.56 92.72a40.85 40.85 0 0 0 6.5 2l29.63-30.23-6.32-2.13zm-44.84-33.51L374 42.64l-6.32-2.14-14.75 15a8.53 8.53 0 0 0 4.5 3.55zm27.96 21.45.77.87a41.12 41.12 0 0 0 3.43 3.47l27.24-27.79-6.33-2.21zm-13.81-15.19a20.22 20.22 0 0 1 2 1.94l2.13 2.41 19.54-19.92-6.33-2.13zm88.4 6.24-6.32-2.13-23.92 24.4 10.57-2.2 19.67-20.07z"/><path class="cls-8" d="m460.08 72.51-.67 2a5.42 5.42 0 0 1-4.06 3.6l-25.1 5.21A42.05 42.05 0 0 1 390.3 70.1L377.71 56a20 20 0 0 0-8.54-5.64l-7.93-2.67a8.57 8.57 0 0 1-5.38-10.85 8.57 8.57 0 0 1 10.85-5.38L454.36 61a9.11 9.11 0 0 1 5.72 11.51z"/><path class="cls-6" d="M486.13 54.19 482 66.39a9.14 9.14 0 0 1-6.79 6l-23 4.78a42 42 0 0 1-40-13.2l-12.57-14.11a20 20 0 0 0-8.53-5.64l-7.93-2.67a8.57 8.57 0 0 1-5.38-10.85l3.93-11.7z"/><path class="cls-7" d="M428.34 75.18a43.38 43.38 0 0 0 6.5 1.95l29.64-30.23-6.33-2.13zM383.5 41.66l16.24-16.57-6.32-2.09-14.75 15a8.51 8.51 0 0 0 4.51 3.55zm27.96 21.46.77.86a42.81 42.81 0 0 0 3.44 3.43l27.23-27.78-6.32-2.13zm-13.81-15.2a20.25 20.25 0 0 1 2 1.94l2.16 2.42 19.52-19.92-6.33-2.13zm88.41 6.24-6.33-2.13-23.91 24.4 10.56-2.19 19.68-20.08z"/><path class="cls-8" d="m485.87 55-.67 2a5.48 5.48 0 0 1-4.07 3.61L456 65.76a42.1 42.1 0 0 1-40-13.2l-12.51-14.13a20 20 0 0 0-8.49-5.64l-8-2.67a8.56 8.56 0 0 1-5.38-10.85 8.56 8.56 0 0 1 10.84-5.38l87.65 29.53A9.12 9.12 0 0 1 485.87 55z"/><path class="cls-11" transform="rotate(-124.24 370.955 76.156)" d="M367.6 72.78h6.72v6.72h-6.72z"/><path class="cls-23" transform="rotate(-124.24 367.054 78.809)" d="M363.7 75.44h6.72v6.72h-6.72z"/><path class="cls-11" transform="rotate(-169.24 420.178 52.166)" d="M416.82 48.79h6.72v6.72h-6.72z"/><path class="cls-23" transform="rotate(-169.24 419.299 56.804)" d="M415.94 53.43h6.72v6.72h-6.72z"/><path class="cls-11" transform="rotate(-34.24 395.955 61.98)" d="M392.63 58.6h6.72v6.72h-6.72z"/><path class="cls-23" transform="rotate(-34.24 393.302 58.07)" d="M389.98 54.7h6.72v6.72h-6.72z"/><path class="cls-11" d="m483.82 0-24.14 16.43a73.14 73.14 0 0 0-32 59.63A46.23 46.23 0 0 1 373.14 121a56 56 0 0 0 52.86-5.48L595.76 0z"/><path class="cls-19" d="m392.37 0-30.73 20.92a56 56 0 0 0-24.5 47.18A46.23 46.23 0 0 1 399 33.83 73.13 73.13 0 0 0 466.17 26l38.14-26z"/><path class="cls-20" d="M417.76 76c0-.25-.08-.5-.11-.76a6.67 6.67 0 0 0-.6-2 6.89 6.89 0 0 0-1.19-1.74l-.41-.43-.22.61v.11a6.81 6.81 0 0 0-.32 3.52 7.91 7.91 0 0 0 .19.81c.07.22.14.44.22.67s.11.33.17.5a30.8 30.8 0 0 1-1.6-3.2 9.56 9.56 0 0 0-3.89-4.43l-.72-.43-.08 1.08a10.47 10.47 0 0 0 0 1.68 12.18 12.18 0 0 0-4.1-2l-1-.29.2 1.3a12.39 12.39 0 0 0 3.85 6.84c.15.14.31.27.47.4a33 33 0 0 1-4.19-2 10.28 10.28 0 0 0-6.21-1.24l-.9.09.63 1a10.25 10.25 0 0 0 2.18 2.46 16.55 16.55 0 0 0-3.16.91l-3.29 1.33a.39.39 0 0 0-.06.69l3 1.91a16.48 16.48 0 0 0 2.94 1.47 10.34 10.34 0 0 0-2.59 2l-.79.85.86.26a10.32 10.32 0 0 0 6.34-.15c.82-.29 1.66-.54 2.5-.76l11.92-10.87z"/><path class="cls-16" d="M373.14 42.97h4.08v4.08h-4.08zm-17.96 27.41h1.88v6.75h-1.88z"/><path class="cls-20" d="M416.16 41.66h7.27v2.39h-7.27z"/><path class="cls-16" d="M390.73 102.12h3.55v7.1h-3.55z"/><path class="cls-4" d="m481.74.01 23.75 61.43L595.76.01H481.74z"/><path class="cls-1" d="M209.36 74.55A13.85 13.85 0 0 0 214 57.13a9 9 0 0 1-.8-3V54a13.91 13.91 0 0 0-12.52-12.64h-.21a9 9 0 0 1-3-.8A13.85 13.85 0 0 0 180 45.19a8.75 8.75 0 0 1-2.23 2.23 13.85 13.85 0 0 0-4.67 17.42 8.79 8.79 0 0 1 .81 3V68a13.9 13.9 0 0 0 12.66 12.66h.08a8.6 8.6 0 0 1 3 .79 13.84 13.84 0 0 0 17.42-4.66 8.75 8.75 0 0 1 2.29-2.24z"/><path class="cls-11" d="M206.09 57.76v-3.7a8 8 0 0 1 2.34-5.65l2.92-2.91c-.34-.41-.71-.82-1.09-1.2a15.46 15.46 0 0 0-1.21-1.09l-2.91 2.91a8 8 0 0 1-5.65 2.34h-3.7a8 8 0 0 1-5.65-2.34l-2.91-2.91a16.89 16.89 0 0 0-2.29 2.29l2.91 2.91a8 8 0 0 1 2.34 5.65v3.7a8 8 0 0 1-2.34 5.65l-2.91 2.91a15.46 15.46 0 0 0 1.06 1.21c.38.38.79.75 1.2 1.09l2.91-2.92a8 8 0 0 1 5.65-2.34h3.7a8 8 0 0 1 5.65 2.34l2.91 2.92c.42-.34.82-.71 1.21-1.09s.75-.79 1.09-1.21l-2.92-2.91a8 8 0 0 1-2.31-5.65z"/><circle class="cls-19" cx="194.09" cy="67.16" r="2.08"/><circle class="cls-19" cx="198.93" cy="67.16" r="2.08"/><circle class="cls-19" cx="203.77" cy="67.16" r="2.08"/><circle class="cls-19" cx="209.59" cy="60.8" r="2.08"/><circle class="cls-19" cx="209.68" cy="55.96" r="2.08"/><circle class="cls-19" cx="209.77" cy="51.11" r="2.08"/><circle class="cls-19" cx="203.32" cy="45.09" r="2.08"/><circle class="cls-19" cx="198.48" cy="45" r="2.08"/><circle class="cls-19" cx="193.63" cy="44.91" r="2.08"/><circle class="cls-19" cx="187.61" cy="51.36" r="2.08"/><circle class="cls-19" cx="187.52" cy="56.2" r="2.08"/><circle class="cls-19" cx="187.42" cy="61.05" r="2.08"/><path class="cls-20" d="M214.43 69.48a13.85 13.85 0 0 0 4.67-17.42 8.51 8.51 0 0 1-.8-3v-.09a13.91 13.91 0 0 0-12.52-12.64h-.22a8.79 8.79 0 0 1-3-.81 13.86 13.86 0 0 0-17.42 4.67 8.92 8.92 0 0 1-2.23 2.23 13.85 13.85 0 0 0-4.67 17.42 8.91 8.91 0 0 1 .81 3v.08a13.9 13.9 0 0 0 12.66 12.66h.09a8.6 8.6 0 0 1 3 .79 13.84 13.84 0 0 0 17.42-4.67 8.68 8.68 0 0 1 2.21-2.22zm-26.27-3.08a14.83 14.83 0 1 1 21 0 14.83 14.83 0 0 1-21 0z"/><path class="cls-21" d="M213 67.33a11.3 11.3 0 0 0 3.79-14.16 11.3 11.3 0 0 1-1.06-4 11.29 11.29 0 0 0-10.36-10.36 11.3 11.3 0 0 1-4-1.06 11.31 11.31 0 0 0-14.16 3.8 11.34 11.34 0 0 1-2.89 2.89 11.31 11.31 0 0 0-3.8 14.16 11.3 11.3 0 0 1 1.06 4A11.29 11.29 0 0 0 192 73a11.3 11.3 0 0 1 4 1.06 11.3 11.3 0 0 0 14.16-3.79 11.11 11.11 0 0 1 2.84-2.94zm-24.8-.93a14.83 14.83 0 1 1 21 0 14.83 14.83 0 0 1-21.04 0z"/><path class="cls-11" transform="rotate(44.74 283.196 149.57)" d="M278.38 144.76h9.63v9.63h-9.63z"/><path class="cls-4" transform="rotate(44.74 286.611 152.966)" d="M281.8 148.15h9.63v9.63h-9.63z"/><path class="cls-20" transform="rotate(90 250.38 118.4)" d="M247.93 112.17h4.91v12.45h-4.91z"/><path class="cls-16" transform="rotate(90 250.385 122.625)" d="M247.93 116.4h4.91v12.45h-4.91z"/><path class="cls-19" d="M402.32 231.81a2.41 2.41 0 0 0-.65-1.11l-.51-.4a2.54 2.54 0 0 0-1.27-.34h-.29a2 2 0 0 0-1 .22 1.85 1.85 0 0 0-.81.52 2 2 0 0 0-.52.81 1.8 1.8 0 0 0-.21 1l.09.67a2.48 2.48 0 0 0 .64 1.11l.51.4a2.61 2.61 0 0 0 1.28.34h.29a1.9 1.9 0 0 0 1-.22 1.75 1.75 0 0 0 .81-.52 2 2 0 0 0 .53-.81 1.89 1.89 0 0 0 .21-1zM255.63 24.52a2.49 2.49 0 0 0-.63-1.12l-.51-.39a2.44 2.44 0 0 0-1.27-.34h-.29a2 2 0 0 0-1 .21 2.05 2.05 0 0 0-.81.52 1.92 1.92 0 0 0-.52.82 1.89 1.89 0 0 0-.21 1l.09.67a2.59 2.59 0 0 0 .64 1.11l.51.39a2.51 2.51 0 0 0 1.28.35h.29a1.9 1.9 0 0 0 1-.22 1.83 1.83 0 0 0 .8-.52 2 2 0 0 0 .53-.81 1.91 1.91 0 0 0 .21-1zm56.11 177.39a2.55 2.55 0 0 0-.65-1.11l-.51-.39a2.48 2.48 0 0 0-1.27-.35H309a1.9 1.9 0 0 0-1 .22 2.26 2.26 0 0 0-1.33 1.33 1.9 1.9 0 0 0-.22 1l.09.67a2.5 2.5 0 0 0 .65 1.11l.51.4a2.47 2.47 0 0 0 1.27.34h.3a1.91 1.91 0 0 0 1-.21 2 2 0 0 0 .81-.53 1.83 1.83 0 0 0 .52-.81 1.9 1.9 0 0 0 .22-1z"/></g></g></svg>