<svg xmlns="http://www.w3.org/2000/svg" viewBox="0 0 604.47 813.5"><defs><style>.cls-2{fill:#fff}.cls-3{fill:#05a357}.cls-4{fill:#ffcf70}.cls-5{fill:#bc8b2c}.cls-6{fill:#993f21}.cls-7{fill:#156a41}.cls-9{fill:#ffe3ac}.cls-10{fill:#e11900}.cls-11{fill:#5a0a00}.cls-12{fill:#fa9269}.cls-13{fill:#06c167}.cls-14{fill:#addec9}.cls-15{fill:#66d19e}.cls-16{fill:#fff2d9}</style></defs><g id="Layer_2" data-name="Layer 2"><g id="WebLeft"><path fill="#e8503d" d="m154.28 773.16-57.2 40.34H0V555.1l154.28 218.06z"/><path class="cls-2" d="M72.06 813.5H0V711.65l17.51 24.75 54.55 77.1z"/><path class="cls-3" d="M45.88 813.5H0v-64.85l45.88 64.85z"/><path class="cls-4" d="M20.16 813.5H0V785l20.16 28.5z"/><path class="cls-5" d="M532.36 813.5H0V779a274.63 274.63 0 0 1 262-191.72c135.25 0 247.68 97.66 270.36 226.22zm-378.07-40.34-3.74-5.28 3.74 5.28z"/><path class="cls-6" d="m149.39 766.24-67 47.26H72.06l-54.55-77.1a275 275 0 0 1 57.3-75.57z"/><path class="cls-4" d="M72.06 813.5H45.88L7.23 758.88q4.65-11.5 10.28-22.47z"/><path class="cls-7" d="M45.88 813.5H20.16L0 785v-6q3.22-10.26 7.23-20.15z"/><path class="cls-5" d="M20.16 813.5H0v-28.49l20.16 28.49zm129.23-47.26 1.16 1.64-1.16-1.64z"/><path class="cls-2" d="M564.86 813.5H17C26.75 671 145.66 558.37 290.92 558.37S555.09 671 564.86 813.5z"/><path d="M512.43 813.5h-443c9.64-113.68 105.12-203 221.51-203s211.85 89.32 221.49 203z" fill="#fffaf0"/><path class="cls-4" d="M458 813.5H284.63a124.17 124.17 0 1 1 173.35 0z"/><path class="cls-9" d="M421.14 617.15A118.59 118.59 0 0 0 253 732.25zm67.29 88.65L331.05 813.5H293a118.69 118.69 0 0 1-39.15-72.71L428.81 621a118.56 118.56 0 0 1 59.62 84.77zm-38.77 107.7H344.37l50-34.24 13.89-9.5 12.36-8.46 31.55-21.59 37.27-25.5a118.3 118.3 0 0 1-39.78 99.29z"/><path class="cls-3" d="m469.43 756.81-9.84 11.34a29.55 29.55 0 0 0-6.73 13.94l-4.06 21.72a15.71 15.71 0 0 1-6 9.69h-63.62a19.12 19.12 0 0 0-13.45-9.9l-22.53-4.2a34.26 34.26 0 0 1-27.44-40l2-10.8a8.1 8.1 0 0 0-12.54-8.15l-.32.23a8.79 8.79 0 0 1-13.61-8.85l5.26-28.14a16.13 16.13 0 0 0-12.91-18.8l-3.37-.63a8.92 8.92 0 0 1-3.42-16.14l14.53-9.94a8 8 0 0 0 2.07-11.06l-.17-.24a6 6 0 0 1 6-9.25l27.53 5.12a23.08 23.08 0 0 0 17.26-3.64l29.61-20.26a6 6 0 0 1 9.29 6l-2.6 13.89a24.22 24.22 0 0 0 19.4 28.25l25.58 4.77a8 8 0 0 1 3.07 14.51l-3.55 2.43a6.08 6.08 0 0 0 2.33 11l18.4 3.43a10.11 10.11 0 0 1 3.87 18.29l-4 2.71a4.83 4.83 0 0 0 1.85 8.74l14.68 2.8a12.9 12.9 0 0 1 7.43 21.14z"/><path class="cls-7" d="m333.1 775.26-.87.24.77.86a9.58 9.58 0 0 0 1.31 1.24 13 13 0 0 0-4.61 1.64l-1 .57 1.23.81a13.2 13.2 0 0 0 8.12 2.14l.66-.06a34.6 34.6 0 0 1-4.69 1.7 11 11 0 0 0-5.62 3.8l-.6.75 1.22.26a11.25 11.25 0 0 0 3.52.16 17.65 17.65 0 0 0-1.66 3.09l-1.42 3.54a.41.41 0 0 0 .48.56l3.7-.88a17.75 17.75 0 0 0 3.36-1.18 10.82 10.82 0 0 0-.38 3.5l.06 1.24.84-.47a11 11 0 0 0 4.61-5 37.94 37.94 0 0 1 2.4-4.37l-.15.64a13.15 13.15 0 0 0 .87 8.34l.62 1.34.72-.88a13.4 13.4 0 0 0 2.32-4.3 10.6 10.6 0 0 0 1 1.48l.74.89.36-.83a10.24 10.24 0 0 0 .66-6.27 34.53 34.53 0 0 1-.59-3.78c.05.19.11.37.16.55s.15.48.22.71a8.77 8.77 0 0 0 .34.82 7.29 7.29 0 0 0 2.46 2.88l.13.09.54.37.09-.62a7.33 7.33 0 0 0-.15-2.8 6.89 6.89 0 0 0-.61-1.58c-.13-.24-.25-.49-.37-.74a2.39 2.39 0 0 1-.13-.28l-.21-.45-.16-.37-.15-.37-.18-.43c0-.1-.07-.19-.1-.28s-.13-.35-.19-.52v-.07a24.607 24.607 0 0 1-.98-3.99c-.1-.63-.14-1-.18-1.44-.47-.12-.94-.25-1.4-.4-.61-.19-1.21-.41-1.8-.65-.68-.28-1.35-.59-2-.93h-.06l-.49-.26-.26-.15-.4-.24-.35-.2-.33-.21-.43-.28-.25-.17-.67-.48a6.82 6.82 0 0 0-2-1 7.24 7.24 0 0 0-2.22-.38h-.63l.29.62.06.11a7.23 7.23 0 0 0 2.47 2.87c.25.16.5.32.76.46l.68.33.51.24a35.19 35.19 0 0 1-3.65-1.16 10.34 10.34 0 0 0-6.34-.37z"/><path class="cls-10" d="m317.41 736.05 31.38-30.38-4.07-24.91 22.43-21.7 9.9-15.59-12.37-12.75a10 10 0 0 0-14.07-.22l-12.76 12.35a13 13 0 0 1-9.24 3.66l-7.62-.12a8.5 8.5 0 0 0-8.63 8.36l-.66 42.33a10.5 10.5 0 0 1-3.2 7.39l-3.37 3.26a10.88 10.88 0 0 0-.24 15.42z"/><path class="cls-11" d="M351.75 668.67a19.25 19.25 0 0 0-8.41-8.66 19.2 19.2 0 0 1-8.42-8.67 19.13 19.13 0 0 0-3.58-5.08 13.09 13.09 0 0 1-2.73.25l-4.46-.07a19.29 19.29 0 0 0 7.9 7.68 19.22 19.22 0 0 1 8.42 8.66 19.25 19.25 0 0 0 8.41 8.66 19.13 19.13 0 0 1 3.24 2.14l1.66-1.61a19.48 19.48 0 0 1-2-3.3zM372.13 649a19.2 19.2 0 0 0-8.41-8.66 19.22 19.22 0 0 1-8.42-8.66 19.61 19.61 0 0 0-1.84-3 10.32 10.32 0 0 0-2.85 1.93l-1.61 1.47a19.29 19.29 0 0 0 3.45 2.32 19.22 19.22 0 0 1 8.42 8.66 19.23 19.23 0 0 0 8.41 8.67 19 19 0 0 1 1.84 1.1l1.68-2.65c-.23-.4-.45-.81-.65-1.23zm-44.3 76.45a19.25 19.25 0 0 0-8.41-8.66 19.25 19.25 0 0 1-8.41-8.66 19.77 19.77 0 0 0-2.4-3.75.94.94 0 0 0-.1.1l-3.37 3.26c-.23.23-.45.46-.65.69a19.32 19.32 0 0 0 3.64 2.48 19.23 19.23 0 0 1 8.41 8.67 19.27 19.27 0 0 0 8.42 8.66l.34.18 2.7-2.61zm11.96-28.38a19.27 19.27 0 0 1-8.41-8.67 19.27 19.27 0 0 0-8.41-8.67 19.22 19.22 0 0 1-8.42-8.66 19.43 19.43 0 0 0-2.38-3.74l-.1 6.73a19.29 19.29 0 0 1 8 8.45 19.27 19.27 0 0 0 8.41 8.67 19.25 19.25 0 0 1 8.41 8.66 19.22 19.22 0 0 0 8.42 8.66l.34.18 2.69-2.62-.16-.34a19.22 19.22 0 0 0-8.39-8.65z"/><path class="cls-12" d="m333.79 736.16 17.53-17a18.3 18.3 0 0 0 5.58-12.89l.09-5.19a18.33 18.33 0 0 1 5.58-12.9l12.75-12.34a14.11 14.11 0 0 0 4.3-9.92l.24-15.42a9.91 9.91 0 0 0-2.81-7.06 10 10 0 0 0-14.06-.22l-12.76 12.38a13 13 0 0 1-9.25 3.66l-7.61-.12a8.49 8.49 0 0 0-8.63 8.35l-.66 42.33a10.48 10.48 0 0 1-3.2 7.39l-3.38 3.27a10.89 10.89 0 0 0-.23 15.42 11.7 11.7 0 0 0 16.52.26z"/><path class="cls-10" d="m336.24 768.78 38-26 .2-26.59 27.13-18.57 13.03-14.42-10.6-15.43a10.48 10.48 0 0 0-14.56-2.71L374 675.63a13.77 13.77 0 0 1-10.25 2.16l-7.89-1.47a9 9 0 0 0-10.45 7.15l-8.19 43.83a11.08 11.08 0 0 1-4.64 7.11l-4.08 2.8a11.48 11.48 0 0 0-3 16z"/><path class="cls-11" d="M383.86 704.9a20.26 20.26 0 0 0-7.2-10.49 20.2 20.2 0 0 1-7.2-10.49 20.63 20.63 0 0 0-2.82-5.91 13.27 13.27 0 0 1-2.88-.22l-4.61-.86a20.27 20.27 0 0 0 6.85 9.37 20.32 20.32 0 0 1 7.2 10.49 20.22 20.22 0 0 0 7.2 10.48 20.26 20.26 0 0 1 3 2.79l2-1.38a20.17 20.17 0 0 1-1.53-3.79zm24.66-16.9a20.24 20.24 0 0 0-7.2-10.49 20.22 20.22 0 0 1-7.2-10.48 20.27 20.27 0 0 0-1.38-3.49 10.49 10.49 0 0 0-3.29 1.5l-2 1.35a19.74 19.74 0 0 0 3.18 3 20.3 20.3 0 0 1 7.2 10.49 20.24 20.24 0 0 0 7.2 10.49c.6.46 1.17 1 1.72 1.46l2.21-2.45c-.17-.45-.32-.92-.46-1.39zm-59.58 71.62a20.28 20.28 0 0 0-7.2-10.48 20.2 20.2 0 0 1-7.2-10.49 20.1 20.1 0 0 0-1.83-4.32l-.12.08-4.08 2.8c-.28.19-.54.39-.8.6a20.85 20.85 0 0 0 3.35 3.22 20.22 20.22 0 0 1 7.2 10.48 20.26 20.26 0 0 0 7.2 10.49l.32.25 3.27-2.24zm17.46-27.36a20.22 20.22 0 0 1-7.2-10.48 20.28 20.28 0 0 0-7.2-10.48 20.28 20.28 0 0 1-7.19-10.49 19.85 19.85 0 0 0-1.8-4.3l-1.3 7a20.23 20.23 0 0 1 6.83 10.2 20.28 20.28 0 0 0 7.2 10.48 20.3 20.3 0 0 1 7.2 10.49 20.24 20.24 0 0 0 7.2 10.49l.32.24 3.26-2.24-.11-.38a20.24 20.24 0 0 0-7.21-10.53z"/><path class="cls-12" d="m353.23 771.79 21.21-14.51a19.32 19.32 0 0 0 8.09-12.4l1-5.38a19.39 19.39 0 0 1 8.09-12.4l15.43-10.56a14.89 14.89 0 0 0 6.23-9.54l3-16a10.43 10.43 0 0 0-1.66-7.83 10.48 10.48 0 0 0-14.62-2.69l-15.4 10.57a13.68 13.68 0 0 1-10.25 2.16l-7.89-1.47a9 9 0 0 0-10.46 7.15l-8.19 43.84a11.1 11.1 0 0 1-4.64 7.11l-4.08 2.79a11.47 11.47 0 0 0-3 16 12.31 12.31 0 0 0 17.14 3.16z"/><path class="cls-10" d="m360.84 804.61 38-26L399 752l27.14-18.57 13-14.44-10.6-15.42a10.48 10.48 0 0 0-14.56-2.71l-15.44 10.56a13.72 13.72 0 0 1-10.25 2.17l-7.89-1.47a8.94 8.94 0 0 0-10.4 7.18l-8.2 43.83a11.1 11.1 0 0 1-4.63 7.11l-4.09 2.8a11.47 11.47 0 0 0-3 16z"/><path class="cls-11" d="M408.46 740.72a20.22 20.22 0 0 0-7.2-10.48 20.24 20.24 0 0 1-7.2-10.49 20.24 20.24 0 0 0-2.82-5.91 14 14 0 0 1-2.88-.22l-4.61-.86a20.22 20.22 0 0 0 6.84 9.37 20.28 20.28 0 0 1 7.2 10.48A20.22 20.22 0 0 0 405 743.1a19.87 19.87 0 0 1 3 2.8l2-1.38a20.87 20.87 0 0 1-1.53-3.79zm24.66-16.87a20.24 20.24 0 0 0-7.2-10.49 20.28 20.28 0 0 1-7.2-10.48 20.14 20.14 0 0 0-1.37-3.48 10.22 10.22 0 0 0-3.3 1.5l-2 1.35a20.61 20.61 0 0 0 3.18 3 20.2 20.2 0 0 1 7.2 10.49 20.24 20.24 0 0 0 7.2 10.48 17.21 17.21 0 0 1 1.72 1.46l2.22-2.45c-.17-.46-.33-.92-.46-1.39zm-59.58 71.6a20.22 20.22 0 0 0-7.2-10.48 20.24 20.24 0 0 1-7.2-10.49 20.36 20.36 0 0 0-1.82-4.32l-.12.08-4.09 2.8c-.28.19-.54.39-.8.6a20.85 20.85 0 0 0 3.35 3.22 20.28 20.28 0 0 1 7.2 10.48 20.22 20.22 0 0 0 7.2 10.48l.32.24 3.26-2.23zM391 768.09a20.28 20.28 0 0 1-7.2-10.48 20.22 20.22 0 0 0-7.2-10.48 20.18 20.18 0 0 1-7.2-10.48 20.39 20.39 0 0 0-1.81-4.3l-1.3 7a20.24 20.24 0 0 1 6.84 10.2 20.2 20.2 0 0 0 7.2 10.49 20.26 20.26 0 0 1 7.2 10.49 20.22 20.22 0 0 0 7.2 10.48l.32.25 3.27-2.24-.12-.38a20.2 20.2 0 0 0-7.2-10.55z"/><path class="cls-12" d="M377.83 807.62 399 793.1a19.29 19.29 0 0 0 8.09-12.4l1-5.37a19.32 19.32 0 0 1 8.09-12.4l15.43-10.56a14.9 14.9 0 0 0 6.22-9.54l3-16a10.45 10.45 0 0 0-1.65-7.83 10.5 10.5 0 0 0-14.57-2.71l-15.41 10.59A13.72 13.72 0 0 1 399 729l-7.89-1.47a9 9 0 0 0-10.44 7.15l-8.2 43.84a11 11 0 0 1-4.63 7.1l-4.09 2.8a11.47 11.47 0 0 0-3 16 12.32 12.32 0 0 0 17.08 3.2z"/><path class="cls-10" d="m461.43 753.15-11.74 13-24.39 16.7-.18 23.9-9.89 6.77h-35.16a10.31 10.31 0 0 1 4-11.79l3.67-2.51a10 10 0 0 0 4.17-6.39l2.53-13.55 2-10.45 2.88-15.41a8 8 0 0 1 9.39-6.43l7.09 1.32a12.3 12.3 0 0 0 9.21-1.94l13.88-9.5a9.43 9.43 0 0 1 13.1 2.44l.29.42z"/><path class="cls-11" d="M433.79 772.66a18.21 18.21 0 0 0-6.47-9.42 18.21 18.21 0 0 1-6.47-9.42 18.21 18.21 0 0 0-2.53-5.32 11.91 11.91 0 0 1-2.59-.2l-4.15-.77a18.2 18.2 0 0 0 6.15 8.42 18.1 18.1 0 0 1 6.47 9.42 18.2 18.2 0 0 0 6.48 9.43 18.82 18.82 0 0 1 2.69 2.51l1.81-1.24a18 18 0 0 1-1.38-3.4zM456 757.49a18.28 18.28 0 0 0-6.47-9.43 18.17 18.17 0 0 1-6.48-9.42 18.11 18.11 0 0 0-1.23-3.14 9.45 9.45 0 0 0-3 1.35l-1.82 1.22a18.25 18.25 0 0 0 2.85 2.7 18.12 18.12 0 0 1 6.47 9.43 18.12 18.12 0 0 0 6.47 9.43 17.57 17.57 0 0 1 1.54 1.32l2-2.21a13.1 13.1 0 0 1-.42-1.25zm-58.81 56.01h-4.74a18.13 18.13 0 0 0-6.12-8.35 18.38 18.38 0 0 1-3-2.89q.35-.29.72-.54l3.67-2.51.11-.08a18.31 18.31 0 0 1 1.64 3.89 18.21 18.21 0 0 0 6.47 9.42 16.2 16.2 0 0 1 1.25 1.06zm20.91-16.23a18.21 18.21 0 0 1-6.47-9.42 18.25 18.25 0 0 0-6.47-9.42 18.24 18.24 0 0 1-6.47-9.43 18.22 18.22 0 0 0-1.62-3.86l-1.17 6.26a18.19 18.19 0 0 1 6.14 9.16 18.21 18.21 0 0 0 6.46 9.44 18.24 18.24 0 0 1 6.5 9.4 18.24 18.24 0 0 0 6.47 9.43l.29.22 2.94-2-.1-.35a18.21 18.21 0 0 0-6.5-9.43z"/><path class="cls-12" d="m462.92 760.19-1.17 6.25A22.46 22.46 0 0 1 446 783.87l-7 2a14.86 14.86 0 0 0-10.4 17.44 18.7 18.7 0 0 1-.6 10.19h-31.42l.64-.44a9.9 9.9 0 0 0 4.17-6.39l6.9-36.91.47-2.5a8 8 0 0 1 9.39-6.42l2.5.46 4.59.86a12.26 12.26 0 0 0 9.21-1.95l13.88-9.5a9.42 9.42 0 0 1 14.59 9.48z"/><path class="cls-7" d="m393.68 757.18-4.42 3.02-6.11-8.89 4.42-3.02 6.11 8.89z"/><path class="cls-3" d="m395.43 755.98-2.58 1.76-6.1-8.89 2.58-1.76 6.1 8.89zm7.8-60.2-8.43 5.77-2.05-2.99 8.43-5.76 2.05 2.98zm-64.76-9.54-3.49 2.39-3.45-5.02 3.49-2.39 3.45 5.02z"/><path class="cls-7" transform="rotate(-79.41 349.131 647.944)" d="M346.24 645.06h5.73v5.74h-5.73z"/><path class="cls-7" transform="rotate(-79.41 391.231 792.326)" d="M388.64 785.82h5.11v12.98h-5.11z"/><path class="cls-7" d="m354.01 752.53-6.47 4.43-1.29-1.89 6.46-4.43 1.3 1.89zm7.08.63-6.47 4.43-1.3-1.89 6.47-4.43 1.3 1.89z"/><path class="cls-3" d="m362.09 754.61-6.47 4.43-1.3-1.89 6.47-4.43 1.3 1.89z"/><path class="cls-7" d="m407.21 690.67-1.42.98-4.54-6.6 1.43-.97 4.53 6.59zm-9.38-36.54-7.08 4.85-2.29-3.34 7.08-4.84 2.29 3.33zm-83.33 95.7-2.81 1.92-6.55-9.54 2.8-1.92 6.56 9.54z"/><path class="cls-7" transform="rotate(-79.41 440.205 799.604)" d="M438.38 793.55h3.58v12.08h-3.58z"/><path class="cls-3" transform="rotate(-79.41 440.74 796.742)" d="M438.92 790.69h3.58v12.08h-3.58z"/><path class="cls-13" transform="rotate(-79.45 303.552 661.74)" d="M301.64 659.82h3.84v3.84h-3.84z"/><path class="cls-9" d="m363.79 666.6-5.98 4.09-4.09-5.97 5.97-4.08 4.1 5.96z"/><path class="cls-2" d="m366.77 664.56-5.97 4.08-4.09-5.96 5.97-4.09 4.09 5.97z"/><path class="cls-9" transform="rotate(-79.45 360.937 708.57)" d="M357.33 704.95h7.23v7.24h-7.23z"/><path class="cls-2" transform="rotate(-79.45 366.703 709.648)" d="M363.1 706.03h7.23v7.24h-7.23z"/><path class="cls-9" d="m386.06 682.24-5.98 4.09-4.09-5.96 5.97-4.09 4.1 5.96z"/><path class="cls-2" d="m390.89 678.93-5.97 4.09-4.09-5.96 5.97-4.09 4.09 5.96z"/><path class="cls-9" transform="rotate(-79.45 321.44 637.066)" d="M317.84 633.45h7.23v7.24h-7.23z"/><path class="cls-2" transform="rotate(-79.45 327.212 638.139)" d="M323.61 634.52h7.23v7.24h-7.23z"/><path class="cls-9" transform="rotate(-79.45 321.93 767.337)" d="M318.33 763.72h7.23v7.24h-7.23z"/><path class="cls-2" transform="rotate(-79.45 327.7 768.41)" d="M324.1 764.8h7.23v7.24h-7.23z"/><path class="cls-2" transform="rotate(-79.41 325.54 706.323)" d="M321.89 702.69h7.23v7.24h-7.23z"/><path class="cls-9" transform="rotate(-79.41 325 709.202)" d="M321.35 705.56h7.23v7.24h-7.23z"/><path class="cls-9" transform="rotate(-79.41 381.889 777.702)" d="M377.85 773.68h7.99v8.01h-7.99z"/><path class="cls-2" transform="rotate(-79.41 383.077 771.333)" d="M379.04 767.32h7.99v8.01h-7.99z"/><path class="cls-9" transform="rotate(-79.41 420.928 782.61)" d="M416.89 778.59h7.99v8.01h-7.99z"/><path class="cls-2" transform="rotate(-79.41 422.116 776.241)" d="M418.08 772.22h7.99v8.01h-7.99z"/><path class="cls-9" transform="rotate(-79.41 419.599 678.552)" d="M415.57 674.54h7.99v8.01h-7.99z"/><path class="cls-2" transform="rotate(-79.41 420.787 672.184)" d="M416.76 668.17h7.99v8.01h-7.99z"/><path class="cls-9" d="m391.24 741.43-4.1-5.97 5.98-4.08 4.09 5.96-5.97 4.09z"/><path class="cls-2" d="m392.72 743.58-4.1-5.96 5.98-4.09 4.09 5.96-5.97 4.09z"/><path class="cls-9" d="m341.53 664.93-1.38 7.4-22.51.36 2.21-11.8 21.68 4.04z"/><path class="cls-4" d="m342.91 657.53-1.38 7.4-21.68-4.04 2.21-11.8 20.85 8.44z"/><path class="cls-9" d="m459.03 774.7-1.38 7.4-22.5.36 2.2-11.8 21.68 4.04z"/><path class="cls-4" d="m460.41 767.31-1.38 7.39-21.68-4.04 2.21-11.8 20.85 8.45z"/><path class="cls-9" d="m340.63 737.12-4.26-6.2 15.65-16.15 6.8 9.91-18.19 12.44z"/><path class="cls-4" d="m344.89 743.33-4.26-6.21 18.19-12.44 6.8 9.9-20.73 8.75z"/><path class="cls-7" d="m433.7 735.9.5-.73-1.12-.16a9.56 9.56 0 0 0-1.77-.1 13 13 0 0 0 2.42-4.15l.38-1.06-1.44.17a13 13 0 0 0-7.46 3.54c-.15.15-.3.31-.46.46a37 37 0 0 1 2.44-4.24 10.82 10.82 0 0 0 1.82-6.41v-1l-1.07.58a10.89 10.89 0 0 0-2.74 2.11 17 17 0 0 0-.73-3.37l-1.19-3.54a.41.41 0 0 0-.72-.12l-2.22 3a16.91 16.91 0 0 0-1.76 3 10.91 10.91 0 0 0-1.94-2.87l-.83-.89-.33.89a10.73 10.73 0 0 0-.31 6.65 36.94 36.94 0 0 1 1 4.79l-.29-.58a12.91 12.91 0 0 0-6-5.7l-1.31-.62v1.12a13.22 13.22 0 0 0 1 4.7 9.79 9.79 0 0 0-1.71-.46l-1.12-.2.25.84a10.07 10.07 0 0 0 3.49 5.14 31.48 31.48 0 0 1 2.84 2.46l-.47-.31c-.2-.14-.41-.27-.62-.4a7.43 7.43 0 0 0-4.45-1h-.16l-.63.07.33.52a7.1 7.1 0 0 0 1.89 2 7.32 7.32 0 0 0 1.45.8l.75.31.28.13.45.21.35.18.35.18.4.21.26.15.47.27h.06c.61.37 1.22.77 1.8 1.2.5.37 1 .76 1.46 1.17s.71.63 1.06 1c.43-.21.86-.41 1.3-.59s1.17-.46 1.76-.65c.69-.22 1.39-.42 2.09-.57h.07l.53-.11.29-.06.45-.08.39-.06h.39l.5-.06h.3l.81-.07a6.85 6.85 0 0 0 2.15-.48 7.2 7.2 0 0 0 1.91-1.12l.48-.4-.62-.27h-.11a7.13 7.13 0 0 0-3.67-.59 6.56 6.56 0 0 0-.87.14c-.24.05-.47.12-.71.18l-.54.14a35 35 0 0 1 3.48-1.45 10.08 10.08 0 0 0 4.97-3.84zm-128.38-56.6-.47-.75-.6 1a11.09 11.09 0 0 0-.79 1.58 13.11 13.11 0 0 0-2.85-3.86l-.83-.76-.41 1.38a12.92 12.92 0 0 0 .3 8.24l.24.6a36.09 36.09 0 0 1-2.94-3.92 10.83 10.83 0 0 0-5.17-4.2l-.89-.34.11 1.21a11.31 11.31 0 0 0 .85 3.35 17.59 17.59 0 0 0-3.38-.67l-3.73-.35a.41.41 0 0 0-.39.61l1.88 3.23a18.15 18.15 0 0 0 2 2.79 10.77 10.77 0 0 0-3.4.64l-1.15.41.68.66a10.93 10.93 0 0 0 6 2.92 34.59 34.59 0 0 1 4.79 1h-.64a13 13 0 0 0-7.61 3.2l-1.09 1 1 .43a13.16 13.16 0 0 0 4.71 1 10.57 10.57 0 0 0-1.1 1.38l-.63 1 .88.11a10.09 10.09 0 0 0 6.1-1.17 34.25 34.25 0 0 1 3.4-1.63l-.47.31-.61.41a7.46 7.46 0 0 0-2.69 3.68v.15l-.2.61.62-.1a7 7 0 0 0 3.9-1.95l.59-.56.23-.2.37-.33.3-.26.3-.24.36-.29.24-.18.43-.32h.06c.59-.42 1.2-.81 1.82-1.18a23.832 23.832 0 0 1 2.97-1.46v-1.43c0-.48.05-1.25.1-1.87a19 19 0 0 1 .3-2.14v-.07c0-.18.07-.36.11-.53l.08-.44c0-.15.07-.3.11-.45s.06-.25.1-.38.06-.25.1-.37.09-.32.14-.48l.09-.29c.08-.26.17-.51.26-.77a6.73 6.73 0 0 0 .41-2.17 7.11 7.11 0 0 0-.27-2.19l-.18-.59-.49.45-.1.08a7.25 7.25 0 0 0-2 3.14 8.15 8.15 0 0 0-.22.85c0 .24-.08.48-.11.72s-.06.37-.08.56a31.45 31.45 0 0 1 .05-3.76 10 10 0 0 0-1.49-6.05z"/><path class="cls-4" d="M445.82 715.91c-3.3 0-3.3 5.12 0 5.12s3.31-5.12 0-5.12zm-146.36 14.47c-3.3 0-3.31 5.12 0 5.12s3.3-5.12 0-5.12zm-13.25-63.71c-3.3 0-3.3 5.12 0 5.12s3.31-5.12 0-5.12zm178.1 76.14c-3.3 0-3.31 5.12 0 5.12s3.3-5.12 0-5.12z"/><path class="cls-3" d="M130 813.5a41.67 41.67 0 0 0-12-24.32L100.81 772a8.75 8.75 0 0 1 6.19-15h3.35a27.74 27.74 0 0 0 19.58-8l35-34.92c13.34-13.32 36.16-3.88 36.16 15v2A12.89 12.89 0 0 0 214 743.82h9.22a10 10 0 0 1 7 17l-11.45 11.42a14.14 14.14 0 0 0 0 20l8.42 8.4a14.46 14.46 0 0 1 4.15 12.86z"/><path class="cls-7" d="M152.36 758.27h4.77v4.76h-4.77zm41.54 39.89h5.56v13.49h-5.56z"/><path class="cls-14" d="M198.45 798.16h5.56v13.49h-5.56z"/><path class="cls-15" d="M159.95 768.55h5.28v5.27h-5.28z"/><path class="cls-13" d="M161.01 791.02h3.13v8.96h-3.13z"/><path class="cls-4" d="M153.19 740.8c-3.3 0-3.3 5.12 0 5.12s3.31-5.12 0-5.12zm-25.96 30.59c-3.3 0-3.3 5.11 0 5.11s3.31-5.11 0-5.11zm74 12.72c-3.3 0-3.3 5.12 0 5.12s3.31-5.12 0-5.12zm-9-8.98c-3.3 0-3.3 5.11 0 5.11s3.31-5.11 0-5.11zm28.44-21.81c-3.3 0-3.3 5.12 0 5.12s3.33-5.12 0-5.12zm-40.49-38.54c-3.3 0-3.3 5.11 0 5.11s3.31-5.11 0-5.11z"/><path class="cls-13" d="M192.23 754.19h5.33v5.32h-5.33zm-53.06 42.94-6.36-6.34 2.44-2.44 6.36 6.34-2.44 2.44z"/><path class="cls-7" d="m190.88 739.08-6.58 6.57-2.42-2.42 6.58-6.57 2.42 2.42z"/><path class="cls-15" d="M106.86 763.67h3.53v3.53h-3.53zm102.25 3.67h7.43v1.91h-7.43z"/><path class="cls-7" d="M202 677.69h12.68v5.71H202z"/><path class="cls-3" d="m177.62 658.09 2.56-2.4-.6-1.79a9.62 9.62 0 0 0-6.67-6.22l-2.35-.62.74 3.52a9.63 9.63 0 0 0 4.09 6zm-49.39 67.72-4.69-4.68 7.65-7.63 4.69 4.67-7.65 7.64z"/><path class="cls-7" d="m180.18 687.84-3.5-3.49 3.5-3.5 3.51 3.5-3.51 3.49z"/><path class="cls-3" d="M237.26 663.62h9.79v2.67h-9.79zm-34.23-40.35h2.92v8.23h-2.92z"/><path class="cls-5" d="M52.94 247a.1.1 0 0 0 0 .05L0 194.07v-51.38A61.26 61.26 0 0 1 52.9 160a61.63 61.63 0 0 1 .04 87z"/><path class="cls-5" d="m23.4 157.88-3.21.92 7.45 26.06a2.42 2.42 0 0 1-1.17 2.82 7.76 7.76 0 0 0-1.92 1.39L35.47 200a7.74 7.74 0 0 0 1.53-2.19 2.43 2.43 0 0 1 2.8-1.32l26.61 6.72.82-3.25-27-6.82a6.17 6.17 0 0 1-3.66-2.73l14.27-14.3-2.36-2.36L34.15 188l-.38-.23a5.72 5.72 0 0 1-2.77-3.4z"/><path class="cls-13" d="M62.62 144.46a61.62 61.62 0 0 1 .05 87A73 73 0 0 0 43.09 164 72.38 72.38 0 0 0 0 143.16v-13.69a61.41 61.41 0 0 1 62.62 14.99z"/><path class="cls-9" d="M0 143.16c1 .12 2 .25 3 .41.49.07 1 .15 1.46.24s1.2.21 1.79.34c.87.17 1.74.36 2.59.58s2 .48 2.91.76l1.15.34c1.53.46 3 1 4.52 1.54L19 148l1.63.68c.55.25 1.1.48 1.63.74s.93.44 1.4.67 1.2.6 1.81.91l1.5.82A71.89 71.89 0 0 1 41 162l1 .89c.39.37.76.73 1.14 1.11a73 73 0 0 1 19.58 67.46.11.11 0 0 1 0 .05L0 168.8z"/><path class="cls-4" d="M0 148.66a67 67 0 0 1 39.21 19.25 67.2 67.2 0 0 1 19.59 52L0 161z"/><path class="cls-9" d="m14.72 149.18-3.22.92 7.5 26.05a2.43 2.43 0 0 1-1.22 2.85 7.57 7.57 0 0 0-1.91 1.4l10.91 10.9a7.49 7.49 0 0 0 1.54-2.2 2.42 2.42 0 0 1 2.79-1.31l26.61 6.72.82-3.25-27-6.83a6.15 6.15 0 0 1-3.66-2.72l14.27-14.3-2.41-2.41-14.27 14.3-.39-.23a5.81 5.81 0 0 1-2.79-3.42z"/><path class="cls-6" d="M80.11 573.07 9.62 692.18l-3.24 5.49a2.9 2.9 0 0 1-5 0L0 695.2V568l77.65.77a2.88 2.88 0 0 1 2.46 4.3z"/><path class="cls-6" d="M9.45 631.92a2.56 2.56 0 0 0-3.62 0 2.62 2.62 0 0 0-.75 1.8v.37a2.56 2.56 0 0 0 2.56 2.56 2.6 2.6 0 0 0 1.81-.75 2.66 2.66 0 0 0 .75-1.81v-.37a2.64 2.64 0 0 0-.75-1.8zm36.91-42.07a2.58 2.58 0 0 0-3.62 0 2.66 2.66 0 0 0-.75 1.81v.34a2.56 2.56 0 0 0 2.56 2.56 2.6 2.6 0 0 0 1.81-.75 2.66 2.66 0 0 0 .75-1.81v-.37a2.68 2.68 0 0 0-.75-1.78z"/><path class="cls-7" d="m590 763.3.85-.22-.74-.86a10.51 10.51 0 0 0-1.28-1.22 13 13 0 0 0 4.54-1.58l1-.56-1.21-.8a12.92 12.92 0 0 0-8-2.16l-.65.05a33.79 33.79 0 0 1 4.65-1.64 10.8 10.8 0 0 0 5.52-3.68l.6-.74-1.2-.26a10.84 10.84 0 0 0-3.45-.18 17.74 17.74 0 0 0 1.65-3l1.43-3.45a.4.4 0 0 0-.47-.55l-3.64.83a17.15 17.15 0 0 0-3.28 1.12 10.75 10.75 0 0 0 .41-3.44l-.06-1.22-.83.46a10.79 10.79 0 0 0-4.56 4.82 36.23 36.23 0 0 1-2.4 4.3c.05-.21.11-.42.16-.63a13 13 0 0 0-.8-8.2l-.59-1.32-.65.83a13 13 0 0 0-2.31 4.2 10.2 10.2 0 0 0-1-1.46l-.72-.88-.36.8a9.93 9.93 0 0 0-.71 6.12 33.91 33.91 0 0 1 .56 3.77l-.15-.54c-.07-.23-.14-.47-.22-.7a7.12 7.12 0 0 0-2.72-3.65l-.13-.1-.52-.36-.09.61a7.06 7.06 0 0 0 .12 2.75 6.86 6.86 0 0 0 .59 1.56l.36.72.12.28.21.45.15.36.15.37.16.42c0 .1.07.19.1.28l.18.51v.07a23.185 23.185 0 0 1 .94 3.94c0 .23.07.47.09.7a1.08 1.08 0 0 0 .77.91c.23.06.45.13.68.21.6.19 1.18.41 1.76.65.67.28 1.32.59 2 .93h.06l.48.26.25.15.4.23.33.21.33.21c.14.09.28.18.41.28l.26.17.65.47a7.19 7.19 0 0 0 2 1 7.35 7.35 0 0 0 2.18.39h.63l-.29-.61-.06-.11a7.05 7.05 0 0 0-3.15-3.29l-.66-.33-.5-.24a32.55 32.55 0 0 1 3.62 1.18 10 10 0 0 0 6.05.41z"/><path class="cls-16" d="M90.57 616.11a2.59 2.59 0 0 0-.64-1.11l-.51-.39a2.5 2.5 0 0 0-1.28-.34h-.29a1.89 1.89 0 0 0-1 .21 1.92 1.92 0 0 0-.81.52 2 2 0 0 0-.53.81 1.91 1.91 0 0 0-.21 1l.09.67a2.41 2.41 0 0 0 .65 1.11l.51.4a2.54 2.54 0 0 0 1.27.34h.29a2 2 0 0 0 1-.22 1.85 1.85 0 0 0 .81-.52 2 2 0 0 0 .52-.81 1.8 1.8 0 0 0 .21-1zm-62.29-76.89a2.51 2.51 0 0 0-.65-1.11l-.51-.39a2.44 2.44 0 0 0-1.27-.34h-.29a1.93 1.93 0 0 0-1 .21 2.05 2.05 0 0 0-.81.52 2 2 0 0 0-.52.81 1.92 1.92 0 0 0-.22 1l.09.67a2.5 2.5 0 0 0 .65 1.11l.51.4a2.61 2.61 0 0 0 1.28.34h.29a1.9 1.9 0 0 0 1-.22 1.75 1.75 0 0 0 .81-.52 2 2 0 0 0 .53-.81 1.89 1.89 0 0 0 .21-1z"/><path class="cls-4" d="m87.3 566.55-73.73 124.6a2.89 2.89 0 0 1-4 1 2.82 2.82 0 0 1-1.06-1.08L0 676V561.35l84.84.84a2.89 2.89 0 0 1 2.46 4.36z"/><path class="cls-9" d="M16.64 625.39a2.58 2.58 0 0 0-3.62 0 2.66 2.66 0 0 0-.75 1.81v.37a2.66 2.66 0 0 0 .75 1.81 2.58 2.58 0 0 0 3.62 0 2.66 2.66 0 0 0 .75-1.81v-.37a2.66 2.66 0 0 0-.75-1.81zm36.91-42.06a2.59 2.59 0 0 0-1.81-.74 2.55 2.55 0 0 0-1.81.74 2.66 2.66 0 0 0-.75 1.81v.37a2.68 2.68 0 0 0 .75 1.81 2.58 2.58 0 0 0 3.62 0 2.66 2.66 0 0 0 .75-1.81v-.37a2.66 2.66 0 0 0-.75-1.81z"/><path class="cls-5" d="M442 0h-91.27A108.09 108.09 0 1 0 442 0z"/><path class="cls-2" d="M480.41 0H342.15a108.08 108.08 0 1 0 138.26 0z"/><path class="cls-7" d="M498.51 87.06a59 59 0 0 1 0-8 57.63 57.63 0 0 0-9.68-36.17 56.85 56.85 0 0 1-3.93-6.8l-.06-.13a57.7 57.7 0 0 0-26.42-26.41l-.13-.06a59.7 59.7 0 0 1-6.8-3.93A58.25 58.25 0 0 0 441.09 0h-59.62a58.25 58.25 0 0 0-10.36 5.52h-.05a58 58 0 0 1-6.8 3.93l-.12.06a57.68 57.68 0 0 0-21.79 18.62 59.79 59.79 0 0 1 7.76-4.6l.13-.06a56.85 56.85 0 0 0 6.8-3.93 57.63 57.63 0 0 1 36.17-9.68 59 59 0 0 0 8 0 57.68 57.68 0 0 1 36.18 9.68h.05a56.64 56.64 0 0 0 6.8 3.93l.12.06A57.67 57.67 0 0 1 470.78 50l.06.12a56.64 56.64 0 0 0 3.93 6.8 57.68 57.68 0 0 1 9.68 36.18 59 59 0 0 0 0 8 57.68 57.68 0 0 1-9.68 36.18 58.24 58.24 0 0 0-3.93 6.8l-.06.13a58 58 0 0 1-4.6 7.76 57.79 57.79 0 0 0 18.63-21.79l.06-.12a55.32 55.32 0 0 1 3.93-6.8v-.05a57.68 57.68 0 0 0 9.68-36.18z"/><path class="cls-3" d="M470.84 144.11a58.24 58.24 0 0 1 3.93-6.8 57.68 57.68 0 0 0 9.68-36.18 59 59 0 0 1 0-8 57.68 57.68 0 0 0-9.68-36.18 56.64 56.64 0 0 1-3.93-6.8l-.06-.12a57.67 57.67 0 0 0-26.39-26.39l-.12-.06a56.64 56.64 0 0 1-6.8-3.93h-.05a57.68 57.68 0 0 0-36.18-9.68 59 59 0 0 1-8 0 57.63 57.63 0 0 0-36.17 9.68 56.85 56.85 0 0 1-6.8 3.93l-.13.06a59.79 59.79 0 0 0-7.76 4.6 59.79 59.79 0 0 0-4.6 7.76l-.06.13a56.85 56.85 0 0 1-3.93 6.8 57.63 57.63 0 0 0-9.68 36.17 59 59 0 0 1 0 8 57.68 57.68 0 0 0 9.68 36.18v.05a55.32 55.32 0 0 1 3.93 6.8l.06.12a57.67 57.67 0 0 0 26.39 26.39l.12.06a56.64 56.64 0 0 1 6.8 3.93h.05a57.68 57.68 0 0 0 36.18 9.68 59 59 0 0 1 8 0 57.68 57.68 0 0 0 36.18-9.68h.05a57.3 57.3 0 0 1 6.79-3.93l.13-.06a57.42 57.42 0 0 0 7.76-4.6 58 58 0 0 0 4.6-7.76z"/><path class="cls-7" d="M347.7 49.69h10.82v4.2H347.7zm1.78 48.3h4.99v4.99h-4.99zm43.43 41.78h5.81v14.13h-5.81z"/><path class="cls-14" d="M397.66 139.77h5.81v14.13h-5.81z"/><path class="cls-15" d="M428.6 25.38h4.47v8.6h-4.47z"/><path class="cls-15" transform="rotate(45 454.147 85.494)" d="M447.62 83.07h13.07v4.83h-13.07z"/><path class="cls-14" transform="rotate(45 392.911 23.15)" d="M386.37 20.73h13.07v4.83h-13.07z"/><path class="cls-15" d="M357.41 108.76h5.52v5.52h-5.52z"/><path class="cls-7" d="M453.56 73.85h10.78v2.7h-10.78z"/><path class="cls-7" transform="rotate(-45 458.941 123.49)" d="M454.87 119.42h8.15v8.15h-8.15z"/><path class="cls-7" transform="rotate(-45 395.8 78.485)" d="M391.04 76.55h9.53v3.87h-9.53z"/><path class="cls-7" transform="rotate(-45 396.356 91.754)" d="M391.59 89.83h9.53v3.87h-9.53z"/><path class="cls-13" d="M425.62 54.45h5.53v10.56h-5.53zm-65.45 16.16h3.24v3.24h-3.24zm65.45 72.74h9.98v3.48h-9.98zm-9.46-32.68h9.46v3.02h-9.46zm-57.64 21.61h3.27v9.39h-3.27zm9.04-103.57h3.85v3.85h-3.85z"/><path class="cls-4" d="M448.11 47.76c-3.45 0-3.45 5.36 0 5.36s3.46-5.36 0-5.36zm-32.3 46.93a2.77 2.77 0 0 0-1.9-.79h-.16a2.77 2.77 0 0 0-1.9.79 2.71 2.71 0 0 0-.78 1.89 2.76 2.76 0 0 0 .78 1.9 2.8 2.8 0 0 0 1.9.78h.16a2.8 2.8 0 0 0 1.9-.78 2.76 2.76 0 0 0 .78-1.9 2.71 2.71 0 0 0-.78-1.89zM342.4 71.94a2.7 2.7 0 0 0-1.89-.79 2.86 2.86 0 0 0-1.9.79l-.16.16a2.69 2.69 0 0 0 0 3.79 2.7 2.7 0 0 0 1.9.79 2.83 2.83 0 0 0 1.89-.79l.16-.16a2.77 2.77 0 0 0 .79-1.9 2.7 2.7 0 0 0-.79-1.89zm7.95 7.76c-3.45 0-3.46 5.36 0 5.36s3.45-5.36 0-5.36zm46.74-32.77a2.78 2.78 0 0 0-1.89-.78h-.2a2.8 2.8 0 0 0-1.9.78 2.76 2.76 0 0 0-.78 1.9 2.67 2.67 0 0 0 .78 1.89 2.75 2.75 0 0 0 1.9.79h.16a2.74 2.74 0 0 0 1.89-.79 2.68 2.68 0 0 0 .79-1.89 2.72 2.72 0 0 0-.75-1.9zM391.45 127a2.76 2.76 0 0 0-1.9-.78 2.71 2.71 0 0 0-1.89.78 2.77 2.77 0 0 0-.79 1.9v.1a2.72 2.72 0 0 0 .79 1.89 2.68 2.68 0 0 0 1.89.79 2.72 2.72 0 0 0 1.9-.79 2.78 2.78 0 0 0 .78-1.89v-.16a2.8 2.8 0 0 0-.78-1.84zm-14 11.75c-3.45 0-3.45 5.36 0 5.36s3.46-5.36 0-5.36zm77.28 7.1c-3.45 0-3.46 5.36 0 5.36s3.45-5.36 0-5.36zM475.21 106c-3.44 0-3.45 5.36 0 5.36s3.46-5.36 0-5.36z"/><path class="cls-13" d="M433.43 5.49c-3.45 0-3.45 5.36 0 5.36s3.46-5.36 0-5.36zm56.3 51.63c-3.44 0-3.45 5.36 0 5.36s3.46-5.36 0-5.36z"/><path class="cls-3" d="M459.73 24.29h6.38v2.33h-6.38z"/><path d="M477.15 44.53h3.23v3.23h-3.23zM411.76 2.18h2.21v5.99h-2.21zm76.19 87.91h7.48v3.16h-7.48z" style="fill:#0f462d"/><path class="cls-16" d="M283 156.56a2.51 2.51 0 0 0-.65-1.11l-.51-.39a2.45 2.45 0 0 0-1.27-.35h-.3a1.92 1.92 0 0 0-1 .22 2.26 2.26 0 0 0-1.33 1.33 1.92 1.92 0 0 0-.22 1l.09.67a2.59 2.59 0 0 0 .65 1.12l.51.39a2.49 2.49 0 0 0 1.27.34h.3a2.75 2.75 0 0 0 1.78-.73 1.83 1.83 0 0 0 .52-.82 1.9 1.9 0 0 0 .22-1z"/><path class="cls-5" d="M584.3 648.88a13.34 13.34 0 0 0-8.7-15.06 8.47 8.47 0 0 1-2.6-1.51h-.06a13.45 13.45 0 0 0-17.19-.09l-.16.13a8.21 8.21 0 0 1-2.61 1.51 13.35 13.35 0 0 0-8.71 15.06 8.18 8.18 0 0 1 0 3 13.35 13.35 0 0 0 8.64 15.08 8.21 8.21 0 0 1 2.61 1.51h.07a13.44 13.44 0 0 0 17.29 0h.06a8.43 8.43 0 0 1 2.59-1.51h.05a13.34 13.34 0 0 0 8.7-15.06 8.62 8.62 0 0 1 .02-3.06z"/><path class="cls-9" d="m574.77 642.42-2.53-2.52a7.75 7.75 0 0 1-2.26-5.45v-4c-.51-.05-1-.08-1.56-.08s-1 0-1.57.08v4a7.71 7.71 0 0 1-2.26 5.45l-2.53 2.52a7.69 7.69 0 0 1-5.45 2.26h-4c0 .51-.08 1-.08 1.56s0 1 .08 1.56h4a7.69 7.69 0 0 1 5.45 2.26l2.53 2.53a7.67 7.67 0 0 1 2.26 5.44v4c.52 0 1 .08 1.57.08s1.05 0 1.56-.08v-4a7.71 7.71 0 0 1 2.26-5.44l2.53-2.53a7.71 7.71 0 0 1 5.46-2.26h4c0-.51.07-1 .07-1.56s0-1-.07-1.56h-4a7.71 7.71 0 0 1-5.46-2.26z"/><circle class="cls-16" cx="572.99" cy="657.02" r="2.01"/><circle class="cls-16" cx="576.3" cy="653.71" r="2.01"/><circle class="cls-16" cx="579.61" cy="650.41" r="2.01"/><circle class="cls-16" cx="579.23" cy="642.11" r="2.01"/><circle class="cls-16" cx="575.99" cy="638.74" r="2.01"/><circle class="cls-16" cx="572.74" cy="635.38" r="2.01"/><circle class="cls-16" cx="564.22" cy="635.67" r="2.01"/><circle class="cls-16" cx="560.85" cy="638.91" r="2.01"/><circle class="cls-16" cx="557.48" cy="642.15" r="2.01"/><circle class="cls-16" cx="557.77" cy="650.66" r="2.01"/><circle class="cls-16" cx="561.02" cy="654.02" r="2.01"/><circle class="cls-16" cx="564.26" cy="657.39" r="2.01"/><path class="cls-7" d="M588.47 644.72a13.35 13.35 0 0 0-8.71-15.06 8.36 8.36 0 0 1-2.6-1.51h-.07a13.44 13.44 0 0 0-17.18-.09l-.16.13a8.32 8.32 0 0 1-2.61 1.51 13.36 13.36 0 0 0-8.71 15.06 8.18 8.18 0 0 1 0 3 13.36 13.36 0 0 0 8.71 15.06 8.37 8.37 0 0 1 2.62 1.51h.06a13.44 13.44 0 0 0 17.29 0h.07a8.2 8.2 0 0 1 2.59-1.5 13.35 13.35 0 0 0 8.71-15.06 8.18 8.18 0 0 1-.01-3.05zm-20.05 15.82a14.3 14.3 0 1 1 14.32-14.3 14.32 14.32 0 0 1-14.32 14.3z"/><path class="cls-13" d="M586 644.27a10.91 10.91 0 0 0-7.08-12.27 10.82 10.82 0 0 1-3.42-2 10.93 10.93 0 0 0-14.16 0 10.82 10.82 0 0 1-3.42 2 10.91 10.91 0 0 0-7.08 12.25 10.87 10.87 0 0 1 0 3.94 10.91 10.91 0 0 0 7.08 12.25 10.82 10.82 0 0 1 3.42 2 10.93 10.93 0 0 0 14.16 0 10.82 10.82 0 0 1 3.42-2 10.91 10.91 0 0 0 7.08-12.23 10.87 10.87 0 0 1 0-3.94zm-17.58 16.27a14.3 14.3 0 1 1 14.32-14.3 14.32 14.32 0 0 1-14.32 14.3z"/><path class="cls-3" d="m565.41 610.46-.84-.41a7.72 7.72 0 0 1-2.11-1.41 8.25 8.25 0 0 1-1.58-2l-.35-.62h.92a8.19 8.19 0 0 1 4.18.9 7.4 7.4 0 0 1 .86.5l.7.49.52.38a39.17 39.17 0 0 0-3.17-3 11.49 11.49 0 0 1-3.68-6l-.24-1 1.28.29a11.73 11.73 0 0 1 1.93.62 15 15 0 0 1-.87-5.44v-1.29l1.47.78A14.84 14.84 0 0 1 571 600c.11.23.2.46.3.68a39.9 39.9 0 0 0-.82-5.44 12.54 12.54 0 0 1 .7-7.72l.43-1 .9 1.06a12.57 12.57 0 0 1 2.06 3.39 19.63 19.63 0 0 1 2.18-3.3l2.71-3.33a.47.47 0 0 1 .82.18l1.13 4.13a20.08 20.08 0 0 1 .65 3.91 13.1 13.1 0 0 1 3.27-2.27l1.26-.6v1.08a12.76 12.76 0 0 1-2.59 7.43c-.28.38-.55.76-.81 1.15a7.22 7.22 0 0 1-2.32 2.18l-15.35 9z"/><path class="cls-9" d="m563.89 739.2-5.98 4.08-4.09-5.96 5.97-4.09 4.1 5.97z"/><path class="cls-2" d="m566.88 737.15-5.98 4.09-4.09-5.96 5.97-4.09 4.1 5.96z"/><path class="cls-3" d="M512.39 713.5h3.9v3.89h-3.9z"/><path class="cls-7" d="m600.48 609.3-4-3.99 4-3.99 3.99 3.99-3.99 3.99z"/><path class="cls-16" d="M562.89 690.85a2.48 2.48 0 0 0-.64-1.11l-.51-.39a2.51 2.51 0 0 0-1.28-.35h-.29a1.9 1.9 0 0 0-1 .22 1.83 1.83 0 0 0-.82.52 2.05 2.05 0 0 0-.52.81 1.89 1.89 0 0 0-.21 1l.09.67a2.59 2.59 0 0 0 .64 1.11l.51.39a2.5 2.5 0 0 0 1.28.34h.29a1.89 1.89 0 0 0 1-.21 1.92 1.92 0 0 0 .82-.52 2 2 0 0 0 .52-.81 1.91 1.91 0 0 0 .21-1zm-37.96-38.54a2.61 2.61 0 0 0-.65-1.11l-.51-.39a2.47 2.47 0 0 0-1.27-.34h-.3a1.89 1.89 0 0 0-1 .21 2 2 0 0 0-.81.52 1.85 1.85 0 0 0-.52.81 1.92 1.92 0 0 0-.22 1l.09.67a2.5 2.5 0 0 0 .65 1.11l.51.39a2.48 2.48 0 0 0 1.27.35h.3a1.92 1.92 0 0 0 1-.22 2.26 2.26 0 0 0 1.33-1.31 1.9 1.9 0 0 0 .22-1z"/><path class="cls-5" d="M552 199.59a13.81 13.81 0 0 0 4.66-17.39 8.51 8.51 0 0 1-.8-3v-.08a13.89 13.89 0 0 0-12.52-12.62h-.22a8.85 8.85 0 0 1-3-.81 13.86 13.86 0 0 0-17.42 4.66 8.6 8.6 0 0 1-2.23 2.23 13.82 13.82 0 0 0-4.67 17.39 8.79 8.79 0 0 1 .81 3v.03a13.88 13.88 0 0 0 12.65 12.63h.09a8.72 8.72 0 0 1 3 .79 13.87 13.87 0 0 0 17.42-4.66 8.56 8.56 0 0 1 2.23-2.17z"/><path class="cls-9" d="M548.68 182.83v-3.7a7.94 7.94 0 0 1 2.32-5.63l2.91-2.91c-.34-.41-.7-.81-1.09-1.2s-.79-.75-1.2-1.09l-2.92 2.91a7.94 7.94 0 0 1-5.64 2.34h-3.71a8 8 0 0 1-5.64-2.34l-2.92-2.91c-.41.34-.81.7-1.2 1.09s-.75.79-1.09 1.2l2.92 2.91a8 8 0 0 1 2.33 5.63v3.7a8 8 0 0 1-2.33 5.64l-2.92 2.91c.34.41.7.81 1.09 1.2s.79.75 1.2 1.09l2.92-2.91a8 8 0 0 1 5.64-2.34h3.71a7.94 7.94 0 0 1 5.64 2.34l2.92 2.91c.41-.34.81-.71 1.2-1.09s.75-.79 1.09-1.2l-2.91-2.91a8 8 0 0 1-2.32-5.64z"/><circle class="cls-16" cx="536.67" cy="192.21" r="2.08"/><circle class="cls-16" cx="541.51" cy="192.21" r="2.08"/><circle class="cls-16" cx="546.36" cy="192.21" r="2.08"/><circle class="cls-16" cx="552.17" cy="185.86" r="2.08"/><circle class="cls-16" cx="552.26" cy="181.03" r="2.08"/><circle class="cls-16" cx="552.36" cy="176.19" r="2.08"/><circle class="cls-16" cx="545.9" cy="170.18" r="2.08"/><circle class="cls-16" cx="541.06" cy="170.09" r="2.08"/><circle class="cls-16" cx="536.22" cy="170" r="2.08"/><circle class="cls-16" cx="530.19" cy="176.44" r="2.08"/><circle class="cls-16" cx="530.1" cy="181.27" r="2.08"/><circle class="cls-16" cx="530.01" cy="186.11" r="2.08"/><path class="cls-7" d="M557 194.53a13.82 13.82 0 0 0 4.67-17.39 8.4 8.4 0 0 1-.8-3V174a13.89 13.89 0 0 0-12.51-12.63h-.21a8.51 8.51 0 0 1-3-.8 13.87 13.87 0 0 0-17.42 4.66 8.56 8.56 0 0 1-2.23 2.22 13.81 13.81 0 0 0-4.66 17.39 8.57 8.57 0 0 1 .81 3v.16a13.9 13.9 0 0 0 12.66 12.64h.08a8.72 8.72 0 0 1 3 .79 13.86 13.86 0 0 0 17.42-4.66 8.56 8.56 0 0 1 2.19-2.24zm-26.28-3.08a14.81 14.81 0 1 1 21 0 14.78 14.78 0 0 1-20.98 0z"/><path class="cls-13" d="M555.54 192.39a11.28 11.28 0 0 0 3.8-14.14 11.25 11.25 0 0 1-1.06-3.94A11.32 11.32 0 0 0 547.91 164a11.46 11.46 0 0 1-3.94-1.05 11.33 11.33 0 0 0-14.16 3.79 11.34 11.34 0 0 1-2.89 2.89 11.27 11.27 0 0 0-3.79 14.14 11.24 11.24 0 0 1 1 3.94A11.32 11.32 0 0 0 534.54 198a11.29 11.29 0 0 1 4 1.05 11.31 11.31 0 0 0 14.16-3.78 11.18 11.18 0 0 1 2.84-2.88zm-24.8-.94a14.81 14.81 0 1 1 21 0 14.78 14.78 0 0 1-21 0z"/><path class="cls-7" d="M573.53 117.17h-4.9l.01-12.44 4.9-.01-.01 12.45z"/><path class="cls-3" d="m577.75 117.16-4.9.01.01-12.45h4.9l-.01 12.44z"/><path class="cls-16" d="M560.55 226.19a2.48 2.48 0 0 0-.64-1.11l-.51-.4a2.61 2.61 0 0 0-1.28-.34h-.29a1.9 1.9 0 0 0-1 .22 1.75 1.75 0 0 0-.81.52 1.85 1.85 0 0 0-.53.81 1.89 1.89 0 0 0-.21 1l.09.66a2.41 2.41 0 0 0 .65 1.11l.51.4a2.44 2.44 0 0 0 1.27.34h.29a1.9 1.9 0 0 0 1-.22 1.83 1.83 0 0 0 .82-.52 1.85 1.85 0 0 0 .52-.8 1.91 1.91 0 0 0 .21-1zm-17.72-92.04a2.54 2.54 0 0 0-1.24-.32l-.64.08a2.44 2.44 0 0 0-1.14.66l-.21.21a1.86 1.86 0 0 0-.53.84 1.88 1.88 0 0 0-.21.94 1.91 1.91 0 0 0 .21.94 1.88 1.88 0 0 0 .53.84l.53.41a2.58 2.58 0 0 0 1.25.32l.62-.07a2.52 2.52 0 0 0 1.14-.66l.21-.21a1.86 1.86 0 0 0 .53-.84 1.88 1.88 0 0 0 .21-.94 1.91 1.91 0 0 0-.21-.94 1.88 1.88 0 0 0-.53-.84zM586.81 157a2.48 2.48 0 0 0-.64-1.11l-.51-.39a2.51 2.51 0 0 0-1.28-.35h-.29a1.9 1.9 0 0 0-1 .22 1.83 1.83 0 0 0-.82.52 2.05 2.05 0 0 0-.52.81 1.89 1.89 0 0 0-.21 1l.09.67a2.59 2.59 0 0 0 .64 1.11l.51.39a2.62 2.62 0 0 0 1.28.35h.29a1.9 1.9 0 0 0 1-.22 1.92 1.92 0 0 0 .82-.52 2 2 0 0 0 .52-.81 1.89 1.89 0 0 0 .21-1z"/><path class="cls-5" d="M127.32 234.1a13.82 13.82 0 0 0 15.6-9 8.54 8.54 0 0 1 1.56-2.69v-.07a13.9 13.9 0 0 0 .08-17.77l-.14-.16a8.58 8.58 0 0 1-1.56-2.7 13.86 13.86 0 0 0-15.62-9 8.5 8.5 0 0 1-3.14 0 13.82 13.82 0 0 0-15.6 9 8.58 8.58 0 0 1-1.56 2.7v.07a13.87 13.87 0 0 0 0 17.88l.06.06a8.7 8.7 0 0 1 1.55 2.69 13.86 13.86 0 0 0 15.61 9 8.55 8.55 0 0 1 3.16-.01z"/><path class="cls-9" d="m136.86 213 2.61-2.62a8 8 0 0 1 5.64-2.33h4.12c.05-.54.08-1.08.08-1.62s0-1.09-.09-1.62h-4.11a8 8 0 0 1-5.65-2.34l-2.62-2.62a8 8 0 0 1-2.34-5.64v-4.12c-.53-.05-1.07-.08-1.62-.08s-1.09 0-1.62.08v4.12a7.93 7.93 0 0 1-2.33 5.64l-2.61 2.61a8 8 0 0 1-5.64 2.33h-4.12c0 .53-.08 1.07-.08 1.62s0 1.08.08 1.62h4.12a8 8 0 0 1 5.64 2.34l2.62 2.62a8 8 0 0 1 2.35 5.64v4.12a14.41 14.41 0 0 0 1.62.08c.55 0 1.09 0 1.62-.07v-4.12a7.94 7.94 0 0 1 2.33-5.64z"/><circle class="cls-16" cx="121.74" cy="211.14" r="2.08" transform="rotate(-45 121.735 211.136)"/><circle class="cls-16" cx="125.16" cy="214.56" r="2.08" transform="rotate(-45 125.166 214.565)"/><circle class="cls-16" cx="128.59" cy="217.99" r="2.08" transform="rotate(-45 128.584 217.989)"/><circle class="cls-16" cx="137.18" cy="217.61" r="2.08" transform="rotate(-45 137.18 217.618)"/><circle class="cls-16" cx="140.67" cy="214.26" r="2.08" transform="rotate(-45 140.667 214.254)"/><circle class="cls-16" cx="144.15" cy="210.91" r="2.08" transform="rotate(-45 144.148 210.902)"/><circle class="cls-16" cx="143.84" cy="202.09" r="2.08" transform="rotate(-45 143.838 202.09)"/><circle class="cls-16" cx="140.48" cy="198.6" r="2.08" transform="rotate(-45 140.474 198.604)"/><circle class="cls-16" cx="137.12" cy="195.11" r="2.08" transform="rotate(-45 137.127 195.11)"/><circle class="cls-16" cx="128.31" cy="195.41" r="2.08" transform="rotate(-45 128.309 195.403)"/><circle class="cls-16" cx="124.82" cy="198.76" r="2.08" transform="rotate(-45 124.827 198.755)"/><circle class="cls-16" cx="121.34" cy="202.11" r="2.08" transform="rotate(-45 121.34 202.12)"/><path class="cls-7" d="M134.49 227.16a13.8 13.8 0 0 0 15.59-9 8.46 8.46 0 0 1 1.55-2.68l.06-.07a13.9 13.9 0 0 0 .07-17.78l-.14-.16a8.61 8.61 0 0 1-1.57-2.7 13.86 13.86 0 0 0-15.61-9 8.55 8.55 0 0 1-3.15 0 13.8 13.8 0 0 0-15.59 9 8.52 8.52 0 0 1-1.56 2.71l-.06.06a13.9 13.9 0 0 0 0 17.89l.05.06a8.8 8.8 0 0 1 1.56 2.68 13.86 13.86 0 0 0 15.61 9 8.78 8.78 0 0 1 3.19-.01zm-16.41-20.75a14.82 14.82 0 1 1 14.83 14.83 14.78 14.78 0 0 1-14.83-14.83z"/><path class="cls-13" d="M135 224.61a11.27 11.27 0 0 0 12.68-7.31 11.23 11.23 0 0 1 2-3.53 11.28 11.28 0 0 0 0-14.64 11.23 11.23 0 0 1-2-3.53 11.31 11.31 0 0 0-12.69-7.33 11.25 11.25 0 0 1-4.09 0 11.26 11.26 0 0 0-12.67 7.31 11.39 11.39 0 0 1-2 3.54 11.28 11.28 0 0 0 0 14.64 11.39 11.39 0 0 1 2 3.54 11.32 11.32 0 0 0 12.7 7.33 11.42 11.42 0 0 1 4.07-.02zm-16.87-18.2a14.82 14.82 0 1 1 14.83 14.83 14.78 14.78 0 0 1-14.88-14.83z"/><path class="cls-7" d="m200.86 184.14-3.47-3.47 8.81-8.79 3.47 3.47-8.81 8.79z"/><path class="cls-3" d="m203.85 187.12-3.47-3.46 8.81-8.79 3.47 3.46-8.81 8.79z"/><path class="cls-16" d="M114.6 252.05a2.55 2.55 0 0 0 .33-1.24l-.09-.64a2.42 2.42 0 0 0-.65-1.14l-.21-.21a2 2 0 0 0-.84-.54 2 2 0 0 0-.94-.2 1.94 1.94 0 0 0-1 .2 1.82 1.82 0 0 0-.83.54l-.41.53a2.49 2.49 0 0 0-.33 1.25l.08.63a2.61 2.61 0 0 0 .66 1.15l.21.21a1.86 1.86 0 0 0 .84.53 1.88 1.88 0 0 0 .94.21 1.91 1.91 0 0 0 .94-.21 2 2 0 0 0 .84-.53zm52.55-77.6a2.5 2.5 0 0 0-.65-1.11l-.51-.4a2.47 2.47 0 0 0-1.27-.34h-.3a1.9 1.9 0 0 0-1 .22 1.85 1.85 0 0 0-.81.52 1.75 1.75 0 0 0-.52.81 1.86 1.86 0 0 0-.22 1l.09.67a2.5 2.5 0 0 0 .65 1.11l.51.4a2.57 2.57 0 0 0 1.27.34h.3a1.92 1.92 0 0 0 1-.22 1.85 1.85 0 0 0 .81-.52 1.83 1.83 0 0 0 .52-.81 1.9 1.9 0 0 0 .22-1zm14.91 47.28a2.49 2.49 0 0 0 .33-1.25l-.08-.64a2.63 2.63 0 0 0-.66-1.14l-.21-.21a2 2 0 0 0-.84-.53 1.91 1.91 0 0 0-.94-.21 1.88 1.88 0 0 0-.94.21 1.86 1.86 0 0 0-.84.53l-.41.54a2.45 2.45 0 0 0-.33 1.24l.08.64a2.52 2.52 0 0 0 .66 1.14l.21.21a1.88 1.88 0 0 0 .84.53 1.91 1.91 0 0 0 .94.21 2 2 0 0 0 .94-.2 1.8 1.8 0 0 0 .84-.54zm8.37-10.42a2.48 2.48 0 0 0 .33-1.24l-.08-.64a2.61 2.61 0 0 0-.66-1.15l-.21-.21a2 2 0 0 0-.84-.53 1.8 1.8 0 0 0-.94-.2 1.78 1.78 0 0 0-.94.2 2 2 0 0 0-.84.53l-.41.54a2.55 2.55 0 0 0-.33 1.24l.09.64a2.42 2.42 0 0 0 .65 1.14l.21.21a2 2 0 0 0 .84.54 2 2 0 0 0 .94.2 1.94 1.94 0 0 0 .95-.2 1.82 1.82 0 0 0 .83-.54z"/><path class="cls-7" d="m273.12 206.75.32 1.23 1.23-1.08a14.57 14.57 0 0 0 1.77-1.83 18.74 18.74 0 0 0 2.26 6.53l.8 1.4 1.15-1.73a18.68 18.68 0 0 0 3.11-11.45c0-.31-.05-.62-.07-.93a52 52 0 0 1 2.36 6.68 15.49 15.49 0 0 0 5.28 7.94l1.07.85.37-1.71a15.93 15.93 0 0 0 .26-5 25 25 0 0 0 4.35 2.36l4.95 2.07a.59.59 0 0 0 .8-.68l-1.2-5.23a24.9 24.9 0 0 0-1.6-4.71 15.75 15.75 0 0 0 4.94.58L307 202l-.66-1.19a15.46 15.46 0 0 0-6.93-6.55 49.85 49.85 0 0 1-6.17-3.46l.9.23a18.57 18.57 0 0 0 11.78-1.14l1.9-.85-1.25-1a18.44 18.44 0 0 0-6-3.33 15 15 0 0 0 2.1-1.43l1.26-1-1.15-.52a14.31 14.31 0 0 0-8.79-1 49 49 0 0 1-5.41.8l.77-.22 1-.31a9.07 9.07 0 0 0 1.16-.47 10.23 10.23 0 0 0 4.09-3.43l.13-.19.53-.76-.88-.13a10.54 10.54 0 0 0-4 .18 10 10 0 0 0-2.23.84l-1 .52-.4.18-.65.3-.52.22-.52.21-.61.24-.4.14-.73.26h-.1q-1.47.48-3 .84c-.87.2-1.76.37-2.65.5l-1 .14a1.52 1.52 0 0 0-1.3 1.09l-.3 1c-.28.86-.6 1.7-.94 2.53q-.6 1.45-1.32 2.82a.41.41 0 0 0-.05.09c-.12.23-.25.46-.38.68l-.21.37-.33.57-.3.48-.3.47-.4.6-.25.36c-.22.32-.45.63-.68.94a9.86 9.86 0 0 0-1.49 2.81 10.35 10.35 0 0 0-.55 3.13v.89l.87-.41.17-.08a10.16 10.16 0 0 0 4.06-3.46 9.58 9.58 0 0 0 .66-1.07c.16-.31.32-.63.47-.94s.24-.49.35-.73a49.52 49.52 0 0 1-1.7 5.21 14.47 14.47 0 0 0-.53 8.78z"/></g></g></svg>