<svg xmlns="http://www.w3.org/2000/svg" viewBox="0 0 675.77 817"><defs><style>.cls-1{fill:#f1998e}.cls-2{fill:#05a357}.cls-3{fill:#c14f29}.cls-4{fill:#fff}.cls-5{fill:#d4e2fc}.cls-6{fill:#0f462d}.cls-7{fill:#066336}.cls-8{fill:#ff6937}.cls-10{fill:#156a41}.cls-12{fill:#993f21}.cls-13{fill:#662a16}.cls-14{fill:#870f00}.cls-16{fill:#fa9269}.cls-17{fill:#333}.cls-18{fill:#fff2d9}.cls-21{fill:#142328}.cls-22{fill:#ffc043}.cls-23{fill:#ffe3ac}.cls-24{fill:#ffcf70}.cls-25{fill:#06c167}</style></defs><g id="Layer_2" data-name="Layer 2"><g id="WebRight"><path class="cls-1" d="M653.17 640.56c-10.46-18.63-12.82-33.5-12.3-45.55.34-8-2.19-22-10.6-26.42 0 0-32.48 37.51-20.17 54.73a16.78 16.78 0 0 1 2.9 11.06c-.61 7.5 1.47 16.56 6.31 25.17a51.48 51.48 0 0 0 8.4 11.2 38 38 0 0 0 9.81 7.29 16.73 16.73 0 0 1 7.91 8.26c4.88 11.45 17.13 20.07 30.24 19.91v-38.08c-7.53-6.04-15.26-14.68-22.5-27.57z"/><path class="cls-2" d="M647.72 636.73c-10.46-18.62-12.82-33.5-12.3-45.55a42.21 42.21 0 0 0-5.15-22.59c-32.15 2.49-37.92 33.69-25.62 50.91a16.7 16.7 0 0 1 2.94 11c-.6 7.51 1.47 16.56 6.31 25.18a51.65 51.65 0 0 0 8.4 11.19 38 38 0 0 0 9.81 7.29 16.76 16.76 0 0 1 7.91 8.27c5.55 13 20.65 22.37 35.69 19.32v-33.52c-9.26-6.05-19-15.49-27.99-31.5z"/><path class="cls-1" d="M160.34 524.56a42.14 42.14 0 0 1 23.15-.82c11.74 2.77 26.79 3.24 47-3.54s32-16.22 39.7-25.5a42.09 42.09 0 0 1 19-13.28c22.16 23.43 5.5 50.42-15.18 54.92a16.77 16.77 0 0 0-9.6 6.22c-4.59 6-12.21 11.29-21.57 14.43a52 52 0 0 1-13.74 2.65 38 38 0 0 1-12.17-1.18 16.77 16.77 0 0 0-11.41.81c-19.22 8.86-48.78-2.66-45.19-34.71z"/><path class="cls-3" d="M175.41 552.35 190 562a32.76 32.76 0 0 0 15.3-2.83 15.32 15.32 0 0 1 3.19-1.06l-25.65-17zm17.94-27.07-7.2 10.87L221 559.22a40.93 40.93 0 0 0 7.91.35 51.34 51.34 0 0 0 13.2-2.5l-47.86-31.72zm11.72.09 43.76 29a45.77 45.77 0 0 0 12-8.19L224.28 522a95.64 95.64 0 0 1-19.21 3.37zm26.56-5.71 33.23 22a16.54 16.54 0 0 1 8.93-5.41 32.32 32.32 0 0 0 4.93-1.54l-32.28-21.41a107.81 107.81 0 0 1-14.81 6.36zm20.62-9.66 32.5 21.55a34.47 34.47 0 0 0 9.65-9.75l-30.81-20.42a75.22 75.22 0 0 1-11.34 8.62zm47.01-8.3-21.63-14.34a44.8 44.8 0 0 0-7.64 7.26c-.67.81-1.38 1.62-2.11 2.42l29.32 19.44a29.36 29.36 0 0 0 2.06-14.78z"/><path class="cls-1" d="M494.54 588.54c-22.73-21-56.23-27.14-95.17-20.48l123.09 81.6c-2.61-25.11-11.72-46.15-27.92-61.12z"/><path class="cls-3" d="M675.71 814v-16.1l-162-107.42q-1.26 7-3 14.17zm0-23.28v-16.15L516.48 669c-.38 4.9-1 9.9-1.74 15zM516.9 662.12 675.71 767.4v-16.15L516.8 645.91q.45 7.88.1 16.21zM469.08 817h24.36l-22.64-15q-3.3 5.81-6.82 11.63zm35.18 0h24.36l-48.54-32.17q-3 5.94-6.36 11.93zm35.18 0h24.36l-75.15-49.82q-2.79 6.11-5.85 12.27zm35.19 0H599l-102.56-68q-2.51 6.29-5.3 12.63zm35.18 0h24.35l-130.84-86.74q-2.16 6.48-4.66 13.06zm35.19 0h24.36L509.15 710.8q-1.77 6.71-3.92 13.55z"/><path class="cls-4" d="M488.33 578c-62.16-57.42-199 2-319.07 119.63-38.73 37.94-68.9 79-89.93 119.33h382.6c60.44-98.3 74.07-194.87 26.4-238.96z"/><path class="cls-5" d="M479.83 587.25c-13.57-12.54-31.74-18.84-54.22-18.84v14.89c18.58 0 33.43 5 44.12 14.88 10.48 9.69 16.93 23.75 19.15 41.81 2.42 19.64-.2 43-7.79 69.5-10 34.8-27.7 71.47-51.61 107.51h17.74c22.07-34.68 38.55-69.84 48.17-103.4 16.38-57.08 10.85-101.96-15.56-126.35zM399.13 571C335.67 582.45 253 633.16 178 706.62 143.55 740.4 114.59 778.3 93.54 817h17c20-34.94 46.55-69.07 77.87-99.75 72.94-71.45 152.69-120.66 213.33-131.64a135.28 135.28 0 0 1 23.83-2.31v-14.89a149.21 149.21 0 0 0-26.44 2.59zm-23.79 234.61c17.77-19.37 13.25-52.44-10.09-73.86s-56.26-23-74.12-4l-21.48 23.43a41.45 41.45 0 0 0-10.46 23 44.86 44.86 0 0 0-5.28 1.49l-.17.05c-1.17.42-2.31.87-3.44 1.38a40.61 40.61 0 0 0-12.82 9.14L216 809.63a39.7 39.7 0 0 0-5.32 7.37H364.9c5.15-5.62 10.1-11 10.44-11.39z"/><ellipse class="cls-5" cx="415.92" cy="665.69" rx="55.55" ry="55.56"/><path class="cls-6" d="m231.14 777.32-21.48 23.42a40.48 40.48 0 0 0-9.07 16.26h72z"/><path class="cls-7" d="M305.26 781.37c-23.34-21.42-56.68-23.07-74.45-3.69-9.58 10.45-12.67 24.88-9.83 39.32H325.4c-2.23-12.7-9.06-25.47-20.14-35.63z"/><path class="cls-4" d="M319.35 812.27a17.14 17.14 0 0 1-1.8-5.39 21.64 21.64 0 0 0-6.69-12.33 19.92 19.92 0 0 1-3.66-4.66 23.21 23.21 0 0 0-10.56-9.71 19.43 19.43 0 0 1-5-3.25 21.69 21.69 0 0 0-12.87-5.61 17.05 17.05 0 0 1-5.51-1.32 18.12 18.12 0 0 0-13.16-.66 13.88 13.88 0 0 1-5.24.8 14.87 14.87 0 0 0-11.5 4.39 11.81 11.81 0 0 1-4.13 2.8 13.6 13.6 0 0 0-8.05 8.76 11.89 11.89 0 0 1-2.43 4.38 14.89 14.89 0 0 0-3.4 11.84 13.83 13.83 0 0 1-.33 5.27 17.12 17.12 0 0 0 .29 9.42h95.81a20.55 20.55 0 0 0-1.77-4.73z"/><path class="cls-8" d="M269.53 790.44c-6.71-.33-13.07 1.88-17.5 6.7-4.83 5.27-6.33 12.58-4.82 19.86h26z"/><path class="cls-6" d="M305.26 781.37c-18.4-16.88-43-21.47-61.29-13.18a56.47 56.47 0 0 0 0 5.82 14.93 14.93 0 0 1 10.93-3.87 13.88 13.88 0 0 0 5.24-.8 18.12 18.12 0 0 1 13.16.66 17.05 17.05 0 0 0 5.51 1.32 21.69 21.69 0 0 1 12.87 5.61 19.43 19.43 0 0 0 5 3.25 23.21 23.21 0 0 1 10.56 9.71 19.92 19.92 0 0 0 3.66 4.66 21.64 21.64 0 0 1 6.69 12.33 17.14 17.14 0 0 0 1.8 5.39 20.38 20.38 0 0 1 1.79 4.73h4.23c-2.27-12.7-9.07-25.47-20.15-35.63z"/><path class="cls-5" d="M319.35 812.27a17.14 17.14 0 0 1-1.8-5.39 21.64 21.64 0 0 0-6.69-12.33 19.92 19.92 0 0 1-3.66-4.66 23.21 23.21 0 0 0-10.56-9.71 19.43 19.43 0 0 1-5-3.25 21.69 21.69 0 0 0-12.87-5.61 17.05 17.05 0 0 1-5.51-1.32 18.12 18.12 0 0 0-13.16-.66 13.88 13.88 0 0 1-5.24.8A14.93 14.93 0 0 0 244 774a66.11 66.11 0 0 0 6.4 25.25 19.77 19.77 0 0 1 1.68-2.12c4.43-4.82 10.79-7 17.5-6.7l3.56 26 11 .55h37.05a20.38 20.38 0 0 0-1.84-4.71z"/><path d="M269.53 790.44c-6.71-.33-13.07 1.88-17.5 6.7a19.77 19.77 0 0 0-1.68 2.12A74.46 74.46 0 0 0 262.17 817h11z" fill="#ab1300"/><path class="cls-6" d="m367.59 798.16-82.79-79.35-21.48 23.42c-17.77 19.38-13.25 52.45 10.09 73.87.34.31.69.6 1 .9h76z"/><ellipse class="cls-7" cx="326.74" cy="757.95" rx="47.61" ry="57.37" transform="rotate(-47.46 326.752 757.952)"/><path class="cls-4" d="M287.87 722.29a13.7 13.7 0 0 0-3 5.29 11.82 11.82 0 0 1-2.43 4.38A14.89 14.89 0 0 0 279 743.8a14 14 0 0 1-.33 5.27 18.1 18.1 0 0 0 1.78 13.06 17.22 17.22 0 0 1 1.8 5.39 21.64 21.64 0 0 0 6.75 12.34 19.72 19.72 0 0 1 3.66 4.65 23.21 23.21 0 0 0 10.56 9.71 19.26 19.26 0 0 1 5 3.25 21.69 21.69 0 0 0 12.78 5.61 17.05 17.05 0 0 1 5.51 1.32 18.12 18.12 0 0 0 13.16.66 13.85 13.85 0 0 1 5.24-.8 14.86 14.86 0 0 0 11.43-4.33l.07-.07a11.76 11.76 0 0 1 4.13-2.78 14 14 0 0 0 5-3.47 13.81 13.81 0 0 0 3-5.3 11.89 11.89 0 0 1 2.43-4.38 14.92 14.92 0 0 0 3.4-11.84 13.82 13.82 0 0 1 .33-5.27 18.15 18.15 0 0 0-1.7-13.06 17.14 17.14 0 0 1-1.8-5.39 21.64 21.64 0 0 0-6.68-12.37 19.46 19.46 0 0 1-3.66-4.66 23.13 23.13 0 0 0-10.56-9.7 20 20 0 0 1-5-3.25 21.64 21.64 0 0 0-12.87-5.62 17.05 17.05 0 0 1-5.51-1.32 18.18 18.18 0 0 0-13.16-.66 13.91 13.91 0 0 1-5.24.8A14.84 14.84 0 0 0 297 716a11.79 11.79 0 0 1-4.13 2.79 13.66 13.66 0 0 0-5 3.5z"/><path class="cls-8" d="M310.72 775.42c11.63 10.67 28.23 11.49 37.08 1.84 4.42-4.83 6.07-11.36 5.16-18l-52.43-2.6a31.68 31.68 0 0 0 10.19 18.76z"/><path class="cls-1" d="M305.69 738.63c-4.42 4.83-6.07 11.36-5.16 18l26.21 1.3-3.55-26c-6.71-.33-13.07 1.88-17.5 6.7z"/><path class="cls-10" d="M342.77 740.47a31.71 31.71 0 0 0-19.58-8.54l3.55 26 26.22 1.3a31.7 31.7 0 0 0-10.19-18.76z"/><circle class="cls-3" cx="657.4" cy="693.61" r="2.21"/><path class="cls-1" d="m659.8 400.58-51.48 11.78a55.56 55.56 0 0 0-20.85 9.42c-7.26 5.42-23.87 18.35-31.3 24.14a28.16 28.16 0 0 0-6.15 6.55c-2.49 3.74-6.57 9.86-10.61 15.95l-.12.18-1.66 2.51-.08.12c-4.62 7-8.86 13.41-10.24 15.61a6.58 6.58 0 0 0-.47.79c-1.18 4.08 4.49 7.5 12.56 8L375.57 625.05l82.48 75.54 170.14-174.38a26 26 0 0 0 3.16 6.92c2.29 3.55 18.25 28.06 18.25 28.06 8 11.66 27.77-7.68 21.43-22.12s-10.2-22.47-10.2-22.47l.33-8.91c4 6.25 8.13 12.82 10.63 16.72a27 27 0 0 0 3.91 4.78V388zm-194 278.81a34.72 34.72 0 0 0 2-18.84c-4.18-24-32.19-41.21-62.58-38.35a66.84 66.84 0 0 0-15.86 3.44L556.65 500.7c1.86 2.71 5.47 4.45 10.89 4.43 6.65.09 8.48-2.14 14-3.36-1 3.68-2.32 8.41-3.64 13.23a1.21 1.21 0 0 0-.18 0l-.38 1.42-.46 1.68-4.6 17.26h.08c-.34 1.34-.54 2.15-.53 2.25.28 5.28 10.64 7.32 21 3.61z"/><path d="M465.77 679.39a34.72 34.72 0 0 0 2-18.84c-4.18-24-32.19-41.22-62.58-38.35a66.35 66.35 0 0 0-15.86 3.44l80.66-60.21a84.37 84.37 0 0 0-12.55-5l-86.21 68.08 83 76.06 62.26-63.81a131.19 131.19 0 0 0-2.09-14.15z" fill="#ffd7d2"/><path class="cls-5" d="M465.77 679.39a34.72 34.72 0 0 0 2-18.84c-4.18-24-32.19-41.22-62.58-38.35a66.35 66.35 0 0 0-15.86 3.44l80.66-60.21a84.37 84.37 0 0 0-12.55-5L324.28 665.55a2.66 2.66 0 0 0 0 4.36 4.73 4.73 0 0 0 5.52.13l33.44-25a35.53 35.53 0 0 0-5.59 25.86c4.18 24 32.19 41.21 62.58 38.35a63.43 63.43 0 0 0 25-7.54l1 11 70.25-72a131.19 131.19 0 0 0-2.09-14.15z"/><path class="cls-12" d="M629 403.67q-2.32-8.81-4.4-17.67a52.11 52.11 0 0 0-17 17.23c-5.23 8.63-17 29-22.32 38.12a34.62 34.62 0 0 0-3.8 9.7c-1.11 4.92-3.87 16.74-3.87 16.74l-1.31 18.11-5.3 11.77s-.48 2.63-.48 2.81c.3 8.6 17.31 10.24 29.76-1.61a33.88 33.88 0 0 0 8.59-13.79l7.24-21.34 20-33q-3.5-13.57-7.11-27.07z"/><path class="cls-12" d="M618.9 437.16c1.61 10.65 5.84 35.42 7.75 46.5a37.21 37.21 0 0 0 3.47 10.51c2.25 4.48 3.76 7.46 5.58 11l8.83 11.11s3.51 13.12 3.57 13.23c7.9 14.68 27.86-10 21.66-28.28s-10-28.37-10-28.37l2.52-68.41z"/><path class="cls-13" d="m661.78 418.67-37.46 51.4c.9 5.3 1.73 10.12 2.33 13.59a36.75 36.75 0 0 0 2.26 7.85l31.7-41.06z"/><path class="cls-12" d="M652.19 445.14c4.09 8.64 14 28.61 18.47 37.53a33.29 33.29 0 0 0 5.05 7.38V413.1z"/><path class="cls-13" d="m668.42 327.65-86.02 83.56 89.15 38.42 4.16-4.04V335.16l-7.29-7.51z"/><path class="cls-14" d="M414.28 754.63a3.93 3.93 0 0 1-.82-5.46L656 416.4l-5.52 38.6-230.73 298.89a3.93 3.93 0 0 1-5.47.74z"/><path d="m471.26 669.87-33.4 45.82a55.62 55.62 0 0 0 33.4-45.82z" fill="#5a0a00"/><path class="cls-3" d="m661.34 406.67-.28 53.15a53.84 53.84 0 0 1 14.65 3.35V405.3zm-53.05-65.33a52.13 52.13 0 0 0-20.95 12.14c-7.32 6.95-24.07 23.5-31.56 30.92a34.12 34.12 0 0 0-6.21 8.35c-2.53 4.76-6.11 11.5-10.22 19.27l-3.91 13.07-8.94 11.45c-.3.59-.46.93-.48 1-2 8.38 14 14.44 29.13 6.28a33.93 33.93 0 0 0 11.92-11.05l12.59-18.68 31.57-30 64.48-4.32v-58.61z"/><path class="cls-12" d="m667.84 323.52-37.63 59.62 10.15-1 35.35-38.84v-22.14l-7.87 2.36z"/><path class="cls-14" d="M321.57 670.59a3.94 3.94 0 0 1 0-5.52L612.4 373.52l13.43 13.77L327.09 670.7a3.93 3.93 0 0 1-5.52-.11z"/><path class="cls-3" d="M661.06 459.82s-39.34-3.09-75.89-6.32-28-37.12.3-39.75l75.87-7.07z"/><path class="cls-16" d="M242.22 557.17a51.46 51.46 0 0 1-13.11 2.47 40.93 40.93 0 0 1-8.07-.36l67 44.43q6.48-3.93 12.9-7.59zm433.34 244.38.14.3v-4l-3.05-2c1 1.9 1.97 3.8 2.91 5.7zm-153.1-151.89a153.3 153.3 0 0 1 .79 16.67L675.71 767.4v-16.15zm-.71 39 107.18 71.05c1.49-.31 3-.61 4.5-.89a20.14 20.14 0 0 1 20.2 8.32l.26.4a20.12 20.12 0 0 1 4.21 4.46c1.38 2 2.71 4 4 6 .1.15.19.3.29.44 1.27 2 2.5 3.95 3.71 5.93l9.57 6.34v-16.14L523.06 673.38q-.33 7.47-1.31 15.28zm18.15 112.5-42.83-28.39q-2.71 6.15-5.7 12.36L537 815.36a20.1 20.1 0 0 1 2.9-14.2zM273.79 484.81l-37.25-24.69-7.43 11.22 35.28 23.39c1.51-1.53 2.9-3.07 4.18-4.6a45.26 45.26 0 0 1 5.22-5.32zm23.62 31.81 73.2 48.53q8.82-2.73 17.32-4.67l-88.43-58.62a29.53 29.53 0 0 1-2.09 14.76zm185.08 285.94L504.26 817h24.36l-39.91-26.46q-2.98 6-6.22 12.02zM474.41 817h19l-13.83-9.17q-2.5 4.58-5.17 9.17zm66.77 0h-1.74 1.74zM341.11 576.08l-62.23-41.25a30 30 0 0 1-4.86 1.51 16.65 16.65 0 0 0-9 5.47l61.62 40.85q7.3-3.51 14.47-6.58zm-20.66 9.63L261 546.31a45.63 45.63 0 0 1-12 8.18l57.86 38.36q6.83-3.75 13.59-7.14zm-35.53-54.05 62.84 41.66q7.89-3.18 15.6-5.81l-68.77-45.58a34.21 34.21 0 0 1-9.67 9.73zm276.79 253.45q6.66-3.86 13.49-7.2l-64-42.4c-1.38 4.35-2.86 8.75-4.47 13.18zm-5.71 3.4-51.39-34.06q-2.42 6.33-5.13 12.74l44.4 29.44a17.76 17.76 0 0 1 1.46-1.13q5.29-3.66 10.66-6.99zm25.52-13.59q7.43-3.34 15.1-6.13l-79.88-53q-1.65 6.78-3.69 13.71zM11.01 800.39 3.58 811.6l8.14 5.4h24.36l-25.07-16.61zM.27 816.59 0 817h.89l-.62-.41zM242 510.36l-26.9-17.83-7.43 11.21 19 12.6c.75-.23 1.48-.45 2.24-.71a114.16 114.16 0 0 0 13.09-5.27zM21.75 784.18l-7.43 11.22L46.9 817h24.36l-49.51-32.82zm21.48-32.4L35.8 763l53.75 35.64c2.26-3.84 4.58-7.67 7-11.51zM32.49 768l-7.43 11.2 55 36.45q3.12-5.91 6.5-11.84zm118.14-178.25L143.19 601l77 51.07c3.68-3 7.36-5.94 11.05-8.83zm18.63 107.92 1.4-1.35-32.45-21.51v.12l-8.75 9.1-2.94-17-18.88-12.51-7.44 11.22L160.94 706c2.74-2.78 5.5-5.56 8.32-8.33zM139.89 606l-7.44 11.22 8.26 5.47 64 42.42q5.33-4.6 10.69-9.06zm463.84 160.33q8.38-2.75 17.08-4.83l-100-66.27c-.73 4.72-1.64 9.51-2.69 14.37zM129.15 622.15l-7.44 11.22 67.94 45q5.17-4.71 10.37-9.28zm-64.44 97.22-7.44 11.22L110.71 766q3.87-5.44 8-10.87zm110.35-27.32q5-4.8 10.05-9.47l-51.47-34.13 3.17 18.25zM54 735.57l-7.43 11.22 53.24 35.3c2.43-3.73 4.91-7.46 7.49-11.19zm21.45-32.4L68 714.38l54.29 36q4.11-5.29 8.42-10.57zM86.19 687l-7.44 11.22 55.8 37q4.32-5.16 8.85-10.28zm10.74-16.24L89.49 682l57.94 38.41q4.55-5 9.29-10zm19.64 22.45 3.86-3.59 3.59 3.87-3.87 3.58zM225.8 476.32l-7.43 11.22L248 507.19a78.75 78.75 0 0 0 11.87-8.28zm-64.43 97.22-7.44 11.22 82.33 54.58q5.74-4.34 11.44-8.56zm10.73-16.2-7.43 11.22L252.88 627q5.94-4.26 11.86-8.28zm35 35.33A1.77 1.77 0 1 1 209 591a1.77 1.77 0 0 1-1.88 1.67zm-73.57 55.71-15.12-10.02-7.44 11.21 14.17 9.4-.27-1.58 8.66-9.01zM219 518.47l-14.69-9.74-7.42 11.27 1.69 1.12a88.53 88.53 0 0 0 20.42-2.65zm-10.36 39.76a15.79 15.79 0 0 0-3.11 1 32.74 32.74 0 0 1-15.42 2.83l80 53q6.19-4.11 12.35-8z"/><path class="cls-16" d="m297.2 516.48-2.7-1.79 2.91 1.93a29.53 29.53 0 0 0 2.09-14.76l-.24-.16a29.36 29.36 0 0 1-2.06 14.78zm-68.09 43.16a51.46 51.46 0 0 0 13.11-2.47l-.15-.1a51.34 51.34 0 0 1-13.2 2.5 40.93 40.93 0 0 1-7.91-.35l-8.9-5.89 9 5.95a40.93 40.93 0 0 0 8.05.36zm65.48-37.71-.19-.13a34.6 34.6 0 0 1-9.65 9.75l-4.25-2.82 4.42 2.93a34.21 34.21 0 0 0 9.67-9.73zM249 554.49a45.63 45.63 0 0 0 12-8.18l-.18-.12a45.77 45.77 0 0 1-12 8.19l-4.64-3.08zm24.79-18.22a16.54 16.54 0 0 0-8.93 5.41l.19.13a16.65 16.65 0 0 1 9-5.47 30 30 0 0 0 4.86-1.51l-5.14-3.4 5 3.3a32.32 32.32 0 0 1-4.98 1.54zm-68.26 23a15.79 15.79 0 0 1 3.11-1l-.15-.09a15.32 15.32 0 0 0-3.19 1.06A32.76 32.76 0 0 1 190 562l-8.4-5.57 8.51 5.64a32.74 32.74 0 0 0 15.42-2.8zM576.3 447.54l6.1.23a34.27 34.27 0 0 1 2.86-6.4c2.38-4.12 6.1-10.53 9.93-17.11a5.33 5.33 0 0 0-3.94-2l-2.22-.08-19.27 18.28a14 14 0 0 0 6.54 7.08z"/><path class="cls-16" d="m582.4 447.77 7.89.3a5.36 5.36 0 0 0 4.84-2.69 21.53 21.53 0 0 0 .75-20.05 4.78 4.78 0 0 0-.69-1.07c-3.83 6.58-7.55 13-9.93 17.11a34.27 34.27 0 0 0-2.86 6.4zm-5.13-26.01a14.1 14.1 0 0 0-6.2 5.08l-.21.3a14.48 14.48 0 0 0-2.19 9.06c6.75-5.23 14-10.81 18.33-14.07z"/><path class="cls-16" d="M587 422.13c-4.34 3.26-11.58 8.84-18.33 14.07a14.26 14.26 0 0 0 1.09 4.29L589 422.21zm-16.14 5.01.21-.3zm-31.51-15.12-12.85 24.52 8.94-11.45 3.91-13.07z"/><path class="cls-16" d="M541.08 422.85a8.28 8.28 0 0 0 .43-7.66 8.08 8.08 0 0 0-2.16-3.17l-3.91 13.07-8.94 11.45c4.27 2.46 11.21-7.98 14.58-13.69zm54.8 2.48a21.53 21.53 0 0 1-.75 20.05 5.36 5.36 0 0 1-4.84 2.69l-14-.53a14.27 14.27 0 0 1 1-25.78l14 .53a5.34 5.34 0 0 1 4.59 3.04z"/><path class="cls-16" d="M526.5 436.54c4.27 2.5 11.21-8 14.58-13.69a8.31 8.31 0 0 0 .43-7.66 8.08 8.08 0 0 0-2.16-3.17z"/><path class="cls-3" d="M571 497.67c4.1.62 8.59-9.38 11.18-16.3a11.14 11.14 0 0 0-2.33-11.56 9.65 9.65 0 0 0-2.26-2zm77.09 31.87c4.6-3.12.59-12.66-2.24-18.13a11.85 11.85 0 0 0-7.7-6.16 4.57 4.57 0 0 0-2.45-.06z"/><ellipse class="cls-7" cx="410.05" cy="664.41" rx="55.55" ry="55.56"/><path class="cls-4" d="M416.6 715.09a19 19 0 0 0 6.7-2.2 16 16 0 0 1 5.49-1.85 18.86 18.86 0 0 0 12.07-6.93 15.83 15.83 0 0 1 4.35-3.8 18.87 18.87 0 0 0 8.48-11 16.08 16.08 0 0 1 2.58-5.19 18.85 18.85 0 0 0 3.63-13.43 15.92 15.92 0 0 1 .39-5.75 18.88 18.88 0 0 0-1.77-13.78 16 16 0 0 1-1.85-5.49 18.86 18.86 0 0 0-6.93-12.07 15.94 15.94 0 0 1-3.8-4.34 18.84 18.84 0 0 0-11-8.49 16.08 16.08 0 0 1-5.19-2.58 18.79 18.79 0 0 0-13.32-3.64h-.11a15.85 15.85 0 0 1-5.74-.39 19 19 0 0 0-7.08-.43 18.89 18.89 0 0 0-6.7 2.2 16.27 16.27 0 0 1-5.5 1.85 18.84 18.84 0 0 0-12.06 6.93 16.13 16.13 0 0 1-4.35 3.8 18.84 18.84 0 0 0-8.49 11 16.06 16.06 0 0 1-2.57 5.19 18.8 18.8 0 0 0-3.64 13.42 16.17 16.17 0 0 1-.38 5.76 18.88 18.88 0 0 0 1.77 13.78 16.21 16.21 0 0 1 1.85 5.49 18.8 18.8 0 0 0 6.93 12.07 16.11 16.11 0 0 1 3.8 4.34 18.79 18.79 0 0 0 11 8.49 15.88 15.88 0 0 1 5.19 2.58 18.83 18.83 0 0 0 13.43 3.63 15.91 15.91 0 0 1 5.75.39 19 19 0 0 0 7.07.44z"/><path class="cls-8" d="M382.61 668a27.66 27.66 0 0 1 44.33-25.46l-33.79 43.83A27.63 27.63 0 0 1 382.61 668z"/><path class="cls-1" d="M413.6 691.86a27.62 27.62 0 0 1-20.45-5.53l16.9-21.92 21.95 16.9a27.6 27.6 0 0 1-18.4 10.55z"/><path class="cls-10" d="M437.49 660.87a27.59 27.59 0 0 1-5.49 20.44l-21.91-16.9 16.89-21.91a27.6 27.6 0 0 1 10.51 18.37z"/><path class="cls-2" d="m443.5 453.92-20.05 16.6-2.09-23.83 20.05-16.59 2.09 23.82z"/><path class="cls-10" d="m439.03 463.07-12.33-6.93 28.52-13.95 12.33 6.94-28.52 13.94z"/><path class="cls-17" d="M573.12 634.37a6.13 6.13 0 0 1-3.55.55 9.11 9.11 0 0 1-1.81-.37 9.35 9.35 0 0 1 .55-1.76 6.06 6.06 0 0 1 2.22-2.82c2.16-1.37 5.25-.32 5.45-.24.02.19-.62 3.41-2.86 4.64z"/><path class="cls-18" d="M636 655.25a6.06 6.06 0 0 1 3.06-1.87 8.7 8.7 0 0 1 1.81-.36 9.56 9.56 0 0 1 .17 1.84 6 6 0 0 1-1 3.46c-1.46 2.1-4.72 2.32-4.94 2.32.02-.19-.66-3.39.9-5.39z"/><path class="cls-3" transform="rotate(-42.85 120.332 693.406)" d="M117.66 690.71h5.27v5.27h-5.27z"/><path class="cls-12" transform="rotate(-43.1 641.525 675.973)" d="M642.46 671.7h5.27v5.27h-5.27z"/><circle class="cls-12" cx="207.19" cy="590.9" r="1.77"/><path class="cls-3" d="m549.82 800.32-.16.13 25 16.55H599l-37-24.54q-6.17 3.71-12.18 7.86zM658.1 772a20.14 20.14 0 0 0-20.2-8.32c-.79.14-1.56.31-2.34.46l30.58 20.28q-3.79-6.32-8.04-12.42zm-116.91 45h22.61l-18.54-12.29a20.12 20.12 0 0 0-4.07 12.29zm26.5-27.92L609.81 817h24.35l-52.88-35.06q-6.9 3.31-13.59 7.14zm104.97 6.79-45.31-30q-8.79 2-17.25 4.71L675.71 814v-12.11c-.99-2.01-2-4.02-3.05-6.02zM587.67 779 645 817h24.36l-66.46-44c-5.17 1.77-10.23 3.8-15.23 6z"/><path d="M653.63 767.14a20.14 20.14 0 0 0-20.2-8.32 221.8 221.8 0 0 0-88.08 36.68 20.12 20.12 0 0 0-8.35 20.2c.08.44.17.87.25 1.3h138.46l.06-10.1a225.52 225.52 0 0 0-22.14-39.76z" fill="#556268"/><path d="M649 770.36a14.49 14.49 0 0 0-14.53-6 215.9 215.9 0 0 0-85.88 35.76 14.53 14.53 0 0 0-6 14.54c.15.78.31 1.55.46 2.32h130.74A218.46 218.46 0 0 0 649 770.36z" fill="#394145"/><path class="cls-21" d="M663.41 814.75A53.87 53.87 0 0 0 563.05 817h101.24c-.29-.75-.56-1.51-.88-2.25z"/><path class="cls-22" d="M612.28 783c-1.84.62-3.7 1.28-5.55 2-13.66 5.42-22 12.65-18.61 16.14l7 8.32 18.33-1.9q-1.04-12.23-1.17-24.56z"/><path class="cls-23" d="M647.52 791.49c0-9.21-38.93 2.89-38.93 2.89a165.34 165.34 0 0 1 5.49 22.62h29.22c2.87-5.7 4.7-13.84 4.22-25.51z"/><path class="cls-22" d="m632.36 806.85-18.62 7.54.33 2.61h6.86c8.49-3.9 11.43-10.15 11.43-10.15z"/><path class="cls-24" d="M588.12 801.2c2.7 2.79 13.74 1.54 24.67-2.8 3.53-1.4 8.49-4.73 10-2.92l9.56 11.37c-9.25 11-30.44 11.56-32.92 8.16s-11.32-13.81-11.32-13.81z"/><path class="cls-10" d="m354.32 340.45 1.59 14.9c.2 1.92 5.54 5.79 11.92 8.62s11.38 3.55 11.17 1.63l-1.58-14.9z"/><ellipse class="cls-2" cx="365.87" cy="345.58" rx="3.01" ry="12.76" transform="rotate(-64.08 365.848 345.584)"/><path class="cls-2" d="m129.49 684.03-4.62-26.64 8.74-9.1 4.63 26.64-8.75 9.1z"/><path class="cls-1" d="M55.82 657.24c-1.32-6.56-5.5-13.4-12.18-16.77-13.9-7-21.95 1.79-19.28 10.75a10.16 10.16 0 0 0 4.65 5.9c.58.35 1.15.72 1.7 1.1a31.22 31.22 0 0 1 2.93 2.3 40.41 40.41 0 0 1 7.91 9.48c1.49 2.42 4 4 8.09 2.75 5.7-1.69 7.6-8.44 6.18-15.51z"/><path class="cls-25" d="M52.82 655.56c-1.32-6.56-5.49-13.4-12.18-16.77-13.89-7-21.95 1.8-19.28 10.76a10.08 10.08 0 0 0 4.64 5.89c.58.35 1.14.72 1.69 1.1a34.63 34.63 0 0 1 2.94 2.3c7.63 4.62 22.63 6.77 22.19-3.28z"/><path class="cls-2" d="M52.82 655.56c.44 10.05-14.56 7.9-22.17 3.28a41.11 41.11 0 0 1 7.91 9.49c1.48 2.42 4 4 8.08 2.75 5.71-1.7 7.61-8.44 6.18-15.52z"/><path class="cls-1" d="M330.41 290.68c-5.35 4-9.73 10.71-9.91 18.2-.37 15.56 11.05 19.05 18 12.8a10.11 10.11 0 0 0 3.32-6.74c.07-.67.17-1.34.27-2a34.07 34.07 0 0 1 .82-3.63 40.79 40.79 0 0 1 5.17-11.22c1.55-2.38 1.9-5.29-1-8.48-3.97-4.44-10.89-3.26-16.67 1.07z"/><path class="cls-2" d="M346.59 296.6a40.9 40.9 0 0 0-5.16 11.22 29.79 29.79 0 0 0-.82 3.63c-.1.67-.21 1.34-.27 2a10.11 10.11 0 0 1-3.32 6.73c-6.95 6.27-18.36 2.77-18-12.8.18-7.47 4.55-14.18 9.91-18.19 5.78-4.33 12.7-5.51 16.67-1.08 2.9 3.21 2.56 6.11.99 8.49zM158.68 520a42.14 42.14 0 0 1 23.15-.82c11.73 2.77 26.79 3.24 47-3.54s32-16.22 39.7-25.5a42 42 0 0 1 19-13.28c22.16 23.43 5.5 50.43-15.18 54.93a16.71 16.71 0 0 0-9.6 6.21c-4.59 6-12.21 11.29-21.57 14.43a51.56 51.56 0 0 1-13.75 2.65 38 38 0 0 1-12.17-1.18 16.74 16.74 0 0 0-11.4.81c-19.22 8.86-48.78-2.66-45.19-34.71z"/><path class="cls-10" d="M337 320.19a10.11 10.11 0 0 0 3.32-6.73c.06-.67.17-1.34.27-2a29.79 29.79 0 0 1 .82-3.63 37.91 37.91 0 0 1 1.22-3.59c-2.34 4.95-11.37 22.18-22.12 12.13 3.28 7.63 11.19 8.63 16.49 3.82z"/><path class="cls-18" d="M273.57 504.91a6 6 0 0 1 1.86-3.06 8.7 8.7 0 0 1 1.45-1.15 9.1 9.1 0 0 1 1 1.55 6.13 6.13 0 0 1 .73 3.52c-.34 2.53-3.14 4.22-3.33 4.32-.15-.09-2.22-2.67-1.71-5.18zm-92.96 27.24a6 6 0 0 1 1.39 3.31 9.25 9.25 0 0 1 .07 1.84 9.14 9.14 0 0 1-1.84-.12 6.05 6.05 0 0 1-3.27-1.48c-1.84-1.77-1.56-5-1.53-5.24.19-.01 3.46-.2 5.18 1.69z"/><path class="cls-17" d="M194.68 546.57a6.12 6.12 0 0 1-3 1.92 9.2 9.2 0 0 1-1.81.37 9.44 9.44 0 0 1-.19-1.84 6.11 6.11 0 0 1 .92-3.47c1.44-2.11 4.7-2.37 4.92-2.37.01.18.74 3.38-.84 5.39z"/><circle class="cls-3" cx="197.91" cy="531.44" r="2.21"/><path class="cls-12" transform="rotate(-45.4 221.684 539.893)" d="M219.04 537.26h5.27v5.27h-5.27z"/><path class="cls-3" transform="rotate(-69.47 260.114 515.193)" d="M257.46 512.54h5.27v5.27h-5.27z"/><circle class="cls-3" cx="652.74" cy="605.79" r="2.21"/><circle class="cls-12" cx="623.04" cy="650.65" r="2.21"/><path class="cls-22" d="M577.65 813.67c-.95 1.12-1.78 2.23-2.54 3.33h16.57c-5.95-3.8-11.83-5.74-14.03-3.33z"/><path class="cls-21" d="m612.4 373.52 13.43 13.77 49.88-47.31v-29.93l-63.31 63.47z"/><path class="cls-18" d="M523.44 312.82a6 6 0 0 1 1.86-3.07 9.15 9.15 0 0 1 1.44-1.14 8.62 8.62 0 0 1 1 1.56 6 6 0 0 1 .74 3.51c-.35 2.54-3.15 4.22-3.34 4.32-.14-.14-2.22-2.68-1.7-5.18zM354.16 495.44a6 6 0 0 0-3.56-.47 9.62 9.62 0 0 0-1.8.41 9.27 9.27 0 0 0 .59 1.75 6.07 6.07 0 0 0 2.29 2.77c2.19 1.32 5.26.19 5.46.1-.04-.18-.71-3.39-2.98-4.56zm5.5-25.27A6 6 0 0 0 358 467a9 9 0 0 0-1.38-1.23 8.36 8.36 0 0 0-1.07 1.5 6 6 0 0 0-.93 3.47c.2 2.54 2.9 4.39 3.09 4.5.11-.12 2.29-2.54 1.95-5.07z"/><circle class="cls-3" cx="458.4" cy="299.3" r="2.21"/><path class="cls-1" d="M612.19 0c2 10.67 1.72 24.17-5 42-6.89 18.15-15.89 28.47-24.6 35.13a38.38 38.38 0 0 0-12.76 16.76c20.48 21 45.61 6.83 50.45-11.8a15.2 15.2 0 0 1 6-8.49c5.59-4 10.7-10.68 13.89-19.08A47.08 47.08 0 0 0 643 42.11a34.62 34.62 0 0 0-.64-11.1 15.29 15.29 0 0 1 1.16-10.33A30.51 30.51 0 0 0 645.83 0z"/><path class="cls-2" d="M606.52 0c2.09 10.76 2 24.45-4.92 42.6S585.7 71.12 577 77.78a38.41 38.41 0 0 0-12.76 16.75c20.48 21 45.61 6.83 50.44-11.79a15.23 15.23 0 0 1 6-8.5c5.59-3.95 10.7-10.68 13.89-19.07a47.15 47.15 0 0 0 2.91-12.39 34.64 34.64 0 0 0-.64-11.1A15.18 15.18 0 0 1 638 21.35 30.58 30.58 0 0 0 640.12 0z"/><path class="cls-1" d="M131.45 0h-24.58c-4.92 4.14-4.65 10.75-.16 15.09a10.13 10.13 0 0 0 7 2.83c.67 0 1.35.07 2 .13a32.34 32.34 0 0 1 3.68.56A40.84 40.84 0 0 1 130.92 23c2.49 1.38 5.41 1.52 8.4-1.58 4.13-4.28 2.46-11.09-2.26-16.55A25.83 25.83 0 0 0 131.45 0z"/><path class="cls-10" d="m547.2 141.36 3.18 14.64c.41 1.88-3.43 7.23-8.59 11.91s-9.67 6.94-10.08 5.06l-3.18-14.62z"/><ellipse class="cls-2" cx="537.87" cy="149.86" rx="12.74" ry="3.01" transform="rotate(-44.26 537.916 149.848)"/><path class="cls-1" d="M504.31 0H317.14a121.1 121.1 0 1 0 187.17 0z"/><path class="cls-10" d="M133.56 3c5.33 8.53-8.79 14.05-17.69 13.77a40.81 40.81 0 0 1 11.56 4.37c2.48 1.38 5.41 1.51 8.39-1.58C140 15.24 138.29 8.43 133.56 3z"/><path d="M501.19 0h-10.3a112.87 112.87 0 1 1-177.14 0h-10.3a121.11 121.11 0 1 0 197.74 0z" fill="#545454"/><path class="cls-17" d="M289.94 80.48A112.87 112.87 0 1 0 490.89 0H313.75a112.47 112.47 0 0 0-23.81 80.48z"/><path class="cls-24" d="M469.5 0H335.12A97 97 0 1 0 469.5 0z"/><path class="cls-23" d="M453.9 0h-79.37L326.7 57.63a40.33 40.33 0 0 0-7.56 37.47A86.88 86.88 0 1 0 453.9 0z"/><path class="cls-10" d="m463.13 115.88-22.76-14.6-.8-12.59 22.77 14.59.79 12.6z"/><path class="cls-24" d="M395.87 94.16 373 111.08l-8.89 6.59a2.88 2.88 0 0 1-4-.6l-3.33-4.51-20.19-27.26a2.86 2.86 0 0 1 .59-4L369 57.78a2.85 2.85 0 0 1 4 .59l23.51 31.79a2.85 2.85 0 0 1-.64 4z"/><path class="cls-22" d="M394.76 87.85 345.27 97l11.5 15.53 3.33 4.51a2.88 2.88 0 0 0 4 .6l8.89-6.59 22.87-16.92a2.85 2.85 0 0 0 .6-4z"/><rect class="cls-4" x="346.66" y="59.64" width="31.68" height="45.25" rx="2.14" transform="rotate(53.5 362.496 82.272)"/><path class="cls-23" d="m345.22 97 6.81 9.2a2.86 2.86 0 0 0 4 .6l21.68-16.05z"/><path class="cls-2" d="m436.07 14.2-27.88-5.69L422.66 0h7.28l22.47 4.58-16.34 9.62zm11.54 69.86-19.09-3.9 11.51-3.23 19.1 3.89-11.52 3.24z"/><rect class="cls-24" x="408.27" y="12.92" width="30.67" height="28.59" rx="2.14" transform="matrix(-.85 .52 -.52 -.85 798.57 -171.72)"/><rect class="cls-4" x="416.78" y="10.51" width="21.47" height="28.59" rx="2.14" transform="rotate(148.38 427.515 24.79)"/><path class="cls-22" d="m424.37 40.17-5.32-8.65-10.71.15 8.2 13.33a2.85 2.85 0 0 0 3.93.94l7.84-4.82a2.87 2.87 0 0 1-3.94-.95z"/><path class="cls-23" d="m419.05 31.52 5.32 8.65a2.87 2.87 0 0 0 3.94.94l13.41-8.26a2.79 2.79 0 0 0 1.28-1.67z"/><rect class="cls-24" x="334.67" y="17.71" width="30.67" height="28.59" rx="2.14" transform="rotate(-36.43 350.038 32)"/><path class="cls-22" d="M355.55 13.7a2.86 2.86 0 0 0-4-.6l-20.07 14.81a2.87 2.87 0 0 0-.61 4l8.09 11 20.17-24.31z"/><rect class="cls-4" x="335.57" y="20.44" width="21.47" height="28.59" rx="2.14" transform="rotate(-36.43 346.34 34.741)"/><path class="cls-23" d="M348.15 19.16a2.86 2.86 0 0 0-4-.6l-12.67 9.35a2.87 2.87 0 0 0-.61 4l8.09 11 14.12-17z"/><path class="cls-24" d="M439.68 73a2.86 2.86 0 0 0-3.93-.93L414.5 85.13a2.87 2.87 0 0 0-.93 3.94l4.89 8 33-5z"/><path class="cls-22" d="m451.42 92.05-33 5 9.87 16a2.86 2.86 0 0 0 3.93.93l21.25-13.08a2.87 2.87 0 0 0 .94-3.93z"/><rect class="cls-4" x="426.28" y="70.45" width="33.73" height="33.88" rx="2.14" transform="rotate(148.38 443.143 87.377)"/><path class="cls-23" d="m428.68 96.07 7.49 12.15a2.85 2.85 0 0 0 3.93.94L464 94.47a2.88 2.88 0 0 0 1.29-1.8z"/><path class="cls-24" d="M380.8 0h-19.09l-2 1.22a2.87 2.87 0 0 0-.94 3.93L368 20.29a2.86 2.86 0 0 0 3.94.94L385.39 13a2.87 2.87 0 0 0 .94-3.93zm51.12 147-11.29 3.68-18.06 5.91a2.86 2.86 0 0 1-3.6-1.84l-8.7-26.35a2.87 2.87 0 0 1 1.83-3.61l29.35-9.58a2.86 2.86 0 0 1 3.6 1.82l6.05 18.32 2.64 8a2.85 2.85 0 0 1-1.82 3.65z"/><path class="cls-10" d="m382.01 100.55 8.31 19.71 13.99-21.94-1.59-3.77-20.71 6z"/><path class="cls-4" d="M394.48 141.08 387.2 119a2.85 2.85 0 0 1 1.83-3.61l29.34-9.58a2.85 2.85 0 0 1 3.6 1.82l7.28 22.06a2.86 2.86 0 0 1-1.83 3.62l-29.34 9.58a2.86 2.86 0 0 1-3.6-1.81z"/><path class="cls-24" d="m465.7 70.1-15-16.69a2.87 2.87 0 0 1 .22-4l18.69-16.68a2.86 2.86 0 0 1 4 .22l15 16.69a2.87 2.87 0 0 1-.22 4l-18.66 16.68a2.86 2.86 0 0 1-4.03-.22z"/><path class="cls-4" d="m457.63 61.12-12.44-13.86a2.85 2.85 0 0 1 .22-4l18.69-16.73a2.87 2.87 0 0 1 4 .23l12.45 13.86a2.85 2.85 0 0 1-.22 4l-18.66 16.72a2.87 2.87 0 0 1-4.04-.22z"/><path class="cls-22" d="m467.71 56-6 5.39a2.87 2.87 0 0 1-4-.22L452.13 55l13.57 15.1a2.86 2.86 0 0 0 4 .22L484.66 57z"/><circle class="cls-12" cx="643.97" cy="7.99" r="1.77"/><path class="cls-17" d="M627.94 42.74a6 6 0 0 1-3.55-.47 8.6 8.6 0 0 1-1.63-.87 9.48 9.48 0 0 1 1-1.53 6.13 6.13 0 0 1 2.93-2.08c2.46-.7 5.13 1.19 5.3 1.32-.06.18-1.55 3.1-4.05 3.63z"/><circle class="cls-3" cx="581.87" cy="88.78" r="2.21"/><path class="cls-12" transform="rotate(-96.92 626.178 25.76)" d="M623.55 23.12h5.27v5.27h-5.27z"/><path class="cls-18" d="M578.48 80.5a6.09 6.09 0 0 1-3.23-1.5 9.5 9.5 0 0 1-1.25-1.38 8.62 8.62 0 0 1 1.46-1.13 5.94 5.94 0 0 1 3.42-1.07c2.56.1 4.51 2.72 4.63 2.9-.16.13-2.51 2.45-5.03 2.18z"/><path class="cls-23" d="M457.63 61.12a2.87 2.87 0 0 0 4 .22l6-5.39-15.58-1z"/><path class="cls-10" d="m388.86 51.21 2.12 4.9a45.85 45.85 0 0 1-9.8 5.66A46.37 46.37 0 0 1 370.35 65l-2.13-4.91-7.1 3.08 4.24 9.83c1.46 3.37 10.44 2.72 20.06-1.44s16.24-10.27 14.78-13.64l-4.2-9.79z"/><path class="cls-2" d="M391 56.11c3.82-3 5.85-6 5-8-1.46-3.36-10.44-2.72-20.06 1.44s-16.24 10.27-14.78 13.64c.87 2 4.44 2.58 9.23 1.83A49.19 49.19 0 0 1 391 56.11z"/><path class="cls-10" d="m401.77 134.07.47 5a46.29 46.29 0 0 1-10.83-1.65 57.83 57.83 0 0 1-11.06-4.09l-.46-5-7.54-2 .94 10.07c.32 3.46 8.85 8.43 19.06 11.1s18.22 2 17.9-1.41l-.94-10.09z"/><path class="cls-2" d="M402.24 139.1c4.46.06 7.26-1 7.07-3.06-.32-3.45-8.85-8.42-19.06-11.1s-18.22-2-17.9 1.41c.19 2.07 3.34 4.68 8 7a46.21 46.21 0 0 1 10.83 1.65 57.33 57.33 0 0 1 11.06 4.1z"/><path class="cls-10" d="m405.78 39.32 2.81 3.46a18 18 0 0 0 3-5.46 29.09 29.09 0 0 0 1.65-7.14l-2.81-3.46 1.62-4.33 5.62 6.9c1.93 2.37 1.72 9.06-.46 14.93s-5.52 8.72-7.45 6.35l-5.62-6.91z"/><path class="cls-2" d="M408.59 42.78c-1.61 1.84-3.27 2.3-4.42.88-1.93-2.37-1.72-9 .46-14.93s5.52-8.71 7.45-6.34c1.15 1.41 1.53 4.38 1.19 7.79a18 18 0 0 0-3 5.46 29.12 29.12 0 0 0-1.68 7.14z"/><path class="cls-10" d="m446.72 107.09-12.47 22.21-16.71 1.55 12.46-22.2 16.72-1.56zm9.17-20.75-13.13-5.27 26.48-17.53 13.13 5.28-26.48 17.52zM331.18 56.63l1.68-14.03 9.15 7.69-1.68 14.04-9.15-7.7z"/><path class="cls-6" d="m332.86 42.6-1.07 8.89 4.79-5.76-3.72-3.13z"/><path class="cls-10" d="M379.32 37.32 359.29 20.7l11.51-3.24 20.03 16.62-11.51 3.24zm53.85 47.11-3.5 7.42c-.86 1.83-7.77.41-15.41-3.2s-13.13-8-12.26-9.86l3.49-7.41z"/><ellipse class="cls-2" cx="419.32" cy="77.91" rx="3.68" ry="15.3" transform="rotate(-64.74 419.306 77.917)"/><path class="cls-10" d="m444.92 16.16 9.33 11.69c1.21 1.51.13 8-2.41 14.49s-5.6 10.51-6.8 9l-9.33-11.69z"/><ellipse class="cls-2" cx="440.32" cy="27.91" rx="12.74" ry="3.01" transform="rotate(-70.58 440.296 27.93)"/><path class="cls-10" d="M349.8 83.41 343 107l-.19.68-14.55 3.58c-1.88.46-1.84-4.59.11-11.3.27-.95.58-1.89.89-2.8 1.91-5.45 4.42-9.77 6-10.18z"/><ellipse class="cls-2" cx="345.99" cy="95.58" rx="12.76" ry="3.01" transform="rotate(-71.84 345.966 95.59)"/><path class="cls-10" d="m397.3 0-11.56 15.88 6.43 4.68c1.59 1.16 6.8-3.27 11.62-9.89A41.28 41.28 0 0 0 409.69 0z"/><path class="cls-2" d="m336.97 57.48 2.46-25.91 9.16 7.7-2.47 25.9-9.15-7.69z"/><path class="cls-10" d="m344.67 35.98-5.24-4.41-1.15 12.1 6.39-7.69z"/><path class="cls-6" d="m339.41 108-11.2 3.27c-1.88.46-1.84-4.59.11-11.3.27-.95.58-1.89.89-2.8 3.73 1.6 10.2 10.83 10.2 10.83z"/><path class="cls-1" d="M261.9 152c-12 1.56-27 .49-46.44-8.32s-30.17-19.4-36.88-29.42a42.25 42.25 0 0 0-17.52-15.15c-24.44 21-10.62 49.6 9.5 56.19a16.79 16.79 0 0 1 8.91 7.16c4 6.41 11 12.48 20 16.56a51.56 51.56 0 0 0 13.4 4 37.71 37.71 0 0 0 12.22.06 16.8 16.8 0 0 1 11.27 2c18.21 10.78 49.7 1.65 46.77-34.09-.01.01-13.35.01-21.23 1.01z"/><path class="cls-2" d="M283.12 151a42.18 42.18 0 0 0-22.94-3.17c-12 1.56-27 .49-46.44-8.33s-30.17-19.4-36.89-29.41a42.15 42.15 0 0 0-17.52-15.16c-24.43 21-10.61 49.61 9.5 56.2a16.73 16.73 0 0 1 8.92 7.16c3.95 6.41 11 12.48 20 16.55a51.82 51.82 0 0 0 13.4 4.05 38.34 38.34 0 0 0 12.23.06 16.71 16.71 0 0 1 11.26 2c18.22 10.77 48.8 2.33 48.5-29.93z"/><path class="cls-17" d="M192.6 160.91a6 6 0 0 1 1.27 3.35 9 9 0 0 1 0 1.85 9.09 9.09 0 0 1-1.83-.19 6 6 0 0 1-3.22-1.58c-1.78-1.84-1.39-5.08-1.35-5.3.2-.04 3.53-.04 5.13 1.87zM181 126.49a6 6 0 0 1 3.59.14 9 9 0 0 1 1.7.71 8.74 8.74 0 0 1-.89 1.62 6.1 6.1 0 0 1-2.72 2.35c-2.38.92-5.21-.71-5.4-.83.1-.18 1.31-3.23 3.72-3.99z"/><path class="cls-3" transform="rotate(-29.92 264.436 154.28)" d="M261.8 151.64h5.27v5.27h-5.27z"/><path class="cls-1" d="M259.9 162.54a42.15 42.15 0 0 0-12.74-19.35c-9.06-8-18.16-20-24.37-40.4s-5.31-35.47-2.21-47.13a45.14 45.14 0 0 0 1.54-12 21.81 21.81 0 0 0-7.9-16.35c-31.94-4.49-38.09 29.93-29.78 49.4a16.7 16.7 0 0 1 .5 11.42c-2.21 7.2-2.13 16.5.74 25.95a51.62 51.62 0 0 0 5.79 12.74 38.26 38.26 0 0 0 8 9.23 16.76 16.76 0 0 1 5.94 9.77c3.91 20.8 30.43 38.22 54.47 16.73z"/><path class="cls-10" d="M199.49 136a16.76 16.76 0 0 1 5.94 9.77c3.91 20.8 30.43 38.22 54.47 16.73a40.68 40.68 0 0 0-7.7-14.13c-10.51.18-23.1-1.94-38.46-8.9a99 99 0 0 1-23.14-14.19c.29.5.57 1 .87 1.49a38.26 38.26 0 0 0 8.02 9.23z"/><path class="cls-25" d="M253.71 157.34A42.27 42.27 0 0 0 241 138c-9.06-8-18.16-20-24.37-40.4s-5.31-35.48-2.21-47.13a42.22 42.22 0 0 0-.16-23.17c-31.94-4.49-44.29 24.74-36 44.2a16.73 16.73 0 0 1 .5 11.43c-2.21 7.2-2.13 16.49.74 25.94a51.82 51.82 0 0 0 5.79 12.74 37.88 37.88 0 0 0 8 9.23 16.73 16.73 0 0 1 5.94 9.78c3.92 20.8 30.43 38.22 54.48 16.72z"/><path class="cls-1" d="M538.25 291.42a42.22 42.22 0 0 0 15.59-17.13c5.47-10.75 14.85-22.54 33.11-33.62s33.06-13.92 45.12-13.8a42.28 42.28 0 0 0 22.4-5.9c-3.55-32.05-34.93-36.78-51.73-23.91a16.8 16.8 0 0 1-10.94 3.31c-7.53-.36-16.51 2-25 7.13a52.1 52.1 0 0 0-10.91 8.77 38.28 38.28 0 0 0-7 10.06 16.74 16.74 0 0 1-8 8.17c-19.19 8.94-29.5 38.95-2.73 56.92z"/><path class="cls-25" d="M534.09 287.25a42.13 42.13 0 0 0 15.58-17.13c5.48-10.75 14.85-22.54 33.11-33.61s33.06-13.93 45.12-13.81a42.19 42.19 0 0 0 22.4-5.9c-3.55-32.05-34.92-36.78-51.73-23.91a16.74 16.74 0 0 1-10.94 3.31c-7.53-.36-16.51 2-25 7.14a51.46 51.46 0 0 0-10.9 8.77 37.89 37.89 0 0 0-7 10 16.7 16.7 0 0 1-8 8.17c-19.19 8.95-29.5 38.95-2.72 56.92z"/><path class="cls-18" d="M200.51 116.52a6 6 0 0 1-2 3 8.85 8.85 0 0 1-1.51 1.06 9.07 9.07 0 0 1-.91-1.61 6.09 6.09 0 0 1-.54-3.55c.48-2.51 3.37-4 3.57-4.13.1.11 2.03 2.71 1.39 5.23zm-30.25 10.96a6 6 0 0 1 .54 3.55 8.89 8.89 0 0 1-.37 1.8 9.66 9.66 0 0 1-1.76-.56 6.09 6.09 0 0 1-2.82-2.23c-1.36-2.16-.3-5.25-.22-5.45.19.03 3.37.64 4.63 2.89z"/><circle class="cls-3" cx="209.43" cy="101.53" r="2.21"/><circle class="cls-12" cx="260.25" cy="169.81" r="1.77"/><path class="cls-18" d="M200.17 53.75a6.08 6.08 0 0 1-3.1-1.82 9.07 9.07 0 0 1-1.16-1.43 9.64 9.64 0 0 1 1.54-1 6.07 6.07 0 0 1 3.51-.79c2.54.31 4.26 3.09 4.37 3.28-.15.12-2.65 2.23-5.16 1.76zm30.72 90.61a6.08 6.08 0 0 1-3.59 0 8.91 8.91 0 0 1-1.72-.66 9.44 9.44 0 0 1 .83-1.64 6.16 6.16 0 0 1 2.64-2.44c2.36-1 5.24.54 5.42.66-.05.15-1.17 3.23-3.58 4.08zm5.02 6.14a6 6 0 0 1-3.11-1.8 9.54 9.54 0 0 1-1.18-1.42 9.24 9.24 0 0 1 1.53-1 6.06 6.06 0 0 1 3.5-.8c2.54.29 4.29 3 4.39 3.24-.13.1-2.62 2.28-5.13 1.78z"/><path class="cls-17" d="M206.58 111.53a6.07 6.07 0 0 1 3.48-.85 8.69 8.69 0 0 1 1.83.22 9.36 9.36 0 0 1-.41 1.79 6.07 6.07 0 0 1-2 3c-2 1.54-5.21.75-5.42.69.06-.18.38-3.44 2.52-4.85z"/><path class="cls-18" d="M82.05 112.2a6 6 0 0 1-3.54.55 9.11 9.11 0 0 1-1.81-.37 8.82 8.82 0 0 1 .56-1.75 6 6 0 0 1 2.22-2.82c2.16-1.37 5.25-.31 5.45-.22-.02.18-.63 3.41-2.88 4.61z"/><path class="cls-17" d="M101.21 95.37a6.06 6.06 0 0 1-.78 3.5 9.25 9.25 0 0 1-1 1.54A8.83 8.83 0 0 1 98 99.25a6 6 0 0 1-1.81-3.1c-.48-2.51 1.64-5 1.79-5.16.15.1 2.93 1.84 3.23 4.38z"/><circle class="cls-3" cx="655.09" cy="90.75" r="2.21"/><path class="cls-2" d="M130.51 0H101.6c-3 4.08-2.25 9.5 1.62 13.22a10.11 10.11 0 0 0 7 2.84c.68 0 1.35.06 2 .13a32.32 32.32 0 0 1 3.68.55c8.9.28 23-5.24 17.69-13.77A25.25 25.25 0 0 0 130.51 0z"/><path class="cls-23" d="M436.84 0c4.53 3.5 9.64 8.73 11.83 15.56l9.11-11.2A38.23 38.23 0 0 0 450.41 0z"/><path class="cls-2" d="M393 0c-.46.58-.91 1.17-1.36 1.79-4.82 6.63-7.44 12.94-5.84 14.1s6.79-3.27 11.62-9.9a56 56 0 0 0 3.82-6z"/><path class="cls-22" d="m361.71 0-2 1.22a2.87 2.87 0 0 0-.94 3.93l4.86 8L374.53 0z"/><path class="cls-4" d="M388.18 0h-21.71a1.87 1.87 0 0 0 .15.32l9.26 15.15a2.86 2.86 0 0 0 3.94.94l10.94-6.74a2.85 2.85 0 0 0 .94-3.92z"/><path class="cls-12" transform="rotate(-45.4 443.54 292.696)" d="M440.84 290.01h5.39v5.39h-5.39z"/><path class="cls-12" transform="rotate(-45.4 611.537 187.176)" d="M608.84 184.49h5.39v5.39h-5.39z"/><circle class="cls-3" cx="605.09" cy="193.71" r="2.26"/><path class="cls-18" d="M532.33 233a6.2 6.2 0 0 1 2.81 2.37 9.54 9.54 0 0 1 .92 1.64 9.16 9.16 0 0 1-1.72.75 6.28 6.28 0 0 1-3.67.19c-2.5-.76-3.76-3.85-3.83-4.06.16-.15 3.05-1.84 5.49-.89zm96.24-33.6a6.22 6.22 0 0 1-2.36 2.8 9 9 0 0 1-1.65.92 9.47 9.47 0 0 1-.75-1.73 6.19 6.19 0 0 1-.18-3.67c.75-2.5 3.84-3.76 4-3.83.16.17 1.85 3.11.94 5.51z"/><path class="cls-17" d="M554.18 230.08a6.17 6.17 0 0 1-2.36 2.8 9.5 9.5 0 0 1-1.65.93 9.08 9.08 0 0 1-.75-1.73 6.17 6.17 0 0 1-.18-3.66c.75-2.5 3.84-3.76 4-3.84.16.17 1.85 3.06.94 5.5z"/></g></g></svg>